G04*
G04 #@! TF.GenerationSoftware,Altium Limited,Altium Designer,21.2.0 (30)*
G04*
G04 Layer_Color=8388736*
%FSLAX24Y24*%
%MOIN*%
G70*
G04*
G04 #@! TF.SameCoordinates,7FD8D1C1-8453-446E-9C5A-4270D5F62F01*
G04*
G04*
G04 #@! TF.FilePolarity,Negative*
G04*
G01*
G75*
G04:AMPARAMS|DCode=21|XSize=67.1mil|YSize=47.4mil|CornerRadius=0mil|HoleSize=0mil|Usage=FLASHONLY|Rotation=45.000|XOffset=0mil|YOffset=0mil|HoleType=Round|Shape=Rectangle|*
%AMROTATEDRECTD21*
4,1,4,-0.0070,-0.0405,-0.0405,-0.0070,0.0070,0.0405,0.0405,0.0070,-0.0070,-0.0405,0.0*
%
%ADD21ROTATEDRECTD21*%

G04:AMPARAMS|DCode=22|XSize=67.1mil|YSize=47.4mil|CornerRadius=13.8mil|HoleSize=0mil|Usage=FLASHONLY|Rotation=45.000|XOffset=0mil|YOffset=0mil|HoleType=Round|Shape=RoundedRectangle|*
%AMROUNDEDRECTD22*
21,1,0.0671,0.0197,0,0,45.0*
21,1,0.0394,0.0474,0,0,45.0*
1,1,0.0277,0.0209,0.0070*
1,1,0.0277,-0.0070,-0.0209*
1,1,0.0277,-0.0209,-0.0070*
1,1,0.0277,0.0070,0.0209*
%
%ADD22ROUNDEDRECTD22*%
%ADD23R,0.0340X0.0280*%
%ADD24R,0.0277X0.0671*%
G04:AMPARAMS|DCode=25|XSize=28mil|YSize=28mil|CornerRadius=9mil|HoleSize=0mil|Usage=FLASHONLY|Rotation=90.000|XOffset=0mil|YOffset=0mil|HoleType=Round|Shape=RoundedRectangle|*
%AMROUNDEDRECTD25*
21,1,0.0280,0.0100,0,0,90.0*
21,1,0.0100,0.0280,0,0,90.0*
1,1,0.0180,0.0050,0.0050*
1,1,0.0180,0.0050,-0.0050*
1,1,0.0180,-0.0050,-0.0050*
1,1,0.0180,-0.0050,0.0050*
%
%ADD25ROUNDEDRECTD25*%
%ADD26R,0.0720X0.0433*%
%ADD27R,0.1261X0.0218*%
%ADD28C,0.0474*%
%ADD29C,0.0513*%
%ADD30O,0.0434X0.0671*%
%ADD31O,0.0867X0.0552*%
%ADD32O,0.1025X0.0552*%
D21*
X9836Y3613D02*
D03*
X12063Y1386D02*
D03*
X11465Y3794D02*
D03*
X11855Y3405D02*
D03*
X12244Y3015D02*
D03*
X10045Y1595D02*
D03*
X9655Y1985D02*
D03*
D22*
X10435Y1205D02*
D03*
D23*
X1600Y1200D02*
D03*
X1120D02*
D03*
X2310D02*
D03*
X2790D02*
D03*
X1590Y1800D02*
D03*
X1110D02*
D03*
D24*
X9189Y1350D02*
D03*
X7811Y1350D02*
D03*
D25*
X2350Y1800D02*
D03*
X2750D02*
D03*
D26*
X1099Y2570D02*
D03*
Y3200D02*
D03*
Y3830D02*
D03*
X2900D02*
D03*
Y3200D02*
D03*
Y2570D02*
D03*
D27*
X5100Y5548D02*
D03*
Y8579D02*
D03*
Y8855D02*
D03*
Y8304D02*
D03*
Y7477D02*
D03*
Y7201D02*
D03*
Y7752D02*
D03*
Y8028D02*
D03*
Y6926D02*
D03*
Y6650D02*
D03*
Y6374D02*
D03*
Y6099D02*
D03*
Y5823D02*
D03*
D28*
X11479Y1971D02*
D03*
D29*
X10421Y3029D02*
D03*
D30*
X7700Y512D02*
D03*
X8200D02*
D03*
X4700D02*
D03*
X4200D02*
D03*
X3700D02*
D03*
X3200D02*
D03*
X6700D02*
D03*
X6200D02*
D03*
X5700D02*
D03*
X5200D02*
D03*
X8700D02*
D03*
X7200D02*
D03*
X4700Y10512D02*
D03*
X4200D02*
D03*
X3700D02*
D03*
X3200D02*
D03*
X6700D02*
D03*
X6200D02*
D03*
X5700D02*
D03*
X5200D02*
D03*
X8700D02*
D03*
X8200D02*
D03*
X7700D02*
D03*
X7200D02*
D03*
D31*
X10924Y9513D02*
D03*
Y5087D02*
D03*
D32*
X12499D02*
D03*
Y9513D02*
D03*
M02*
