G04*
G04 #@! TF.GenerationSoftware,Altium Limited,Altium Designer,21.2.0 (30)*
G04*
G04 Layer_Color=16711935*
%FSLAX24Y24*%
%MOIN*%
G70*
G04*
G04 #@! TF.SameCoordinates,7FD8D1C1-8453-446E-9C5A-4270D5F62F01*
G04*
G04*
G04 #@! TF.FilePolarity,Positive*
G04*
G01*
G75*
G36*
X3282Y9394D02*
X3066D01*
Y9787D01*
X3282D01*
Y9394D01*
D02*
G37*
G36*
X2908D02*
X2692D01*
Y9787D01*
X2908D01*
Y9394D01*
D02*
G37*
G36*
X2534D02*
X2318D01*
Y9787D01*
X2534D01*
Y9394D01*
D02*
G37*
G36*
X3282Y8213D02*
X3066D01*
Y8606D01*
X3282D01*
Y8213D01*
D02*
G37*
G36*
X2534D02*
X2318D01*
Y8606D01*
X2534D01*
Y8213D01*
D02*
G37*
G36*
X2984Y3633D02*
X2590D01*
Y4027D01*
X2984D01*
Y3633D01*
D02*
G37*
G36*
X1409D02*
X1015D01*
Y4027D01*
X1409D01*
Y3633D01*
D02*
G37*
G36*
X2984Y3003D02*
X2590D01*
Y3397D01*
X2984D01*
Y3003D01*
D02*
G37*
G36*
X1409D02*
X1015D01*
Y3397D01*
X1409D01*
Y3003D01*
D02*
G37*
G36*
X2984Y2373D02*
X2590D01*
Y2767D01*
X2984D01*
Y2373D01*
D02*
G37*
G36*
X1409D02*
X1015D01*
Y2767D01*
X1409D01*
Y2373D01*
D02*
G37*
M02*
