G04*
G04 #@! TF.GenerationSoftware,Altium Limited,Altium Designer,21.2.0 (30)*
G04*
G04 Layer_Color=32896*
%FSLAX24Y24*%
%MOIN*%
G70*
G04*
G04 #@! TF.SameCoordinates,7FD8D1C1-8453-446E-9C5A-4270D5F62F01*
G04*
G04*
G04 #@! TF.FilePolarity,Positive*
G04*
G01*
G75*
%ADD10C,0.0100*%
%ADD13C,0.0080*%
%ADD33C,0.0118*%
%ADD38C,0.0060*%
%ADD88C,0.0079*%
%ADD89C,0.0098*%
%ADD90C,0.0039*%
%ADD91R,0.1091X0.0150*%
G36*
X5774Y6264D02*
X5903D01*
X5900Y6264D01*
X5895D01*
X5889Y6263D01*
X5883Y6262D01*
X5876Y6261D01*
X5862Y6259D01*
X5847Y6255D01*
X5833Y6249D01*
X5826Y6246D01*
X5820Y6242D01*
X5820D01*
X5819Y6241D01*
X5815Y6238D01*
X5810Y6233D01*
X5804Y6225D01*
X5801Y6221D01*
X5798Y6216D01*
X5795Y6210D01*
X5792Y6204D01*
X5789Y6197D01*
X5787Y6190D01*
X5785Y6181D01*
X5784Y6173D01*
X5872Y6168D01*
Y6169D01*
X5873Y6171D01*
X5874Y6175D01*
X5876Y6180D01*
X5878Y6184D01*
X5880Y6189D01*
X5883Y6194D01*
X5887Y6198D01*
X5888Y6199D01*
X5890Y6200D01*
X5892Y6201D01*
X5895Y6203D01*
X5900Y6205D01*
X5905Y6206D01*
X5911Y6207D01*
X5918Y6208D01*
X5921D01*
X5924Y6207D01*
X5928Y6206D01*
X5936Y6205D01*
X5940Y6203D01*
X5943Y6200D01*
X5944Y6200D01*
X5945Y6199D01*
X5947Y6196D01*
X5950Y6190D01*
X5951Y6187D01*
X5951Y6184D01*
Y6183D01*
Y6183D01*
X5950Y6179D01*
X5948Y6175D01*
X5947Y6173D01*
X5945Y6170D01*
X5944D01*
X5943Y6169D01*
X5941Y6168D01*
X5938Y6166D01*
X5934Y6165D01*
X5928Y6163D01*
X5922Y6161D01*
X5913Y6159D01*
X5913D01*
X5911Y6159D01*
X5907Y6158D01*
X5903Y6157D01*
X5898Y6156D01*
X5892Y6154D01*
X5886Y6153D01*
X5879Y6151D01*
X5865Y6147D01*
X5850Y6142D01*
X5836Y6137D01*
X5830Y6135D01*
X5825Y6132D01*
X5824D01*
X5824Y6131D01*
X5820Y6130D01*
X5816Y6127D01*
X5810Y6123D01*
X5804Y6118D01*
X5797Y6113D01*
X5791Y6106D01*
X5786Y6099D01*
X5785Y6098D01*
X5784Y6095D01*
X5782Y6091D01*
X5780Y6085D01*
X5778Y6079D01*
X5775Y6072D01*
X5774Y6063D01*
X5774Y6054D01*
Y6063D01*
Y5950D01*
X5123D01*
Y5955D01*
X5222D01*
X5209D01*
Y6157D01*
X5210Y6156D01*
X5212Y6154D01*
X5216Y6151D01*
X5221Y6148D01*
X5227Y6144D01*
X5235Y6139D01*
X5242Y6135D01*
X5249Y6131D01*
X5250Y6130D01*
X5252Y6129D01*
X5257Y6128D01*
X5262Y6125D01*
X5270Y6123D01*
X5277Y6119D01*
X5287Y6116D01*
X5297Y6113D01*
Y5968D01*
Y6183D01*
Y6182D01*
X5297D01*
X5296Y6183D01*
X5294Y6184D01*
X5290Y6184D01*
X5287Y6186D01*
X5282Y6188D01*
X5273Y6191D01*
X5262Y6196D01*
X5251Y6202D01*
X5240Y6208D01*
X5231Y6215D01*
X5230D01*
X5230Y6216D01*
X5227Y6219D01*
X5222Y6223D01*
X5217Y6229D01*
X5211Y6236D01*
X5205Y6244D01*
X5199Y6254D01*
X5193Y6264D01*
X5297D01*
D01*
X5123D01*
D01*
X6050D01*
X5774D01*
D02*
G37*
G36*
X6050Y5955D02*
Y5950D01*
X5916D01*
X5922Y5951D01*
X5928Y5951D01*
X5935Y5952D01*
X5943Y5952D01*
X5952Y5954D01*
X5970Y5957D01*
X5987Y5962D01*
X5996Y5966D01*
X6003Y5970D01*
X6011Y5974D01*
X6017Y5979D01*
X6017Y5980D01*
X6018Y5981D01*
X6019Y5983D01*
X6021Y5985D01*
X6023Y5988D01*
X6026Y5991D01*
X6029Y5996D01*
X6032Y6000D01*
X6038Y6011D01*
X6043Y6024D01*
X6047Y6039D01*
X6049Y6047D01*
X6050Y6055D01*
X5961Y6062D01*
Y6060D01*
X5960Y6058D01*
X5960Y6054D01*
X5958Y6049D01*
X5955Y6038D01*
X5952Y6033D01*
X5949Y6028D01*
X5948Y6028D01*
X5946Y6025D01*
X5943Y6023D01*
X5938Y6019D01*
X5932Y6015D01*
X5925Y6013D01*
X5917Y6010D01*
X5907Y6010D01*
X5904D01*
X5901Y6010D01*
X5896Y6011D01*
X5891Y6012D01*
X5886Y6014D01*
X5881Y6016D01*
X5876Y6019D01*
X5876Y6019D01*
X5875Y6020D01*
X5873Y6023D01*
X5871Y6025D01*
X5869Y6028D01*
X5867Y6032D01*
X5866Y6037D01*
X5865Y6041D01*
Y6042D01*
Y6043D01*
X5866Y6045D01*
X5866Y6048D01*
X5868Y6052D01*
X5870Y6055D01*
X5872Y6059D01*
X5876Y6062D01*
X5876Y6063D01*
X5878Y6064D01*
X5881Y6065D01*
X5886Y6068D01*
X5892Y6070D01*
X5901Y6074D01*
X5906Y6075D01*
X5911Y6077D01*
X5917Y6078D01*
X5924Y6080D01*
X5925D01*
X5927Y6080D01*
X5930Y6082D01*
X5934Y6082D01*
X5939Y6084D01*
X5945Y6085D01*
X5951Y6087D01*
X5958Y6089D01*
X5973Y6095D01*
X5987Y6101D01*
X6001Y6108D01*
X6007Y6112D01*
X6012Y6116D01*
Y6117D01*
X6013Y6118D01*
X6016Y6120D01*
X6021Y6125D01*
X6025Y6133D01*
X6030Y6141D01*
X6034Y6151D01*
X6037Y6162D01*
X6038Y6168D01*
X6038Y6175D01*
Y6175D01*
Y6176D01*
Y6179D01*
X6038Y6184D01*
X6037Y6189D01*
X6035Y6196D01*
X6033Y6204D01*
X6029Y6211D01*
X6025Y6219D01*
X6024Y6220D01*
X6022Y6223D01*
X6019Y6226D01*
X6014Y6231D01*
X6009Y6236D01*
X6002Y6242D01*
X5993Y6247D01*
X5984Y6252D01*
X5983D01*
X5983Y6252D01*
X5981Y6253D01*
X5979Y6254D01*
X5976Y6255D01*
X5973Y6256D01*
X5969Y6257D01*
X5965Y6258D01*
X5960Y6259D01*
X5953Y6260D01*
X5941Y6262D01*
X5926Y6264D01*
X5909Y6264D01*
X6050D01*
D01*
Y5955D01*
D02*
G37*
G36*
X5775Y6043D02*
X5776Y6036D01*
X5778Y6028D01*
X5781Y6018D01*
X5785Y6009D01*
X5790Y5999D01*
X5791Y5998D01*
X5793Y5996D01*
X5797Y5991D01*
X5802Y5986D01*
X5809Y5979D01*
X5816Y5973D01*
X5825Y5968D01*
X5836Y5962D01*
X5836D01*
X5837Y5962D01*
X5839Y5961D01*
X5841Y5961D01*
X5844Y5959D01*
X5847Y5958D01*
X5851Y5957D01*
X5856Y5956D01*
X5866Y5954D01*
X5879Y5952D01*
X5893Y5951D01*
X5909Y5950D01*
X5774D01*
Y6049D01*
X5775Y6043D01*
D02*
G37*
G36*
X269Y2013D02*
X269Y2011D01*
X268Y2007D01*
X267Y2003D01*
X266Y1997D01*
X265Y1991D01*
Y1991D01*
X265Y1990D01*
X264Y1988D01*
X264Y1986D01*
X261Y1981D01*
X259Y1978D01*
X256Y1976D01*
X255Y1975D01*
X254Y1975D01*
X253Y1974D01*
X251Y1972D01*
X245Y1971D01*
X242Y1970D01*
X238D01*
X237D01*
X236D01*
X233Y1970D01*
X230Y1971D01*
X226Y1972D01*
X222Y1974D01*
X219Y1976D01*
X216Y1979D01*
X215Y1980D01*
X215Y1981D01*
X213Y1983D01*
X211Y1987D01*
X210Y1992D01*
X209Y1998D01*
X208Y2006D01*
X207Y2015D01*
Y2056D01*
X269D01*
Y2013D01*
D02*
G37*
G36*
X450Y1957D02*
X357Y2007D01*
X357Y2008D01*
X355Y2009D01*
X351Y2011D01*
X348Y2013D01*
X340Y2018D01*
X337Y2022D01*
X334Y2025D01*
X333Y2025D01*
X333Y2026D01*
X332Y2028D01*
X330Y2031D01*
X329Y2035D01*
X328Y2038D01*
X327Y2043D01*
X327Y2048D01*
Y2056D01*
X450D01*
Y1957D01*
D02*
G37*
G36*
X455Y806D02*
X450D01*
X303D01*
X309Y806D01*
X316Y807D01*
X324Y807D01*
X332Y808D01*
X342Y809D01*
X362Y812D01*
X382Y817D01*
X391Y821D01*
X401Y825D01*
X409Y829D01*
X417Y834D01*
X417Y835D01*
X418Y835D01*
X420Y837D01*
X423Y840D01*
X426Y843D01*
X429Y847D01*
X432Y851D01*
X436Y857D01*
X439Y863D01*
X443Y870D01*
X446Y878D01*
X449Y887D01*
X452Y896D01*
X453Y907D01*
X454Y918D01*
X455Y931D01*
Y937D01*
X454Y941D01*
Y944D01*
X453Y953D01*
X452Y963D01*
X450Y973D01*
X447Y984D01*
X443Y993D01*
X442Y994D01*
X441Y997D01*
X438Y1002D01*
X434Y1007D01*
X429Y1013D01*
X423Y1019D01*
X416Y1026D01*
X407Y1032D01*
X407Y1033D01*
X404Y1034D01*
X401Y1036D01*
X395Y1038D01*
X389Y1041D01*
X381Y1044D01*
X372Y1047D01*
X362Y1049D01*
X361D01*
X361D01*
X359Y1049D01*
X357Y1050D01*
X351Y1051D01*
X342Y1052D01*
X333Y1053D01*
X322Y1054D01*
X310Y1054D01*
X297Y1055D01*
X455D01*
X141D01*
Y1254D01*
X146D01*
X141D01*
Y1384D01*
X141Y1380D01*
Y1375D01*
X142Y1369D01*
X143Y1363D01*
X144Y1356D01*
X146Y1342D01*
X150Y1327D01*
X156Y1313D01*
X159Y1306D01*
X163Y1300D01*
Y1300D01*
X164Y1299D01*
X167Y1295D01*
X172Y1290D01*
X180Y1284D01*
X184Y1281D01*
X189Y1278D01*
X195Y1275D01*
X201Y1272D01*
X208Y1269D01*
X215Y1267D01*
X224Y1265D01*
X232Y1264D01*
X237Y1352D01*
X236D01*
X234Y1353D01*
X230Y1354D01*
X225Y1356D01*
X221Y1358D01*
X216Y1360D01*
X211Y1364D01*
X207Y1367D01*
X206Y1368D01*
X205Y1370D01*
X204Y1372D01*
X202Y1375D01*
X200Y1380D01*
X199Y1385D01*
X198Y1391D01*
X197Y1399D01*
Y1401D01*
X198Y1404D01*
X199Y1408D01*
X200Y1416D01*
X202Y1420D01*
X205Y1424D01*
X205Y1424D01*
X206Y1425D01*
X209Y1427D01*
X215Y1430D01*
X218Y1431D01*
X221Y1431D01*
X222D01*
X222D01*
X226Y1430D01*
X230Y1428D01*
X232Y1427D01*
X235Y1425D01*
Y1424D01*
X236Y1423D01*
X237Y1421D01*
X239Y1418D01*
X240Y1414D01*
X242Y1409D01*
X244Y1402D01*
X246Y1394D01*
Y1393D01*
X246Y1391D01*
X247Y1387D01*
X248Y1384D01*
X249Y1379D01*
X251Y1372D01*
X252Y1366D01*
X254Y1359D01*
X258Y1345D01*
X263Y1330D01*
X268Y1316D01*
X270Y1310D01*
X273Y1305D01*
Y1304D01*
X274Y1304D01*
X275Y1300D01*
X278Y1296D01*
X282Y1290D01*
X287Y1284D01*
X292Y1277D01*
X299Y1271D01*
X306Y1266D01*
X307Y1265D01*
X310Y1264D01*
X314Y1262D01*
X320Y1260D01*
X326Y1258D01*
X333Y1255D01*
X342Y1254D01*
X351Y1254D01*
X356D01*
X362Y1255D01*
X369Y1256D01*
X377Y1258D01*
X387Y1261D01*
X396Y1265D01*
X406Y1270D01*
X407Y1271D01*
X409Y1273D01*
X414Y1277D01*
X419Y1282D01*
X426Y1289D01*
X432Y1296D01*
X437Y1305D01*
X443Y1316D01*
Y1316D01*
X443Y1317D01*
X444Y1319D01*
X444Y1321D01*
X446Y1324D01*
X447Y1327D01*
X448Y1331D01*
X449Y1336D01*
X451Y1346D01*
X453Y1359D01*
X454Y1373D01*
X455Y1389D01*
Y1396D01*
X454Y1402D01*
X454Y1408D01*
X453Y1415D01*
X453Y1423D01*
X451Y1432D01*
X448Y1450D01*
X443Y1467D01*
X439Y1476D01*
X435Y1483D01*
X431Y1491D01*
X426Y1497D01*
X425Y1497D01*
X424Y1498D01*
X422Y1500D01*
X420Y1501D01*
X417Y1503D01*
X414Y1506D01*
X409Y1509D01*
X405Y1512D01*
X394Y1518D01*
X381Y1523D01*
X366Y1527D01*
X358Y1529D01*
X350Y1530D01*
D01*
X343Y1441D01*
X345D01*
X347Y1440D01*
X351Y1440D01*
X356Y1438D01*
X367Y1435D01*
X372Y1432D01*
X377Y1429D01*
X377Y1428D01*
X380Y1426D01*
X382Y1423D01*
X386Y1419D01*
X389Y1412D01*
X392Y1405D01*
X395Y1397D01*
X395Y1387D01*
Y1384D01*
X395Y1381D01*
X394Y1376D01*
X393Y1371D01*
X391Y1366D01*
X389Y1361D01*
X386Y1356D01*
X386Y1356D01*
X385Y1355D01*
X382Y1353D01*
X380Y1351D01*
X377Y1349D01*
X373Y1347D01*
X368Y1346D01*
X364Y1345D01*
X363D01*
X362D01*
X360Y1346D01*
X357Y1346D01*
X353Y1348D01*
X350Y1350D01*
X346Y1352D01*
X343Y1356D01*
X342Y1356D01*
X341Y1358D01*
X340Y1361D01*
X337Y1366D01*
X335Y1372D01*
X331Y1381D01*
X330Y1386D01*
X328Y1391D01*
X327Y1397D01*
X325Y1404D01*
Y1405D01*
X325Y1407D01*
X323Y1410D01*
X323Y1414D01*
X321Y1419D01*
X320Y1425D01*
X318Y1431D01*
X316Y1438D01*
X310Y1453D01*
X304Y1467D01*
X297Y1481D01*
X293Y1487D01*
X288Y1492D01*
X288D01*
X287Y1493D01*
X285Y1496D01*
X280Y1501D01*
X272Y1505D01*
X264Y1510D01*
X254Y1515D01*
X243Y1517D01*
X237Y1518D01*
X230Y1518D01*
X230D01*
X229D01*
X226D01*
X221Y1518D01*
X216Y1517D01*
X209Y1515D01*
X201Y1513D01*
X194Y1510D01*
X186Y1505D01*
X185Y1505D01*
X182Y1502D01*
X179Y1499D01*
X174Y1495D01*
X169Y1489D01*
X163Y1482D01*
X158Y1473D01*
X153Y1464D01*
Y1463D01*
X153Y1463D01*
X152Y1461D01*
X151Y1459D01*
X150Y1456D01*
X149Y1453D01*
X148Y1449D01*
X147Y1445D01*
X146Y1440D01*
X145Y1434D01*
X143Y1421D01*
X141Y1406D01*
X141Y1389D01*
Y1530D01*
X141D01*
Y1561D01*
X220D01*
X141D01*
Y1690D01*
X141Y1687D01*
Y1682D01*
X142Y1676D01*
X143Y1670D01*
X144Y1663D01*
X146Y1649D01*
X150Y1634D01*
X156Y1620D01*
X159Y1613D01*
X163Y1607D01*
Y1607D01*
X164Y1606D01*
X167Y1602D01*
X172Y1597D01*
X180Y1591D01*
X184Y1588D01*
X189Y1585D01*
X195Y1582D01*
X201Y1579D01*
X208Y1576D01*
X215Y1574D01*
X224Y1572D01*
X232Y1571D01*
X237Y1659D01*
X236D01*
X234Y1660D01*
X230Y1661D01*
X225Y1663D01*
X221Y1665D01*
X216Y1667D01*
X211Y1670D01*
X207Y1674D01*
X206Y1675D01*
X205Y1677D01*
X204Y1679D01*
X202Y1682D01*
X200Y1687D01*
X199Y1692D01*
X198Y1698D01*
X197Y1705D01*
Y1708D01*
X198Y1711D01*
X199Y1715D01*
X200Y1723D01*
X202Y1727D01*
X205Y1730D01*
X205Y1731D01*
X206Y1732D01*
X209Y1734D01*
X215Y1737D01*
X218Y1738D01*
X221Y1738D01*
X222D01*
X222D01*
X226Y1737D01*
X230Y1735D01*
X232Y1734D01*
X235Y1732D01*
Y1731D01*
X236Y1730D01*
X237Y1728D01*
X239Y1725D01*
X240Y1721D01*
X242Y1715D01*
X244Y1709D01*
X246Y1700D01*
Y1700D01*
X246Y1698D01*
X247Y1694D01*
X248Y1690D01*
X249Y1685D01*
X251Y1679D01*
X252Y1673D01*
X254Y1666D01*
X258Y1652D01*
X263Y1637D01*
X268Y1623D01*
X270Y1617D01*
X273Y1612D01*
Y1611D01*
X274Y1611D01*
X275Y1607D01*
X278Y1603D01*
X282Y1597D01*
X287Y1591D01*
X292Y1584D01*
X299Y1578D01*
X306Y1573D01*
X307Y1572D01*
X310Y1571D01*
X314Y1569D01*
X320Y1567D01*
X326Y1564D01*
X333Y1562D01*
X342Y1561D01*
X351Y1561D01*
X356D01*
X362Y1562D01*
X369Y1563D01*
X377Y1564D01*
X387Y1568D01*
X396Y1572D01*
X406Y1577D01*
X407Y1578D01*
X409Y1580D01*
X414Y1584D01*
X419Y1589D01*
X426Y1596D01*
X432Y1603D01*
X437Y1612D01*
X443Y1623D01*
Y1623D01*
X443Y1624D01*
X444Y1626D01*
X444Y1628D01*
X446Y1631D01*
X447Y1634D01*
X448Y1638D01*
X449Y1643D01*
X451Y1653D01*
X453Y1666D01*
X454Y1680D01*
X455Y1696D01*
Y1561D01*
D01*
D01*
Y1837D01*
Y1703D01*
X454Y1709D01*
X454Y1715D01*
X453Y1722D01*
X453Y1730D01*
X451Y1739D01*
X448Y1757D01*
X443Y1774D01*
X439Y1783D01*
X435Y1790D01*
X431Y1798D01*
X426Y1804D01*
X425Y1804D01*
X424Y1805D01*
X422Y1806D01*
X420Y1808D01*
X417Y1810D01*
X414Y1813D01*
X409Y1816D01*
X405Y1819D01*
X394Y1825D01*
X381Y1830D01*
X366Y1834D01*
X358Y1836D01*
X350Y1837D01*
D01*
X343Y1748D01*
X345D01*
X347Y1747D01*
X351Y1747D01*
X356Y1745D01*
X367Y1742D01*
X372Y1739D01*
X377Y1736D01*
X377Y1735D01*
X380Y1733D01*
X382Y1730D01*
X386Y1725D01*
X389Y1719D01*
X392Y1712D01*
X395Y1704D01*
X395Y1694D01*
Y1691D01*
X395Y1688D01*
X394Y1683D01*
X393Y1678D01*
X391Y1673D01*
X389Y1668D01*
X386Y1663D01*
X386Y1663D01*
X385Y1662D01*
X382Y1660D01*
X380Y1658D01*
X377Y1655D01*
X373Y1654D01*
X368Y1653D01*
X364Y1652D01*
X363D01*
X362D01*
X360Y1653D01*
X357Y1653D01*
X353Y1655D01*
X350Y1657D01*
X346Y1659D01*
X343Y1663D01*
X342Y1663D01*
X341Y1665D01*
X340Y1668D01*
X337Y1673D01*
X335Y1679D01*
X331Y1688D01*
X330Y1693D01*
X328Y1698D01*
X327Y1704D01*
X325Y1711D01*
Y1712D01*
X325Y1714D01*
X323Y1717D01*
X323Y1721D01*
X321Y1726D01*
X320Y1732D01*
X318Y1738D01*
X316Y1745D01*
X310Y1760D01*
X304Y1774D01*
X297Y1788D01*
X293Y1794D01*
X288Y1799D01*
X288D01*
X287Y1800D01*
X285Y1803D01*
X280Y1808D01*
X272Y1812D01*
X264Y1817D01*
X254Y1821D01*
X243Y1824D01*
X237Y1825D01*
X230Y1825D01*
X230D01*
X229D01*
X226D01*
X221Y1825D01*
X216Y1824D01*
X209Y1822D01*
X201Y1820D01*
X194Y1816D01*
X186Y1812D01*
X185Y1811D01*
X182Y1809D01*
X179Y1806D01*
X174Y1801D01*
X169Y1796D01*
X163Y1789D01*
X158Y1780D01*
X153Y1771D01*
Y1770D01*
X153Y1770D01*
X152Y1768D01*
X151Y1766D01*
X150Y1763D01*
X149Y1760D01*
X148Y1756D01*
X147Y1752D01*
X146Y1747D01*
X145Y1740D01*
X143Y1728D01*
X141Y1713D01*
X141Y1696D01*
Y1837D01*
X141D01*
Y2150D01*
X450D01*
X146D01*
Y1982D01*
X146Y1979D01*
X147Y1969D01*
X148Y1958D01*
X149Y1947D01*
X151Y1936D01*
X154Y1927D01*
X154Y1926D01*
X155Y1923D01*
X157Y1919D01*
X160Y1914D01*
X164Y1907D01*
X169Y1901D01*
X174Y1895D01*
X181Y1890D01*
X182Y1889D01*
X185Y1887D01*
X189Y1885D01*
X195Y1882D01*
X202Y1880D01*
X211Y1877D01*
X220Y1876D01*
X231Y1875D01*
X232D01*
X235D01*
X240Y1876D01*
X246Y1876D01*
X252Y1878D01*
X260Y1880D01*
X267Y1882D01*
X275Y1886D01*
X275Y1887D01*
X277Y1888D01*
X281Y1891D01*
X285Y1894D01*
X290Y1899D01*
X295Y1904D01*
X300Y1910D01*
X304Y1916D01*
X305Y1917D01*
X305Y1919D01*
X307Y1921D01*
X308Y1925D01*
X310Y1930D01*
X312Y1935D01*
X314Y1942D01*
X316Y1949D01*
Y1949D01*
X317Y1946D01*
X318Y1944D01*
X320Y1940D01*
X323Y1932D01*
X325Y1928D01*
X327Y1925D01*
X328Y1924D01*
X329Y1922D01*
X331Y1921D01*
X333Y1919D01*
X336Y1916D01*
X339Y1913D01*
X343Y1910D01*
X344Y1909D01*
X346Y1908D01*
X348Y1906D01*
X350Y1904D01*
X357Y1900D01*
X360Y1898D01*
X362Y1896D01*
X450Y1850D01*
Y2150D01*
X455D01*
Y806D01*
D02*
G37*
G36*
X283Y1054D02*
X276Y1054D01*
X267Y1053D01*
X259Y1052D01*
X249Y1051D01*
X229Y1047D01*
X209Y1042D01*
X200Y1038D01*
X191Y1034D01*
X183Y1029D01*
X176Y1024D01*
X175Y1023D01*
X174Y1022D01*
X172Y1021D01*
X170Y1018D01*
X168Y1014D01*
X165Y1011D01*
X161Y1006D01*
X158Y1000D01*
X155Y994D01*
X152Y987D01*
X149Y979D01*
X146Y971D01*
X144Y961D01*
X143Y951D01*
X141Y940D01*
X141Y928D01*
Y1055D01*
X288D01*
X283Y1054D01*
D02*
G37*
G36*
X311Y971D02*
X316D01*
X328Y970D01*
X342Y969D01*
X355Y967D01*
X361Y966D01*
X367Y965D01*
X372Y963D01*
X376Y961D01*
X377Y961D01*
X380Y959D01*
X383Y957D01*
X387Y953D01*
X391Y949D01*
X394Y944D01*
X396Y938D01*
X397Y931D01*
Y929D01*
X397Y926D01*
X396Y923D01*
X395Y920D01*
X393Y916D01*
X391Y912D01*
X388Y908D01*
X388Y908D01*
X387Y907D01*
X385Y905D01*
X382Y903D01*
X377Y901D01*
X373Y898D01*
X367Y896D01*
X360Y895D01*
X359D01*
X356Y894D01*
X352Y893D01*
X345Y892D01*
X337Y891D01*
X326Y890D01*
X314Y890D01*
X300D01*
X299D01*
X297D01*
X294D01*
X290D01*
X285Y890D01*
X279D01*
X267Y891D01*
X253Y892D01*
X240Y894D01*
X234Y895D01*
X227Y897D01*
X222Y898D01*
X218Y900D01*
X217Y901D01*
X215Y902D01*
X211Y905D01*
X207Y908D01*
X204Y912D01*
X200Y918D01*
X198Y924D01*
X197Y931D01*
Y932D01*
X197Y935D01*
X198Y938D01*
X200Y943D01*
X202Y948D01*
X206Y953D01*
X211Y958D01*
X219Y962D01*
X220Y962D01*
X221Y963D01*
X223Y963D01*
X225Y964D01*
X228Y965D01*
X232Y966D01*
X236Y966D01*
X241Y967D01*
X247Y968D01*
X254Y969D01*
X260Y970D01*
X269Y970D01*
X277Y971D01*
X286Y971D01*
X297D01*
X297D01*
X300D01*
X302D01*
X306D01*
X311Y971D01*
D02*
G37*
G36*
X141Y918D02*
X142Y911D01*
X143Y903D01*
X144Y895D01*
X146Y886D01*
X149Y878D01*
X149Y877D01*
X150Y875D01*
X152Y871D01*
X154Y867D01*
X157Y862D01*
X160Y856D01*
X164Y851D01*
X169Y846D01*
X169Y846D01*
X171Y844D01*
X173Y842D01*
X176Y839D01*
X180Y836D01*
X184Y832D01*
X194Y826D01*
X195Y826D01*
X196Y825D01*
X199Y824D01*
X203Y822D01*
X207Y820D01*
X213Y819D01*
X219Y816D01*
X225Y815D01*
X226D01*
X227Y814D01*
X229Y814D01*
X231Y813D01*
X234Y812D01*
X238Y812D01*
X247Y810D01*
X257Y809D01*
X269Y807D01*
X282Y806D01*
X296Y806D01*
X141D01*
Y923D01*
X141Y918D01*
D02*
G37*
G36*
X950Y5551D02*
X952Y5549D01*
X956Y5546D01*
X961Y5543D01*
X967Y5539D01*
X975Y5534D01*
X982Y5530D01*
X989Y5526D01*
X990Y5525D01*
X992Y5524D01*
X997Y5523D01*
X1002Y5520D01*
X1009Y5518D01*
X1017Y5514D01*
X1027Y5512D01*
X1037Y5508D01*
Y5350D01*
X948D01*
Y5552D01*
X950Y5551D01*
D02*
G37*
G36*
X2150Y5345D02*
X1837D01*
D01*
X1703D01*
X1709Y5346D01*
X1715Y5346D01*
X1722Y5347D01*
X1730Y5347D01*
X1739Y5349D01*
X1757Y5352D01*
X1774Y5357D01*
X1783Y5361D01*
X1790Y5365D01*
X1798Y5369D01*
X1804Y5374D01*
X1804Y5375D01*
X1805Y5376D01*
X1806Y5378D01*
X1808Y5380D01*
X1810Y5383D01*
X1813Y5386D01*
X1816Y5391D01*
X1819Y5395D01*
X1825Y5406D01*
X1830Y5419D01*
X1834Y5434D01*
X1836Y5442D01*
X1837Y5450D01*
X1748Y5457D01*
Y5455D01*
X1747Y5453D01*
X1747Y5449D01*
X1745Y5444D01*
X1742Y5433D01*
X1739Y5428D01*
X1736Y5423D01*
X1735Y5423D01*
X1733Y5420D01*
X1730Y5418D01*
X1725Y5414D01*
X1719Y5410D01*
X1712Y5408D01*
X1704Y5405D01*
X1694Y5405D01*
X1691D01*
X1688Y5405D01*
X1683Y5406D01*
X1678Y5407D01*
X1673Y5409D01*
X1668Y5411D01*
X1663Y5414D01*
X1663Y5414D01*
X1662Y5415D01*
X1660Y5418D01*
X1658Y5420D01*
X1655Y5423D01*
X1654Y5427D01*
X1653Y5432D01*
X1652Y5436D01*
Y5437D01*
Y5438D01*
X1653Y5440D01*
X1653Y5443D01*
X1655Y5447D01*
X1657Y5450D01*
X1659Y5454D01*
X1663Y5457D01*
X1663Y5458D01*
X1665Y5459D01*
X1668Y5460D01*
X1673Y5463D01*
X1679Y5465D01*
X1688Y5469D01*
X1693Y5470D01*
X1698Y5472D01*
X1704Y5473D01*
X1711Y5475D01*
X1712D01*
X1714Y5475D01*
X1717Y5477D01*
X1721Y5477D01*
X1726Y5479D01*
X1732Y5480D01*
X1738Y5482D01*
X1745Y5484D01*
X1760Y5490D01*
X1774Y5496D01*
X1788Y5503D01*
X1794Y5507D01*
X1799Y5512D01*
Y5512D01*
X1800Y5513D01*
X1803Y5515D01*
X1808Y5520D01*
X1812Y5528D01*
X1817Y5536D01*
X1821Y5546D01*
X1824Y5557D01*
X1825Y5563D01*
X1825Y5570D01*
Y5570D01*
Y5571D01*
Y5574D01*
X1825Y5579D01*
X1824Y5584D01*
X1822Y5591D01*
X1820Y5599D01*
X1816Y5606D01*
X1812Y5614D01*
X1811Y5615D01*
X1809Y5618D01*
X1806Y5621D01*
X1801Y5626D01*
X1796Y5631D01*
X1789Y5637D01*
X1780Y5642D01*
X1771Y5647D01*
X1770D01*
X1770Y5647D01*
X1768Y5648D01*
X1766Y5649D01*
X1763Y5650D01*
X1760Y5651D01*
X1756Y5652D01*
X1752Y5653D01*
X1747Y5654D01*
X1740Y5655D01*
X1728Y5657D01*
X1713Y5659D01*
X1696Y5659D01*
X1837D01*
X1561D01*
X1690D01*
X1687Y5659D01*
X1682D01*
X1676Y5658D01*
X1670Y5657D01*
X1663Y5656D01*
X1649Y5654D01*
X1634Y5650D01*
X1620Y5644D01*
X1613Y5641D01*
X1607Y5637D01*
X1607D01*
X1606Y5636D01*
X1602Y5633D01*
X1597Y5627D01*
X1591Y5620D01*
X1588Y5616D01*
X1585Y5611D01*
X1582Y5605D01*
X1579Y5599D01*
X1576Y5592D01*
X1574Y5585D01*
X1572Y5576D01*
X1571Y5568D01*
X1659Y5563D01*
Y5564D01*
X1660Y5566D01*
X1661Y5570D01*
X1663Y5575D01*
X1665Y5579D01*
X1667Y5584D01*
X1670Y5589D01*
X1674Y5593D01*
X1675Y5594D01*
X1677Y5595D01*
X1679Y5596D01*
X1682Y5598D01*
X1687Y5600D01*
X1692Y5601D01*
X1698Y5602D01*
X1705Y5603D01*
X1708D01*
X1711Y5602D01*
X1715Y5601D01*
X1723Y5600D01*
X1727Y5598D01*
X1730Y5595D01*
X1731Y5595D01*
X1732Y5594D01*
X1734Y5591D01*
X1737Y5585D01*
X1738Y5582D01*
X1738Y5579D01*
Y5578D01*
Y5578D01*
X1737Y5574D01*
X1735Y5570D01*
X1734Y5568D01*
X1732Y5565D01*
X1731D01*
X1730Y5564D01*
X1728Y5563D01*
X1725Y5561D01*
X1721Y5560D01*
X1715Y5558D01*
X1709Y5556D01*
X1700Y5554D01*
X1700D01*
X1698Y5554D01*
X1694Y5553D01*
X1690Y5552D01*
X1685Y5551D01*
X1679Y5549D01*
X1673Y5548D01*
X1666Y5546D01*
X1652Y5542D01*
X1637Y5537D01*
X1623Y5532D01*
X1617Y5530D01*
X1612Y5527D01*
X1611D01*
X1611Y5526D01*
X1607Y5525D01*
X1603Y5522D01*
X1597Y5518D01*
X1591Y5513D01*
X1584Y5508D01*
X1578Y5501D01*
X1573Y5494D01*
X1572Y5493D01*
X1571Y5490D01*
X1569Y5486D01*
X1567Y5480D01*
X1564Y5474D01*
X1562Y5467D01*
X1561Y5458D01*
X1561Y5449D01*
Y5345D01*
X1530D01*
Y5346D01*
Y5345D01*
X1396D01*
X1402Y5346D01*
X1408Y5346D01*
X1415Y5347D01*
X1423Y5347D01*
X1432Y5349D01*
X1450Y5352D01*
X1467Y5357D01*
X1476Y5361D01*
X1483Y5365D01*
X1491Y5369D01*
X1497Y5374D01*
X1497Y5375D01*
X1498Y5376D01*
X1500Y5378D01*
X1501Y5380D01*
X1503Y5383D01*
X1506Y5386D01*
X1509Y5391D01*
X1512Y5395D01*
X1518Y5406D01*
X1523Y5419D01*
X1527Y5434D01*
X1529Y5442D01*
X1530Y5450D01*
X1441Y5457D01*
Y5455D01*
X1440Y5453D01*
X1440Y5449D01*
X1438Y5444D01*
X1435Y5433D01*
X1432Y5428D01*
X1429Y5423D01*
X1428Y5423D01*
X1426Y5420D01*
X1423Y5418D01*
X1419Y5414D01*
X1412Y5410D01*
X1405Y5408D01*
X1397Y5405D01*
X1387Y5405D01*
X1384D01*
X1381Y5405D01*
X1376Y5406D01*
X1371Y5407D01*
X1366Y5409D01*
X1361Y5411D01*
X1356Y5414D01*
X1356Y5414D01*
X1355Y5415D01*
X1353Y5418D01*
X1351Y5420D01*
X1349Y5423D01*
X1347Y5427D01*
X1346Y5432D01*
X1345Y5436D01*
Y5437D01*
Y5438D01*
X1346Y5440D01*
X1346Y5443D01*
X1348Y5447D01*
X1350Y5450D01*
X1352Y5454D01*
X1356Y5457D01*
X1356Y5458D01*
X1358Y5459D01*
X1361Y5460D01*
X1366Y5463D01*
X1372Y5465D01*
X1381Y5469D01*
X1386Y5470D01*
X1391Y5472D01*
X1397Y5473D01*
X1404Y5475D01*
X1405D01*
X1407Y5475D01*
X1410Y5477D01*
X1414Y5477D01*
X1419Y5479D01*
X1425Y5480D01*
X1431Y5482D01*
X1438Y5484D01*
X1453Y5490D01*
X1467Y5496D01*
X1481Y5503D01*
X1487Y5507D01*
X1492Y5512D01*
Y5512D01*
X1493Y5513D01*
X1496Y5515D01*
X1501Y5520D01*
X1505Y5528D01*
X1510Y5536D01*
X1515Y5546D01*
X1517Y5557D01*
X1518Y5563D01*
X1518Y5570D01*
Y5570D01*
Y5571D01*
Y5574D01*
X1518Y5579D01*
X1517Y5584D01*
X1515Y5591D01*
X1513Y5599D01*
X1510Y5606D01*
X1505Y5614D01*
X1505Y5615D01*
X1502Y5618D01*
X1499Y5621D01*
X1495Y5626D01*
X1489Y5631D01*
X1482Y5637D01*
X1473Y5642D01*
X1464Y5647D01*
X1463D01*
X1463Y5647D01*
X1461Y5648D01*
X1459Y5649D01*
X1456Y5650D01*
X1453Y5651D01*
X1449Y5652D01*
X1445Y5653D01*
X1440Y5654D01*
X1434Y5655D01*
X1421Y5657D01*
X1406Y5659D01*
X1389Y5659D01*
X1530D01*
X1254D01*
X1384D01*
X1380Y5659D01*
X1375D01*
X1369Y5658D01*
X1363Y5657D01*
X1356Y5656D01*
X1342Y5654D01*
X1327Y5650D01*
X1313Y5644D01*
X1306Y5641D01*
X1300Y5637D01*
X1300D01*
X1299Y5636D01*
X1295Y5633D01*
X1290Y5627D01*
X1284Y5620D01*
X1281Y5616D01*
X1278Y5611D01*
X1275Y5605D01*
X1272Y5599D01*
X1269Y5592D01*
X1267Y5585D01*
X1265Y5576D01*
X1264Y5568D01*
X1352Y5563D01*
Y5564D01*
X1353Y5566D01*
X1354Y5570D01*
X1356Y5575D01*
X1358Y5579D01*
X1360Y5584D01*
X1364Y5589D01*
X1367Y5593D01*
X1368Y5594D01*
X1370Y5595D01*
X1372Y5596D01*
X1375Y5598D01*
X1380Y5600D01*
X1385Y5601D01*
X1391Y5602D01*
X1399Y5603D01*
X1401D01*
X1404Y5602D01*
X1408Y5601D01*
X1416Y5600D01*
X1420Y5598D01*
X1424Y5595D01*
X1424Y5595D01*
X1425Y5594D01*
X1427Y5591D01*
X1430Y5585D01*
X1431Y5582D01*
X1431Y5579D01*
Y5578D01*
Y5578D01*
X1430Y5574D01*
X1428Y5570D01*
X1427Y5568D01*
X1425Y5565D01*
X1424D01*
X1423Y5564D01*
X1421Y5563D01*
X1418Y5561D01*
X1414Y5560D01*
X1409Y5558D01*
X1402Y5556D01*
X1394Y5554D01*
X1393D01*
X1391Y5554D01*
X1387Y5553D01*
X1384Y5552D01*
X1379Y5551D01*
X1372Y5549D01*
X1366Y5548D01*
X1359Y5546D01*
X1345Y5542D01*
X1330Y5537D01*
X1316Y5532D01*
X1310Y5530D01*
X1305Y5527D01*
X1304D01*
X1304Y5526D01*
X1300Y5525D01*
X1296Y5522D01*
X1290Y5518D01*
X1284Y5513D01*
X1277Y5508D01*
X1271Y5501D01*
X1266Y5494D01*
X1265Y5493D01*
X1264Y5490D01*
X1262Y5486D01*
X1260Y5480D01*
X1258Y5474D01*
X1255Y5467D01*
X1254Y5458D01*
X1254Y5449D01*
Y5346D01*
Y5444D01*
X1255Y5438D01*
X1256Y5431D01*
X1258Y5423D01*
X1261Y5413D01*
X1265Y5404D01*
X1270Y5394D01*
X1271Y5393D01*
X1273Y5391D01*
X1277Y5386D01*
X1282Y5381D01*
X1289Y5374D01*
X1296Y5368D01*
X1305Y5363D01*
X1316Y5357D01*
X1316D01*
X1317Y5357D01*
X1319Y5356D01*
X1321Y5356D01*
X1324Y5354D01*
X1327Y5353D01*
X1331Y5352D01*
X1336Y5351D01*
X1346Y5349D01*
X1359Y5347D01*
X1373Y5346D01*
X1389Y5345D01*
X1254D01*
D01*
X863D01*
Y5350D01*
X1037D01*
Y5585D01*
Y5577D01*
X1037D01*
X1036Y5578D01*
X1033Y5579D01*
X1030Y5579D01*
X1027Y5581D01*
X1022Y5583D01*
X1013Y5586D01*
X1002Y5591D01*
X991Y5597D01*
X980Y5603D01*
X971Y5610D01*
X970D01*
X970Y5611D01*
X967Y5614D01*
X962Y5618D01*
X957Y5624D01*
X951Y5631D01*
X945Y5639D01*
X938Y5649D01*
X933Y5659D01*
X863D01*
D01*
X2150D01*
Y5345D01*
D02*
G37*
G36*
X1562Y5438D02*
X1563Y5431D01*
X1564Y5423D01*
X1568Y5413D01*
X1572Y5404D01*
X1577Y5394D01*
X1578Y5393D01*
X1580Y5391D01*
X1584Y5386D01*
X1589Y5381D01*
X1596Y5374D01*
X1603Y5368D01*
X1612Y5363D01*
X1623Y5357D01*
X1623D01*
X1624Y5357D01*
X1626Y5356D01*
X1628Y5356D01*
X1631Y5354D01*
X1634Y5353D01*
X1638Y5352D01*
X1643Y5351D01*
X1653Y5349D01*
X1666Y5347D01*
X1680Y5346D01*
X1696Y5345D01*
X1561D01*
Y5444D01*
X1562Y5438D01*
D02*
G37*
G36*
X890Y6995D02*
D01*
Y7000D01*
Y6995D01*
D02*
G37*
G36*
X1200Y7000D02*
Y6995D01*
X1045D01*
X1049Y6996D01*
X1054D01*
X1059Y6996D01*
X1065Y6997D01*
X1072Y6997D01*
X1086Y6999D01*
X1101Y7003D01*
X1115Y7007D01*
X1129Y7013D01*
X1130D01*
X1131Y7014D01*
X1132Y7016D01*
X1135Y7017D01*
X1141Y7021D01*
X1148Y7027D01*
X1157Y7034D01*
X1166Y7044D01*
X1174Y7055D01*
X1182Y7068D01*
Y7068D01*
X1182Y7069D01*
X1183Y7072D01*
X1184Y7074D01*
X1186Y7078D01*
X1187Y7082D01*
X1189Y7087D01*
X1191Y7092D01*
X1193Y7098D01*
X1194Y7104D01*
X1197Y7119D01*
X1199Y7135D01*
X1200Y7152D01*
Y7157D01*
X1199Y7160D01*
Y7165D01*
X1199Y7170D01*
X1198Y7175D01*
X1197Y7181D01*
X1195Y7195D01*
X1191Y7209D01*
X1186Y7224D01*
X1179Y7238D01*
Y7239D01*
X1178Y7240D01*
X1177Y7241D01*
X1176Y7244D01*
X1171Y7251D01*
X1164Y7259D01*
X1156Y7268D01*
X1146Y7278D01*
X1133Y7286D01*
X1120Y7294D01*
X1119D01*
X1118Y7295D01*
X1116Y7296D01*
X1114Y7296D01*
X1111Y7297D01*
X1107Y7299D01*
X1102Y7300D01*
X1097Y7302D01*
X1092Y7303D01*
X1085Y7304D01*
X1078Y7306D01*
X1071Y7307D01*
X1063Y7308D01*
X1055Y7309D01*
X1036Y7309D01*
X1023D01*
X1019Y7309D01*
X1007Y7308D01*
X995Y7307D01*
X982Y7305D01*
X971Y7303D01*
X965Y7301D01*
X960Y7300D01*
X960D01*
X959Y7299D01*
X956Y7298D01*
X951Y7296D01*
X946Y7293D01*
X939Y7289D01*
X932Y7284D01*
X925Y7278D01*
X919Y7271D01*
X918Y7270D01*
X916Y7268D01*
X913Y7264D01*
X909Y7258D01*
X905Y7251D01*
X901Y7243D01*
X897Y7234D01*
X894Y7223D01*
X984Y7207D01*
Y7208D01*
X985Y7210D01*
X987Y7213D01*
X989Y7217D01*
X991Y7221D01*
X995Y7225D01*
X999Y7229D01*
X1004Y7233D01*
X1004Y7234D01*
X1006Y7235D01*
X1009Y7236D01*
X1013Y7238D01*
X1018Y7240D01*
X1024Y7241D01*
X1030Y7242D01*
X1038Y7243D01*
X1041D01*
X1043Y7242D01*
X1048Y7241D01*
X1056Y7240D01*
X1063Y7238D01*
X1072Y7234D01*
X1080Y7228D01*
X1087Y7221D01*
X1088Y7220D01*
X1090Y7217D01*
X1093Y7211D01*
X1096Y7204D01*
X1100Y7195D01*
X1101Y7189D01*
X1103Y7183D01*
X1104Y7176D01*
X1105Y7169D01*
X1106Y7161D01*
Y7153D01*
Y7153D01*
Y7151D01*
Y7149D01*
X1105Y7145D01*
Y7141D01*
X1105Y7137D01*
X1103Y7126D01*
X1101Y7114D01*
X1098Y7103D01*
X1093Y7092D01*
X1091Y7087D01*
X1087Y7083D01*
X1086Y7082D01*
X1084Y7079D01*
X1080Y7076D01*
X1073Y7072D01*
X1066Y7068D01*
X1057Y7065D01*
X1047Y7063D01*
X1035Y7062D01*
X1030D01*
X1026Y7062D01*
X1021Y7063D01*
X1016Y7063D01*
X1005Y7066D01*
X1005D01*
X1002Y7067D01*
X1000Y7068D01*
X996Y7070D01*
X991Y7072D01*
X985Y7074D01*
X979Y7078D01*
X972Y7082D01*
Y7110D01*
X1035D01*
Y7174D01*
X890D01*
Y7309D01*
D01*
D01*
X1200D01*
Y7000D01*
D02*
G37*
G36*
X890Y7043D02*
X891Y7043D01*
X894Y7041D01*
X897Y7039D01*
X900Y7037D01*
X905Y7034D01*
X915Y7028D01*
X926Y7022D01*
X939Y7016D01*
X952Y7009D01*
X964Y7005D01*
X965D01*
X966Y7004D01*
X967Y7004D01*
X970Y7003D01*
X973Y7003D01*
X976Y7002D01*
X981Y7001D01*
X985Y7000D01*
X996Y6998D01*
X1010Y6997D01*
X1024Y6996D01*
X1040Y6995D01*
X890D01*
Y7044D01*
X890Y7043D01*
D02*
G37*
G36*
X2250Y7205D02*
Y7200D01*
X2128D01*
X2132Y7201D01*
X2136D01*
X2145Y7201D01*
X2156Y7202D01*
X2167Y7204D01*
X2177Y7206D01*
X2187Y7209D01*
X2188Y7210D01*
X2191Y7211D01*
X2196Y7213D01*
X2201Y7217D01*
X2207Y7221D01*
X2214Y7226D01*
X2221Y7231D01*
X2227Y7238D01*
X2227Y7239D01*
X2229Y7241D01*
X2232Y7245D01*
X2236Y7251D01*
X2239Y7258D01*
X2243Y7265D01*
X2247Y7275D01*
X2250Y7285D01*
X2166Y7297D01*
Y7295D01*
X2165Y7293D01*
X2163Y7288D01*
X2162Y7283D01*
X2157Y7271D01*
X2154Y7265D01*
X2151Y7261D01*
X2150Y7260D01*
X2149Y7259D01*
X2146Y7258D01*
X2143Y7257D01*
X2140Y7254D01*
X2135Y7253D01*
X2130Y7252D01*
X2123Y7252D01*
X2121D01*
X2117Y7252D01*
X2113Y7253D01*
X2109Y7254D01*
X2104Y7257D01*
X2100Y7260D01*
X2095Y7264D01*
X2095Y7264D01*
X2093Y7266D01*
X2091Y7269D01*
X2089Y7273D01*
X2087Y7277D01*
X2085Y7283D01*
X2084Y7290D01*
X2084Y7297D01*
Y7298D01*
Y7300D01*
X2084Y7304D01*
X2085Y7309D01*
X2086Y7314D01*
X2088Y7320D01*
X2091Y7325D01*
X2095Y7330D01*
X2095Y7330D01*
X2097Y7332D01*
X2099Y7334D01*
X2102Y7336D01*
X2107Y7338D01*
X2112Y7340D01*
X2118Y7341D01*
X2125Y7342D01*
X2128D01*
X2132Y7341D01*
X2136Y7340D01*
X2140Y7339D01*
X2146Y7338D01*
X2152Y7337D01*
X2148Y7396D01*
X2144D01*
X2140Y7396D01*
X2134D01*
X2131Y7396D01*
X2127Y7397D01*
X2123Y7398D01*
X2118Y7400D01*
X2113Y7403D01*
X2109Y7406D01*
X2108Y7406D01*
X2107Y7408D01*
X2105Y7410D01*
X2103Y7413D01*
X2101Y7416D01*
X2099Y7421D01*
X2098Y7426D01*
X2097Y7431D01*
Y7431D01*
Y7433D01*
X2098Y7436D01*
X2098Y7439D01*
X2100Y7443D01*
X2101Y7446D01*
X2103Y7450D01*
X2106Y7453D01*
X2106Y7454D01*
X2107Y7454D01*
X2109Y7456D01*
X2112Y7458D01*
X2115Y7459D01*
X2119Y7460D01*
X2123Y7461D01*
X2129Y7461D01*
X2131D01*
X2134Y7461D01*
X2138Y7460D01*
X2142Y7459D01*
X2146Y7458D01*
X2150Y7455D01*
X2153Y7452D01*
X2154Y7451D01*
X2155Y7450D01*
X2156Y7448D01*
X2158Y7445D01*
X2160Y7440D01*
X2162Y7435D01*
X2164Y7429D01*
X2166Y7421D01*
X2246Y7435D01*
Y7435D01*
X2245Y7436D01*
X2244Y7439D01*
X2244Y7441D01*
X2242Y7444D01*
X2241Y7448D01*
X2237Y7456D01*
X2232Y7466D01*
X2226Y7476D01*
X2218Y7485D01*
X2208Y7494D01*
X2207D01*
X2207Y7495D01*
X2205Y7495D01*
X2202Y7497D01*
X2200Y7499D01*
X2196Y7500D01*
X2192Y7502D01*
X2187Y7504D01*
X2182Y7506D01*
X2176Y7507D01*
X2169Y7509D01*
X2162Y7511D01*
X2154Y7512D01*
X2146Y7513D01*
X2127Y7514D01*
X2250D01*
D01*
D01*
Y7205D01*
D02*
G37*
G36*
X1814Y7290D02*
X1746Y7509D01*
X1882D01*
X1814Y7290D01*
D02*
G37*
G36*
X1999Y7514D02*
X2122D01*
X2117Y7514D01*
X2112D01*
X2107Y7513D01*
X2101Y7512D01*
X2094Y7511D01*
X2080Y7509D01*
X2066Y7505D01*
X2052Y7499D01*
X2046Y7496D01*
X2041Y7492D01*
X2040D01*
X2040Y7491D01*
X2036Y7488D01*
X2032Y7483D01*
X2027Y7476D01*
X2022Y7469D01*
X2018Y7459D01*
X2015Y7448D01*
X2015Y7442D01*
X2014Y7436D01*
Y7435D01*
Y7433D01*
X2015Y7429D01*
X2015Y7424D01*
X2017Y7419D01*
X2019Y7413D01*
X2021Y7406D01*
X2025Y7400D01*
X2026Y7400D01*
X2027Y7398D01*
X2030Y7395D01*
X2033Y7391D01*
X2037Y7387D01*
X2043Y7382D01*
X2050Y7377D01*
X2057Y7373D01*
X2057D01*
X2055Y7372D01*
X2051Y7371D01*
X2047Y7370D01*
X2039Y7366D01*
X2035Y7365D01*
X2031Y7363D01*
X2030Y7362D01*
X2029Y7361D01*
X2026Y7359D01*
X2022Y7356D01*
X2019Y7353D01*
X2015Y7348D01*
X2011Y7343D01*
X2007Y7338D01*
X2007Y7337D01*
X2006Y7335D01*
X2005Y7332D01*
X2003Y7328D01*
X2001Y7322D01*
X2000Y7316D01*
X1999Y7309D01*
X1999Y7302D01*
Y7297D01*
X1999Y7292D01*
X2000Y7285D01*
X2002Y7277D01*
X2005Y7269D01*
X2008Y7260D01*
X2013Y7251D01*
X2014Y7249D01*
X2016Y7247D01*
X2019Y7242D01*
X2023Y7237D01*
X2029Y7231D01*
X2036Y7224D01*
X2044Y7218D01*
X2053Y7213D01*
X2054D01*
X2054Y7212D01*
X2056Y7212D01*
X2058Y7211D01*
X2060Y7210D01*
X2064Y7209D01*
X2071Y7207D01*
X2081Y7204D01*
X2093Y7202D01*
X2107Y7201D01*
X2122Y7200D01*
X1999D01*
Y7292D01*
Y7200D01*
X1651D01*
Y7205D01*
Y7509D01*
X1764Y7205D01*
X1865D01*
X1980Y7509D01*
D01*
X1651D01*
Y7514D01*
X2250D01*
X1999D01*
D02*
G37*
G36*
X3620Y6888D02*
X3575D01*
X3571Y6889D01*
X3566Y6889D01*
X3556Y6891D01*
X3552Y6893D01*
X3548Y6895D01*
X3548Y6896D01*
X3546Y6897D01*
X3545Y6899D01*
X3544Y6901D01*
X3542Y6904D01*
X3540Y6908D01*
X3540Y6913D01*
X3539Y6918D01*
Y6918D01*
Y6920D01*
X3540Y6922D01*
X3540Y6925D01*
X3541Y6929D01*
X3543Y6932D01*
X3545Y6935D01*
X3548Y6938D01*
X3549Y6939D01*
X3550Y6939D01*
X3552Y6940D01*
X3555Y6942D01*
X3559Y6944D01*
X3564Y6945D01*
X3571Y6945D01*
X3578Y6946D01*
X3620D01*
Y6888D01*
D02*
G37*
G36*
X4819Y6819D02*
X4752D01*
X4786Y6928D01*
X4819Y6819D01*
D02*
G37*
G36*
X3531Y7007D02*
X3528D01*
X3524Y7006D01*
X3514Y7005D01*
X3503Y7002D01*
X3491Y6998D01*
X3481Y6992D01*
X3471Y6985D01*
X3470D01*
X3470Y6984D01*
X3467Y6981D01*
X3463Y6977D01*
X3459Y6970D01*
X3455Y6962D01*
X3451Y6954D01*
X3448Y6943D01*
X3447Y6937D01*
Y6931D01*
Y6931D01*
Y6930D01*
Y6927D01*
X3448Y6922D01*
X3449Y6916D01*
X3451Y6909D01*
X3454Y6901D01*
X3459Y6893D01*
X3464Y6885D01*
X3465Y6885D01*
X3466Y6883D01*
X3469Y6881D01*
X3473Y6878D01*
X3477Y6875D01*
X3483Y6871D01*
X3489Y6868D01*
X3497Y6865D01*
X3496D01*
X3495Y6864D01*
X3494D01*
X3491Y6863D01*
X3486Y6861D01*
X3479Y6859D01*
X3471Y6855D01*
X3463Y6850D01*
X3455Y6844D01*
X3449Y6838D01*
X3448Y6836D01*
X3447Y6834D01*
X3444Y6830D01*
X3441Y6824D01*
X3438Y6818D01*
X3435Y6809D01*
X3434Y6800D01*
X3433Y6789D01*
Y7007D01*
X3534D01*
X3531Y7007D01*
D02*
G37*
G36*
X3620Y6769D02*
X3568D01*
X3564Y6769D01*
X3559Y6770D01*
X3553Y6771D01*
X3547Y6772D01*
X3542Y6774D01*
X3538Y6777D01*
X3537Y6778D01*
X3536Y6779D01*
X3534Y6780D01*
X3533Y6783D01*
X3531Y6787D01*
X3529Y6791D01*
X3528Y6795D01*
X3528Y6800D01*
Y6801D01*
Y6803D01*
X3528Y6805D01*
X3529Y6808D01*
X3530Y6812D01*
X3532Y6815D01*
X3534Y6819D01*
X3538Y6822D01*
X3538Y6823D01*
X3539Y6823D01*
X3542Y6825D01*
X3546Y6826D01*
X3550Y6828D01*
X3556Y6829D01*
X3564Y6830D01*
X3572Y6830D01*
X3620D01*
Y6769D01*
D02*
G37*
G36*
X4950Y6703D02*
D01*
X4836Y7007D01*
X4950D01*
X4619D01*
X4733D01*
X4619Y6703D01*
X4717D01*
X4732Y6753D01*
X4839D01*
X4854Y6703D01*
X4950D01*
Y6650D01*
X3960D01*
Y6703D01*
Y6671D01*
X3743D01*
Y6650D01*
X3433D01*
Y6703D01*
D01*
Y6785D01*
X3434Y6781D01*
X3434Y6775D01*
X3436Y6769D01*
X3438Y6762D01*
X3440Y6754D01*
X3444Y6747D01*
X3445Y6747D01*
X3447Y6744D01*
X3449Y6740D01*
X3452Y6737D01*
X3456Y6732D01*
X3462Y6727D01*
X3468Y6722D01*
X3475Y6717D01*
X3475D01*
X3477Y6716D01*
X3480Y6715D01*
X3484Y6713D01*
X3489Y6712D01*
X3495Y6710D01*
X3502Y6709D01*
X3510Y6707D01*
X3511D01*
X3513Y6707D01*
X3515D01*
X3521Y6706D01*
X3528Y6705D01*
X3535Y6704D01*
X3541Y6704D01*
X3548Y6703D01*
X3715D01*
Y7007D01*
X3433D01*
Y7012D01*
X4950D01*
Y6703D01*
D02*
G37*
G36*
X6445Y6627D02*
X6449Y6626D01*
X6453Y6625D01*
X6458Y6622D01*
X6463Y6619D01*
X6468Y6613D01*
X6472Y6606D01*
X6472Y6605D01*
X6473Y6604D01*
X6474Y6601D01*
X6474Y6599D01*
X6475Y6596D01*
X6476Y6593D01*
X6476Y6588D01*
X6477Y6583D01*
X6479Y6578D01*
X6479Y6571D01*
X6480Y6564D01*
X6480Y6556D01*
X6481Y6548D01*
X6481Y6538D01*
Y6528D01*
Y6527D01*
Y6525D01*
Y6522D01*
Y6518D01*
X6481Y6514D01*
Y6508D01*
X6480Y6496D01*
X6479Y6483D01*
X6477Y6469D01*
X6476Y6463D01*
X6475Y6458D01*
X6473Y6453D01*
X6471Y6448D01*
X6471Y6447D01*
X6469Y6445D01*
X6467Y6442D01*
X6464Y6438D01*
X6459Y6434D01*
X6454Y6430D01*
X6448Y6428D01*
X6441Y6427D01*
X6439D01*
X6436Y6428D01*
X6434Y6428D01*
X6430Y6429D01*
X6426Y6431D01*
X6423Y6433D01*
X6419Y6436D01*
X6418Y6437D01*
X6417Y6438D01*
X6415Y6440D01*
X6413Y6443D01*
X6411Y6447D01*
X6409Y6452D01*
X6406Y6458D01*
X6405Y6464D01*
Y6465D01*
X6404Y6468D01*
X6403Y6473D01*
X6402Y6479D01*
X6401Y6488D01*
X6400Y6498D01*
X6400Y6510D01*
Y6525D01*
Y6525D01*
Y6528D01*
Y6530D01*
Y6535D01*
X6400Y6539D01*
Y6545D01*
X6401Y6558D01*
X6403Y6571D01*
X6404Y6585D01*
X6405Y6591D01*
X6407Y6597D01*
X6409Y6602D01*
X6410Y6606D01*
X6411Y6608D01*
X6413Y6610D01*
X6415Y6613D01*
X6418Y6617D01*
X6423Y6621D01*
X6428Y6624D01*
X6434Y6626D01*
X6441Y6627D01*
X6443D01*
X6445Y6627D01*
D02*
G37*
G36*
X6316Y6369D02*
D01*
Y6374D01*
Y6369D01*
D02*
G37*
G36*
X7300Y6684D02*
D01*
Y6374D01*
Y6369D01*
X7166D01*
X7172Y6370D01*
X7178Y6371D01*
X7185Y6371D01*
X7193Y6372D01*
X7202Y6373D01*
X7220Y6377D01*
X7237Y6382D01*
X7246Y6385D01*
X7253Y6389D01*
X7261Y6394D01*
X7267Y6399D01*
X7267Y6399D01*
X7268Y6400D01*
X7269Y6402D01*
X7271Y6404D01*
X7273Y6407D01*
X7276Y6410D01*
X7279Y6415D01*
X7282Y6419D01*
X7288Y6430D01*
X7293Y6444D01*
X7297Y6458D01*
X7299Y6467D01*
X7300Y6475D01*
X7211Y6481D01*
Y6480D01*
X7210Y6477D01*
X7210Y6473D01*
X7208Y6469D01*
X7205Y6458D01*
X7202Y6452D01*
X7199Y6448D01*
X7198Y6447D01*
X7196Y6445D01*
X7193Y6442D01*
X7188Y6439D01*
X7182Y6435D01*
X7175Y6432D01*
X7167Y6430D01*
X7157Y6429D01*
X7154D01*
X7151Y6430D01*
X7146Y6430D01*
X7141Y6432D01*
X7136Y6433D01*
X7131Y6435D01*
X7126Y6438D01*
X7126Y6439D01*
X7125Y6440D01*
X7123Y6442D01*
X7121Y6444D01*
X7119Y6448D01*
X7117Y6452D01*
X7116Y6456D01*
X7115Y6460D01*
Y6461D01*
Y6463D01*
X7116Y6465D01*
X7116Y6468D01*
X7118Y6471D01*
X7120Y6474D01*
X7122Y6478D01*
X7126Y6482D01*
X7126Y6482D01*
X7128Y6483D01*
X7131Y6485D01*
X7136Y6487D01*
X7142Y6490D01*
X7151Y6493D01*
X7156Y6495D01*
X7161Y6496D01*
X7167Y6498D01*
X7174Y6499D01*
X7175D01*
X7177Y6500D01*
X7180Y6501D01*
X7184Y6502D01*
X7189Y6503D01*
X7195Y6505D01*
X7201Y6507D01*
X7208Y6509D01*
X7223Y6514D01*
X7237Y6520D01*
X7251Y6528D01*
X7257Y6531D01*
X7262Y6536D01*
Y6536D01*
X7263Y6537D01*
X7266Y6540D01*
X7271Y6545D01*
X7275Y6552D01*
X7280Y6560D01*
X7284Y6570D01*
X7287Y6581D01*
X7288Y6588D01*
X7288Y6594D01*
Y6595D01*
Y6595D01*
Y6598D01*
X7288Y6603D01*
X7287Y6609D01*
X7285Y6615D01*
X7283Y6623D01*
X7279Y6631D01*
X7275Y6639D01*
X7274Y6640D01*
X7272Y6642D01*
X7269Y6646D01*
X7264Y6651D01*
X7259Y6656D01*
X7252Y6661D01*
X7243Y6666D01*
X7234Y6671D01*
X7233D01*
X7233Y6672D01*
X7231Y6672D01*
X7229Y6673D01*
X7226Y6674D01*
X7223Y6675D01*
X7219Y6676D01*
X7215Y6677D01*
X7210Y6679D01*
X7203Y6680D01*
X7191Y6682D01*
X7176Y6683D01*
X7159Y6684D01*
X7244D01*
X7024D01*
X7153D01*
X7150Y6683D01*
X7145D01*
X7139Y6682D01*
X7133Y6682D01*
X7126Y6681D01*
X7112Y6678D01*
X7097Y6674D01*
X7083Y6669D01*
X7076Y6665D01*
X7070Y6661D01*
X7070D01*
X7069Y6660D01*
X7065Y6657D01*
X7060Y6652D01*
X7054Y6645D01*
X7051Y6640D01*
X7048Y6635D01*
X7045Y6629D01*
X7042Y6623D01*
X7039Y6616D01*
X7037Y6609D01*
X7035Y6601D01*
X7034Y6593D01*
X7122Y6588D01*
Y6589D01*
X7123Y6591D01*
X7124Y6595D01*
X7126Y6599D01*
X7128Y6604D01*
X7130Y6609D01*
X7133Y6614D01*
X7137Y6618D01*
X7138Y6618D01*
X7140Y6619D01*
X7142Y6620D01*
X7145Y6622D01*
X7150Y6624D01*
X7155Y6625D01*
X7161Y6626D01*
X7168Y6627D01*
X7171D01*
X7174Y6626D01*
X7178Y6626D01*
X7186Y6624D01*
X7190Y6622D01*
X7193Y6620D01*
X7194Y6619D01*
X7195Y6619D01*
X7197Y6615D01*
X7200Y6610D01*
X7201Y6606D01*
X7201Y6603D01*
Y6603D01*
Y6602D01*
X7200Y6599D01*
X7198Y6594D01*
X7197Y6592D01*
X7195Y6590D01*
X7194D01*
X7193Y6589D01*
X7191Y6588D01*
X7188Y6586D01*
X7184Y6584D01*
X7178Y6583D01*
X7172Y6580D01*
X7163Y6579D01*
X7163D01*
X7161Y6578D01*
X7157Y6578D01*
X7153Y6576D01*
X7148Y6575D01*
X7142Y6574D01*
X7136Y6572D01*
X7129Y6570D01*
X7115Y6566D01*
X7100Y6561D01*
X7086Y6556D01*
X7080Y6554D01*
X7075Y6551D01*
X7074D01*
X7074Y6551D01*
X7070Y6549D01*
X7066Y6546D01*
X7060Y6543D01*
X7054Y6538D01*
X7047Y6532D01*
X7041Y6525D01*
X7036Y6518D01*
X7035Y6517D01*
X7034Y6515D01*
X7032Y6510D01*
X7030Y6505D01*
X7028Y6498D01*
X7025Y6491D01*
X7024Y6482D01*
X7024Y6473D01*
Y6478D01*
Y6369D01*
X6565D01*
Y6528D01*
Y6536D01*
X6565Y6541D01*
X6564Y6549D01*
X6564Y6557D01*
X6562Y6566D01*
X6561Y6575D01*
X6557Y6595D01*
X6552Y6615D01*
X6549Y6625D01*
X6544Y6634D01*
X6540Y6641D01*
X6534Y6649D01*
X6534Y6649D01*
X6532Y6650D01*
X6531Y6652D01*
X6528Y6654D01*
X6525Y6657D01*
X6521Y6660D01*
X6516Y6663D01*
X6510Y6666D01*
X6504Y6669D01*
X6497Y6672D01*
X6489Y6675D01*
X6481Y6678D01*
X6471Y6680D01*
X6461Y6682D01*
X6450Y6683D01*
X6439Y6684D01*
X6565D01*
X6434D01*
X6428Y6683D01*
X6421Y6682D01*
X6413Y6682D01*
X6405Y6680D01*
X6396Y6679D01*
X6389Y6676D01*
X6388Y6675D01*
X6385Y6675D01*
X6381Y6672D01*
X6377Y6670D01*
X6372Y6667D01*
X6366Y6664D01*
X6361Y6660D01*
X6356Y6656D01*
X6356Y6655D01*
X6354Y6654D01*
X6352Y6651D01*
X6349Y6648D01*
X6346Y6645D01*
X6343Y6640D01*
X6337Y6630D01*
X6336Y6630D01*
X6335Y6628D01*
X6334Y6625D01*
X6332Y6621D01*
X6330Y6617D01*
X6329Y6611D01*
X6327Y6606D01*
X6325Y6599D01*
Y6599D01*
X6324Y6598D01*
X6324Y6596D01*
X6323Y6593D01*
X6323Y6590D01*
X6322Y6586D01*
X6320Y6578D01*
X6319Y6567D01*
X6317Y6555D01*
X6317Y6542D01*
X6316Y6529D01*
Y6684D01*
D01*
D01*
X7300D01*
D01*
D01*
D02*
G37*
G36*
X7025Y6463D02*
X7026Y6455D01*
X7028Y6447D01*
X7031Y6438D01*
X7035Y6428D01*
X7040Y6419D01*
X7041Y6418D01*
X7043Y6415D01*
X7047Y6410D01*
X7052Y6405D01*
X7059Y6399D01*
X7066Y6393D01*
X7075Y6387D01*
X7086Y6382D01*
X7086D01*
X7087Y6381D01*
X7089Y6381D01*
X7091Y6380D01*
X7094Y6379D01*
X7097Y6378D01*
X7101Y6377D01*
X7106Y6376D01*
X7116Y6373D01*
X7129Y6371D01*
X7143Y6370D01*
X7159Y6369D01*
X7024D01*
Y6468D01*
X7025Y6463D01*
D02*
G37*
G36*
X6565Y6369D02*
D01*
X6448D01*
X6451Y6370D01*
X6454D01*
X6463Y6371D01*
X6473Y6372D01*
X6484Y6374D01*
X6494Y6378D01*
X6504Y6382D01*
X6505Y6382D01*
X6507Y6384D01*
X6512Y6387D01*
X6517Y6391D01*
X6524Y6395D01*
X6530Y6402D01*
X6536Y6409D01*
X6542Y6417D01*
X6543Y6418D01*
X6544Y6420D01*
X6546Y6424D01*
X6549Y6429D01*
X6551Y6435D01*
X6554Y6443D01*
X6557Y6453D01*
X6559Y6463D01*
Y6463D01*
Y6464D01*
X6560Y6465D01*
X6560Y6468D01*
X6561Y6474D01*
X6562Y6482D01*
X6563Y6492D01*
X6564Y6503D01*
X6565Y6515D01*
X6565Y6528D01*
Y6369D01*
D02*
G37*
G36*
X6317Y6515D02*
X6317Y6508D01*
X6318Y6500D01*
X6318Y6492D01*
X6319Y6483D01*
X6323Y6463D01*
X6328Y6443D01*
X6331Y6433D01*
X6335Y6424D01*
X6339Y6415D01*
X6344Y6408D01*
X6345Y6407D01*
X6345Y6406D01*
X6347Y6404D01*
X6350Y6402D01*
X6353Y6399D01*
X6357Y6395D01*
X6361Y6392D01*
X6367Y6389D01*
X6373Y6385D01*
X6380Y6382D01*
X6388Y6378D01*
X6397Y6376D01*
X6406Y6373D01*
X6417Y6371D01*
X6429Y6370D01*
X6441Y6369D01*
X6316D01*
Y6521D01*
X6317Y6515D01*
D02*
G37*
G36*
X8950Y5314D02*
D01*
Y5005D01*
Y5000D01*
X8795D01*
X8799Y5001D01*
X8804D01*
X8809Y5001D01*
X8815Y5002D01*
X8822Y5002D01*
X8836Y5004D01*
X8851Y5008D01*
X8865Y5012D01*
X8879Y5018D01*
X8880D01*
X8881Y5019D01*
X8882Y5021D01*
X8885Y5022D01*
X8891Y5026D01*
X8898Y5032D01*
X8907Y5039D01*
X8916Y5049D01*
X8924Y5060D01*
X8932Y5073D01*
Y5073D01*
X8932Y5074D01*
X8933Y5077D01*
X8934Y5079D01*
X8936Y5083D01*
X8937Y5087D01*
X8939Y5092D01*
X8941Y5097D01*
X8943Y5103D01*
X8944Y5109D01*
X8947Y5124D01*
X8949Y5140D01*
X8950Y5157D01*
Y5162D01*
X8949Y5165D01*
Y5170D01*
X8949Y5175D01*
X8948Y5180D01*
X8947Y5186D01*
X8945Y5200D01*
X8941Y5214D01*
X8936Y5229D01*
X8929Y5243D01*
Y5244D01*
X8928Y5245D01*
X8927Y5246D01*
X8926Y5249D01*
X8921Y5256D01*
X8914Y5264D01*
X8906Y5273D01*
X8896Y5282D01*
X8883Y5291D01*
X8870Y5299D01*
X8869D01*
X8868Y5300D01*
X8866Y5301D01*
X8864Y5301D01*
X8861Y5302D01*
X8857Y5304D01*
X8852Y5305D01*
X8847Y5307D01*
X8842Y5308D01*
X8835Y5309D01*
X8828Y5311D01*
X8821Y5312D01*
X8813Y5313D01*
X8805Y5314D01*
X8786Y5314D01*
X8773D01*
X8769Y5314D01*
X8757Y5313D01*
X8745Y5312D01*
X8732Y5310D01*
X8721Y5308D01*
X8715Y5306D01*
X8710Y5305D01*
X8710D01*
X8709Y5304D01*
X8706Y5303D01*
X8701Y5301D01*
X8696Y5298D01*
X8689Y5294D01*
X8682Y5289D01*
X8675Y5283D01*
X8669Y5276D01*
X8668Y5275D01*
X8666Y5273D01*
X8663Y5269D01*
X8659Y5263D01*
X8655Y5256D01*
X8651Y5248D01*
X8647Y5239D01*
X8644Y5228D01*
X8734Y5212D01*
Y5213D01*
X8735Y5215D01*
X8737Y5218D01*
X8739Y5222D01*
X8741Y5226D01*
X8745Y5230D01*
X8749Y5234D01*
X8754Y5238D01*
X8754Y5239D01*
X8756Y5240D01*
X8759Y5241D01*
X8763Y5243D01*
X8768Y5245D01*
X8774Y5246D01*
X8780Y5247D01*
X8788Y5248D01*
X8791D01*
X8793Y5247D01*
X8798Y5246D01*
X8806Y5245D01*
X8813Y5243D01*
X8822Y5239D01*
X8830Y5233D01*
X8837Y5226D01*
X8838Y5225D01*
X8840Y5222D01*
X8843Y5216D01*
X8846Y5209D01*
X8850Y5200D01*
X8851Y5194D01*
X8853Y5188D01*
X8854Y5181D01*
X8855Y5174D01*
X8856Y5167D01*
Y5158D01*
Y5158D01*
Y5156D01*
Y5154D01*
X8855Y5150D01*
Y5146D01*
X8855Y5142D01*
X8853Y5131D01*
X8851Y5119D01*
X8848Y5108D01*
X8843Y5097D01*
X8841Y5092D01*
X8837Y5088D01*
X8836Y5087D01*
X8834Y5084D01*
X8830Y5081D01*
X8823Y5077D01*
X8816Y5073D01*
X8807Y5070D01*
X8797Y5068D01*
X8785Y5067D01*
X8780D01*
X8776Y5067D01*
X8771Y5068D01*
X8766Y5068D01*
X8755Y5071D01*
X8755D01*
X8752Y5072D01*
X8750Y5073D01*
X8746Y5075D01*
X8741Y5077D01*
X8735Y5079D01*
X8729Y5083D01*
X8722Y5087D01*
Y5115D01*
X8785D01*
Y5179D01*
X8640D01*
Y5000D01*
X7949D01*
Y5005D01*
D01*
Y5150D01*
X7949Y5145D01*
Y5141D01*
X7950Y5130D01*
X7952Y5118D01*
X7954Y5105D01*
X7957Y5093D01*
X7960Y5082D01*
Y5082D01*
X7961Y5081D01*
X7963Y5078D01*
X7965Y5073D01*
X7968Y5067D01*
X7973Y5059D01*
X7978Y5052D01*
X7984Y5044D01*
X7992Y5037D01*
X7993Y5037D01*
X7995Y5034D01*
X7999Y5031D01*
X8004Y5027D01*
X8010Y5023D01*
X8017Y5019D01*
X8025Y5016D01*
X8033Y5013D01*
X8034D01*
X8034Y5012D01*
X8036D01*
X8038Y5012D01*
X8044Y5011D01*
X8052Y5009D01*
X8060Y5007D01*
X8070Y5006D01*
X8080Y5006D01*
X8090Y5005D01*
X8229D01*
Y5309D01*
X8083D01*
X8079Y5309D01*
X8075D01*
X8066Y5307D01*
X8055Y5306D01*
X8044Y5304D01*
X8033Y5301D01*
X8023Y5297D01*
X8022D01*
X8021Y5297D01*
X8018Y5295D01*
X8014Y5293D01*
X8008Y5289D01*
X8001Y5285D01*
X7994Y5279D01*
X7987Y5272D01*
X7980Y5265D01*
X7980Y5264D01*
X7978Y5261D01*
X7975Y5258D01*
X7971Y5251D01*
X7967Y5244D01*
X7963Y5236D01*
X7960Y5226D01*
X7957Y5216D01*
Y5216D01*
X7956Y5215D01*
Y5214D01*
X7955Y5211D01*
X7954Y5206D01*
X7953Y5199D01*
X7951Y5190D01*
X7950Y5180D01*
X7949Y5169D01*
X7949Y5158D01*
Y5309D01*
D01*
Y5314D01*
X8950D01*
D01*
D01*
D02*
G37*
G36*
X8135Y5074D02*
X8108D01*
X8103Y5075D01*
X8096D01*
X8089Y5076D01*
X8082Y5077D01*
X8076Y5078D01*
X8070Y5080D01*
X8070Y5081D01*
X8068Y5082D01*
X8066Y5083D01*
X8063Y5086D01*
X8060Y5089D01*
X8056Y5093D01*
X8053Y5098D01*
X8050Y5103D01*
X8050Y5104D01*
X8049Y5107D01*
X8048Y5110D01*
X8046Y5116D01*
X8045Y5123D01*
X8044Y5133D01*
X8044Y5143D01*
X8043Y5156D01*
Y5157D01*
Y5158D01*
Y5160D01*
Y5164D01*
X8044Y5168D01*
Y5172D01*
X8045Y5183D01*
X8047Y5193D01*
X8050Y5204D01*
X8054Y5214D01*
X8056Y5218D01*
X8059Y5222D01*
X8060Y5223D01*
X8063Y5225D01*
X8066Y5228D01*
X8072Y5231D01*
X8079Y5235D01*
X8088Y5238D01*
X8099Y5240D01*
X8112Y5240D01*
X8135D01*
Y5074D01*
D02*
G37*
G36*
X8640Y5048D02*
X8641Y5048D01*
X8644Y5046D01*
X8647Y5044D01*
X8650Y5042D01*
X8655Y5039D01*
X8665Y5033D01*
X8676Y5027D01*
X8689Y5021D01*
X8702Y5014D01*
X8714Y5010D01*
X8715D01*
X8716Y5009D01*
X8717Y5009D01*
X8720Y5008D01*
X8723Y5008D01*
X8726Y5007D01*
X8731Y5006D01*
X8735Y5005D01*
X8746Y5003D01*
X8760Y5002D01*
X8774Y5001D01*
X8790Y5000D01*
X8640D01*
Y5049D01*
X8640Y5048D01*
D02*
G37*
G36*
X8900Y5605D02*
Y5600D01*
X8777D01*
X8783Y5601D01*
X8790D01*
X8798Y5601D01*
X8807Y5602D01*
X8816Y5604D01*
X8824Y5606D01*
X8825Y5606D01*
X8827Y5607D01*
X8831Y5608D01*
X8836Y5610D01*
X8842Y5612D01*
X8848Y5615D01*
X8861Y5622D01*
X8861Y5623D01*
X8863Y5624D01*
X8866Y5627D01*
X8869Y5630D01*
X8873Y5633D01*
X8877Y5638D01*
X8885Y5648D01*
X8886Y5648D01*
X8887Y5651D01*
X8888Y5653D01*
X8890Y5658D01*
X8893Y5663D01*
X8895Y5669D01*
X8898Y5676D01*
X8900Y5684D01*
X8815Y5693D01*
Y5692D01*
X8814Y5690D01*
X8813Y5686D01*
X8812Y5682D01*
X8810Y5677D01*
X8807Y5672D01*
X8805Y5667D01*
X8801Y5662D01*
X8800Y5662D01*
X8798Y5660D01*
X8796Y5659D01*
X8793Y5657D01*
X8789Y5655D01*
X8784Y5653D01*
X8778Y5652D01*
X8773Y5652D01*
X8770D01*
X8767Y5652D01*
X8762Y5653D01*
X8758Y5655D01*
X8753Y5657D01*
X8748Y5660D01*
X8743Y5665D01*
X8743Y5665D01*
X8742Y5668D01*
X8740Y5670D01*
X8737Y5675D01*
X8736Y5680D01*
X8734Y5687D01*
X8732Y5695D01*
X8732Y5704D01*
Y5705D01*
Y5705D01*
Y5709D01*
X8732Y5714D01*
X8734Y5719D01*
X8735Y5726D01*
X8737Y5733D01*
X8740Y5739D01*
X8743Y5744D01*
X8744Y5745D01*
X8746Y5747D01*
X8748Y5748D01*
X8752Y5751D01*
X8756Y5753D01*
X8761Y5755D01*
X8768Y5757D01*
X8775Y5757D01*
X8777D01*
X8779Y5757D01*
X8782D01*
X8790Y5754D01*
X8794Y5753D01*
X8798Y5751D01*
X8799D01*
X8800Y5750D01*
X8802Y5749D01*
X8804Y5747D01*
X8807Y5745D01*
X8810Y5742D01*
X8813Y5739D01*
X8817Y5735D01*
X8889Y5745D01*
X8862Y5909D01*
X8661D01*
Y5841D01*
X8798D01*
X8805Y5796D01*
X8805Y5796D01*
X8803Y5797D01*
X8800Y5798D01*
X8796Y5800D01*
X8792Y5801D01*
X8787Y5803D01*
X8777Y5806D01*
X8776D01*
X8775Y5806D01*
X8772Y5807D01*
X8768Y5808D01*
X8764Y5808D01*
X8760Y5809D01*
X8750Y5809D01*
X8745D01*
X8742Y5809D01*
X8738D01*
X8734Y5808D01*
X8724Y5806D01*
X8711Y5803D01*
X8699Y5798D01*
X8693Y5794D01*
X8687Y5791D01*
X8681Y5786D01*
X8676Y5781D01*
X8675Y5781D01*
X8675Y5780D01*
X8673Y5779D01*
X8671Y5776D01*
X8669Y5774D01*
X8667Y5770D01*
X8661Y5763D01*
X8656Y5753D01*
X8651Y5740D01*
X8648Y5727D01*
X8647Y5720D01*
X8647Y5712D01*
Y5600D01*
X8299D01*
Y5605D01*
D01*
Y5909D01*
X8413Y5605D01*
X8629D01*
X8514D01*
X8629Y5909D01*
X8531D01*
X8463Y5690D01*
X8395Y5909D01*
X8299D01*
D01*
X8900D01*
Y5605D01*
D02*
G37*
G36*
X8647Y5702D02*
X8649Y5694D01*
X8651Y5685D01*
X8653Y5676D01*
X8657Y5665D01*
X8662Y5656D01*
Y5655D01*
X8662Y5654D01*
X8665Y5651D01*
X8668Y5646D01*
X8672Y5640D01*
X8679Y5633D01*
X8686Y5627D01*
X8694Y5620D01*
X8704Y5614D01*
X8704D01*
X8705Y5613D01*
X8706Y5613D01*
X8709Y5612D01*
X8711Y5611D01*
X8714Y5609D01*
X8722Y5607D01*
X8732Y5604D01*
X8744Y5602D01*
X8757Y5601D01*
X8772Y5600D01*
X8647D01*
Y5707D01*
X8647Y5702D01*
D02*
G37*
G36*
X5305Y1485D02*
X5261D01*
X5257Y1485D01*
X5252Y1486D01*
X5242Y1488D01*
X5237Y1490D01*
X5234Y1492D01*
X5233Y1493D01*
X5232Y1494D01*
X5231Y1495D01*
X5229Y1498D01*
X5227Y1501D01*
X5226Y1505D01*
X5225Y1509D01*
X5225Y1514D01*
Y1515D01*
Y1516D01*
X5225Y1519D01*
X5226Y1522D01*
X5227Y1525D01*
X5229Y1529D01*
X5231Y1532D01*
X5234Y1535D01*
X5234Y1535D01*
X5235Y1536D01*
X5237Y1537D01*
X5241Y1539D01*
X5245Y1540D01*
X5250Y1541D01*
X5256Y1542D01*
X5263Y1543D01*
X5305D01*
Y1485D01*
D02*
G37*
G36*
X4362Y1475D02*
X4334D01*
X4329Y1475D01*
X4324Y1476D01*
X4318Y1477D01*
X4311Y1479D01*
X4306Y1481D01*
X4301Y1484D01*
X4300Y1484D01*
X4299Y1485D01*
X4297Y1488D01*
X4295Y1490D01*
X4293Y1494D01*
X4291Y1498D01*
X4290Y1503D01*
X4289Y1508D01*
Y1509D01*
Y1510D01*
X4290Y1513D01*
X4291Y1516D01*
X4292Y1520D01*
X4294Y1525D01*
X4296Y1529D01*
X4299Y1533D01*
X4300Y1533D01*
X4301Y1534D01*
X4304Y1536D01*
X4307Y1538D01*
X4312Y1539D01*
X4318Y1541D01*
X4326Y1542D01*
X4335Y1543D01*
X4362D01*
Y1475D01*
D02*
G37*
G36*
X5305Y1365D02*
X5253D01*
X5249Y1366D01*
X5244Y1367D01*
X5238Y1368D01*
X5232Y1369D01*
X5227Y1371D01*
X5223Y1374D01*
X5222Y1374D01*
X5221Y1375D01*
X5220Y1377D01*
X5218Y1380D01*
X5216Y1383D01*
X5215Y1388D01*
X5214Y1392D01*
X5213Y1397D01*
Y1398D01*
Y1399D01*
X5214Y1402D01*
X5214Y1405D01*
X5215Y1408D01*
X5217Y1412D01*
X5220Y1415D01*
X5223Y1419D01*
X5224Y1419D01*
X5225Y1420D01*
X5227Y1422D01*
X5231Y1423D01*
X5236Y1424D01*
X5242Y1426D01*
X5249Y1427D01*
X5258Y1427D01*
X5305D01*
Y1365D01*
D02*
G37*
G36*
X5400Y1604D02*
Y1300D01*
Y1604D01*
X5119D01*
X5220D01*
X5217Y1604D01*
X5213D01*
X5209Y1603D01*
X5199Y1601D01*
X5188Y1599D01*
X5177Y1595D01*
X5166Y1589D01*
X5156Y1582D01*
X5156D01*
X5155Y1581D01*
X5152Y1578D01*
X5149Y1574D01*
X5144Y1567D01*
X5140Y1559D01*
X5136Y1550D01*
X5134Y1540D01*
X5132Y1534D01*
Y1528D01*
Y1528D01*
Y1527D01*
Y1524D01*
X5134Y1519D01*
X5135Y1513D01*
X5137Y1505D01*
X5140Y1498D01*
X5144Y1490D01*
X5150Y1482D01*
X5150Y1481D01*
X5152Y1480D01*
X5154Y1478D01*
X5158Y1475D01*
X5162Y1471D01*
X5168Y1468D01*
X5175Y1465D01*
X5182Y1461D01*
X5182D01*
X5181Y1461D01*
X5179D01*
X5177Y1460D01*
X5171Y1458D01*
X5164Y1455D01*
X5156Y1452D01*
X5148Y1447D01*
X5141Y1441D01*
X5134Y1434D01*
X5134Y1433D01*
X5132Y1431D01*
X5129Y1427D01*
X5126Y1421D01*
X5124Y1414D01*
X5121Y1406D01*
X5119Y1397D01*
X5119Y1386D01*
Y1382D01*
X5119Y1378D01*
X5120Y1372D01*
X5121Y1365D01*
X5123Y1358D01*
X5126Y1351D01*
X5130Y1344D01*
X5130Y1343D01*
X5132Y1341D01*
X5134Y1337D01*
X5137Y1333D01*
X5142Y1328D01*
X5147Y1323D01*
X5154Y1318D01*
X5160Y1314D01*
X5161D01*
X5162Y1313D01*
X5165Y1312D01*
X5169Y1310D01*
X5174Y1308D01*
X5180Y1307D01*
X5187Y1306D01*
X5196Y1304D01*
X5197D01*
X5199Y1303D01*
X5201D01*
X5206Y1303D01*
X5213Y1302D01*
X5220Y1301D01*
X5227Y1301D01*
X5233Y1300D01*
X5119D01*
Y1318D01*
Y1300D01*
X5069D01*
Y1604D01*
X4813D01*
X4817D01*
Y1539D01*
X4975D01*
Y1491D01*
X4829D01*
Y1429D01*
X4975D01*
Y1369D01*
X4813D01*
Y1300D01*
X4762D01*
Y1604D01*
X4510D01*
Y1539D01*
X4668D01*
Y1491D01*
X4522D01*
Y1429D01*
X4668D01*
Y1369D01*
X4506D01*
Y1300D01*
X4456D01*
Y1604D01*
X4295D01*
X4292Y1604D01*
X4287D01*
X4282Y1603D01*
X4271Y1601D01*
X4259Y1598D01*
X4246Y1594D01*
X4234Y1588D01*
X4228Y1584D01*
X4223Y1580D01*
X4223D01*
X4222Y1579D01*
X4221Y1577D01*
X4220Y1575D01*
X4215Y1570D01*
X4211Y1562D01*
X4206Y1552D01*
X4202Y1540D01*
X4199Y1526D01*
X4198Y1519D01*
Y1604D01*
X4257D01*
X4198D01*
D01*
X5400D01*
D02*
G37*
G36*
X4198Y1503D02*
Y1499D01*
X4200Y1495D01*
X4201Y1485D01*
X4205Y1473D01*
X4210Y1461D01*
X4213Y1455D01*
X4216Y1449D01*
X4221Y1444D01*
X4226Y1439D01*
X4226D01*
X4227Y1438D01*
X4228Y1437D01*
X4231Y1435D01*
X4234Y1433D01*
X4237Y1430D01*
X4242Y1428D01*
X4247Y1426D01*
X4252Y1424D01*
X4258Y1422D01*
X4266Y1419D01*
X4273Y1417D01*
X4282Y1415D01*
X4291Y1414D01*
X4300Y1414D01*
X4311Y1413D01*
X4362D01*
Y1300D01*
X4198D01*
Y1506D01*
X4198Y1503D01*
D02*
G37*
G36*
X12400Y2200D02*
Y2195D01*
X12278D01*
X12282Y2196D01*
X12286D01*
X12295Y2196D01*
X12306Y2197D01*
X12317Y2199D01*
X12327Y2201D01*
X12337Y2204D01*
X12338Y2205D01*
X12341Y2206D01*
X12346Y2208D01*
X12351Y2212D01*
X12357Y2216D01*
X12364Y2221D01*
X12371Y2226D01*
X12377Y2233D01*
X12377Y2234D01*
X12379Y2236D01*
X12382Y2240D01*
X12386Y2246D01*
X12389Y2253D01*
X12393Y2260D01*
X12397Y2270D01*
X12400Y2280D01*
X12316Y2292D01*
Y2290D01*
X12315Y2288D01*
X12313Y2283D01*
X12312Y2278D01*
X12307Y2266D01*
X12304Y2260D01*
X12301Y2256D01*
X12300Y2255D01*
X12299Y2254D01*
X12296Y2253D01*
X12293Y2252D01*
X12290Y2249D01*
X12285Y2248D01*
X12280Y2247D01*
X12273Y2247D01*
X12271D01*
X12267Y2247D01*
X12263Y2248D01*
X12259Y2249D01*
X12254Y2252D01*
X12250Y2255D01*
X12245Y2259D01*
X12245Y2259D01*
X12243Y2261D01*
X12241Y2264D01*
X12239Y2268D01*
X12237Y2272D01*
X12235Y2278D01*
X12234Y2285D01*
X12234Y2292D01*
Y2293D01*
Y2295D01*
X12234Y2299D01*
X12235Y2304D01*
X12236Y2309D01*
X12238Y2315D01*
X12241Y2320D01*
X12245Y2325D01*
X12245Y2325D01*
X12247Y2327D01*
X12249Y2329D01*
X12252Y2331D01*
X12257Y2333D01*
X12262Y2335D01*
X12268Y2336D01*
X12275Y2337D01*
X12278D01*
X12282Y2336D01*
X12286Y2335D01*
X12290Y2334D01*
X12296Y2333D01*
X12302Y2332D01*
X12298Y2391D01*
X12294D01*
X12290Y2391D01*
X12284D01*
X12281Y2391D01*
X12277Y2392D01*
X12273Y2393D01*
X12268Y2395D01*
X12263Y2398D01*
X12259Y2401D01*
X12258Y2401D01*
X12257Y2403D01*
X12255Y2405D01*
X12253Y2408D01*
X12251Y2411D01*
X12249Y2416D01*
X12248Y2421D01*
X12247Y2426D01*
Y2426D01*
Y2428D01*
X12248Y2431D01*
X12248Y2434D01*
X12250Y2438D01*
X12251Y2441D01*
X12253Y2445D01*
X12256Y2448D01*
X12256Y2449D01*
X12257Y2449D01*
X12259Y2451D01*
X12262Y2453D01*
X12265Y2454D01*
X12269Y2455D01*
X12273Y2456D01*
X12279Y2456D01*
X12281D01*
X12284Y2456D01*
X12288Y2455D01*
X12292Y2454D01*
X12296Y2453D01*
X12300Y2450D01*
X12303Y2447D01*
X12304Y2446D01*
X12305Y2445D01*
X12306Y2443D01*
X12308Y2440D01*
X12310Y2435D01*
X12312Y2430D01*
X12314Y2424D01*
X12316Y2416D01*
X12396Y2430D01*
Y2430D01*
X12395Y2431D01*
X12394Y2434D01*
X12394Y2436D01*
X12392Y2439D01*
X12391Y2443D01*
X12387Y2451D01*
X12382Y2461D01*
X12376Y2471D01*
X12368Y2480D01*
X12358Y2489D01*
X12357D01*
X12357Y2490D01*
X12355Y2490D01*
X12352Y2492D01*
X12349Y2494D01*
X12346Y2495D01*
X12342Y2497D01*
X12337Y2499D01*
X12332Y2501D01*
X12326Y2502D01*
X12319Y2504D01*
X12312Y2506D01*
X12304Y2507D01*
X12296Y2508D01*
X12277Y2509D01*
X12400D01*
D01*
Y2200D01*
D02*
G37*
G36*
X12149Y2509D02*
X12272D01*
X12267Y2509D01*
X12262D01*
X12257Y2508D01*
X12251Y2507D01*
X12244Y2506D01*
X12230Y2504D01*
X12216Y2500D01*
X12202Y2494D01*
X12196Y2491D01*
X12191Y2487D01*
X12190D01*
X12190Y2486D01*
X12186Y2483D01*
X12182Y2478D01*
X12177Y2471D01*
X12172Y2464D01*
X12168Y2454D01*
X12165Y2443D01*
X12165Y2437D01*
X12164Y2431D01*
Y2430D01*
Y2428D01*
X12165Y2424D01*
X12165Y2419D01*
X12167Y2414D01*
X12169Y2408D01*
X12171Y2401D01*
X12175Y2395D01*
X12176Y2395D01*
X12177Y2393D01*
X12180Y2390D01*
X12183Y2386D01*
X12187Y2382D01*
X12193Y2377D01*
X12200Y2372D01*
X12207Y2368D01*
X12207D01*
X12205Y2367D01*
X12201Y2366D01*
X12197Y2365D01*
X12189Y2361D01*
X12185Y2360D01*
X12181Y2358D01*
X12180Y2357D01*
X12179Y2356D01*
X12176Y2354D01*
X12172Y2351D01*
X12169Y2348D01*
X12165Y2343D01*
X12161Y2338D01*
X12157Y2333D01*
X12157Y2332D01*
X12156Y2330D01*
X12155Y2327D01*
X12153Y2323D01*
X12151Y2317D01*
X12150Y2311D01*
X12149Y2304D01*
X12149Y2297D01*
Y2292D01*
X12149Y2287D01*
X12150Y2280D01*
X12152Y2272D01*
X12155Y2264D01*
X12158Y2255D01*
X12163Y2246D01*
X12164Y2244D01*
X12166Y2242D01*
X12169Y2237D01*
X12173Y2232D01*
X12179Y2226D01*
X12186Y2219D01*
X12194Y2213D01*
X12203Y2208D01*
X12204D01*
X12204Y2207D01*
X12206Y2207D01*
X12208Y2206D01*
X12210Y2205D01*
X12214Y2204D01*
X12221Y2202D01*
X12231Y2199D01*
X12243Y2197D01*
X12257Y2196D01*
X12272Y2195D01*
X12149D01*
Y2288D01*
Y2195D01*
X11786D01*
Y2196D01*
Y2195D01*
X11664D01*
X11667Y2196D01*
X11672D01*
X11681Y2196D01*
X11691Y2197D01*
X11702Y2199D01*
X11713Y2201D01*
X11723Y2204D01*
X11724Y2205D01*
X11727Y2206D01*
X11731Y2208D01*
X11737Y2212D01*
X11743Y2216D01*
X11750Y2221D01*
X11756Y2226D01*
X11762Y2233D01*
X11763Y2234D01*
X11765Y2236D01*
X11768Y2240D01*
X11771Y2246D01*
X11775Y2253D01*
X11778Y2260D01*
X11782Y2270D01*
X11786Y2280D01*
X11701Y2292D01*
Y2290D01*
X11700Y2288D01*
X11699Y2283D01*
X11697Y2278D01*
X11693Y2266D01*
X11690Y2260D01*
X11686Y2256D01*
X11686Y2255D01*
X11685Y2254D01*
X11682Y2253D01*
X11679Y2252D01*
X11675Y2249D01*
X11670Y2248D01*
X11665Y2247D01*
X11659Y2247D01*
X11656D01*
X11653Y2247D01*
X11649Y2248D01*
X11645Y2249D01*
X11640Y2252D01*
X11635Y2255D01*
X11631Y2259D01*
X11630Y2259D01*
X11629Y2261D01*
X11627Y2264D01*
X11625Y2268D01*
X11623Y2272D01*
X11621Y2278D01*
X11620Y2285D01*
X11619Y2292D01*
Y2293D01*
Y2295D01*
X11620Y2299D01*
X11620Y2304D01*
X11622Y2309D01*
X11624Y2315D01*
X11626Y2320D01*
X11630Y2325D01*
X11631Y2325D01*
X11632Y2327D01*
X11635Y2329D01*
X11638Y2331D01*
X11642Y2333D01*
X11647Y2335D01*
X11654Y2336D01*
X11660Y2337D01*
X11664D01*
X11667Y2336D01*
X11671Y2335D01*
X11676Y2334D01*
X11681Y2333D01*
X11687Y2332D01*
X11683Y2391D01*
X11680D01*
X11676Y2391D01*
X11670D01*
X11666Y2391D01*
X11662Y2392D01*
X11659Y2393D01*
X11654Y2395D01*
X11649Y2398D01*
X11645Y2401D01*
X11644Y2401D01*
X11643Y2403D01*
X11641Y2405D01*
X11639Y2408D01*
X11637Y2411D01*
X11635Y2416D01*
X11634Y2421D01*
X11633Y2426D01*
Y2426D01*
Y2428D01*
X11634Y2431D01*
X11634Y2434D01*
X11635Y2438D01*
X11636Y2441D01*
X11639Y2445D01*
X11641Y2448D01*
X11642Y2449D01*
X11643Y2449D01*
X11645Y2451D01*
X11647Y2453D01*
X11651Y2454D01*
X11655Y2455D01*
X11659Y2456D01*
X11665Y2456D01*
X11667D01*
X11670Y2456D01*
X11674Y2455D01*
X11677Y2454D01*
X11681Y2453D01*
X11685Y2450D01*
X11689Y2447D01*
X11690Y2446D01*
X11691Y2445D01*
X11692Y2443D01*
X11694Y2440D01*
X11696Y2435D01*
X11698Y2430D01*
X11700Y2424D01*
X11701Y2416D01*
X11781Y2430D01*
Y2430D01*
X11781Y2431D01*
X11780Y2434D01*
X11780Y2436D01*
X11778Y2439D01*
X11777Y2443D01*
X11773Y2451D01*
X11768Y2461D01*
X11761Y2471D01*
X11753Y2480D01*
X11743Y2489D01*
X11743D01*
X11742Y2490D01*
X11741Y2490D01*
X11738Y2492D01*
X11735Y2494D01*
X11732Y2495D01*
X11727Y2497D01*
X11722Y2499D01*
X11717Y2501D01*
X11711Y2502D01*
X11705Y2504D01*
X11697Y2506D01*
X11690Y2507D01*
X11681Y2508D01*
X11663Y2509D01*
X11786D01*
X11534D01*
D01*
X12400D01*
X12149D01*
D02*
G37*
G36*
X11653Y2509D02*
X11648D01*
X11642Y2508D01*
X11636Y2507D01*
X11630Y2506D01*
X11615Y2504D01*
X11601Y2500D01*
X11587Y2494D01*
X11582Y2491D01*
X11576Y2487D01*
X11576D01*
X11575Y2486D01*
X11572Y2483D01*
X11568Y2478D01*
X11563Y2471D01*
X11558Y2464D01*
X11554Y2454D01*
X11551Y2443D01*
X11550Y2437D01*
X11550Y2431D01*
Y2430D01*
Y2428D01*
X11550Y2424D01*
X11551Y2419D01*
X11553Y2414D01*
X11554Y2408D01*
X11557Y2401D01*
X11561Y2395D01*
X11561Y2395D01*
X11563Y2393D01*
X11565Y2390D01*
X11569Y2386D01*
X11573Y2382D01*
X11579Y2377D01*
X11585Y2372D01*
X11593Y2368D01*
X11592D01*
X11590Y2367D01*
X11587Y2366D01*
X11583Y2365D01*
X11575Y2361D01*
X11570Y2360D01*
X11566Y2358D01*
X11566Y2357D01*
X11564Y2356D01*
X11561Y2354D01*
X11558Y2351D01*
X11554Y2348D01*
X11550Y2343D01*
X11546Y2338D01*
X11543Y2333D01*
X11543Y2332D01*
X11541Y2330D01*
X11540Y2327D01*
X11539Y2323D01*
X11537Y2317D01*
X11535Y2311D01*
X11535Y2304D01*
X11534Y2297D01*
Y2509D01*
X11657D01*
X11653Y2509D01*
D02*
G37*
G36*
X11535Y2287D02*
X11536Y2280D01*
X11538Y2272D01*
X11540Y2264D01*
X11544Y2255D01*
X11549Y2246D01*
X11549Y2244D01*
X11551Y2242D01*
X11554Y2237D01*
X11559Y2232D01*
X11565Y2226D01*
X11571Y2219D01*
X11579Y2213D01*
X11589Y2208D01*
X11589D01*
X11590Y2207D01*
X11591Y2207D01*
X11594Y2206D01*
X11596Y2205D01*
X11599Y2204D01*
X11607Y2202D01*
X11617Y2199D01*
X11629Y2197D01*
X11642Y2196D01*
X11657Y2195D01*
X11534D01*
D01*
D01*
Y2200D01*
Y2196D01*
Y2292D01*
X11535Y2287D01*
D02*
G37*
G36*
X11585Y2919D02*
X11558D01*
X11553Y2920D01*
X11546D01*
X11539Y2921D01*
X11532Y2922D01*
X11526Y2923D01*
X11520Y2925D01*
X11520Y2926D01*
X11518Y2927D01*
X11516Y2928D01*
X11513Y2931D01*
X11510Y2934D01*
X11506Y2938D01*
X11503Y2943D01*
X11500Y2948D01*
X11500Y2949D01*
X11499Y2952D01*
X11498Y2955D01*
X11496Y2961D01*
X11495Y2968D01*
X11494Y2978D01*
X11494Y2988D01*
X11493Y3001D01*
Y3002D01*
Y3003D01*
Y3005D01*
Y3009D01*
X11494Y3013D01*
Y3017D01*
X11495Y3028D01*
X11497Y3038D01*
X11500Y3049D01*
X11504Y3059D01*
X11506Y3063D01*
X11509Y3067D01*
X11510Y3068D01*
X11513Y3070D01*
X11516Y3073D01*
X11522Y3076D01*
X11529Y3080D01*
X11538Y3083D01*
X11549Y3085D01*
X11562Y3085D01*
X11585D01*
Y2919D01*
D02*
G37*
G36*
X12400Y2850D02*
Y2845D01*
X12245D01*
X12249Y2846D01*
X12254D01*
X12259Y2846D01*
X12265Y2847D01*
X12272Y2847D01*
X12286Y2849D01*
X12301Y2853D01*
X12315Y2857D01*
X12329Y2863D01*
X12330D01*
X12331Y2864D01*
X12332Y2866D01*
X12335Y2867D01*
X12341Y2871D01*
X12348Y2877D01*
X12357Y2884D01*
X12366Y2894D01*
X12374Y2905D01*
X12382Y2918D01*
Y2918D01*
X12382Y2919D01*
X12383Y2922D01*
X12384Y2924D01*
X12386Y2928D01*
X12387Y2932D01*
X12389Y2937D01*
X12391Y2942D01*
X12393Y2948D01*
X12394Y2954D01*
X12397Y2969D01*
X12399Y2985D01*
X12400Y3002D01*
Y3007D01*
X12399Y3010D01*
Y3015D01*
X12399Y3020D01*
X12398Y3025D01*
X12397Y3031D01*
X12395Y3045D01*
X12391Y3059D01*
X12386Y3074D01*
X12379Y3088D01*
Y3089D01*
X12378Y3090D01*
X12377Y3091D01*
X12376Y3094D01*
X12371Y3101D01*
X12364Y3109D01*
X12356Y3118D01*
X12346Y3128D01*
X12333Y3136D01*
X12320Y3144D01*
X12319D01*
X12318Y3145D01*
X12316Y3146D01*
X12314Y3146D01*
X12311Y3147D01*
X12307Y3149D01*
X12302Y3150D01*
X12297Y3152D01*
X12292Y3153D01*
X12285Y3154D01*
X12278Y3156D01*
X12271Y3157D01*
X12263Y3158D01*
X12255Y3159D01*
X12236Y3159D01*
X12400D01*
X12090D01*
D01*
X12223D01*
X12219Y3159D01*
X12207Y3158D01*
X12195Y3157D01*
X12182Y3155D01*
X12171Y3153D01*
X12165Y3151D01*
X12160Y3150D01*
X12160D01*
X12159Y3149D01*
X12156Y3148D01*
X12151Y3146D01*
X12146Y3143D01*
X12139Y3139D01*
X12132Y3134D01*
X12125Y3128D01*
X12119Y3121D01*
X12118Y3120D01*
X12116Y3118D01*
X12113Y3114D01*
X12109Y3108D01*
X12105Y3101D01*
X12101Y3093D01*
X12097Y3084D01*
X12094Y3073D01*
X12184Y3057D01*
Y3058D01*
X12185Y3060D01*
X12187Y3063D01*
X12189Y3067D01*
X12191Y3071D01*
X12195Y3075D01*
X12199Y3079D01*
X12204Y3083D01*
X12204Y3084D01*
X12206Y3085D01*
X12209Y3086D01*
X12213Y3088D01*
X12218Y3090D01*
X12224Y3091D01*
X12230Y3092D01*
X12238Y3093D01*
X12241D01*
X12243Y3092D01*
X12248Y3091D01*
X12256Y3090D01*
X12263Y3088D01*
X12272Y3084D01*
X12280Y3078D01*
X12287Y3071D01*
X12288Y3070D01*
X12290Y3067D01*
X12293Y3061D01*
X12296Y3054D01*
X12300Y3045D01*
X12301Y3039D01*
X12303Y3033D01*
X12304Y3026D01*
X12305Y3019D01*
X12306Y3012D01*
Y3003D01*
Y3003D01*
Y3001D01*
Y2999D01*
X12305Y2995D01*
Y2991D01*
X12305Y2987D01*
X12303Y2976D01*
X12301Y2964D01*
X12298Y2953D01*
X12293Y2942D01*
X12291Y2937D01*
X12287Y2933D01*
X12286Y2932D01*
X12284Y2929D01*
X12280Y2926D01*
X12273Y2922D01*
X12266Y2918D01*
X12257Y2915D01*
X12247Y2913D01*
X12235Y2912D01*
X12230D01*
X12226Y2912D01*
X12221Y2913D01*
X12216Y2913D01*
X12205Y2916D01*
X12205D01*
X12202Y2917D01*
X12200Y2918D01*
X12196Y2920D01*
X12191Y2922D01*
X12185Y2924D01*
X12179Y2928D01*
X12172Y2932D01*
Y2960D01*
X12235D01*
Y3024D01*
X12090D01*
Y2845D01*
X11399D01*
Y2850D01*
Y2995D01*
X11399Y2990D01*
Y2986D01*
X11400Y2975D01*
X11402Y2963D01*
X11404Y2950D01*
X11407Y2938D01*
X11410Y2927D01*
Y2927D01*
X11411Y2926D01*
X11413Y2923D01*
X11415Y2918D01*
X11418Y2912D01*
X11423Y2904D01*
X11428Y2897D01*
X11434Y2889D01*
X11442Y2882D01*
X11443Y2882D01*
X11445Y2879D01*
X11449Y2876D01*
X11454Y2872D01*
X11460Y2868D01*
X11467Y2864D01*
X11475Y2861D01*
X11483Y2858D01*
X11484D01*
X11484Y2857D01*
X11486D01*
X11488Y2857D01*
X11494Y2856D01*
X11502Y2854D01*
X11510Y2852D01*
X11520Y2851D01*
X11530Y2851D01*
X11540Y2850D01*
X11679D01*
Y3154D01*
X11465D01*
X11533D01*
X11529Y3154D01*
X11525D01*
X11516Y3152D01*
X11505Y3151D01*
X11494Y3149D01*
X11483Y3146D01*
X11473Y3142D01*
X11472D01*
X11471Y3142D01*
X11468Y3140D01*
X11464Y3138D01*
X11458Y3134D01*
X11451Y3130D01*
X11444Y3124D01*
X11437Y3118D01*
X11430Y3110D01*
X11430Y3109D01*
X11428Y3106D01*
X11425Y3103D01*
X11421Y3096D01*
X11417Y3089D01*
X11413Y3081D01*
X11410Y3071D01*
X11407Y3061D01*
Y3061D01*
X11406Y3060D01*
Y3059D01*
X11405Y3056D01*
X11404Y3051D01*
X11403Y3044D01*
X11401Y3035D01*
X11400Y3025D01*
X11399Y3014D01*
X11399Y3003D01*
Y3154D01*
D01*
Y3159D01*
X12400D01*
Y2850D01*
D02*
G37*
G36*
X12090Y2893D02*
X12091Y2893D01*
X12094Y2891D01*
X12097Y2889D01*
X12100Y2887D01*
X12105Y2884D01*
X12115Y2878D01*
X12126Y2872D01*
X12139Y2866D01*
X12152Y2859D01*
X12164Y2855D01*
X12165D01*
X12166Y2854D01*
X12167Y2854D01*
X12170Y2853D01*
X12173Y2853D01*
X12176Y2852D01*
X12181Y2851D01*
X12185Y2850D01*
X12196Y2848D01*
X12210Y2847D01*
X12224Y2846D01*
X12240Y2845D01*
X12090D01*
Y2894D01*
X12090Y2893D01*
D02*
G37*
G36*
X11646Y3669D02*
X11618D01*
X11613Y3670D01*
X11606D01*
X11600Y3671D01*
X11592Y3672D01*
X11586Y3673D01*
X11581Y3675D01*
X11580Y3676D01*
X11579Y3677D01*
X11576Y3678D01*
X11574Y3681D01*
X11570Y3684D01*
X11567Y3688D01*
X11564Y3693D01*
X11561Y3698D01*
X11560Y3699D01*
X11560Y3702D01*
X11559Y3705D01*
X11557Y3711D01*
X11556Y3718D01*
X11555Y3728D01*
X11554Y3738D01*
X11554Y3751D01*
Y3752D01*
Y3753D01*
Y3755D01*
Y3759D01*
X11554Y3763D01*
Y3767D01*
X11556Y3778D01*
X11558Y3788D01*
X11560Y3799D01*
X11564Y3809D01*
X11567Y3813D01*
X11570Y3817D01*
X11570Y3818D01*
X11573Y3820D01*
X11577Y3823D01*
X11582Y3826D01*
X11590Y3830D01*
X11599Y3833D01*
X11610Y3835D01*
X11622Y3835D01*
X11646D01*
Y3669D01*
D02*
G37*
G36*
X12400Y3904D02*
Y3600D01*
X12304D01*
Y3829D01*
X12400D01*
Y3904D01*
X12114D01*
Y3829D01*
X12210D01*
Y3600D01*
X12114D01*
Y3601D01*
Y3600D01*
X12102D01*
D01*
X11997Y3758D01*
X12093Y3904D01*
X11964D01*
X11989D01*
X11935Y3810D01*
X11883Y3904D01*
X11780D01*
X11875Y3757D01*
X11771Y3600D01*
D01*
X11740D01*
Y3904D01*
X11586D01*
X11594D01*
X11590Y3904D01*
X11586D01*
X11576Y3902D01*
X11565Y3901D01*
X11554Y3899D01*
X11543Y3896D01*
X11533Y3892D01*
X11533D01*
X11532Y3892D01*
X11529Y3890D01*
X11524Y3888D01*
X11518Y3884D01*
X11511Y3880D01*
X11504Y3874D01*
X11498Y3868D01*
X11491Y3860D01*
X11490Y3859D01*
X11488Y3856D01*
X11485Y3853D01*
X11481Y3846D01*
X11478Y3839D01*
X11474Y3831D01*
X11470Y3821D01*
X11467Y3811D01*
Y3811D01*
X11466Y3810D01*
Y3809D01*
X11466Y3806D01*
X11465Y3801D01*
X11463Y3794D01*
X11461Y3785D01*
X11460Y3775D01*
X11460Y3764D01*
X11459Y3753D01*
Y3904D01*
D01*
D01*
X12400D01*
D02*
G37*
G36*
X11997Y3600D02*
X11877D01*
X11937Y3698D01*
X11997Y3600D01*
D02*
G37*
G36*
X11460Y3740D02*
Y3736D01*
X11461Y3725D01*
X11462Y3713D01*
X11464Y3700D01*
X11467Y3688D01*
X11471Y3677D01*
Y3677D01*
X11471Y3676D01*
X11473Y3673D01*
X11475Y3668D01*
X11479Y3662D01*
X11483Y3654D01*
X11489Y3647D01*
X11495Y3639D01*
X11502Y3632D01*
X11503Y3632D01*
X11505Y3629D01*
X11509Y3626D01*
X11514Y3622D01*
X11521Y3618D01*
X11528Y3614D01*
X11535Y3611D01*
X11544Y3608D01*
X11544D01*
X11545Y3607D01*
X11546D01*
X11549Y3607D01*
X11555Y3606D01*
X11563Y3604D01*
X11571Y3602D01*
X11581Y3601D01*
X11590Y3601D01*
X11600Y3600D01*
X11459D01*
Y3745D01*
X11460Y3740D01*
D02*
G37*
G36*
X11985Y4504D02*
X12038D01*
X11984Y4410D01*
X11932Y4504D01*
X11829D01*
X11924Y4357D01*
X11820Y4200D01*
D01*
X11788D01*
Y4504D01*
X11574D01*
X11642D01*
X11639Y4504D01*
X11635D01*
X11625Y4502D01*
X11614Y4501D01*
X11603Y4499D01*
X11592Y4496D01*
X11582Y4492D01*
X11581D01*
X11581Y4492D01*
X11578Y4490D01*
X11573Y4488D01*
X11567Y4484D01*
X11560Y4480D01*
X11553Y4474D01*
X11546Y4468D01*
X11540Y4460D01*
X11539Y4459D01*
X11537Y4456D01*
X11534Y4453D01*
X11530Y4446D01*
X11526Y4439D01*
X11523Y4431D01*
X11519Y4421D01*
X11516Y4411D01*
Y4411D01*
X11515Y4410D01*
Y4409D01*
X11515Y4406D01*
X11514Y4401D01*
X11512Y4394D01*
X11510Y4385D01*
X11509Y4375D01*
X11509Y4364D01*
X11508Y4353D01*
Y4504D01*
D01*
D01*
X12450D01*
X11985D01*
D02*
G37*
G36*
X12356Y4381D02*
X12313D01*
X12311Y4381D01*
X12307Y4382D01*
X12303Y4383D01*
X12297Y4384D01*
X12291Y4385D01*
X12291D01*
X12290Y4385D01*
X12288Y4386D01*
X12286Y4386D01*
X12281Y4389D01*
X12278Y4391D01*
X12276Y4394D01*
X12275Y4395D01*
X12275Y4396D01*
X12274Y4397D01*
X12272Y4399D01*
X12271Y4405D01*
X12270Y4408D01*
Y4412D01*
Y4413D01*
Y4414D01*
X12270Y4417D01*
X12271Y4420D01*
X12272Y4424D01*
X12274Y4428D01*
X12276Y4431D01*
X12279Y4434D01*
X12280Y4435D01*
X12281Y4435D01*
X12284Y4437D01*
X12287Y4439D01*
X12292Y4440D01*
X12298Y4441D01*
X12306Y4442D01*
X12315Y4443D01*
X12356D01*
Y4381D01*
D02*
G37*
G36*
X11695Y4269D02*
X11667D01*
X11662Y4270D01*
X11655D01*
X11649Y4271D01*
X11641Y4272D01*
X11635Y4273D01*
X11630Y4275D01*
X11629Y4276D01*
X11627Y4277D01*
X11625Y4278D01*
X11622Y4281D01*
X11619Y4284D01*
X11616Y4288D01*
X11613Y4293D01*
X11610Y4298D01*
X11609Y4299D01*
X11609Y4302D01*
X11608Y4305D01*
X11606Y4311D01*
X11605Y4318D01*
X11604Y4328D01*
X11603Y4338D01*
X11603Y4351D01*
Y4352D01*
Y4353D01*
Y4355D01*
Y4359D01*
X11603Y4363D01*
Y4367D01*
X11605Y4378D01*
X11606Y4388D01*
X11609Y4399D01*
X11613Y4409D01*
X11616Y4413D01*
X11619Y4417D01*
X11619Y4418D01*
X11622Y4420D01*
X11626Y4423D01*
X11631Y4426D01*
X11639Y4430D01*
X11647Y4433D01*
X11659Y4435D01*
X11671Y4435D01*
X11695D01*
Y4269D01*
D02*
G37*
G36*
X12279Y4504D02*
X12269Y4503D01*
X12258Y4502D01*
X12247Y4501D01*
X12236Y4499D01*
X12227Y4496D01*
X12226Y4496D01*
X12223Y4495D01*
X12219Y4493D01*
X12214Y4490D01*
X12207Y4486D01*
X12201Y4481D01*
X12195Y4476D01*
X12190Y4469D01*
X12189Y4468D01*
X12187Y4465D01*
X12185Y4461D01*
X12182Y4455D01*
X12180Y4448D01*
X12177Y4439D01*
X12176Y4430D01*
X12175Y4419D01*
Y4418D01*
Y4415D01*
X12176Y4410D01*
X12176Y4404D01*
X12178Y4398D01*
X12180Y4390D01*
X12182Y4383D01*
X12186Y4375D01*
X12187Y4375D01*
X12188Y4373D01*
X12191Y4369D01*
X12194Y4365D01*
X12199Y4360D01*
X12204Y4355D01*
X12210Y4350D01*
X12216Y4346D01*
X12217Y4345D01*
X12219Y4345D01*
X12221Y4343D01*
X12225Y4342D01*
X12230Y4340D01*
X12235Y4338D01*
X12242Y4336D01*
X12249Y4334D01*
X12249D01*
X12246Y4333D01*
X12244Y4332D01*
X12240Y4330D01*
X12232Y4327D01*
X12228Y4325D01*
X12225Y4323D01*
X12224Y4322D01*
X12222Y4321D01*
X12221Y4319D01*
X12219Y4317D01*
X12216Y4314D01*
X12213Y4311D01*
X12210Y4307D01*
X12209Y4306D01*
X12208Y4304D01*
X12206Y4302D01*
X12204Y4300D01*
X12200Y4293D01*
X12198Y4290D01*
X12196Y4288D01*
X12151Y4201D01*
X12151Y4200D01*
X12150Y4201D01*
X12046Y4358D01*
X12141Y4504D01*
X12151D01*
X12282D01*
X12279Y4504D01*
D02*
G37*
G36*
X12450Y4200D02*
D01*
Y4504D01*
D01*
Y4200D01*
D02*
G37*
G36*
X12356D02*
X12257D01*
X12307Y4293D01*
X12308Y4293D01*
X12309Y4295D01*
X12311Y4299D01*
X12313Y4302D01*
X12318Y4310D01*
X12322Y4313D01*
X12325Y4316D01*
X12325Y4317D01*
X12326Y4317D01*
X12328Y4318D01*
X12331Y4320D01*
X12335Y4321D01*
X12338Y4322D01*
X12343Y4323D01*
X12348Y4323D01*
X12356D01*
Y4200D01*
D02*
G37*
G36*
X12046D02*
X11926D01*
X11986Y4298D01*
X12046Y4200D01*
D02*
G37*
G36*
X11509Y4340D02*
Y4336D01*
X11510Y4325D01*
X11511Y4313D01*
X11513Y4300D01*
X11516Y4288D01*
X11520Y4277D01*
Y4277D01*
X11520Y4276D01*
X11522Y4273D01*
X11524Y4268D01*
X11528Y4262D01*
X11532Y4254D01*
X11538Y4247D01*
X11544Y4239D01*
X11551Y4232D01*
X11552Y4232D01*
X11554Y4229D01*
X11558Y4226D01*
X11563Y4222D01*
X11570Y4218D01*
X11576Y4214D01*
X11584Y4211D01*
X11593Y4208D01*
X11593D01*
X11594Y4207D01*
X11595D01*
X11598Y4207D01*
X11604Y4206D01*
X11611Y4204D01*
X11620Y4202D01*
X11630Y4201D01*
X11639Y4201D01*
X11649Y4200D01*
X11508D01*
Y4345D01*
X11509Y4340D01*
D02*
G37*
G36*
X9759Y1250D02*
D01*
Y1250D01*
X9607D01*
X9610Y1251D01*
X9615D01*
X9620Y1251D01*
X9625Y1252D01*
X9631Y1253D01*
X9645Y1255D01*
X9659Y1259D01*
X9674Y1264D01*
X9688Y1271D01*
X9689D01*
X9690Y1272D01*
X9691Y1273D01*
X9694Y1274D01*
X9701Y1279D01*
X9709Y1286D01*
X9718Y1294D01*
X9728Y1304D01*
X9736Y1317D01*
X9744Y1330D01*
Y1331D01*
X9745Y1332D01*
X9746Y1334D01*
X9746Y1336D01*
X9747Y1339D01*
X9749Y1343D01*
X9750Y1348D01*
X9752Y1353D01*
X9753Y1358D01*
X9754Y1365D01*
X9756Y1372D01*
X9757Y1379D01*
X9758Y1387D01*
X9759Y1395D01*
X9759Y1414D01*
Y1427D01*
X9759Y1431D01*
X9758Y1443D01*
X9757Y1455D01*
X9755Y1468D01*
X9753Y1479D01*
X9751Y1485D01*
X9750Y1490D01*
Y1490D01*
X9749Y1491D01*
X9748Y1494D01*
X9746Y1499D01*
X9743Y1504D01*
X9739Y1511D01*
X9734Y1518D01*
X9728Y1525D01*
X9721Y1531D01*
X9720Y1532D01*
X9718Y1534D01*
X9714Y1537D01*
X9708Y1541D01*
X9701Y1545D01*
X9693Y1549D01*
X9684Y1553D01*
X9673Y1556D01*
X9657Y1466D01*
X9658D01*
X9660Y1465D01*
X9663Y1463D01*
X9667Y1461D01*
X9671Y1459D01*
X9675Y1455D01*
X9679Y1451D01*
X9683Y1446D01*
X9684Y1446D01*
X9685Y1444D01*
X9686Y1441D01*
X9688Y1437D01*
X9690Y1432D01*
X9691Y1426D01*
X9692Y1420D01*
X9693Y1412D01*
Y1409D01*
X9692Y1407D01*
X9691Y1402D01*
X9690Y1394D01*
X9688Y1387D01*
X9684Y1378D01*
X9678Y1370D01*
X9671Y1363D01*
X9670Y1362D01*
X9667Y1360D01*
X9661Y1357D01*
X9654Y1354D01*
X9645Y1350D01*
X9639Y1349D01*
X9633Y1347D01*
X9626Y1346D01*
X9619Y1345D01*
X9611Y1344D01*
X9603D01*
X9603D01*
X9601D01*
X9599D01*
X9595Y1345D01*
X9591D01*
X9587Y1345D01*
X9576Y1347D01*
X9564Y1349D01*
X9553Y1352D01*
X9542Y1357D01*
X9537Y1359D01*
X9533Y1363D01*
X9532Y1364D01*
X9529Y1366D01*
X9526Y1370D01*
X9522Y1377D01*
X9518Y1384D01*
X9515Y1393D01*
X9513Y1403D01*
X9512Y1415D01*
Y1420D01*
X9512Y1424D01*
X9513Y1429D01*
X9513Y1434D01*
X9516Y1445D01*
Y1445D01*
X9517Y1448D01*
X9518Y1450D01*
X9520Y1454D01*
X9522Y1459D01*
X9524Y1465D01*
X9528Y1471D01*
X9532Y1478D01*
X9560D01*
Y1415D01*
X9624D01*
Y1560D01*
X9759D01*
X9494D01*
X9493Y1560D01*
X9493Y1559D01*
X9491Y1556D01*
X9489Y1553D01*
X9487Y1550D01*
X9484Y1545D01*
X9478Y1535D01*
X9472Y1524D01*
X9466Y1511D01*
X9459Y1498D01*
X9455Y1486D01*
Y1485D01*
X9454Y1484D01*
X9454Y1483D01*
X9453Y1480D01*
X9453Y1477D01*
X9452Y1474D01*
X9451Y1469D01*
X9450Y1465D01*
X9448Y1454D01*
X9447Y1440D01*
X9446Y1426D01*
X9445Y1410D01*
Y1560D01*
D01*
Y2251D01*
X9759D01*
Y1250D01*
D02*
G37*
G36*
X9446Y1401D02*
Y1396D01*
X9446Y1391D01*
X9447Y1385D01*
X9447Y1378D01*
X9449Y1364D01*
X9453Y1349D01*
X9457Y1335D01*
X9463Y1321D01*
Y1320D01*
X9464Y1319D01*
X9466Y1318D01*
X9467Y1315D01*
X9471Y1309D01*
X9477Y1302D01*
X9484Y1293D01*
X9494Y1284D01*
X9505Y1276D01*
X9518Y1268D01*
X9518D01*
X9519Y1268D01*
X9522Y1267D01*
X9524Y1266D01*
X9528Y1264D01*
X9532Y1263D01*
X9537Y1261D01*
X9542Y1259D01*
X9548Y1257D01*
X9554Y1256D01*
X9569Y1253D01*
X9585Y1251D01*
X9602Y1250D01*
X9445D01*
Y1405D01*
X9446Y1401D01*
D02*
G37*
G36*
X10109Y1409D02*
X10109Y1413D01*
Y1418D01*
X10108Y1424D01*
X10107Y1430D01*
X10106Y1436D01*
X10104Y1451D01*
X10099Y1466D01*
X10094Y1481D01*
X10090Y1488D01*
X10086Y1494D01*
Y1495D01*
X10085Y1496D01*
X10084Y1498D01*
X10081Y1500D01*
X10079Y1503D01*
X10076Y1506D01*
X10072Y1509D01*
X10068Y1513D01*
X10064Y1517D01*
X10058Y1521D01*
X10053Y1525D01*
X10046Y1529D01*
X10039Y1533D01*
X10031Y1537D01*
X10023Y1540D01*
X10014Y1544D01*
X9996Y1460D01*
X9996D01*
X9998Y1460D01*
X10001Y1459D01*
X10004Y1458D01*
X10010Y1454D01*
X10013Y1453D01*
X10016Y1451D01*
X10016Y1450D01*
X10018Y1450D01*
X10020Y1448D01*
X10022Y1445D01*
X10028Y1439D01*
X10033Y1431D01*
X10033Y1431D01*
X10034Y1430D01*
X10035Y1427D01*
X10036Y1424D01*
X10037Y1420D01*
X10038Y1416D01*
X10039Y1411D01*
Y1403D01*
X10038Y1401D01*
X10038Y1395D01*
X10035Y1388D01*
X10033Y1380D01*
X10028Y1372D01*
X10021Y1364D01*
X10017Y1360D01*
X10013Y1357D01*
X10011Y1357D01*
X10009Y1355D01*
X10004Y1353D01*
X9998Y1351D01*
X9990Y1348D01*
X9980Y1347D01*
X9968Y1345D01*
X9953Y1344D01*
X9953D01*
X9951D01*
X9948D01*
X9945D01*
X9941Y1345D01*
X9936D01*
X9925Y1346D01*
X9914Y1348D01*
X9903Y1350D01*
X9892Y1354D01*
X9888Y1357D01*
X9884Y1359D01*
X9883Y1360D01*
X9881Y1362D01*
X9878Y1366D01*
X9875Y1370D01*
X9871Y1377D01*
X9868Y1384D01*
X9866Y1393D01*
X9865Y1403D01*
Y1407D01*
X9866Y1412D01*
X9867Y1418D01*
X9869Y1425D01*
X9872Y1431D01*
X9875Y1438D01*
X9880Y1444D01*
X9881Y1444D01*
X9883Y1446D01*
X9887Y1449D01*
X9892Y1451D01*
X9898Y1455D01*
X9905Y1458D01*
X9914Y1461D01*
X9925Y1464D01*
X9899Y1546D01*
X10109D01*
Y1409D01*
D02*
G37*
G36*
Y1250D02*
X9956D01*
X9960Y1251D01*
X9965D01*
X9971Y1251D01*
X9979Y1252D01*
X9986Y1253D01*
X9995Y1255D01*
X10005Y1257D01*
X10014Y1260D01*
X10024Y1263D01*
X10034Y1267D01*
X10043Y1272D01*
X10052Y1277D01*
X10061Y1283D01*
X10069Y1290D01*
X10069Y1291D01*
X10070Y1292D01*
X10072Y1294D01*
X10075Y1297D01*
X10078Y1302D01*
X10081Y1307D01*
X10085Y1312D01*
X10089Y1319D01*
X10092Y1327D01*
X10096Y1335D01*
X10100Y1345D01*
X10103Y1355D01*
X10105Y1366D01*
X10107Y1378D01*
X10109Y1390D01*
X10109Y1404D01*
Y1250D01*
D02*
G37*
G36*
X10109Y1546D02*
X9795D01*
X9899D01*
X9898Y1546D01*
X9896Y1545D01*
X9894Y1545D01*
X9887Y1543D01*
X9879Y1540D01*
X9870Y1536D01*
X9860Y1531D01*
X9851Y1526D01*
X9842Y1520D01*
X9841Y1519D01*
X9838Y1516D01*
X9834Y1513D01*
X9828Y1508D01*
X9823Y1501D01*
X9817Y1494D01*
X9812Y1485D01*
X9807Y1475D01*
Y1475D01*
X9806Y1474D01*
X9806Y1473D01*
X9805Y1471D01*
X9803Y1465D01*
X9801Y1457D01*
X9799Y1448D01*
X9797Y1436D01*
X9796Y1423D01*
X9795Y1408D01*
Y1400D01*
X9796Y1395D01*
Y1391D01*
X9796Y1385D01*
X9797Y1379D01*
X9798Y1367D01*
X9801Y1353D01*
X9804Y1339D01*
X9809Y1327D01*
Y1326D01*
X9809Y1325D01*
X9811Y1324D01*
X9812Y1322D01*
X9816Y1315D01*
X9821Y1308D01*
X9828Y1300D01*
X9836Y1291D01*
X9847Y1282D01*
X9859Y1273D01*
X9860D01*
X9861Y1272D01*
X9863Y1271D01*
X9866Y1269D01*
X9869Y1268D01*
X9874Y1266D01*
X9879Y1263D01*
X9885Y1262D01*
X9891Y1259D01*
X9898Y1257D01*
X9906Y1256D01*
X9914Y1253D01*
X9923Y1252D01*
X9933Y1251D01*
X9953Y1250D01*
X9795D01*
Y1250D01*
X9795D01*
Y2199D01*
X10109D01*
Y1546D01*
D02*
G37*
G36*
X12059Y2099D02*
Y2099D01*
X11945D01*
X12059D01*
Y1948D01*
X12059Y1953D01*
X12058Y1959D01*
X12057Y1967D01*
X12056Y1975D01*
X12054Y1983D01*
X12052Y1993D01*
X12049Y2002D01*
X12046Y2012D01*
X12042Y2022D01*
X12037Y2031D01*
X12031Y2040D01*
X12025Y2049D01*
X12018Y2057D01*
X12018Y2058D01*
X12016Y2059D01*
X12014Y2061D01*
X12011Y2064D01*
X12006Y2066D01*
X12001Y2070D01*
X11995Y2074D01*
X11989Y2078D01*
X11981Y2082D01*
X11973Y2085D01*
X11963Y2089D01*
X11953Y2092D01*
X11942Y2095D01*
X11930Y2097D01*
X11918Y2098D01*
X11904Y2099D01*
X11745D01*
X11895D01*
X11891Y2098D01*
X11885Y2098D01*
X11880Y2097D01*
X11873Y2096D01*
X11859Y2094D01*
X11845Y2091D01*
X11830Y2086D01*
X11817Y2080D01*
X11816D01*
X11815Y2080D01*
X11813Y2079D01*
X11811Y2077D01*
X11805Y2073D01*
X11797Y2067D01*
X11789Y2060D01*
X11780Y2051D01*
X11772Y2041D01*
X11764Y2029D01*
Y2028D01*
X11763Y2027D01*
X11762Y2025D01*
X11761Y2023D01*
X11759Y2019D01*
X11758Y2015D01*
X11756Y2011D01*
X11754Y2005D01*
X11753Y1999D01*
X11751Y1993D01*
X11748Y1979D01*
X11746Y1962D01*
X11745Y1944D01*
Y1935D01*
X11746Y1931D01*
X11746Y1926D01*
Y1920D01*
X11747Y1914D01*
X11749Y1901D01*
X11752Y1887D01*
X11756Y1872D01*
X11761Y1859D01*
Y1858D01*
X11762Y1857D01*
X11763Y1856D01*
X11764Y1853D01*
X11768Y1847D01*
X11774Y1839D01*
X11781Y1831D01*
X11790Y1822D01*
X11801Y1812D01*
X11813Y1804D01*
X11813D01*
X11814Y1803D01*
X11817Y1802D01*
X11819Y1801D01*
X11823Y1799D01*
X11827Y1797D01*
X11832Y1796D01*
X11837Y1794D01*
X11843Y1792D01*
X11850Y1790D01*
X11857Y1788D01*
X11865Y1787D01*
X11883Y1785D01*
X11902Y1783D01*
X11905D01*
X11909Y1784D01*
X11914D01*
X11920Y1785D01*
X11927Y1786D01*
X11935Y1787D01*
X11944Y1788D01*
X11953Y1791D01*
X11963Y1793D01*
X11972Y1797D01*
X11982Y1801D01*
X11991Y1806D01*
X12001Y1811D01*
X12009Y1817D01*
X12018Y1824D01*
X12018Y1825D01*
X12019Y1827D01*
X12021Y1829D01*
X12024Y1832D01*
X12027Y1837D01*
X12031Y1842D01*
X12035Y1848D01*
X12039Y1854D01*
X12042Y1862D01*
X12046Y1871D01*
X12050Y1881D01*
X12052Y1891D01*
X12055Y1902D01*
X12057Y1914D01*
X12059Y1927D01*
X12059Y1940D01*
Y1783D01*
X12059D01*
Y1300D01*
X12054D01*
Y1446D01*
X12054Y1450D01*
Y1454D01*
X12052Y1463D01*
X12051Y1474D01*
X12049Y1485D01*
X12046Y1496D01*
X12042Y1506D01*
Y1507D01*
X12042Y1508D01*
X12040Y1511D01*
X12038Y1515D01*
X12034Y1521D01*
X12030Y1528D01*
X12024Y1535D01*
X12018Y1542D01*
X12010Y1549D01*
X12009Y1549D01*
X12006Y1551D01*
X12003Y1554D01*
X11996Y1558D01*
X11989Y1562D01*
X11981Y1566D01*
X11971Y1569D01*
X11961Y1573D01*
X11961D01*
X11960Y1573D01*
X11959D01*
X11956Y1574D01*
X11951Y1575D01*
X11944Y1576D01*
X11935Y1578D01*
X11925Y1579D01*
X11914Y1580D01*
X11903Y1580D01*
X12054D01*
X11895D01*
X11890Y1580D01*
X11886D01*
X11875Y1579D01*
X11863Y1577D01*
X11850Y1575D01*
X11838Y1573D01*
X11827Y1569D01*
X11827D01*
X11826Y1568D01*
X11823Y1566D01*
X11818Y1564D01*
X11812Y1561D01*
X11804Y1556D01*
X11797Y1551D01*
X11789Y1545D01*
X11782Y1538D01*
X11782Y1536D01*
X11779Y1534D01*
X11776Y1530D01*
X11772Y1525D01*
X11768Y1519D01*
X11764Y1512D01*
X11761Y1504D01*
X11758Y1496D01*
Y1495D01*
X11757Y1495D01*
Y1493D01*
X11757Y1491D01*
X11756Y1485D01*
X11754Y1477D01*
X11752Y1469D01*
X11751Y1459D01*
X11751Y1449D01*
X11750Y1439D01*
Y1300D01*
X11745D01*
Y2099D01*
X12059D01*
D02*
G37*
G36*
X11916Y2004D02*
X11920Y2004D01*
X11929Y2003D01*
X11939Y2000D01*
X11950Y1998D01*
X11960Y1993D01*
X11968Y1987D01*
X11969Y1987D01*
X11971Y1984D01*
X11974Y1980D01*
X11978Y1975D01*
X11982Y1968D01*
X11985Y1960D01*
X11987Y1950D01*
X11988Y1940D01*
Y1939D01*
X11988Y1935D01*
X11987Y1930D01*
X11985Y1924D01*
X11983Y1917D01*
X11979Y1909D01*
X11974Y1901D01*
X11968Y1894D01*
X11966Y1894D01*
X11964Y1892D01*
X11959Y1889D01*
X11952Y1886D01*
X11948Y1884D01*
X11943Y1883D01*
X11937Y1881D01*
X11931Y1880D01*
X11925Y1879D01*
X11918Y1878D01*
X11910Y1877D01*
X11902D01*
X11901D01*
X11899D01*
X11897D01*
X11894Y1878D01*
X11890D01*
X11886Y1878D01*
X11876Y1879D01*
X11865Y1881D01*
X11854Y1884D01*
X11844Y1888D01*
X11839Y1891D01*
X11835Y1894D01*
X11834Y1894D01*
X11832Y1897D01*
X11829Y1901D01*
X11825Y1906D01*
X11822Y1913D01*
X11819Y1921D01*
X11817Y1930D01*
X11815Y1941D01*
Y1944D01*
X11816Y1946D01*
X11817Y1952D01*
X11818Y1958D01*
X11820Y1965D01*
X11824Y1973D01*
X11828Y1981D01*
X11835Y1988D01*
X11836Y1988D01*
X11839Y1990D01*
X11841Y1992D01*
X11844Y1993D01*
X11847Y1995D01*
X11851Y1997D01*
X11855Y1998D01*
X11860Y1999D01*
X11867Y2001D01*
X11873Y2002D01*
X11880Y2003D01*
X11888Y2004D01*
X11896Y2005D01*
X11905D01*
X11906D01*
X11907D01*
X11909D01*
X11913D01*
X11916Y2004D01*
D02*
G37*
G36*
X11913Y1485D02*
X11917D01*
X11928Y1484D01*
X11938Y1482D01*
X11949Y1479D01*
X11959Y1475D01*
X11963Y1473D01*
X11967Y1470D01*
X11968Y1469D01*
X11970Y1467D01*
X11973Y1463D01*
X11976Y1457D01*
X11980Y1450D01*
X11983Y1441D01*
X11985Y1430D01*
X11985Y1417D01*
Y1394D01*
X11819D01*
Y1422D01*
X11820Y1427D01*
Y1433D01*
X11821Y1440D01*
X11822Y1447D01*
X11823Y1453D01*
X11825Y1459D01*
X11826Y1459D01*
X11827Y1461D01*
X11828Y1463D01*
X11831Y1466D01*
X11834Y1469D01*
X11838Y1473D01*
X11843Y1476D01*
X11848Y1479D01*
X11849Y1479D01*
X11852Y1480D01*
X11855Y1481D01*
X11861Y1483D01*
X11868Y1484D01*
X11878Y1485D01*
X11888Y1485D01*
X11901Y1486D01*
X11902D01*
X11903D01*
X11905D01*
X11909D01*
X11913Y1485D01*
D02*
G37*
G36*
X12409Y1250D02*
D01*
Y1250D01*
X12180D01*
X12095D01*
Y1372D01*
X12096Y1368D01*
Y1364D01*
X12096Y1355D01*
X12097Y1344D01*
X12099Y1333D01*
X12101Y1323D01*
X12104Y1313D01*
X12105Y1312D01*
X12106Y1309D01*
X12108Y1304D01*
X12112Y1299D01*
X12116Y1293D01*
X12121Y1286D01*
X12126Y1279D01*
X12133Y1273D01*
X12134Y1273D01*
X12136Y1271D01*
X12140Y1268D01*
X12146Y1264D01*
X12153Y1261D01*
X12161Y1257D01*
X12170Y1253D01*
X12180Y1250D01*
X12192Y1334D01*
X12190D01*
X12188Y1335D01*
X12183Y1337D01*
X12178Y1338D01*
X12166Y1343D01*
X12161Y1346D01*
X12156Y1349D01*
X12155Y1350D01*
X12154Y1351D01*
X12153Y1354D01*
X12152Y1357D01*
X12149Y1360D01*
X12148Y1365D01*
X12147Y1370D01*
X12147Y1377D01*
Y1379D01*
X12147Y1383D01*
X12148Y1387D01*
X12149Y1391D01*
X12152Y1396D01*
X12155Y1400D01*
X12159Y1405D01*
X12159Y1405D01*
X12161Y1407D01*
X12164Y1409D01*
X12168Y1411D01*
X12172Y1413D01*
X12178Y1415D01*
X12185Y1416D01*
X12192Y1417D01*
X12193D01*
X12195D01*
X12199Y1416D01*
X12204Y1415D01*
X12209Y1414D01*
X12215Y1412D01*
X12220Y1409D01*
X12225Y1405D01*
X12225Y1405D01*
X12227Y1403D01*
X12229Y1401D01*
X12231Y1398D01*
X12233Y1393D01*
X12235Y1388D01*
X12236Y1382D01*
X12237Y1375D01*
Y1372D01*
X12236Y1368D01*
X12235Y1364D01*
X12234Y1360D01*
X12233Y1354D01*
X12232Y1348D01*
X12291Y1352D01*
Y1356D01*
X12291Y1360D01*
Y1366D01*
X12291Y1369D01*
X12292Y1373D01*
X12293Y1377D01*
X12295Y1382D01*
X12298Y1387D01*
X12301Y1391D01*
X12301Y1392D01*
X12303Y1393D01*
X12305Y1395D01*
X12308Y1397D01*
X12311Y1399D01*
X12316Y1401D01*
X12321Y1402D01*
X12326Y1403D01*
X12326D01*
X12328D01*
X12331Y1402D01*
X12334Y1402D01*
X12338Y1400D01*
X12341Y1399D01*
X12345Y1397D01*
X12348Y1394D01*
X12349Y1394D01*
X12349Y1393D01*
X12351Y1391D01*
X12353Y1388D01*
X12354Y1385D01*
X12355Y1381D01*
X12356Y1377D01*
X12356Y1371D01*
Y1369D01*
X12356Y1366D01*
X12355Y1362D01*
X12354Y1358D01*
X12353Y1354D01*
X12350Y1350D01*
X12347Y1347D01*
X12346Y1346D01*
X12345Y1345D01*
X12343Y1344D01*
X12340Y1342D01*
X12335Y1340D01*
X12330Y1338D01*
X12324Y1336D01*
X12316Y1334D01*
X12330Y1254D01*
X12330D01*
X12331Y1255D01*
X12334Y1256D01*
X12336Y1256D01*
X12339Y1258D01*
X12343Y1259D01*
X12351Y1263D01*
X12361Y1268D01*
X12371Y1274D01*
X12380Y1282D01*
X12389Y1292D01*
Y1293D01*
X12390Y1293D01*
X12390Y1295D01*
X12392Y1298D01*
X12394Y1301D01*
X12395Y1304D01*
X12397Y1308D01*
X12399Y1313D01*
X12401Y1318D01*
X12402Y1324D01*
X12404Y1331D01*
X12406Y1338D01*
X12407Y1346D01*
X12408Y1354D01*
X12409Y1373D01*
Y1378D01*
X12409Y1383D01*
Y1388D01*
X12408Y1393D01*
X12407Y1399D01*
X12406Y1406D01*
X12404Y1420D01*
X12400Y1434D01*
X12394Y1448D01*
X12391Y1454D01*
X12387Y1459D01*
Y1460D01*
X12386Y1460D01*
X12383Y1464D01*
X12378Y1468D01*
X12371Y1473D01*
X12364Y1478D01*
X12354Y1482D01*
X12343Y1485D01*
X12337Y1485D01*
X12331Y1486D01*
X12330D01*
X12328D01*
X12324Y1485D01*
X12319Y1485D01*
X12314Y1483D01*
X12308Y1481D01*
X12301Y1479D01*
X12295Y1475D01*
X12295Y1474D01*
X12293Y1473D01*
X12290Y1470D01*
X12286Y1467D01*
X12282Y1463D01*
X12277Y1457D01*
X12272Y1450D01*
X12268Y1443D01*
Y1443D01*
X12267Y1445D01*
X12266Y1449D01*
X12265Y1453D01*
X12262Y1461D01*
X12260Y1465D01*
X12258Y1469D01*
X12257Y1470D01*
X12256Y1471D01*
X12254Y1474D01*
X12251Y1478D01*
X12248Y1481D01*
X12243Y1485D01*
X12238Y1489D01*
X12233Y1493D01*
X12232Y1493D01*
X12230Y1494D01*
X12227Y1495D01*
X12223Y1497D01*
X12217Y1499D01*
X12211Y1500D01*
X12204Y1501D01*
X12197Y1501D01*
X12409D01*
X12192D01*
X12187Y1501D01*
X12180Y1500D01*
X12172Y1498D01*
X12164Y1495D01*
X12155Y1492D01*
X12146Y1487D01*
X12144Y1486D01*
X12142Y1484D01*
X12137Y1481D01*
X12132Y1477D01*
X12126Y1471D01*
X12119Y1464D01*
X12113Y1456D01*
X12108Y1447D01*
Y1446D01*
X12107Y1446D01*
X12107Y1444D01*
X12106Y1442D01*
X12105Y1440D01*
X12104Y1436D01*
X12102Y1429D01*
X12099Y1419D01*
X12097Y1407D01*
X12096Y1393D01*
X12095Y1378D01*
Y1501D01*
D01*
Y1864D01*
X12409D01*
Y1951D01*
Y1864D01*
X12180D01*
X12095D01*
Y1986D01*
X12096Y1983D01*
Y1978D01*
X12096Y1969D01*
X12097Y1959D01*
X12099Y1948D01*
X12101Y1937D01*
X12104Y1927D01*
X12105Y1926D01*
X12106Y1923D01*
X12108Y1919D01*
X12112Y1913D01*
X12116Y1907D01*
X12121Y1900D01*
X12126Y1894D01*
X12133Y1888D01*
X12134Y1887D01*
X12136Y1885D01*
X12140Y1882D01*
X12146Y1879D01*
X12153Y1875D01*
X12161Y1872D01*
X12170Y1868D01*
X12180Y1864D01*
X12192Y1949D01*
X12190D01*
X12188Y1950D01*
X12183Y1951D01*
X12178Y1953D01*
X12166Y1957D01*
X12161Y1960D01*
X12156Y1964D01*
X12155Y1964D01*
X12154Y1965D01*
X12153Y1968D01*
X12152Y1971D01*
X12149Y1975D01*
X12148Y1980D01*
X12147Y1985D01*
X12147Y1991D01*
Y1994D01*
X12147Y1997D01*
X12148Y2001D01*
X12149Y2005D01*
X12152Y2010D01*
X12155Y2015D01*
X12159Y2019D01*
X12159Y2020D01*
X12161Y2021D01*
X12164Y2023D01*
X12168Y2025D01*
X12172Y2027D01*
X12178Y2029D01*
X12185Y2030D01*
X12192Y2031D01*
X12193D01*
X12195D01*
X12199Y2030D01*
X12204Y2030D01*
X12209Y2028D01*
X12215Y2026D01*
X12220Y2024D01*
X12225Y2020D01*
X12225Y2019D01*
X12227Y2018D01*
X12229Y2015D01*
X12231Y2012D01*
X12233Y2008D01*
X12235Y2003D01*
X12236Y1996D01*
X12237Y1990D01*
Y1986D01*
X12236Y1983D01*
X12235Y1979D01*
X12234Y1974D01*
X12233Y1969D01*
X12232Y1963D01*
X12291Y1966D01*
Y1970D01*
X12291Y1974D01*
Y1980D01*
X12291Y1984D01*
X12292Y1988D01*
X12293Y1991D01*
X12295Y1996D01*
X12298Y2001D01*
X12301Y2005D01*
X12301Y2006D01*
X12303Y2007D01*
X12305Y2009D01*
X12308Y2011D01*
X12311Y2013D01*
X12316Y2015D01*
X12321Y2016D01*
X12326Y2017D01*
X12326D01*
X12328D01*
X12331Y2016D01*
X12334Y2016D01*
X12338Y2015D01*
X12341Y2014D01*
X12345Y2011D01*
X12348Y2009D01*
X12349Y2008D01*
X12349Y2007D01*
X12351Y2005D01*
X12353Y2003D01*
X12354Y1999D01*
X12355Y1995D01*
X12356Y1991D01*
X12356Y1985D01*
Y1983D01*
X12356Y1980D01*
X12355Y1976D01*
X12354Y1973D01*
X12353Y1969D01*
X12350Y1965D01*
X12347Y1961D01*
X12346Y1960D01*
X12345Y1959D01*
X12343Y1958D01*
X12340Y1956D01*
X12335Y1954D01*
X12330Y1952D01*
X12324Y1950D01*
X12316Y1949D01*
X12330Y1869D01*
X12330D01*
X12331Y1869D01*
X12334Y1870D01*
X12336Y1870D01*
X12339Y1872D01*
X12343Y1873D01*
X12351Y1877D01*
X12361Y1882D01*
X12371Y1889D01*
X12380Y1897D01*
X12389Y1907D01*
Y1907D01*
X12390Y1908D01*
X12390Y1909D01*
X12392Y1912D01*
X12394Y1915D01*
X12395Y1918D01*
X12397Y1923D01*
X12399Y1928D01*
X12401Y1933D01*
X12402Y1939D01*
X12404Y1945D01*
X12406Y1953D01*
X12407Y1960D01*
X12408Y1969D01*
X12409Y1987D01*
Y1951D01*
Y1987D01*
Y1993D01*
X12409Y1997D01*
Y2002D01*
X12408Y2008D01*
X12407Y2014D01*
X12406Y2020D01*
X12404Y2035D01*
X12400Y2049D01*
X12394Y2063D01*
X12391Y2068D01*
X12387Y2074D01*
Y2074D01*
X12386Y2075D01*
X12383Y2078D01*
X12378Y2082D01*
X12371Y2087D01*
X12364Y2092D01*
X12354Y2096D01*
X12343Y2099D01*
X12337Y2100D01*
X12331Y2100D01*
X12330D01*
X12328D01*
X12324Y2100D01*
X12319Y2099D01*
X12314Y2097D01*
X12308Y2096D01*
X12301Y2093D01*
X12295Y2089D01*
X12295Y2089D01*
X12293Y2087D01*
X12290Y2085D01*
X12286Y2081D01*
X12282Y2077D01*
X12277Y2071D01*
X12272Y2065D01*
X12268Y2057D01*
Y2058D01*
X12267Y2060D01*
X12266Y2063D01*
X12265Y2067D01*
X12262Y2075D01*
X12260Y2080D01*
X12258Y2084D01*
X12257Y2084D01*
X12256Y2086D01*
X12254Y2089D01*
X12251Y2092D01*
X12248Y2096D01*
X12243Y2100D01*
X12238Y2104D01*
X12233Y2107D01*
X12232Y2107D01*
X12230Y2109D01*
X12227Y2110D01*
X12223Y2111D01*
X12217Y2113D01*
X12211Y2115D01*
X12204Y2115D01*
X12197Y2116D01*
X12409D01*
X12192D01*
X12187Y2115D01*
X12180Y2114D01*
X12172Y2112D01*
X12164Y2110D01*
X12155Y2106D01*
X12146Y2101D01*
X12144Y2101D01*
X12142Y2099D01*
X12137Y2096D01*
X12132Y2091D01*
X12126Y2085D01*
X12119Y2079D01*
X12113Y2071D01*
X12108Y2061D01*
Y2061D01*
X12107Y2060D01*
X12107Y2059D01*
X12106Y2056D01*
X12105Y2054D01*
X12104Y2051D01*
X12102Y2043D01*
X12099Y2033D01*
X12097Y2021D01*
X12096Y2008D01*
X12095Y1993D01*
Y2116D01*
D01*
Y2116D01*
X12409D01*
Y1250D01*
D02*
G37*
%LPC*%
G36*
X5758Y6259D02*
X5501D01*
X5453Y6089D01*
X5421Y6259D01*
X5493D01*
X5332D01*
D01*
X5399Y5955D01*
X5492D01*
X5545Y6146D01*
X5598Y5955D01*
X5758D01*
X5690D01*
X5758Y6259D01*
D02*
G37*
G36*
X5598Y5955D02*
X5568D01*
X5598D01*
D01*
D02*
G37*
%LPD*%
G36*
X5637Y6089D02*
X5589Y6259D01*
X5669D01*
X5637Y6089D01*
D02*
G37*
%LPC*%
G36*
X450Y1203D02*
X146D01*
Y1108D01*
X450D01*
Y1203D01*
D02*
G37*
G36*
X2150Y5654D02*
X1982D01*
X1979Y5654D01*
X1969Y5653D01*
X1958Y5652D01*
X1947Y5651D01*
X1936Y5649D01*
X1927Y5646D01*
X1926Y5646D01*
X1923Y5645D01*
X1919Y5643D01*
X1914Y5640D01*
X1907Y5636D01*
X1901Y5631D01*
X1895Y5626D01*
X1890Y5619D01*
X1889Y5618D01*
X1887Y5615D01*
X1885Y5611D01*
X1882Y5605D01*
X1880Y5598D01*
X1877Y5589D01*
X1876Y5580D01*
X1875Y5569D01*
Y5568D01*
Y5565D01*
X1876Y5560D01*
X1876Y5554D01*
X1878Y5548D01*
X1880Y5540D01*
X1882Y5533D01*
X1886Y5525D01*
X1887Y5525D01*
X1888Y5523D01*
X1891Y5519D01*
X1894Y5515D01*
X1899Y5510D01*
X1904Y5505D01*
X1910Y5500D01*
X1916Y5496D01*
X1917Y5495D01*
X1919Y5495D01*
X1921Y5493D01*
X1925Y5492D01*
X1930Y5490D01*
X1935Y5488D01*
X1942Y5486D01*
X1949Y5484D01*
X1949D01*
X1946Y5483D01*
X1944Y5482D01*
X1940Y5480D01*
X1932Y5477D01*
X1928Y5475D01*
X1925Y5473D01*
X1924Y5472D01*
X1922Y5471D01*
X1921Y5469D01*
X1919Y5467D01*
X1916Y5464D01*
X1913Y5461D01*
X1910Y5457D01*
X1909Y5456D01*
X1908Y5454D01*
X1906Y5452D01*
X1904Y5450D01*
X1900Y5443D01*
X1898Y5440D01*
X1896Y5438D01*
X1850Y5350D01*
D01*
X2150D01*
Y5654D01*
D02*
G37*
G36*
X1203D02*
X1108D01*
Y5350D01*
X1203D01*
Y5654D01*
D02*
G37*
%LPD*%
G36*
X2056Y5531D02*
X2013D01*
X2011Y5531D01*
X2007Y5532D01*
X2003Y5533D01*
X1997Y5534D01*
X1991Y5535D01*
X1991D01*
X1990Y5535D01*
X1988Y5536D01*
X1986Y5536D01*
X1981Y5539D01*
X1978Y5541D01*
X1976Y5544D01*
X1975Y5545D01*
X1975Y5546D01*
X1974Y5547D01*
X1972Y5549D01*
X1971Y5555D01*
X1970Y5558D01*
Y5562D01*
Y5563D01*
Y5564D01*
X1970Y5567D01*
X1971Y5570D01*
X1972Y5574D01*
X1974Y5578D01*
X1976Y5581D01*
X1979Y5584D01*
X1980Y5585D01*
X1981Y5585D01*
X1983Y5587D01*
X1987Y5589D01*
X1992Y5590D01*
X1998Y5591D01*
X2006Y5592D01*
X2015Y5593D01*
X2056D01*
Y5531D01*
D02*
G37*
G36*
Y5350D02*
X1957D01*
X2007Y5443D01*
X2008Y5443D01*
X2009Y5445D01*
X2011Y5449D01*
X2013Y5452D01*
X2018Y5460D01*
X2022Y5463D01*
X2025Y5466D01*
X2025Y5467D01*
X2026Y5467D01*
X2028Y5468D01*
X2031Y5470D01*
X2035Y5471D01*
X2038Y5472D01*
X2043Y5473D01*
X2048Y5473D01*
X2056D01*
Y5350D01*
D02*
G37*
%LPC*%
G36*
X4588Y7007D02*
X4442D01*
X4438Y7007D01*
X4434D01*
X4424Y7006D01*
X4413Y7005D01*
X4402Y7002D01*
X4391Y7000D01*
X4381Y6996D01*
X4381D01*
X4380Y6995D01*
X4377Y6994D01*
X4372Y6991D01*
X4366Y6987D01*
X4359Y6983D01*
X4352Y6977D01*
X4346Y6971D01*
X4339Y6964D01*
X4338Y6962D01*
X4336Y6960D01*
X4333Y6956D01*
X4330Y6950D01*
X4326Y6942D01*
X4322Y6934D01*
X4318Y6925D01*
X4315Y6915D01*
Y6914D01*
X4315Y6914D01*
Y6912D01*
X4314Y6910D01*
X4313Y6904D01*
X4311Y6897D01*
X4310Y6888D01*
X4308Y6878D01*
X4308Y6868D01*
X4307Y6856D01*
Y6856D01*
Y6856D01*
Y6703D01*
Y6848D01*
X4308Y6844D01*
Y6839D01*
X4309Y6828D01*
X4310Y6816D01*
X4312Y6804D01*
X4315Y6792D01*
X4319Y6780D01*
Y6780D01*
X4320Y6779D01*
X4321Y6776D01*
X4323Y6771D01*
X4327Y6765D01*
X4331Y6758D01*
X4337Y6750D01*
X4343Y6743D01*
X4350Y6735D01*
X4351Y6735D01*
X4353Y6733D01*
X4357Y6729D01*
X4362Y6725D01*
X4369Y6722D01*
X4376Y6718D01*
X4383Y6714D01*
X4392Y6711D01*
X4392D01*
X4393Y6710D01*
X4394D01*
X4397Y6710D01*
X4403Y6709D01*
X4411Y6707D01*
X4419Y6705D01*
X4429Y6704D01*
X4438Y6704D01*
X4448Y6703D01*
X4307D01*
X4588D01*
Y7007D01*
D02*
G37*
G36*
X4269Y7012D02*
X3973D01*
X4110D01*
X4106Y7012D01*
X4101D01*
X4095Y7011D01*
X4089Y7011D01*
X4083Y7010D01*
X4068Y7007D01*
X4053Y7002D01*
X4038Y6997D01*
X4031Y6993D01*
X4025Y6989D01*
X4024D01*
X4023Y6988D01*
X4021Y6987D01*
X4019Y6985D01*
X4016Y6982D01*
X4013Y6979D01*
X4010Y6976D01*
X4006Y6971D01*
X4002Y6967D01*
X3998Y6961D01*
X3994Y6956D01*
X3990Y6949D01*
X3986Y6942D01*
X3982Y6935D01*
X3979Y6926D01*
X3975Y6918D01*
X4059Y6899D01*
Y6900D01*
X4059Y6901D01*
X4060Y6904D01*
X4061Y6907D01*
X4065Y6914D01*
X4066Y6916D01*
X4068Y6919D01*
X4069Y6920D01*
X4069Y6921D01*
X4071Y6923D01*
X4074Y6925D01*
X4080Y6931D01*
X4088Y6936D01*
X4088Y6936D01*
X4089Y6937D01*
X4092Y6938D01*
X4095Y6939D01*
X4099Y6940D01*
X4103Y6941D01*
X4108Y6942D01*
X4116D01*
X4118Y6941D01*
X4124Y6941D01*
X4131Y6939D01*
X4139Y6936D01*
X4147Y6931D01*
X4155Y6925D01*
X4159Y6920D01*
X4162Y6916D01*
X4162Y6915D01*
X4164Y6913D01*
X4166Y6908D01*
X4168Y6901D01*
X4171Y6893D01*
X4172Y6883D01*
X4174Y6871D01*
X4175Y6856D01*
Y6856D01*
Y6854D01*
Y6851D01*
Y6848D01*
X4174Y6844D01*
Y6839D01*
X4173Y6829D01*
X4171Y6818D01*
X4169Y6806D01*
X4165Y6795D01*
X4162Y6791D01*
X4160Y6787D01*
X4159Y6787D01*
X4157Y6784D01*
X4153Y6782D01*
X4149Y6778D01*
X4142Y6774D01*
X4135Y6772D01*
X4126Y6769D01*
X4116Y6769D01*
X4112D01*
X4107Y6769D01*
X4101Y6770D01*
X4094Y6773D01*
X4088Y6775D01*
X4081Y6779D01*
X4075Y6784D01*
X4075Y6784D01*
X4073Y6787D01*
X4070Y6790D01*
X4068Y6795D01*
X4064Y6801D01*
X4061Y6809D01*
X4058Y6818D01*
X4055Y6828D01*
X3973Y6803D01*
Y6804D01*
Y6802D01*
X3973Y6801D01*
X3974Y6799D01*
X3974Y6797D01*
X3976Y6790D01*
X3979Y6783D01*
X3983Y6773D01*
X3988Y6764D01*
X3993Y6754D01*
X3999Y6745D01*
X4000Y6744D01*
X4003Y6741D01*
X4006Y6737D01*
X4011Y6732D01*
X4018Y6726D01*
X4025Y6720D01*
X4034Y6715D01*
X4044Y6710D01*
X4044D01*
X4045Y6709D01*
X4046Y6709D01*
X4048Y6708D01*
X4054Y6706D01*
X4062Y6704D01*
X4071Y6702D01*
X4083Y6700D01*
X4096Y6699D01*
X4111Y6698D01*
X4119D01*
X4124Y6699D01*
X4128D01*
X4134Y6699D01*
X4140Y6700D01*
X4152Y6702D01*
X4166Y6704D01*
X4180Y6708D01*
X4192Y6712D01*
X4193D01*
X4194Y6713D01*
X4195Y6714D01*
X4197Y6715D01*
X4204Y6719D01*
X4211Y6724D01*
X4219Y6731D01*
X4229Y6739D01*
X4237Y6750D01*
X4246Y6763D01*
Y6763D01*
X4247Y6764D01*
X4248Y6767D01*
X4250Y6769D01*
X4251Y6773D01*
X4253Y6777D01*
X4256Y6782D01*
X4257Y6788D01*
X4260Y6794D01*
X4262Y6802D01*
X4263Y6809D01*
X4266Y6818D01*
X4267Y6826D01*
X4268Y6836D01*
X4269Y6856D01*
Y6712D01*
Y6859D01*
X4268Y6863D01*
Y6868D01*
X4268Y6875D01*
X4267Y6882D01*
X4266Y6890D01*
X4264Y6899D01*
X4262Y6908D01*
X4259Y6918D01*
X4256Y6927D01*
X4252Y6937D01*
X4247Y6946D01*
X4242Y6955D01*
X4236Y6964D01*
X4229Y6972D01*
X4229Y6972D01*
X4227Y6974D01*
X4225Y6976D01*
X4222Y6978D01*
X4217Y6981D01*
X4212Y6985D01*
X4207Y6989D01*
X4200Y6992D01*
X4192Y6996D01*
X4184Y7000D01*
X4174Y7003D01*
X4164Y7006D01*
X4153Y7009D01*
X4141Y7011D01*
X4129Y7012D01*
X4115Y7012D01*
X4269D01*
D02*
G37*
%LPD*%
G36*
X4494Y6773D02*
X4466D01*
X4461Y6773D01*
X4454D01*
X4448Y6774D01*
X4441Y6775D01*
X4434Y6777D01*
X4429Y6779D01*
X4428Y6779D01*
X4427Y6780D01*
X4424Y6782D01*
X4422Y6784D01*
X4418Y6787D01*
X4415Y6791D01*
X4412Y6796D01*
X4409Y6802D01*
X4408Y6802D01*
X4408Y6805D01*
X4407Y6809D01*
X4405Y6814D01*
X4404Y6821D01*
X4403Y6831D01*
X4402Y6841D01*
X4402Y6854D01*
Y6855D01*
Y6856D01*
Y6859D01*
Y6862D01*
X4402Y6866D01*
Y6870D01*
X4404Y6881D01*
X4406Y6891D01*
X4408Y6903D01*
X4412Y6913D01*
X4415Y6916D01*
X4418Y6920D01*
X4418Y6921D01*
X4421Y6923D01*
X4425Y6926D01*
X4431Y6930D01*
X4438Y6933D01*
X4447Y6936D01*
X4458Y6938D01*
X4470Y6939D01*
X4494D01*
Y6773D01*
D02*
G37*
%LPC*%
G36*
X7008Y6679D02*
X6751D01*
X6703Y6508D01*
X6671Y6679D01*
X6743D01*
X6582D01*
D01*
X6649Y6374D01*
X6742D01*
X6795Y6566D01*
X6848Y6374D01*
X7008D01*
X6940D01*
X7008Y6679D01*
D02*
G37*
G36*
X6848Y6374D02*
X6818D01*
X6848D01*
D01*
D02*
G37*
%LPD*%
G36*
X6887Y6509D02*
X6839Y6679D01*
X6919D01*
X6887Y6509D01*
D02*
G37*
%LPC*%
G36*
X8584Y5309D02*
X8497D01*
X8381Y5140D01*
Y5309D01*
X8452D01*
X8292D01*
Y5005D01*
X8381D01*
X8495Y5173D01*
Y5005D01*
X8584D01*
Y5309D01*
D02*
G37*
G36*
X12130Y2504D02*
X11938D01*
X12032D01*
X11964Y2285D01*
X11896Y2504D01*
X11801D01*
X11914Y2200D01*
X12015D01*
X12130Y2504D01*
D01*
D02*
G37*
G36*
X12034Y3154D02*
X11742D01*
Y2850D01*
X11831D01*
X11945Y3018D01*
Y2850D01*
X12034D01*
Y3154D01*
D02*
G37*
%LPD*%
G36*
X11831Y2985D02*
Y3154D01*
X11947D01*
X11831Y2985D01*
D02*
G37*
%LPC*%
G36*
X9754Y2251D02*
D01*
Y2117D01*
X9754Y2121D01*
Y2125D01*
X9752Y2134D01*
X9751Y2145D01*
X9749Y2156D01*
X9746Y2167D01*
X9742Y2177D01*
Y2178D01*
X9742Y2179D01*
X9740Y2182D01*
X9738Y2186D01*
X9734Y2192D01*
X9730Y2199D01*
X9724Y2206D01*
X9718Y2213D01*
X9710Y2220D01*
X9709Y2220D01*
X9706Y2222D01*
X9703Y2225D01*
X9696Y2229D01*
X9689Y2233D01*
X9681Y2237D01*
X9671Y2240D01*
X9661Y2243D01*
X9661D01*
X9660Y2244D01*
X9659D01*
X9656Y2245D01*
X9651Y2246D01*
X9644Y2247D01*
X9635Y2249D01*
X9625Y2250D01*
X9614Y2251D01*
X9603Y2251D01*
X9754D01*
X9595D01*
X9590Y2251D01*
X9586D01*
X9575Y2250D01*
X9563Y2248D01*
X9550Y2246D01*
X9538Y2243D01*
X9527Y2240D01*
X9527D01*
X9526Y2239D01*
X9523Y2237D01*
X9518Y2235D01*
X9512Y2232D01*
X9504Y2227D01*
X9497Y2222D01*
X9489Y2216D01*
X9482Y2208D01*
X9482Y2207D01*
X9479Y2205D01*
X9476Y2201D01*
X9472Y2196D01*
X9468Y2190D01*
X9464Y2183D01*
X9461Y2175D01*
X9458Y2167D01*
Y2166D01*
X9457Y2166D01*
Y2164D01*
X9457Y2162D01*
X9456Y2156D01*
X9454Y2148D01*
X9452Y2140D01*
X9451Y2130D01*
X9451Y2120D01*
X9450Y2110D01*
Y1971D01*
X9754D01*
Y2251D01*
D02*
G37*
G36*
Y1908D02*
X9450D01*
Y1819D01*
X9618Y1705D01*
X9450D01*
Y1616D01*
X9754D01*
Y1908D01*
D02*
G37*
%LPD*%
G36*
X9613Y2156D02*
X9617D01*
X9628Y2155D01*
X9638Y2153D01*
X9649Y2150D01*
X9659Y2146D01*
X9663Y2144D01*
X9667Y2141D01*
X9668Y2140D01*
X9670Y2137D01*
X9673Y2134D01*
X9676Y2128D01*
X9680Y2121D01*
X9683Y2112D01*
X9685Y2101D01*
X9685Y2088D01*
Y2065D01*
X9519D01*
Y2092D01*
X9520Y2097D01*
Y2104D01*
X9521Y2111D01*
X9522Y2118D01*
X9523Y2124D01*
X9525Y2130D01*
X9526Y2130D01*
X9527Y2132D01*
X9528Y2134D01*
X9531Y2137D01*
X9534Y2140D01*
X9538Y2144D01*
X9543Y2147D01*
X9548Y2150D01*
X9549Y2150D01*
X9552Y2151D01*
X9555Y2152D01*
X9561Y2154D01*
X9568Y2155D01*
X9578Y2156D01*
X9588Y2156D01*
X9601Y2157D01*
X9602D01*
X9603D01*
X9605D01*
X9609D01*
X9613Y2156D01*
D02*
G37*
G36*
X9754Y1703D02*
X9585Y1819D01*
X9754D01*
Y1703D01*
D02*
G37*
%LPC*%
G36*
X10104Y2199D02*
D01*
Y2193D01*
X9989Y2082D01*
X9800Y2199D01*
Y2083D01*
X9924Y2018D01*
X9874Y1970D01*
X9800D01*
Y1876D01*
X10104D01*
Y2199D01*
D02*
G37*
G36*
Y1833D02*
Y1686D01*
X9875D01*
Y1833D01*
X10104D01*
X9800D01*
Y1592D01*
X10104D01*
Y1833D01*
D02*
G37*
%LPD*%
G36*
Y1970D02*
X9989D01*
X10104Y2068D01*
Y1970D01*
D02*
G37*
%LPC*%
G36*
X12054Y1728D02*
X11750D01*
Y1634D01*
X12054D01*
Y1728D01*
D02*
G37*
G36*
X12404Y1849D02*
X12100D01*
Y1635D01*
X12404Y1520D01*
Y1618D01*
X12185Y1686D01*
X12404Y1754D01*
Y1849D01*
X12100Y1736D01*
Y1849D01*
X12404D01*
D02*
G37*
%LPD*%
D10*
X10122Y2885D02*
G03*
X10122Y3455I0J285D01*
G01*
X2200Y9600D02*
G03*
X2200Y9600I-50J0D01*
G01*
X10122Y3465D02*
Y4015D01*
Y2335D02*
Y2885D01*
X10122Y2335D02*
X11289D01*
X11304D02*
Y4015D01*
X10122D02*
X11304D01*
X4450Y7700D02*
Y8100D01*
X3550Y7700D02*
X4450D01*
X3550D02*
Y8100D01*
Y8300D02*
Y9200D01*
X4450Y8300D02*
Y9200D01*
Y9400D02*
Y9800D01*
X3550D02*
X4450D01*
X3550Y9400D02*
Y9800D01*
X2000Y6100D02*
X2350D01*
Y6350D01*
X2000Y7100D02*
X2350D01*
Y6850D02*
Y7100D01*
X1522Y7726D02*
Y9734D01*
X578Y7726D02*
Y9734D01*
Y7726D02*
X1522D01*
X2190Y8646D02*
Y9354D01*
X2643Y8646D02*
X2957D01*
X3410D02*
Y9354D01*
X10767Y9119D02*
X13326D01*
Y5481D02*
Y9119D01*
X10767Y5481D02*
X13326D01*
X10767Y8769D02*
Y9119D01*
Y5481D02*
Y5831D01*
D13*
X9390Y2370D02*
Y3330D01*
X9810Y2370D02*
Y3330D01*
X9390D02*
X9810D01*
X9390Y2370D02*
X9810D01*
X9390Y3420D02*
Y4380D01*
X9810Y3420D02*
Y4380D01*
X9390D02*
X9810D01*
X9390Y3420D02*
X9810D01*
X2070Y1460D02*
X3030D01*
X2070Y1040D02*
X3030D01*
Y1460D01*
X2070Y1040D02*
Y1460D01*
X2230Y2000D02*
X2400D01*
X2230Y1600D02*
X2400Y1600D01*
X2700Y2000D02*
X2870Y2000D01*
X2700Y1600D02*
X2870D01*
X6280Y4700D02*
X6450Y4700D01*
X6750D02*
X6920D01*
X950Y4050D02*
X950Y3880D01*
X550Y2080D02*
Y2250D01*
X950Y4350D02*
Y4520D01*
X6280Y5300D02*
X6450Y5300D01*
X550Y4520D02*
X550Y4350D01*
Y3880D02*
Y4050D01*
X6750Y5300D02*
X6920D01*
X6280Y5700D02*
X6450D01*
X6750D02*
X6920Y5700D01*
X6750Y5100D02*
X6920Y5100D01*
X6280Y5100D02*
X6450D01*
X7025Y9850D02*
X8775D01*
Y7350D02*
Y9850D01*
X7025Y7350D02*
X8775D01*
X7025D02*
Y9850D01*
X1230Y3700D02*
X1400Y3700D01*
X1600Y2000D02*
X1770Y2000D01*
X1700Y3700D02*
X1870D01*
X1230Y4100D02*
X1400D01*
X1130Y1600D02*
X1300Y1600D01*
X1600D02*
X1770D01*
X1700Y4100D02*
X1870Y4100D01*
X6750Y6250D02*
X6920Y6250D01*
X6280Y6250D02*
X6450D01*
X6280Y5850D02*
X6450Y5850D01*
X6750D02*
X6920D01*
X1130Y2000D02*
X1300D01*
X950Y2250D02*
X950Y2080D01*
X950Y2550D02*
Y2720D01*
X550Y2720D02*
X550Y2550D01*
X1650Y1050D02*
X1820D01*
X1180Y1450D02*
X1350D01*
X1180Y1050D02*
X1350Y1050D01*
X1650Y1450D02*
X1820Y1450D01*
X1230Y5200D02*
X1400D01*
X1700D02*
X1870Y5200D01*
X1700Y4800D02*
X1870D01*
X1230Y4800D02*
X1400Y4800D01*
X100Y8880D02*
Y9050D01*
X500D02*
X500Y8880D01*
X100Y9520D02*
X100Y9350D01*
X500D02*
Y9520D01*
Y8350D02*
Y8520D01*
X100Y8520D02*
X100Y8350D01*
X500Y8050D02*
X500Y7880D01*
X100Y7880D02*
Y8050D01*
X2480Y7550D02*
X2650D01*
X2480Y7150D02*
X2650Y7150D01*
X2950Y7550D02*
X3120Y7550D01*
X2950Y7150D02*
X3120D01*
X4730Y7550D02*
X4900D01*
X4730Y7150D02*
X4900Y7150D01*
X5200Y7550D02*
X5370Y7550D01*
X5200Y7150D02*
X5370D01*
X6010Y7120D02*
Y8080D01*
X5590Y7120D02*
Y8080D01*
Y7120D02*
X6010D01*
X5590Y8080D02*
X6010D01*
X3310Y6070D02*
Y7030D01*
X2890Y6070D02*
Y7030D01*
Y6070D02*
X3310D01*
X2890Y7030D02*
X3310D01*
X6010Y8220D02*
Y9180D01*
X5590Y8220D02*
Y9180D01*
Y8220D02*
X6010D01*
X5590Y9180D02*
X6010D01*
X1070Y4660D02*
X2030D01*
X1070Y4240D02*
X2030D01*
Y4660D01*
X1070Y4240D02*
Y4660D01*
X8430Y7260D02*
X9390D01*
X8430Y6840D02*
X9390D01*
Y7260D01*
X8430Y6840D02*
Y7260D01*
Y6710D02*
X9390D01*
X8430Y6290D02*
X9390D01*
Y6710D01*
X8430Y6290D02*
Y6710D01*
X1260Y5970D02*
Y6930D01*
X840Y5970D02*
Y6930D01*
Y5970D02*
X1260D01*
X840Y6930D02*
X1260D01*
X560Y5970D02*
Y6930D01*
X140Y5970D02*
Y6930D01*
Y5970D02*
X560D01*
X140Y6930D02*
X560D01*
X1640Y9820D02*
X2060D01*
X1640Y8860D02*
X2060D01*
X1640D02*
Y9820D01*
X2060Y8860D02*
Y9820D01*
X1640Y7630D02*
X2060D01*
X1640Y8590D02*
X2060D01*
Y7630D02*
Y8590D01*
X1640Y7630D02*
Y8590D01*
X3280Y7640D02*
Y8060D01*
X2320Y7640D02*
Y8060D01*
X3280D01*
X2320Y7640D02*
X3280D01*
D33*
X10030Y4195D02*
G03*
X10029Y4195I-0J59D01*
G01*
X7381Y7832D02*
G03*
X7381Y7832I-59J0D01*
G01*
X6585Y7582D02*
G03*
X6585Y7582I-59J0D01*
G01*
X2759Y2251D02*
G03*
X2759Y2250I-59J-0D01*
G01*
D38*
X7170Y2300D02*
G03*
X7170Y2700I-50J200D01*
G01*
X6530Y2700D02*
G03*
X6530Y2300I50J-200D01*
G01*
X2230Y2000D02*
G03*
X2230Y1600I50J-200D01*
G01*
X2870Y1600D02*
G03*
X2870Y2000I-50J200D01*
G01*
X950Y2720D02*
G03*
X550Y2720I-200J-50D01*
G01*
X550Y2080D02*
G03*
X950Y2080I200J50D01*
G01*
X6280Y5100D02*
G03*
X6280Y4700I50J-200D01*
G01*
X6920Y4700D02*
G03*
X6920Y5100I-50J200D01*
G01*
X1820Y1050D02*
G03*
X1820Y1450I-50J200D01*
G01*
X1180Y1450D02*
G03*
X1180Y1050I50J-200D01*
G01*
X950Y4520D02*
G03*
X550Y4520I-200J-50D01*
G01*
X550Y3880D02*
G03*
X950Y3880I200J50D01*
G01*
X6280Y5700D02*
G03*
X6280Y5300I50J-200D01*
G01*
X6920Y5300D02*
G03*
X6920Y5700I-50J200D01*
G01*
X4730Y7550D02*
G03*
X4730Y7150I50J-200D01*
G01*
X5370Y7150D02*
G03*
X5370Y7550I-50J200D01*
G01*
X1130Y2000D02*
G03*
X1130Y1600I50J-200D01*
G01*
X1770Y1600D02*
G03*
X1770Y2000I-50J200D01*
G01*
X1870Y4800D02*
G03*
X1870Y5200I-50J200D01*
G01*
X1230Y5200D02*
G03*
X1230Y4800I50J-200D01*
G01*
X1230Y4100D02*
G03*
X1230Y3700I50J-200D01*
G01*
X1870Y3700D02*
G03*
X1870Y4100I-50J200D01*
G01*
X6280Y6250D02*
G03*
X6280Y5850I50J-200D01*
G01*
X6920Y5850D02*
G03*
X6920Y6250I-50J200D01*
G01*
X2480Y7550D02*
G03*
X2480Y7150I50J-200D01*
G01*
X3120Y7150D02*
G03*
X3120Y7550I-50J200D01*
G01*
X100Y8880D02*
G03*
X500Y8880I200J50D01*
G01*
X500Y9520D02*
G03*
X100Y9520I-200J-50D01*
G01*
X500Y8520D02*
G03*
X100Y8520I-200J-50D01*
G01*
X100Y7880D02*
G03*
X500Y7880I200J50D01*
G01*
X7000Y2300D02*
X7170D01*
X7000Y2700D02*
X7170Y2700D01*
X6530Y2300D02*
X6700Y2300D01*
X6530Y2700D02*
X6700D01*
D88*
X5420Y9700D02*
G03*
X4580Y9700I-420J-350D01*
G01*
X4580Y7800D02*
G03*
X5420Y7800I420J350D01*
G01*
X4580Y9100D02*
Y9700D01*
X5420Y9100D02*
Y9700D01*
X4580Y7800D02*
Y8400D01*
X5420Y7800D02*
Y8400D01*
X3060Y2001D02*
X3228D01*
X3060D02*
Y2169D01*
X5974Y2001D02*
Y2169D01*
X5806Y2001D02*
X5974D01*
Y4747D02*
Y4915D01*
X5806D02*
X5974D01*
X3060Y4747D02*
Y4915D01*
X3228D01*
D89*
X2099Y6300D02*
G03*
X2099Y6300I-49J0D01*
G01*
D90*
X2020Y2230D02*
Y2400D01*
X1080Y2230D02*
X2020D01*
Y3400D02*
Y3570D01*
X1080D02*
X2020D01*
X1080Y3400D02*
Y3570D01*
Y2230D02*
Y2400D01*
D91*
X1055Y9875D02*
D03*
M02*
