M48
;Layer_Color=9474304
;FILE_FORMAT=2:4
INCH,LZ
;TYPE=PLATED
T1F00S00C0.0157
T2F00S00C0.0177
T3F00S00C0.0200
T4F00S00C0.0236
;TYPE=NON_PLATED
T6F00S00C0.0394
T7F00S00C0.0433
%
T01
X0129Y0009
X0131Y00135
Y0018
X010582Y002381
X01025Y002398
X0094Y0007
X00915Y0004
X0079Y000971
X00545Y00265
X00395Y00255
X00385Y001442
X003285Y001537
X00315Y001962
X00105Y00215
X0007Y0018
X0037Y00295
Y0035
X00365Y00435
X004
X0044
X004745Y004355
X0043Y00295
X0026Y0058
Y00615
X0023Y00605
X0014Y0066
X001687Y006974
X00075Y00695
X00065Y00735
X00025Y00755
Y0071
X00095Y00765
X0009Y00805
X00115
X0012Y0083
X0009
X00095Y00875
X00105Y0093
X0012Y00945
X00155Y00865
X0031Y0091
X00355Y0089
X0039
X0042
X0048Y00925
X0051
X0048Y00955
X0044Y00995
X00395
X0035
X0028Y00955
X000802Y01025
X0004Y0102
X0003Y00985
X0039Y00755
X00375Y00725
X00435Y00755
X00625Y0075
X0066
X0064Y00725
X00735
X00795Y0069
X00815Y00665
X00805Y0063
X0079Y0059
X0076Y0061
X0073Y00625
Y00585
Y0055
Y0052
X0077
X00775Y00555
X0078Y0048
X00815Y0049
X00925Y00515
X0098Y005
X0102
X01Y0053
X0099Y00575
X00995Y00635
X009Y0061
X00885Y0074
X0083Y00735
X0085Y0077
X00865Y008343
X0079Y00835
X0077Y0066
X01045Y00555
X01115Y0041
X01145Y00435
X0114Y00315
Y0028
X009895Y003452
X0091Y00365
X0089Y00385
X00905Y00405
X0087Y0034
X00995Y00825
X0104Y00915
X0102Y00985
X01035Y0103
X01075Y0101
X0111Y0103
X01145Y01
X0098Y0102
X0092Y01055
X01175Y01035
X0121Y01
X0124Y01025
X0128Y01
X0117Y0096
X01165Y00505
X0121Y00405
X01285Y00435
Y003667
Y002983
X0131Y0048
T02
X00215Y00235
X006178Y002314
X00885Y00125
X0096Y0012
X010036Y001658
X009745Y0021
X01055Y0014
X01065Y00385
X008558Y0028
X00741Y004325
X00735Y0048
X007006Y004144
X006469Y00385
X005913Y0051
X00425Y0055
X004Y0058
X003808Y006093
X00335Y0053
X00265
X003Y00565
X00235Y00405
X000767Y003032
X00345Y007525
X0041Y0072
X004Y00805
X0071Y0078
X0073Y00815
X00715Y0085
X0074Y009368
X00665Y0095
X0063
X008Y01005
X00825Y00895
X00865Y00905
X009448Y0073
X0095Y0065
T03
X0009Y0047
X00215Y007
T04
X0032Y000512
X0037
X0042
X0047
X0052
X0057
X0062
X0067
X0072
X0077
X0082
X0087
Y010512
X0082
X0077
X0072
X0067
X0062
X0057
X0052
X0047
X0042
X0037
X0032
T06
X011479Y001971
T07
X010421Y003029
M30
