G04*
G04 #@! TF.GenerationSoftware,Altium Limited,Altium Designer,21.2.0 (30)*
G04*
G04 Layer_Physical_Order=1*
G04 Layer_Color=255*
%FSLAX24Y24*%
%MOIN*%
G70*
G04*
G04 #@! TF.SameCoordinates,7FD8D1C1-8453-446E-9C5A-4270D5F62F01*
G04*
G04*
G04 #@! TF.FilePolarity,Positive*
G04*
G01*
G75*
%ADD10C,0.0100*%
%ADD13C,0.0080*%
G04:AMPARAMS|DCode=14|XSize=59.1mil|YSize=39.4mil|CornerRadius=0mil|HoleSize=0mil|Usage=FLASHONLY|Rotation=45.000|XOffset=0mil|YOffset=0mil|HoleType=Round|Shape=Rectangle|*
%AMROTATEDRECTD14*
4,1,4,-0.0070,-0.0348,-0.0348,-0.0070,0.0070,0.0348,0.0348,0.0070,-0.0070,-0.0348,0.0*
%
%ADD14ROTATEDRECTD14*%

G04:AMPARAMS|DCode=15|XSize=59.1mil|YSize=39.4mil|CornerRadius=9.8mil|HoleSize=0mil|Usage=FLASHONLY|Rotation=45.000|XOffset=0mil|YOffset=0mil|HoleType=Round|Shape=RoundedRectangle|*
%AMROUNDEDRECTD15*
21,1,0.0591,0.0197,0,0,45.0*
21,1,0.0394,0.0394,0,0,45.0*
1,1,0.0197,0.0209,0.0070*
1,1,0.0197,-0.0070,-0.0209*
1,1,0.0197,-0.0209,-0.0070*
1,1,0.0197,0.0070,0.0209*
%
%ADD15ROUNDEDRECTD15*%
%ADD16R,0.0260X0.0200*%
%ADD17R,0.0197X0.0591*%
G04:AMPARAMS|DCode=18|XSize=20mil|YSize=20mil|CornerRadius=5mil|HoleSize=0mil|Usage=FLASHONLY|Rotation=90.000|XOffset=0mil|YOffset=0mil|HoleType=Round|Shape=RoundedRectangle|*
%AMROUNDEDRECTD18*
21,1,0.0200,0.0100,0,0,90.0*
21,1,0.0100,0.0200,0,0,90.0*
1,1,0.0100,0.0050,0.0050*
1,1,0.0100,0.0050,-0.0050*
1,1,0.0100,-0.0050,-0.0050*
1,1,0.0100,-0.0050,0.0050*
%
%ADD18ROUNDEDRECTD18*%
%ADD19R,0.0640X0.0353*%
%ADD20R,0.1181X0.0138*%
%ADD33C,0.0118*%
%ADD34C,0.0200*%
%ADD35C,0.0200*%
%ADD36C,0.0400*%
%ADD37C,0.0070*%
%ADD38C,0.0060*%
%ADD39R,0.0450X0.2350*%
%ADD40C,0.0394*%
%ADD41C,0.0433*%
%ADD42O,0.0354X0.0591*%
%ADD43O,0.0787X0.0472*%
%ADD44O,0.0945X0.0472*%
%ADD45C,0.0197*%
%ADD46C,0.0236*%
%ADD47C,0.0177*%
%ADD48C,0.0300*%
G36*
X9279Y10858D02*
X9308Y10820D01*
X9316Y10773D01*
X9319Y10749D01*
X9357Y10658D01*
X9417Y10579D01*
X9496Y10519D01*
X9587Y10481D01*
X9686Y10468D01*
X9699Y10469D01*
X9718Y10466D01*
X12382D01*
X12382Y10466D01*
Y10466D01*
X12430Y10463D01*
X12551Y10451D01*
X12714Y10402D01*
X12864Y10321D01*
X12995Y10214D01*
X13103Y10082D01*
X13183Y9932D01*
X13233Y9769D01*
X13244Y9654D01*
X13241Y9649D01*
X13229Y9591D01*
Y9272D01*
X10950Y9272D01*
X10911Y9264D01*
X10891Y9251D01*
X10841Y9241D01*
X10792Y9208D01*
X10759Y9159D01*
X10747Y9100D01*
Y5500D01*
X10759Y5441D01*
X10792Y5392D01*
X10841Y5359D01*
X10891Y5349D01*
X10911Y5336D01*
X10950Y5328D01*
X13229Y5328D01*
X13231Y1389D01*
X13232Y1382D01*
X13217Y1226D01*
X13169Y1070D01*
X13092Y926D01*
X12989Y799D01*
X12862Y696D01*
X12718Y619D01*
X12562Y571D01*
X12406Y556D01*
X12399Y557D01*
X9702D01*
X9683Y553D01*
X9670Y555D01*
X9572Y542D01*
X9480Y504D01*
X9401Y444D01*
X9341Y365D01*
X9303Y274D01*
X9300Y250D01*
X9292Y203D01*
X9292Y203D01*
X9264Y165D01*
X9249Y159D01*
X9245Y160D01*
X8927D01*
X8908Y210D01*
X8942Y254D01*
X8970Y321D01*
X8980Y394D01*
Y630D01*
X8970Y702D01*
X8942Y770D01*
X8925Y792D01*
X8949Y842D01*
X8985D01*
X8985Y842D01*
X9040Y853D01*
X9086Y884D01*
X9144Y942D01*
X9158Y955D01*
X9159Y956D01*
X9166Y957D01*
X9177Y955D01*
X9186Y958D01*
X9194Y958D01*
X9205Y963D01*
X9216Y966D01*
X9222Y972D01*
X9230Y976D01*
X9238Y984D01*
X9247Y991D01*
X9249Y995D01*
X9347D01*
Y1078D01*
X9356Y1084D01*
X9424Y1071D01*
X9443Y1043D01*
X9515Y995D01*
X9564Y985D01*
X9573Y982D01*
X9582Y980D01*
X9587Y979D01*
X9592Y978D01*
X9596Y977D01*
X9600Y975D01*
X9603Y974D01*
X9606Y972D01*
X9608Y971D01*
X9921Y657D01*
X9921Y657D01*
X9967Y626D01*
X10022Y616D01*
X10022Y616D01*
X10558D01*
X10558Y616D01*
X10613Y626D01*
X10659Y657D01*
X11109Y1107D01*
X11109Y1107D01*
X11140Y1153D01*
X11151Y1208D01*
X11151Y1208D01*
Y1857D01*
X11201Y1867D01*
X11220Y1821D01*
X11267Y1759D01*
X11329Y1712D01*
X11401Y1682D01*
X11479Y1672D01*
X11556Y1682D01*
X11629Y1712D01*
X11691Y1759D01*
X11738Y1821D01*
X11768Y1894D01*
X11778Y1971D01*
X11768Y2049D01*
X11738Y2121D01*
X11691Y2183D01*
X11629Y2230D01*
X11556Y2260D01*
X11491Y2269D01*
X11467Y2315D01*
X11709Y2557D01*
X11929D01*
X11929Y2557D01*
X11984Y2568D01*
X12030Y2599D01*
X12064Y2633D01*
X12125Y2632D01*
X12175Y2582D01*
X12677Y3085D01*
X12314Y3448D01*
X11812Y2945D01*
X11862Y2895D01*
X11863Y2889D01*
X11846Y2849D01*
X11833Y2843D01*
X11650D01*
X11650Y2843D01*
X11595Y2832D01*
X11549Y2801D01*
X11549Y2801D01*
X10907Y2159D01*
X10876Y2113D01*
X10865Y2058D01*
X10865Y2058D01*
Y1303D01*
X10852Y1294D01*
X10797Y1318D01*
X10793Y1337D01*
X10767Y1375D01*
X10772Y1400D01*
X10755Y1485D01*
X10707Y1557D01*
X10635Y1605D01*
X10550Y1622D01*
X10495Y1612D01*
X10471Y1658D01*
X10478Y1665D01*
X10124Y2019D01*
X10115Y2028D01*
X10079Y2063D01*
X9935Y2207D01*
X9902Y2257D01*
X9852Y2290D01*
X9796Y2347D01*
X9815Y2397D01*
X9847Y2401D01*
X9951Y2297D01*
X9951Y2297D01*
X9997Y2266D01*
X10052Y2256D01*
X10107D01*
X10107Y2255D01*
X10173Y2211D01*
X10250Y2196D01*
X10327Y2211D01*
X10393Y2255D01*
X10437Y2321D01*
X10452Y2398D01*
X10441Y2457D01*
X10471Y2507D01*
X10650D01*
X10650Y2507D01*
X10705Y2518D01*
X10751Y2549D01*
X11251Y3049D01*
X11251Y3049D01*
X11282Y3095D01*
X11293Y3150D01*
X11293Y3150D01*
Y3383D01*
X11299Y3396D01*
X11339Y3413D01*
X11345Y3412D01*
X11395Y3362D01*
X11898Y3864D01*
X11590Y4172D01*
X11593Y4207D01*
X11637Y4273D01*
X11652Y4350D01*
X11637Y4427D01*
X11593Y4493D01*
X11572Y4507D01*
X11587Y4557D01*
X12441D01*
X12648Y4350D01*
X12648Y4350D01*
X12663Y4273D01*
X12707Y4207D01*
X12773Y4163D01*
X12850Y4148D01*
X12927Y4163D01*
X12993Y4207D01*
X13037Y4273D01*
X13052Y4350D01*
X13037Y4427D01*
X12993Y4493D01*
X12927Y4537D01*
X12850Y4552D01*
X12850Y4552D01*
X12601Y4801D01*
X12555Y4832D01*
X12500Y4843D01*
X12500Y4843D01*
X8409D01*
X8352Y4900D01*
X8352Y4900D01*
X8337Y4977D01*
X8293Y5043D01*
X8227Y5087D01*
X8150Y5102D01*
X8073Y5087D01*
X8007Y5043D01*
X7963Y4977D01*
X7910Y4965D01*
X7877Y4987D01*
X7800Y5002D01*
X7723Y4987D01*
X7657Y4943D01*
X7613Y4877D01*
X7611Y4865D01*
X7560D01*
X7555Y4885D01*
X7507Y4957D01*
X7435Y5005D01*
X7350Y5022D01*
X7265Y5005D01*
X7193Y4957D01*
X7145Y4885D01*
X7128Y4800D01*
X7145Y4715D01*
X7193Y4643D01*
X7265Y4595D01*
X7328Y4582D01*
Y4531D01*
X7325Y4530D01*
X7253Y4482D01*
X7204Y4410D01*
X7191Y4343D01*
X7149Y4319D01*
X7139Y4318D01*
X7091Y4349D01*
X7006Y4366D01*
X6921Y4349D01*
X6849Y4301D01*
X6801Y4229D01*
X6784Y4144D01*
X6801Y4059D01*
X6849Y3986D01*
X6921Y3938D01*
X7006Y3921D01*
X7016Y3923D01*
X7017Y3923D01*
X7020Y3923D01*
X7023Y3922D01*
X7025Y3921D01*
X7027Y3920D01*
X7028Y3919D01*
X7029Y3919D01*
X7307Y3641D01*
Y1000D01*
X7307Y1000D01*
X7318Y945D01*
X7349Y899D01*
X7467Y781D01*
X7458Y770D01*
X7430Y702D01*
X7420Y630D01*
Y394D01*
X7430Y321D01*
X7458Y254D01*
X7492Y210D01*
X7473Y160D01*
X5427Y160D01*
X5408Y210D01*
X5442Y254D01*
X5470Y321D01*
X5480Y394D01*
Y630D01*
X5470Y702D01*
X5442Y770D01*
X5398Y828D01*
X5343Y870D01*
Y950D01*
X5343Y950D01*
X5332Y1005D01*
X5301Y1051D01*
X4808Y1543D01*
X4762Y1574D01*
X4708Y1585D01*
X4708Y1585D01*
X3993D01*
X3993Y1585D01*
X3927Y1629D01*
X3850Y1645D01*
X3773Y1629D01*
X3707Y1585D01*
X3663Y1520D01*
X3648Y1442D01*
X3663Y1365D01*
X3707Y1299D01*
X3773Y1256D01*
X3850Y1240D01*
X3927Y1256D01*
X3993Y1299D01*
X3993Y1300D01*
X4648D01*
X5036Y912D01*
X5033Y851D01*
X5002Y828D01*
X4982Y800D01*
X4918D01*
X4898Y828D01*
X4840Y872D01*
X4772Y900D01*
X4700Y909D01*
X4628Y900D01*
X4560Y872D01*
X4502Y828D01*
X4482Y800D01*
X4418D01*
X4398Y828D01*
X4340Y872D01*
X4272Y900D01*
X4200Y909D01*
X4128Y900D01*
X4109Y892D01*
X3941Y1061D01*
X3895Y1092D01*
X3840Y1103D01*
X3840Y1103D01*
X2639D01*
X2554Y1187D01*
X2543Y1199D01*
X2539Y1205D01*
X2541Y1214D01*
X2539Y1222D01*
X2540Y1230D01*
X2535Y1242D01*
X2533Y1253D01*
X2529Y1260D01*
X2526Y1268D01*
X2518Y1276D01*
X2511Y1286D01*
X2504Y1291D01*
X2500Y1295D01*
Y1360D01*
X2120D01*
Y1040D01*
X2245D01*
X2249Y1036D01*
X2254Y1029D01*
X2264Y1022D01*
X2272Y1014D01*
X2280Y1011D01*
X2287Y1007D01*
X2298Y1005D01*
X2310Y1000D01*
X2318Y1001D01*
X2326Y999D01*
X2335Y1001D01*
X2350Y988D01*
X2479Y859D01*
X2479Y859D01*
X2503Y843D01*
X2504Y836D01*
X2483Y793D01*
X2009D01*
X1837Y964D01*
Y1200D01*
X1827Y1255D01*
X1796Y1301D01*
X1790Y1305D01*
Y1360D01*
X1410D01*
Y1040D01*
X1534D01*
X1535Y1039D01*
X1539Y1036D01*
X1542Y1031D01*
X1552Y1024D01*
Y905D01*
X1552Y905D01*
X1563Y851D01*
X1594Y804D01*
X1795Y603D01*
X1776Y557D01*
X563D01*
X562Y558D01*
Y558D01*
X562Y558D01*
X482Y569D01*
X374Y614D01*
X281Y685D01*
X209Y778D01*
X165Y886D01*
X151Y988D01*
X154Y1038D01*
X154Y1038D01*
X153Y1086D01*
X153Y1099D01*
Y9901D01*
X153Y9917D01*
X154Y9965D01*
X154Y9965D01*
X149Y10015D01*
X164Y10129D01*
X210Y10240D01*
X283Y10335D01*
X379Y10409D01*
X490Y10455D01*
X565Y10464D01*
X565Y10464D01*
Y10464D01*
X566Y10466D01*
X1282D01*
X1292Y10416D01*
X1283Y10412D01*
X1220Y10364D01*
X1220Y10364D01*
X986Y10130D01*
X938Y10067D01*
X908Y9994D01*
X897Y9916D01*
Y9575D01*
X836Y9514D01*
X788Y9451D01*
X758Y9378D01*
X747Y9300D01*
X758Y9222D01*
X788Y9149D01*
X836Y9086D01*
X899Y9038D01*
X972Y9008D01*
X1050Y8997D01*
X1128Y9008D01*
X1201Y9038D01*
X1264Y9086D01*
X1414Y9236D01*
X1462Y9299D01*
X1492Y9372D01*
X1503Y9450D01*
Y9790D01*
X1560Y9847D01*
X2838D01*
X2917Y9858D01*
X2989Y9888D01*
X3039Y9926D01*
X3040Y9926D01*
X3041Y9927D01*
X3052Y9936D01*
X3084Y9968D01*
X3126Y10009D01*
X3187Y10064D01*
X3235Y10102D01*
X3252Y10114D01*
X3263Y10121D01*
X3267Y10122D01*
X3271Y10124D01*
X3272Y10124D01*
X3286Y10129D01*
X3290Y10130D01*
X3292Y10132D01*
X3324Y10145D01*
X3328Y10146D01*
X3331Y10148D01*
X3340Y10152D01*
X3343Y10154D01*
X3344Y10155D01*
X3360Y10165D01*
X3375Y10172D01*
X3396Y10179D01*
X3423Y10187D01*
X3450Y10192D01*
X3477Y10187D01*
X3504Y10179D01*
X3525Y10172D01*
X3540Y10165D01*
X3556Y10155D01*
X3557Y10154D01*
X3560Y10152D01*
X3569Y10148D01*
X3572Y10146D01*
X3576Y10145D01*
X3628Y10124D01*
X3700Y10114D01*
X3772Y10124D01*
X3824Y10145D01*
X3828Y10146D01*
X3831Y10148D01*
X3840Y10152D01*
X3843Y10154D01*
X3844Y10155D01*
X3860Y10165D01*
X3875Y10172D01*
X3896Y10179D01*
X3923Y10187D01*
X3950Y10192D01*
X3977Y10187D01*
X4004Y10179D01*
X4025Y10172D01*
X4040Y10165D01*
X4056Y10155D01*
X4057Y10154D01*
X4060Y10152D01*
X4069Y10148D01*
X4072Y10146D01*
X4076Y10145D01*
X4128Y10124D01*
X4200Y10114D01*
X4272Y10124D01*
X4340Y10152D01*
X4398Y10196D01*
X4418Y10223D01*
X4482D01*
X4502Y10196D01*
X4560Y10152D01*
X4619Y10127D01*
X4621Y10124D01*
X4644Y10087D01*
X4657Y10063D01*
X4663Y10056D01*
X4691Y10003D01*
X4805Y9864D01*
X4806Y9865D01*
X4806Y9865D01*
X6878Y7793D01*
X6878Y7792D01*
X6879Y7791D01*
X6895Y7715D01*
X6943Y7643D01*
X7015Y7595D01*
X7100Y7578D01*
X7185Y7595D01*
X7257Y7643D01*
X7305Y7715D01*
X7322Y7800D01*
X7306Y7882D01*
X7306Y7885D01*
X7333Y7934D01*
X7385Y7945D01*
X7457Y7993D01*
X7505Y8065D01*
X7512Y8096D01*
X7522Y8142D01*
X7641Y8281D01*
X7656Y8305D01*
X7708Y8296D01*
X7713Y8273D01*
X7757Y8207D01*
X7823Y8163D01*
X7900Y8148D01*
X7977Y8163D01*
X8022Y8193D01*
X8023Y8193D01*
X8024Y8193D01*
X8516D01*
X8573Y8156D01*
X8650Y8140D01*
X8727Y8156D01*
X8793Y8199D01*
X8837Y8265D01*
X8852Y8343D01*
X8837Y8420D01*
X8793Y8486D01*
X8727Y8529D01*
X8650Y8545D01*
X8573Y8529D01*
X8528Y8499D01*
X8527Y8499D01*
X8526Y8499D01*
X8034D01*
X7977Y8537D01*
X7900Y8552D01*
X7832Y8539D01*
X7792Y8572D01*
X7806Y8605D01*
X7848Y8782D01*
X7863Y8964D01*
X7862D01*
Y9827D01*
X7906Y9850D01*
X7915Y9845D01*
X7970Y9834D01*
X7971Y9832D01*
X7975Y9827D01*
X7975Y9827D01*
X8037Y9712D01*
X8076Y9582D01*
X8089Y9451D01*
X8088Y9446D01*
Y9102D01*
X8088Y9101D01*
X8087Y9099D01*
X8045Y9035D01*
X8028Y8950D01*
X8045Y8865D01*
X8093Y8793D01*
X8165Y8745D01*
X8250Y8728D01*
X8335Y8745D01*
X8407Y8793D01*
X8455Y8865D01*
X8456Y8865D01*
X8510Y8881D01*
X8565Y8845D01*
X8650Y8828D01*
X8735Y8845D01*
X8807Y8893D01*
X8855Y8965D01*
X8872Y9050D01*
X8855Y9135D01*
X8813Y9199D01*
X8812Y9200D01*
X8812Y9204D01*
Y10133D01*
X8813Y10140D01*
X8840Y10152D01*
X8898Y10196D01*
X8942Y10254D01*
X8970Y10321D01*
X8980Y10394D01*
Y10630D01*
X8970Y10702D01*
X8942Y10770D01*
X8909Y10813D01*
X8929Y10863D01*
X9261D01*
X9265Y10864D01*
X9279Y10858D01*
D02*
G37*
G36*
X4111Y10714D02*
X4200Y10712D01*
Y10312D01*
X4139Y10311D01*
X4111Y10309D01*
Y10240D01*
X4090Y10254D01*
X4065Y10266D01*
X4035Y10277D01*
X4001Y10286D01*
X3962Y10294D01*
X3950Y10296D01*
X3938Y10294D01*
X3899Y10286D01*
X3865Y10277D01*
X3835Y10266D01*
X3810Y10254D01*
X3789Y10240D01*
Y10310D01*
X3700Y10312D01*
X3639Y10311D01*
X3611Y10309D01*
Y10240D01*
X3590Y10254D01*
X3565Y10266D01*
X3535Y10277D01*
X3501Y10286D01*
X3462Y10294D01*
X3450Y10296D01*
X3438Y10294D01*
X3399Y10286D01*
X3365Y10277D01*
X3335Y10266D01*
X3310Y10254D01*
X3289Y10240D01*
Y10310D01*
X3203Y10312D01*
X3246Y10222D01*
X3232Y10219D01*
X3216Y10211D01*
X3197Y10200D01*
X3174Y10184D01*
X3121Y10142D01*
X3056Y10083D01*
X2980Y10009D01*
X2740Y10334D01*
X2793Y10388D01*
X2999Y10620D01*
X3014Y10643D01*
X3024Y10662D01*
X3029Y10676D01*
X3200Y10318D01*
Y10712D01*
X3261Y10713D01*
X3289Y10714D01*
Y10784D01*
X3310Y10770D01*
X3335Y10758D01*
X3365Y10747D01*
X3399Y10738D01*
X3438Y10730D01*
X3450Y10728D01*
X3462Y10730D01*
X3501Y10738D01*
X3535Y10747D01*
X3565Y10758D01*
X3590Y10770D01*
X3611Y10784D01*
Y10714D01*
X3700Y10712D01*
X3761Y10713D01*
X3789Y10714D01*
Y10784D01*
X3810Y10770D01*
X3835Y10758D01*
X3865Y10747D01*
X3899Y10738D01*
X3938Y10730D01*
X3950Y10728D01*
X3962Y10730D01*
X4001Y10738D01*
X4035Y10747D01*
X4065Y10758D01*
X4090Y10770D01*
X4111Y10784D01*
Y10714D01*
D02*
G37*
G36*
X8024Y10394D02*
X8023Y10405D01*
X8019Y10415D01*
X8013Y10424D01*
X8005Y10432D01*
X7994Y10438D01*
X7981Y10443D01*
X7965Y10447D01*
X7950Y10450D01*
X7935Y10447D01*
X7919Y10443D01*
X7906Y10438D01*
X7895Y10431D01*
X7887Y10424D01*
X7881Y10415D01*
X7877Y10405D01*
X7876Y10394D01*
X7876Y10630D01*
X7877Y10619D01*
X7881Y10609D01*
X7887Y10600D01*
X7895Y10592D01*
X7906Y10586D01*
X7919Y10580D01*
X7935Y10576D01*
X7950Y10574D01*
X7965Y10576D01*
X7981Y10580D01*
X7994Y10586D01*
X8005Y10592D01*
X8013Y10600D01*
X8019Y10609D01*
X8023Y10619D01*
X8024Y10630D01*
X8024Y10394D01*
D02*
G37*
G36*
X6024D02*
X6023Y10405D01*
X6019Y10415D01*
X6013Y10424D01*
X6005Y10432D01*
X5994Y10438D01*
X5981Y10443D01*
X5965Y10447D01*
X5950Y10450D01*
X5935Y10447D01*
X5919Y10443D01*
X5906Y10438D01*
X5895Y10431D01*
X5887Y10424D01*
X5881Y10415D01*
X5877Y10405D01*
X5876Y10394D01*
X5876Y10630D01*
X5877Y10619D01*
X5881Y10609D01*
X5887Y10600D01*
X5895Y10592D01*
X5906Y10586D01*
X5919Y10580D01*
X5935Y10576D01*
X5950Y10574D01*
X5965Y10576D01*
X5981Y10580D01*
X5994Y10586D01*
X6005Y10592D01*
X6013Y10600D01*
X6019Y10609D01*
X6023Y10619D01*
X6024Y10630D01*
X6024Y10394D01*
D02*
G37*
G36*
X5024D02*
X5023Y10405D01*
X5019Y10415D01*
X5013Y10424D01*
X5005Y10432D01*
X4994Y10438D01*
X4981Y10443D01*
X4965Y10447D01*
X4950Y10450D01*
X4935Y10447D01*
X4919Y10443D01*
X4906Y10438D01*
X4895Y10431D01*
X4887Y10424D01*
X4881Y10415D01*
X4877Y10405D01*
X4876Y10394D01*
X4876Y10630D01*
X4877Y10619D01*
X4881Y10609D01*
X4887Y10600D01*
X4895Y10592D01*
X4906Y10586D01*
X4919Y10580D01*
X4935Y10576D01*
X4950Y10574D01*
X4965Y10576D01*
X4981Y10580D01*
X4994Y10586D01*
X5005Y10592D01*
X5013Y10600D01*
X5019Y10609D01*
X5023Y10619D01*
X5024Y10630D01*
X5024Y10394D01*
D02*
G37*
G36*
X8768Y10233D02*
X8757Y10235D01*
X8747Y10233D01*
X8738Y10229D01*
X8730Y10220D01*
X8724Y10209D01*
X8718Y10194D01*
X8714Y10175D01*
X8711Y10153D01*
X8710Y10128D01*
X8709Y10099D01*
X8591Y10137D01*
X8590Y10159D01*
X8587Y10198D01*
X8584Y10217D01*
X8580Y10234D01*
X8575Y10250D01*
X8569Y10265D01*
X8562Y10280D01*
X8555Y10293D01*
X8546Y10305D01*
X8768Y10233D01*
D02*
G37*
G36*
X5793Y10250D02*
X5786Y10246D01*
X5780Y10239D01*
X5774Y10229D01*
X5770Y10217D01*
X5766Y10202D01*
X5763Y10184D01*
X5761Y10164D01*
X5759Y10114D01*
X5641D01*
X5641Y10140D01*
X5637Y10184D01*
X5634Y10202D01*
X5630Y10217D01*
X5626Y10229D01*
X5620Y10239D01*
X5614Y10246D01*
X5607Y10250D01*
X5599Y10251D01*
X5801D01*
X5793Y10250D01*
D02*
G37*
G36*
X4840Y10297D02*
X4832Y10291D01*
X4827Y10281D01*
X4824Y10270D01*
X4824Y10256D01*
X4826Y10239D01*
X4831Y10221D01*
X4839Y10199D01*
X4849Y10176D01*
X4861Y10150D01*
X4747Y10110D01*
X4733Y10137D01*
X4705Y10182D01*
X4692Y10199D01*
X4679Y10214D01*
X4666Y10225D01*
X4654Y10233D01*
X4642Y10238D01*
X4631Y10239D01*
X4619Y10238D01*
X4850Y10302D01*
X4840Y10297D01*
D02*
G37*
G36*
X7806Y10262D02*
X7796Y10257D01*
X7788Y10250D01*
X7780Y10239D01*
X7774Y10225D01*
X7768Y10208D01*
X7764Y10188D01*
X7761Y10165D01*
X7760Y10139D01*
X7759Y10110D01*
X7641D01*
X7640Y10139D01*
X7636Y10188D01*
X7632Y10208D01*
X7626Y10225D01*
X7620Y10239D01*
X7612Y10250D01*
X7604Y10257D01*
X7594Y10262D01*
X7583Y10263D01*
X7817D01*
X7806Y10262D01*
D02*
G37*
G36*
X6826Y10282D02*
X6818Y10276D01*
X6812Y10267D01*
X6807Y10256D01*
X6805Y10242D01*
X6806Y10225D01*
X6808Y10205D01*
X6812Y10182D01*
X6819Y10157D01*
X6828Y10129D01*
X6709Y10107D01*
X6699Y10136D01*
X6679Y10183D01*
X6668Y10202D01*
X6657Y10218D01*
X6647Y10230D01*
X6636Y10240D01*
X6625Y10246D01*
X6613Y10249D01*
X6602Y10249D01*
X6837Y10285D01*
X6826Y10282D01*
D02*
G37*
G36*
X8118Y10035D02*
X8118Y10028D01*
X8120Y10021D01*
X8122Y10014D01*
X8126Y10005D01*
X8130Y9997D01*
X8140Y9977D01*
X8147Y9967D01*
X8154Y9956D01*
X8065Y9876D01*
X8058Y9887D01*
X8051Y9896D01*
X8044Y9904D01*
X8037Y9911D01*
X8029Y9917D01*
X8022Y9922D01*
X8015Y9926D01*
X8008Y9929D01*
X8000Y9931D01*
X7993Y9932D01*
X8118Y10041D01*
X8118Y10035D01*
D02*
G37*
G36*
X7328Y9523D02*
X7346Y9508D01*
X7354Y9502D01*
X7362Y9497D01*
X7370Y9493D01*
X7378Y9490D01*
X7385Y9488D01*
X7392Y9486D01*
X7399Y9486D01*
X7282Y9369D01*
X7281Y9376D01*
X7280Y9383D01*
X7278Y9390D01*
X7275Y9398D01*
X7271Y9405D01*
X7265Y9413D01*
X7259Y9422D01*
X7253Y9430D01*
X7236Y9448D01*
X7319Y9532D01*
X7328Y9523D01*
D02*
G37*
G36*
X8709Y9210D02*
X8711Y9188D01*
X8713Y9177D01*
X8715Y9168D01*
X8718Y9160D01*
X8721Y9152D01*
X8724Y9145D01*
X8728Y9139D01*
X8733Y9134D01*
X8567D01*
X8572Y9139D01*
X8576Y9145D01*
X8579Y9152D01*
X8582Y9160D01*
X8585Y9168D01*
X8587Y9177D01*
X8589Y9188D01*
X8590Y9199D01*
X8591Y9223D01*
X8709D01*
X8709Y9210D01*
D02*
G37*
G36*
X8309Y9110D02*
X8311Y9088D01*
X8313Y9077D01*
X8315Y9068D01*
X8318Y9060D01*
X8321Y9052D01*
X8324Y9045D01*
X8328Y9039D01*
X8333Y9034D01*
X8167D01*
X8172Y9039D01*
X8176Y9045D01*
X8179Y9052D01*
X8182Y9060D01*
X8185Y9068D01*
X8187Y9077D01*
X8189Y9088D01*
X8190Y9099D01*
X8191Y9123D01*
X8309D01*
X8309Y9110D01*
D02*
G37*
G36*
X7058Y8426D02*
X7054Y8430D01*
X7049Y8434D01*
X7044Y8438D01*
X7037Y8442D01*
X7029Y8446D01*
X7010Y8453D01*
X6999Y8457D01*
X6974Y8465D01*
X6985Y8585D01*
X6996Y8581D01*
X7007Y8579D01*
X7018Y8577D01*
X7028Y8577D01*
X7037Y8577D01*
X7046Y8578D01*
X7054Y8580D01*
X7061Y8582D01*
X7068Y8586D01*
X7074Y8591D01*
X7058Y8426D01*
D02*
G37*
G36*
X6002Y10196D02*
X6060Y10152D01*
X6128Y10124D01*
X6200Y10114D01*
X6272Y10124D01*
X6340Y10152D01*
X6398Y10196D01*
X6418Y10223D01*
X6482D01*
X6502Y10196D01*
X6560Y10152D01*
X6585Y10141D01*
X6587Y10138D01*
X6604Y10099D01*
X6605Y10098D01*
X6613Y10073D01*
X6618Y10065D01*
X6664Y9954D01*
X6759Y9799D01*
X6878Y9660D01*
X6878Y9660D01*
X7178Y9361D01*
X7178Y9360D01*
X7179Y9358D01*
X7195Y9283D01*
X7243Y9210D01*
X7315Y9162D01*
X7400Y9145D01*
X7485Y9162D01*
X7494Y9168D01*
X7538Y9144D01*
Y8964D01*
X7539Y8957D01*
X7524Y8800D01*
X7476Y8643D01*
X7417Y8532D01*
X7364Y8540D01*
X7355Y8585D01*
X7307Y8657D01*
X7235Y8705D01*
X7150Y8722D01*
X7065Y8705D01*
X7026Y8679D01*
X6928Y8720D01*
X6841Y8787D01*
X6838Y8791D01*
X6108Y9522D01*
X6101Y9526D01*
X6002Y9648D01*
X5924Y9793D01*
X5876Y9950D01*
X5861Y10107D01*
X5862Y10114D01*
Y10146D01*
X5863Y10157D01*
X5864Y10170D01*
X5898Y10196D01*
X5918Y10223D01*
X5982D01*
X6002Y10196D01*
D02*
G37*
G36*
X7977Y8412D02*
X7982Y8409D01*
X7987Y8406D01*
X7993Y8403D01*
X8000Y8401D01*
X8008Y8399D01*
X8016Y8398D01*
X8025Y8397D01*
X8046Y8396D01*
X8042Y8296D01*
X8031Y8296D01*
X8012Y8295D01*
X8003Y8293D01*
X7995Y8292D01*
X7988Y8290D01*
X7982Y8288D01*
X7977Y8285D01*
X7972Y8282D01*
X7968Y8278D01*
X7973Y8416D01*
X7977Y8412D01*
D02*
G37*
G36*
X8577Y8276D02*
X8573Y8280D01*
X8568Y8284D01*
X8563Y8286D01*
X8557Y8289D01*
X8550Y8291D01*
X8542Y8293D01*
X8534Y8294D01*
X8525Y8295D01*
X8504Y8296D01*
X8508Y8396D01*
X8519Y8396D01*
X8538Y8398D01*
X8547Y8399D01*
X8554Y8401D01*
X8562Y8403D01*
X8568Y8405D01*
X8573Y8408D01*
X8578Y8411D01*
X8582Y8414D01*
X8577Y8276D01*
D02*
G37*
G36*
X7028Y7955D02*
X7046Y7941D01*
X7054Y7935D01*
X7062Y7929D01*
X7070Y7925D01*
X7078Y7922D01*
X7085Y7920D01*
X7092Y7919D01*
X7099Y7918D01*
X6982Y7801D01*
X6981Y7808D01*
X6980Y7815D01*
X6978Y7822D01*
X6975Y7830D01*
X6971Y7838D01*
X6965Y7846D01*
X6959Y7854D01*
X6952Y7863D01*
X6936Y7881D01*
X7019Y7964D01*
X7028Y7955D01*
D02*
G37*
G36*
X8249Y4891D02*
X8250Y4883D01*
X8251Y4875D01*
X8254Y4867D01*
X8257Y4860D01*
X8261Y4852D01*
X8266Y4845D01*
X8271Y4837D01*
X8277Y4830D01*
X8284Y4823D01*
X8227Y4766D01*
X8220Y4773D01*
X8213Y4779D01*
X8205Y4785D01*
X8198Y4789D01*
X8190Y4793D01*
X8183Y4796D01*
X8175Y4799D01*
X8167Y4800D01*
X8159Y4801D01*
X8151Y4802D01*
X8248Y4899D01*
X8249Y4891D01*
D02*
G37*
G36*
X7899Y4791D02*
X7900Y4783D01*
X7901Y4775D01*
X7904Y4767D01*
X7907Y4760D01*
X7911Y4752D01*
X7915Y4745D01*
X7921Y4737D01*
X7927Y4730D01*
X7934Y4723D01*
X7877Y4666D01*
X7870Y4673D01*
X7863Y4679D01*
X7855Y4685D01*
X7848Y4689D01*
X7840Y4693D01*
X7833Y4696D01*
X7825Y4699D01*
X7817Y4700D01*
X7809Y4701D01*
X7801Y4702D01*
X7898Y4799D01*
X7899Y4791D01*
D02*
G37*
G36*
X7468Y4787D02*
X7469Y4776D01*
X7471Y4765D01*
X7474Y4754D01*
X7478Y4744D01*
X7482Y4734D01*
X7487Y4725D01*
X7493Y4716D01*
X7499Y4708D01*
X7507Y4700D01*
X7450Y4643D01*
X7442Y4651D01*
X7434Y4657D01*
X7425Y4663D01*
X7416Y4668D01*
X7406Y4672D01*
X7396Y4676D01*
X7385Y4679D01*
X7374Y4681D01*
X7363Y4682D01*
X7351Y4682D01*
X7468Y4799D01*
X7468Y4787D01*
D02*
G37*
G36*
X12780Y4477D02*
X12787Y4471D01*
X12795Y4466D01*
X12802Y4461D01*
X12810Y4457D01*
X12817Y4454D01*
X12825Y4451D01*
X12833Y4450D01*
X12841Y4449D01*
X12849Y4448D01*
X12752Y4351D01*
X12751Y4359D01*
X12750Y4367D01*
X12749Y4375D01*
X12746Y4383D01*
X12743Y4390D01*
X12739Y4398D01*
X12735Y4405D01*
X12729Y4413D01*
X12723Y4420D01*
X12716Y4427D01*
X12773Y4484D01*
X12780Y4477D01*
D02*
G37*
G36*
X11380Y4281D02*
X11374Y4287D01*
X11367Y4292D01*
X11361Y4296D01*
X11354Y4300D01*
X11346Y4303D01*
X11338Y4305D01*
X11329Y4307D01*
X11320Y4309D01*
X11311Y4310D01*
X11301Y4310D01*
Y4390D01*
X11311Y4390D01*
X11320Y4391D01*
X11329Y4393D01*
X11338Y4395D01*
X11346Y4397D01*
X11354Y4400D01*
X11361Y4404D01*
X11367Y4408D01*
X11374Y4413D01*
X11380Y4419D01*
Y4281D01*
D02*
G37*
G36*
X7528Y4312D02*
X7529Y4301D01*
X7531Y4290D01*
X7534Y4279D01*
X7537Y4269D01*
X7542Y4259D01*
X7547Y4250D01*
X7553Y4241D01*
X7559Y4233D01*
X7567Y4225D01*
X7510Y4168D01*
X7502Y4176D01*
X7494Y4182D01*
X7485Y4188D01*
X7475Y4193D01*
X7466Y4197D01*
X7455Y4201D01*
X7445Y4204D01*
X7434Y4206D01*
X7423Y4207D01*
X7411Y4207D01*
X7528Y4324D01*
X7528Y4312D01*
D02*
G37*
G36*
X7125Y4131D02*
X7126Y4119D01*
X7128Y4109D01*
X7130Y4098D01*
X7134Y4088D01*
X7138Y4078D01*
X7143Y4069D01*
X7149Y4060D01*
X7156Y4051D01*
X7163Y4043D01*
X7107Y3987D01*
X7099Y3994D01*
X7090Y4001D01*
X7081Y4007D01*
X7072Y4012D01*
X7062Y4016D01*
X7052Y4020D01*
X7041Y4022D01*
X7031Y4024D01*
X7019Y4025D01*
X7007Y4026D01*
X7124Y4143D01*
X7125Y4131D01*
D02*
G37*
G36*
X10649Y3732D02*
X10637Y3732D01*
X10626Y3731D01*
X10615Y3729D01*
X10604Y3726D01*
X10594Y3722D01*
X10584Y3718D01*
X10575Y3713D01*
X10566Y3707D01*
X10558Y3701D01*
X10550Y3693D01*
X10493Y3750D01*
X10501Y3758D01*
X10507Y3766D01*
X10513Y3775D01*
X10518Y3784D01*
X10522Y3794D01*
X10526Y3804D01*
X10529Y3815D01*
X10531Y3826D01*
X10532Y3837D01*
X10532Y3849D01*
X10649Y3732D01*
D02*
G37*
G36*
X8250Y4207D02*
X8250Y4207D01*
X11307D01*
X11307Y4207D01*
X11373Y4163D01*
X11395Y4159D01*
X11412Y4104D01*
X11032Y3725D01*
X11082Y3675D01*
X11083Y3614D01*
X11049Y3580D01*
X11018Y3534D01*
X11007Y3479D01*
X11007Y3479D01*
Y3209D01*
X10785Y2987D01*
X10738Y3011D01*
X10740Y3029D01*
X10729Y3112D01*
X10698Y3189D01*
X10647Y3255D01*
X10581Y3305D01*
X10504Y3337D01*
X10421Y3348D01*
X10416Y3348D01*
X10394Y3392D01*
X10627Y3625D01*
X10628Y3626D01*
X10630Y3627D01*
X10631Y3627D01*
X10633Y3628D01*
X10636Y3629D01*
X10639Y3629D01*
X10640Y3630D01*
X10650Y3628D01*
X10735Y3645D01*
X10807Y3693D01*
X10855Y3765D01*
X10872Y3850D01*
X10855Y3935D01*
X10807Y4007D01*
X10735Y4055D01*
X10650Y4072D01*
X10565Y4055D01*
X10493Y4007D01*
X10445Y3935D01*
X10428Y3850D01*
X10430Y3840D01*
X10429Y3839D01*
X10429Y3836D01*
X10428Y3834D01*
X10427Y3831D01*
X10427Y3830D01*
X10426Y3828D01*
X10425Y3827D01*
X10105Y3507D01*
X10078Y3513D01*
X10057Y3530D01*
X10057Y3532D01*
X10056Y3539D01*
X10056Y3546D01*
X10051Y3558D01*
X10050Y3565D01*
X10041Y3609D01*
X10008Y3658D01*
X9945Y3722D01*
X9895Y3755D01*
X9836Y3766D01*
X9778Y3755D01*
X9728Y3722D01*
X9695Y3672D01*
X9683Y3613D01*
X9695Y3555D01*
X9712Y3530D01*
X9712Y3529D01*
X9714Y3526D01*
X9728Y3505D01*
X9732Y3501D01*
X9733Y3499D01*
X9736Y3484D01*
X9739Y3480D01*
X9740Y3476D01*
X9745Y3470D01*
X9742Y3452D01*
X9753Y3393D01*
X9786Y3344D01*
X9836Y3310D01*
X9837Y3310D01*
X9854Y3256D01*
X9741Y3143D01*
X8758D01*
X8758Y3143D01*
X8703Y3132D01*
X8657Y3101D01*
X8657Y3101D01*
X8581Y3025D01*
X8580Y3024D01*
X8579Y3023D01*
X8577Y3023D01*
X8575Y3022D01*
X8572Y3021D01*
X8569Y3021D01*
X8568Y3020D01*
X8558Y3022D01*
X8493Y3009D01*
X8443Y3041D01*
Y3850D01*
X8443Y3850D01*
X8432Y3905D01*
X8401Y3951D01*
X8401Y3951D01*
X8177Y4175D01*
X8178Y4176D01*
X8207Y4216D01*
X8250Y4207D01*
D02*
G37*
G36*
X11314Y3531D02*
X11309Y3536D01*
X11302Y3539D01*
X11295Y3540D01*
X11287Y3540D01*
X11279Y3538D01*
X11270Y3534D01*
X11261Y3528D01*
X11251Y3521D01*
X11240Y3512D01*
X11229Y3502D01*
X11172Y3558D01*
X11183Y3569D01*
X11192Y3580D01*
X11199Y3590D01*
X11204Y3600D01*
X11208Y3608D01*
X11210Y3617D01*
X11211Y3624D01*
X11209Y3631D01*
X11206Y3638D01*
X11201Y3644D01*
X11314Y3531D01*
D02*
G37*
G36*
X9955Y3529D02*
X9830Y3526D01*
X9832Y3528D01*
X9833Y3531D01*
X9832Y3535D01*
X9831Y3539D01*
X9829Y3544D01*
X9826Y3550D01*
X9821Y3556D01*
X9816Y3562D01*
X9802Y3578D01*
X9894Y3627D01*
X9955Y3529D01*
D02*
G37*
G36*
X8715Y2900D02*
X8708Y2892D01*
X8701Y2884D01*
X8695Y2875D01*
X8690Y2866D01*
X8686Y2856D01*
X8682Y2846D01*
X8679Y2835D01*
X8678Y2824D01*
X8676Y2813D01*
X8676Y2801D01*
X8559Y2918D01*
X8571Y2918D01*
X8582Y2919D01*
X8593Y2921D01*
X8604Y2924D01*
X8614Y2928D01*
X8624Y2932D01*
X8633Y2937D01*
X8642Y2943D01*
X8650Y2949D01*
X8659Y2957D01*
X8715Y2900D01*
D02*
G37*
G36*
X12094Y2751D02*
X12088Y2756D01*
X12081Y2759D01*
X12074Y2761D01*
X12067Y2760D01*
X12058Y2758D01*
X12050Y2754D01*
X12040Y2749D01*
X12030Y2742D01*
X12019Y2733D01*
X12008Y2722D01*
X11952Y2779D01*
X11962Y2790D01*
X11971Y2801D01*
X11978Y2811D01*
X11984Y2820D01*
X11988Y2829D01*
X11990Y2837D01*
X11990Y2845D01*
X11989Y2852D01*
X11986Y2859D01*
X11981Y2864D01*
X12094Y2751D01*
D02*
G37*
G36*
X8635Y2710D02*
X8626Y2702D01*
X8619Y2694D01*
X8612Y2686D01*
X8606Y2677D01*
X8601Y2667D01*
X8597Y2658D01*
X8594Y2648D01*
X8592Y2637D01*
X8590Y2627D01*
X8590Y2615D01*
X8510Y2621D01*
X8510Y2632D01*
X8508Y2643D01*
X8506Y2653D01*
X8504Y2664D01*
X8500Y2674D01*
X8496Y2684D01*
X8490Y2694D01*
X8484Y2703D01*
X8477Y2712D01*
X8470Y2722D01*
X8635Y2710D01*
D02*
G37*
G36*
X10180Y2329D02*
X10174Y2335D01*
X10167Y2340D01*
X10161Y2344D01*
X10154Y2348D01*
X10146Y2351D01*
X10138Y2354D01*
X10129Y2356D01*
X10120Y2357D01*
X10111Y2358D01*
X10101Y2358D01*
Y2438D01*
X10111Y2439D01*
X10120Y2439D01*
X10129Y2441D01*
X10138Y2443D01*
X10146Y2445D01*
X10154Y2449D01*
X10161Y2452D01*
X10167Y2457D01*
X10174Y2462D01*
X10180Y2467D01*
Y2329D01*
D02*
G37*
G36*
X9240Y1689D02*
X9241Y1671D01*
X9243Y1663D01*
X9244Y1657D01*
X9246Y1652D01*
X9248Y1648D01*
X9250Y1645D01*
X9253Y1643D01*
X9256Y1643D01*
X9144D01*
X9147Y1643D01*
X9150Y1645D01*
X9152Y1648D01*
X9154Y1652D01*
X9156Y1657D01*
X9157Y1663D01*
X9159Y1671D01*
X9159Y1679D01*
X9160Y1700D01*
X9240D01*
X9240Y1689D01*
D02*
G37*
G36*
X3926Y1506D02*
X3932Y1501D01*
X3939Y1497D01*
X3946Y1493D01*
X3954Y1490D01*
X3962Y1487D01*
X3971Y1485D01*
X3980Y1484D01*
X3989Y1483D01*
X3999Y1482D01*
Y1402D01*
X3989Y1402D01*
X3980Y1401D01*
X3971Y1400D01*
X3962Y1398D01*
X3954Y1395D01*
X3946Y1392D01*
X3939Y1388D01*
X3932Y1384D01*
X3926Y1379D01*
X3920Y1374D01*
Y1511D01*
X3926Y1506D01*
D02*
G37*
G36*
X8890Y1421D02*
X8892Y1410D01*
X8894Y1400D01*
X8897Y1390D01*
X8901Y1380D01*
X8905Y1370D01*
X8911Y1361D01*
X8917Y1352D01*
X8925Y1343D01*
X8933Y1334D01*
X8767D01*
X8775Y1343D01*
X8783Y1352D01*
X8789Y1361D01*
X8795Y1370D01*
X8799Y1380D01*
X8803Y1390D01*
X8806Y1400D01*
X8808Y1410D01*
X8810Y1421D01*
X8810Y1432D01*
X8890D01*
X8890Y1421D01*
D02*
G37*
G36*
X10512Y1288D02*
X10511Y1288D01*
X10509Y1287D01*
X10507Y1285D01*
X10496Y1275D01*
X10470Y1250D01*
X10400Y1320D01*
X10438Y1362D01*
X10512Y1288D01*
D02*
G37*
G36*
X9169Y1057D02*
X9165Y1063D01*
X9158Y1066D01*
X9151Y1067D01*
X9142Y1065D01*
X9131Y1061D01*
X9119Y1054D01*
X9106Y1044D01*
X9091Y1032D01*
X9056Y999D01*
X9035Y1092D01*
X9050Y1107D01*
X9073Y1134D01*
X9081Y1147D01*
X9088Y1158D01*
X9093Y1169D01*
X9096Y1179D01*
X9097Y1189D01*
X9096Y1197D01*
X9093Y1205D01*
X9169Y1057D01*
D02*
G37*
G36*
X2434Y1208D02*
X2432Y1201D01*
Y1192D01*
X2434Y1183D01*
X2439Y1172D01*
X2446Y1160D01*
X2455Y1147D01*
X2466Y1133D01*
X2495Y1101D01*
X2439Y1045D01*
X2422Y1060D01*
X2393Y1085D01*
X2380Y1094D01*
X2368Y1101D01*
X2357Y1106D01*
X2348Y1108D01*
X2339D01*
X2332Y1106D01*
X2326Y1101D01*
X2439Y1214D01*
X2434Y1208D01*
D02*
G37*
G36*
X9716Y1173D02*
X9716Y1162D01*
X9717Y1152D01*
X9719Y1141D01*
X9722Y1131D01*
X9725Y1122D01*
X9730Y1112D01*
X9736Y1103D01*
X9742Y1095D01*
X9750Y1087D01*
X9686Y1037D01*
X9678Y1045D01*
X9670Y1052D01*
X9661Y1058D01*
X9652Y1063D01*
X9642Y1068D01*
X9632Y1072D01*
X9621Y1076D01*
X9610Y1079D01*
X9599Y1081D01*
X9587Y1083D01*
X9717Y1185D01*
X9716Y1173D01*
D02*
G37*
G36*
X1729Y1101D02*
X1730Y1100D01*
X1731Y1098D01*
X1732Y1094D01*
X1733Y1088D01*
X1734Y1072D01*
X1735Y1021D01*
X1655D01*
X1654Y1037D01*
X1653Y1050D01*
X1651Y1062D01*
X1648Y1073D01*
X1645Y1082D01*
X1640Y1089D01*
X1635Y1095D01*
X1629Y1099D01*
X1622Y1102D01*
X1615Y1102D01*
X1729Y1101D01*
D02*
G37*
G36*
X7922Y1101D02*
X7922Y1093D01*
X7924Y1085D01*
X7926Y1077D01*
X7928Y1071D01*
X7931Y1064D01*
X7934Y1059D01*
X7938Y1054D01*
X7942Y1050D01*
X7947Y1046D01*
X7918Y1040D01*
X7918Y1039D01*
X7919Y1032D01*
X7920Y1024D01*
X7921Y1003D01*
X7921Y990D01*
X7841D01*
X7841Y1003D01*
X7839Y1023D01*
X7826Y1020D01*
X7829Y1025D01*
X7832Y1031D01*
X7834Y1036D01*
X7835Y1040D01*
X7832Y1045D01*
X7829Y1050D01*
X7825Y1053D01*
X7820Y1055D01*
X7815Y1056D01*
X7839D01*
X7839Y1057D01*
X7841Y1073D01*
X7841Y1082D01*
X7841Y1091D01*
X7921Y1111D01*
X7922Y1101D01*
D02*
G37*
G36*
X8240Y864D02*
X8244Y833D01*
X8246Y821D01*
X8250Y810D01*
X8254Y802D01*
X8259Y795D01*
X8265Y790D01*
X8272Y787D01*
X8280Y786D01*
X8120D01*
X8128Y787D01*
X8135Y790D01*
X8141Y795D01*
X8146Y802D01*
X8150Y810D01*
X8154Y821D01*
X8156Y833D01*
X8158Y848D01*
X8160Y864D01*
X8160Y882D01*
X8240D01*
X8240Y864D01*
D02*
G37*
G36*
X5240D02*
X5244Y833D01*
X5246Y821D01*
X5250Y810D01*
X5254Y802D01*
X5259Y795D01*
X5265Y790D01*
X5272Y787D01*
X5280Y786D01*
X5120D01*
X5128Y787D01*
X5135Y790D01*
X5141Y795D01*
X5146Y802D01*
X5150Y810D01*
X5154Y821D01*
X5156Y833D01*
X5158Y848D01*
X5160Y864D01*
X5160Y882D01*
X5240D01*
X5240Y864D01*
D02*
G37*
G36*
X4046Y811D02*
X4070Y792D01*
X4080Y785D01*
X4090Y781D01*
X4098Y778D01*
X4106Y778D01*
X4113Y779D01*
X4119Y782D01*
X4125Y788D01*
X4028Y660D01*
X4032Y667D01*
X4034Y674D01*
X4034Y682D01*
X4032Y691D01*
X4029Y701D01*
X4023Y711D01*
X4016Y722D01*
X4007Y734D01*
X3996Y747D01*
X3983Y760D01*
X4033Y824D01*
X4046Y811D01*
D02*
G37*
G36*
X4524Y432D02*
X4523Y439D01*
X4520Y446D01*
X4516Y452D01*
X4511Y457D01*
X4503Y462D01*
X4494Y465D01*
X4484Y468D01*
X4472Y470D01*
X4458Y471D01*
X4450Y472D01*
X4442Y471D01*
X4428Y470D01*
X4416Y468D01*
X4406Y465D01*
X4397Y462D01*
X4389Y457D01*
X4384Y452D01*
X4380Y446D01*
X4377Y439D01*
X4376Y432D01*
Y592D01*
X4377Y584D01*
X4380Y577D01*
X4384Y571D01*
X4389Y566D01*
X4397Y562D01*
X4406Y558D01*
X4416Y555D01*
X4428Y553D01*
X4442Y552D01*
X4450Y552D01*
X4458Y552D01*
X4472Y553D01*
X4484Y555D01*
X4494Y558D01*
X4503Y562D01*
X4511Y566D01*
X4516Y571D01*
X4520Y577D01*
X4523Y584D01*
X4524Y592D01*
Y432D01*
D02*
G37*
G36*
X3524D02*
X3523Y439D01*
X3520Y446D01*
X3516Y452D01*
X3511Y457D01*
X3503Y462D01*
X3494Y465D01*
X3484Y468D01*
X3472Y470D01*
X3458Y471D01*
X3450Y472D01*
X3442Y471D01*
X3428Y470D01*
X3416Y468D01*
X3406Y465D01*
X3397Y462D01*
X3389Y457D01*
X3384Y452D01*
X3380Y446D01*
X3377Y439D01*
X3376Y432D01*
Y592D01*
X3377Y584D01*
X3380Y577D01*
X3384Y571D01*
X3389Y566D01*
X3397Y562D01*
X3406Y558D01*
X3416Y555D01*
X3428Y553D01*
X3442Y552D01*
X3450Y552D01*
X3458Y552D01*
X3472Y553D01*
X3484Y555D01*
X3494Y558D01*
X3503Y562D01*
X3511Y566D01*
X3516Y571D01*
X3520Y577D01*
X3523Y584D01*
X3524Y592D01*
Y432D01*
D02*
G37*
%LPC*%
G36*
X5100Y8741D02*
X5038Y8729D01*
X5007Y8708D01*
X4449D01*
Y8580D01*
X4399Y8552D01*
X4350Y8562D01*
X3700D01*
X3638Y8550D01*
X3585Y8515D01*
X3335Y8265D01*
X3300Y8212D01*
X3288Y8150D01*
Y7677D01*
X3288Y7676D01*
X3287Y7674D01*
X3245Y7610D01*
X3228Y7525D01*
X3245Y7440D01*
X3293Y7368D01*
X3365Y7320D01*
X3450Y7303D01*
X3535Y7320D01*
X3607Y7368D01*
X3655Y7440D01*
X3672Y7525D01*
X3655Y7610D01*
X3613Y7674D01*
X3612Y7675D01*
X3612Y7679D01*
Y8083D01*
X3760Y8230D01*
X3803Y8226D01*
X3825Y8180D01*
X3795Y8135D01*
X3778Y8050D01*
X3795Y7965D01*
X3843Y7893D01*
X3915Y7845D01*
X4000Y7828D01*
X4085Y7845D01*
X4112Y7863D01*
X4112Y7863D01*
X4113Y7863D01*
X4115Y7863D01*
X4115Y7863D01*
X4121Y7865D01*
X4122Y7865D01*
X4134Y7866D01*
X4449D01*
Y7623D01*
X5751D01*
Y7866D01*
X5780D01*
X5842Y7878D01*
X5895Y7913D01*
X5964Y7982D01*
X5999Y8035D01*
X6012Y8097D01*
Y8438D01*
X5999Y8500D01*
X5964Y8553D01*
X5833Y8684D01*
X5781Y8719D01*
X5719Y8731D01*
X5149D01*
X5100Y8741D01*
D02*
G37*
G36*
X10200Y8552D02*
X9750D01*
X9711Y8544D01*
X9678Y8522D01*
X9656Y8489D01*
X9648Y8450D01*
Y7476D01*
X9598Y7462D01*
X9533Y7505D01*
X9448Y7522D01*
X9363Y7505D01*
X9290Y7457D01*
X9242Y7385D01*
X9225Y7300D01*
X9242Y7215D01*
X9290Y7143D01*
X9363Y7095D01*
X9367Y7094D01*
Y6685D01*
X9366Y6683D01*
X9364Y6679D01*
X9362Y6675D01*
X9358Y6670D01*
X9352Y6664D01*
X9352Y6663D01*
X9343Y6657D01*
X9295Y6585D01*
X9278Y6500D01*
X9295Y6415D01*
X9343Y6343D01*
X9415Y6295D01*
X9500Y6278D01*
X9585Y6295D01*
X9604Y6307D01*
X9648Y6284D01*
Y6100D01*
X9656Y6061D01*
X9678Y6028D01*
X9711Y6006D01*
X9750Y5998D01*
X10200D01*
X10239Y6006D01*
X10272Y6028D01*
X10294Y6061D01*
X10302Y6100D01*
Y8450D01*
X10294Y8489D01*
X10272Y8522D01*
X10239Y8544D01*
X10200Y8552D01*
D02*
G37*
G36*
X4100Y7422D02*
X4015Y7405D01*
X3943Y7357D01*
X3895Y7285D01*
X3878Y7200D01*
X3895Y7115D01*
X3896Y7113D01*
X3873Y7058D01*
X3871Y7057D01*
X3825Y7027D01*
X3825Y7027D01*
X2899Y6101D01*
X2868Y6055D01*
X2857Y6000D01*
X2857Y6000D01*
Y5825D01*
X2857Y5824D01*
X2857Y5822D01*
X2856Y5821D01*
X2855Y5819D01*
X2853Y5816D01*
X2852Y5814D01*
X2851Y5813D01*
X2843Y5807D01*
X2795Y5735D01*
X2778Y5650D01*
X2795Y5565D01*
X2843Y5493D01*
X2915Y5445D01*
X3000Y5428D01*
X3085Y5445D01*
X3117Y5466D01*
X3175Y5444D01*
X3177Y5434D01*
X3145Y5385D01*
X3128Y5300D01*
X3145Y5215D01*
X3193Y5143D01*
X3265Y5095D01*
X3350Y5078D01*
X3435Y5095D01*
X3507Y5143D01*
X3555Y5215D01*
X3572Y5300D01*
X3555Y5385D01*
X3507Y5457D01*
X3499Y5463D01*
X3498Y5464D01*
X3497Y5466D01*
X3495Y5469D01*
X3494Y5471D01*
X3493Y5472D01*
X3493Y5474D01*
X3493Y5475D01*
Y6036D01*
X3537Y6081D01*
X3591Y6064D01*
X3603Y6008D01*
X3651Y5936D01*
X3723Y5887D01*
X3792Y5874D01*
X3778Y5800D01*
X3795Y5715D01*
X3843Y5643D01*
X3915Y5595D01*
X3996Y5578D01*
X4000Y5578D01*
X4034Y5533D01*
X4028Y5500D01*
X4045Y5415D01*
X4093Y5343D01*
X4130Y5318D01*
X4137Y5311D01*
X4137Y5311D01*
Y5209D01*
X3870Y4943D01*
X3209D01*
X2875Y5277D01*
X2874Y5278D01*
X2873Y5280D01*
X2873Y5281D01*
X2872Y5283D01*
X2871Y5286D01*
X2871Y5289D01*
X2870Y5290D01*
X2872Y5300D01*
X2855Y5385D01*
X2807Y5457D01*
X2735Y5505D01*
X2650Y5522D01*
X2565Y5505D01*
X2493Y5457D01*
X2445Y5385D01*
X2428Y5300D01*
X2445Y5215D01*
X2493Y5143D01*
X2565Y5095D01*
X2650Y5078D01*
X2660Y5080D01*
X2661Y5079D01*
X2664Y5079D01*
X2666Y5078D01*
X2669Y5077D01*
X2670Y5077D01*
X2672Y5076D01*
X2673Y5075D01*
X3049Y4699D01*
X3049Y4699D01*
X3095Y4668D01*
X3150Y4657D01*
X3150Y4657D01*
X3930D01*
X3930Y4657D01*
X3984Y4668D01*
X4030Y4699D01*
X4381Y5049D01*
X4381Y5049D01*
X4412Y5096D01*
X4423Y5150D01*
X4423Y5150D01*
Y5344D01*
X4423Y5348D01*
X4424Y5353D01*
X4426Y5358D01*
X4427Y5363D01*
X4429Y5367D01*
X4436Y5382D01*
X4440Y5389D01*
X4442Y5394D01*
X4455Y5415D01*
X4456Y5419D01*
X5751D01*
Y5677D01*
X5751D01*
Y5694D01*
X5751D01*
Y5952D01*
X5751Y5952D01*
Y5970D01*
X5751D01*
X5751Y6002D01*
Y6228D01*
X5751D01*
Y6246D01*
X5751D01*
Y6503D01*
X5751D01*
Y6521D01*
X5751D01*
Y6779D01*
X5751D01*
Y6797D01*
X5751D01*
Y7054D01*
X5751D01*
Y7072D01*
X5751D01*
Y7330D01*
X5159D01*
X5155Y7333D01*
X5100Y7344D01*
X4578D01*
X4572Y7348D01*
X4563Y7356D01*
X4556Y7359D01*
X4550Y7363D01*
X4538Y7365D01*
X4526Y7370D01*
X4518Y7369D01*
X4511Y7371D01*
X4499Y7368D01*
X4486Y7368D01*
X4479Y7365D01*
X4472Y7363D01*
X4461Y7356D01*
X4450Y7351D01*
X4445Y7345D01*
X4443Y7344D01*
X4275D01*
X4274Y7344D01*
X4272Y7345D01*
X4270Y7345D01*
X4267Y7347D01*
X4265Y7348D01*
X4262Y7350D01*
X4262Y7350D01*
X4257Y7357D01*
X4185Y7405D01*
X4100Y7422D01*
D02*
G37*
G36*
X2150Y7255D02*
X2052Y7235D01*
X1970Y7180D01*
X1915Y7098D01*
X1895Y7000D01*
X1896Y6996D01*
X1869Y6947D01*
X1867Y6941D01*
X1851Y6912D01*
X1810Y6777D01*
X1797Y6643D01*
X1796Y6638D01*
Y4814D01*
X1796Y4812D01*
X1811Y4626D01*
X1855Y4442D01*
X1879Y4384D01*
X1851Y4343D01*
X1459D01*
X1163Y4639D01*
X1161Y4642D01*
X1160Y4645D01*
X1158Y4651D01*
X1156Y4657D01*
X1154Y4665D01*
X1153Y4674D01*
X1152Y4685D01*
X1152Y4686D01*
X1155Y4700D01*
X1135Y4798D01*
X1080Y4880D01*
X998Y4936D01*
X900Y4955D01*
X802Y4936D01*
X720Y4880D01*
X665Y4798D01*
X645Y4700D01*
X665Y4602D01*
X720Y4520D01*
X802Y4464D01*
X900Y4445D01*
X914Y4448D01*
X915Y4448D01*
X926Y4447D01*
X935Y4446D01*
X943Y4444D01*
X949Y4442D01*
X955Y4441D01*
X958Y4439D01*
X961Y4437D01*
X1282Y4116D01*
X1261Y4066D01*
X719D01*
Y3594D01*
X1479D01*
Y4057D01*
X2037D01*
X2067Y4007D01*
X2013Y3907D01*
X1963Y3740D01*
X1946Y3567D01*
X1946D01*
Y3406D01*
X1945Y3391D01*
X1941Y3370D01*
X1937Y3355D01*
X1909Y3353D01*
X1502D01*
X1496Y3360D01*
X1488Y3372D01*
X1484Y3375D01*
X1480Y3379D01*
X1479Y3380D01*
Y3436D01*
X719D01*
Y3245D01*
X682Y3237D01*
X609Y3189D01*
X561Y3117D01*
X544Y3032D01*
X561Y2947D01*
X609Y2874D01*
X682Y2826D01*
X767Y2809D01*
X852Y2826D01*
X924Y2874D01*
X972Y2947D01*
X976Y2964D01*
X1479D01*
Y3020D01*
X1480Y3021D01*
X1484Y3025D01*
X1488Y3028D01*
X1496Y3040D01*
X1502Y3047D01*
X1921D01*
X1937Y3047D01*
X1937Y3045D01*
X1941Y3030D01*
X1945Y3009D01*
X1946Y2994D01*
Y2496D01*
X1899Y2493D01*
X1660D01*
X1605Y2482D01*
X1559Y2451D01*
X1559Y2451D01*
X1119Y2011D01*
X1114Y2007D01*
X1106Y2000D01*
X1105Y2000D01*
X1103Y1999D01*
X1096Y2001D01*
X1083Y1998D01*
X1070Y1997D01*
X1064Y1994D01*
X1057Y1993D01*
X1046Y1986D01*
X1034Y1980D01*
X1029Y1975D01*
X1024Y1971D01*
X1016Y1960D01*
X1016Y1960D01*
X920D01*
Y1640D01*
X1300D01*
Y1734D01*
X1301Y1735D01*
X1308Y1743D01*
X1317Y1751D01*
X1321Y1758D01*
X1327Y1764D01*
X1331Y1775D01*
X1336Y1786D01*
X1337Y1794D01*
X1337Y1795D01*
X1350Y1808D01*
X1354Y1808D01*
X1398Y1783D01*
X1400Y1779D01*
Y1640D01*
X1638D01*
X1639Y1637D01*
X1644Y1634D01*
X1647Y1629D01*
X1659Y1621D01*
X1670Y1612D01*
X1675Y1610D01*
X1680Y1607D01*
X1694Y1604D01*
X1708Y1600D01*
X1713Y1600D01*
X1719Y1599D01*
X1733Y1602D01*
X1747Y1603D01*
X1752Y1606D01*
X1758Y1607D01*
X1770Y1615D01*
X1783Y1622D01*
X1786Y1626D01*
X1791Y1629D01*
X1799Y1641D01*
X1804Y1647D01*
X2174D01*
X2175Y1647D01*
X2184Y1646D01*
X2190Y1645D01*
X2192Y1644D01*
X2193Y1643D01*
X2205Y1635D01*
X2216Y1625D01*
X2221Y1624D01*
X2226Y1621D01*
X2240Y1618D01*
X2254Y1613D01*
X2259Y1614D01*
X2265Y1613D01*
X2279Y1616D01*
X2293Y1617D01*
X2298Y1620D01*
X2304Y1621D01*
X2316Y1629D01*
X2329Y1635D01*
X2331Y1638D01*
X2400D01*
X2443Y1646D01*
X2479Y1671D01*
X2504Y1707D01*
X2512Y1750D01*
Y1850D01*
X2504Y1893D01*
X2479Y1929D01*
X2443Y1954D01*
X2400Y1962D01*
X2331D01*
X2329Y1965D01*
X2316Y1971D01*
X2304Y1979D01*
X2298Y1980D01*
X2293Y1983D01*
X2279Y1984D01*
X2265Y1987D01*
X2259Y1986D01*
X2254Y1987D01*
X2240Y1982D01*
X2226Y1979D01*
X2221Y1976D01*
X2216Y1975D01*
X2205Y1965D01*
X2193Y1957D01*
X2192Y1956D01*
X2190Y1955D01*
X2185Y1954D01*
X2170Y1953D01*
X1804D01*
X1799Y1959D01*
X1791Y1971D01*
X1786Y1974D01*
X1783Y1978D01*
X1770Y1985D01*
X1758Y1993D01*
X1752Y1994D01*
X1747Y1997D01*
X1733Y1998D01*
X1719Y2001D01*
X1713Y2000D01*
X1708Y2000D01*
X1694Y1996D01*
X1680Y1993D01*
X1675Y1990D01*
X1670Y1988D01*
X1659Y1979D01*
X1647Y1971D01*
X1644Y1966D01*
X1639Y1963D01*
X1638Y1960D01*
X1537D01*
X1518Y2006D01*
X1719Y2207D01*
X1905D01*
X1951Y2205D01*
X1986Y2202D01*
X1986Y2202D01*
X1987Y2201D01*
X1993Y2193D01*
X2065Y2145D01*
X2150Y2128D01*
X2235Y2145D01*
X2307Y2193D01*
X2313Y2201D01*
X2313Y2201D01*
X2368Y2206D01*
X2475Y2099D01*
X2521Y2068D01*
X2576Y2057D01*
X2576Y2057D01*
X2915D01*
X2946Y2018D01*
X2938Y1979D01*
X2921Y1970D01*
X2890Y1959D01*
X2883Y1964D01*
X2878Y1965D01*
X2872Y1967D01*
X2858Y1969D01*
X2844Y1971D01*
X2839Y1970D01*
X2833Y1971D01*
X2819Y1966D01*
X2805Y1964D01*
X2803Y1962D01*
X2800Y1962D01*
X2700D01*
X2657Y1954D01*
X2621Y1929D01*
X2596Y1893D01*
X2588Y1850D01*
Y1750D01*
X2596Y1707D01*
X2621Y1671D01*
X2657Y1646D01*
X2700Y1638D01*
X2800D01*
X2803Y1638D01*
X2805Y1636D01*
X2819Y1634D01*
X2833Y1629D01*
X2839Y1630D01*
X2844Y1629D01*
X2858Y1631D01*
X2872Y1633D01*
X2878Y1635D01*
X2883Y1636D01*
X2895Y1644D01*
X2908Y1651D01*
X2912Y1655D01*
X2916Y1659D01*
X2919Y1662D01*
X2988D01*
X3041Y1673D01*
X3086Y1703D01*
X3144Y1761D01*
X3150Y1759D01*
X3227Y1775D01*
X3293Y1819D01*
X3337Y1884D01*
X3352Y1962D01*
X3343Y2007D01*
X3380Y2057D01*
X4285D01*
X4285Y2057D01*
X4339Y2068D01*
X4386Y2099D01*
X4458Y2171D01*
X6003D01*
X6004Y2171D01*
X6005Y2170D01*
X6007Y2170D01*
X6009Y2169D01*
X6012Y2167D01*
X6014Y2166D01*
X6015Y2165D01*
X6021Y2157D01*
X6093Y2108D01*
X6178Y2092D01*
X6263Y2108D01*
X6335Y2157D01*
X6383Y2229D01*
X6400Y2314D01*
X6383Y2399D01*
X6335Y2471D01*
X6263Y2519D01*
X6178Y2536D01*
X6093Y2519D01*
X6021Y2471D01*
X6015Y2463D01*
X6014Y2462D01*
X6012Y2460D01*
X6009Y2459D01*
X6007Y2458D01*
X6005Y2457D01*
X6004Y2457D01*
X6003Y2457D01*
X4399D01*
X4399Y2457D01*
X4344Y2446D01*
X4298Y2415D01*
X4298Y2415D01*
X4226Y2343D01*
X3280D01*
Y2806D01*
X2520D01*
Y2511D01*
X2470Y2484D01*
X2426Y2493D01*
X2426Y2493D01*
X2390D01*
X2367Y2493D01*
X2354Y2494D01*
Y3200D01*
Y3567D01*
X2352Y3576D01*
X2365Y3676D01*
X2413Y3698D01*
X2426Y3686D01*
X2492Y3642D01*
X2520Y3636D01*
Y3594D01*
X3137D01*
X3137Y3593D01*
X3143Y3589D01*
X3147Y3583D01*
X3157Y3575D01*
X3167Y3567D01*
X3174Y3565D01*
X3180Y3561D01*
X3192Y3558D01*
X3205Y3554D01*
X3212Y3554D01*
X3219Y3553D01*
X3231Y3555D01*
X3244Y3556D01*
X3251Y3559D01*
X3258Y3561D01*
X3268Y3568D01*
X3280Y3573D01*
X3285Y3579D01*
X3291Y3583D01*
X3298Y3593D01*
X3307Y3603D01*
X3309Y3610D01*
X3313Y3616D01*
X3313Y3618D01*
X3316Y3619D01*
X3332Y3622D01*
X3373Y3626D01*
X4643D01*
X4721Y3642D01*
X4787Y3686D01*
X5995Y4894D01*
X5998Y4895D01*
X6070Y4943D01*
X6118Y5015D01*
X6135Y5100D01*
X6118Y5185D01*
X6070Y5257D01*
X5998Y5305D01*
X5913Y5322D01*
X5828Y5305D01*
X5756Y5257D01*
X5708Y5185D01*
X5707Y5182D01*
X4558Y4034D01*
X3366D01*
X3356Y4034D01*
X3333Y4037D01*
X3316Y4041D01*
X3313Y4042D01*
X3313Y4044D01*
X3309Y4050D01*
X3307Y4057D01*
X3298Y4066D01*
X3291Y4077D01*
X3285Y4081D01*
X3280Y4087D01*
X3268Y4092D01*
X3258Y4099D01*
X3251Y4101D01*
X3244Y4104D01*
X3231Y4105D01*
X3219Y4107D01*
X3212Y4106D01*
X3205Y4106D01*
X3192Y4102D01*
X3180Y4099D01*
X3174Y4095D01*
X3167Y4093D01*
X3157Y4084D01*
X3147Y4077D01*
X3143Y4071D01*
X3137Y4067D01*
X3137Y4066D01*
X2622D01*
X2556Y4132D01*
X2555Y4135D01*
X2507Y4207D01*
X2435Y4255D01*
X2429Y4257D01*
X2336Y4370D01*
X2262Y4509D01*
X2217Y4658D01*
X2202Y4805D01*
X2204Y4814D01*
Y6638D01*
X2203Y6643D01*
X2213Y6718D01*
X2231Y6761D01*
X2248Y6765D01*
X2330Y6820D01*
X2385Y6902D01*
X2405Y7000D01*
X2385Y7098D01*
X2330Y7180D01*
X2248Y7235D01*
X2150Y7255D01*
D02*
G37*
G36*
X6469Y4072D02*
X6384Y4055D01*
X6312Y4007D01*
X6264Y3935D01*
X6247Y3850D01*
X6249Y3840D01*
X6248Y3839D01*
X6248Y3836D01*
X6247Y3834D01*
X6246Y3831D01*
X6246Y3830D01*
X6245Y3828D01*
X6244Y3827D01*
X5760Y3343D01*
X3296D01*
X3290Y3352D01*
X3285Y3355D01*
X3282Y3359D01*
X3280Y3360D01*
Y3436D01*
X2520D01*
Y2964D01*
X3280D01*
Y3040D01*
X3282Y3041D01*
X3285Y3045D01*
X3290Y3048D01*
X3296Y3057D01*
X5819D01*
X5819Y3057D01*
X5874Y3068D01*
X5920Y3099D01*
X6446Y3625D01*
X6447Y3626D01*
X6449Y3627D01*
X6450Y3627D01*
X6453Y3628D01*
X6455Y3629D01*
X6458Y3629D01*
X6459Y3630D01*
X6469Y3628D01*
X6554Y3645D01*
X6626Y3693D01*
X6674Y3765D01*
X6691Y3850D01*
X6674Y3935D01*
X6626Y4007D01*
X6554Y4055D01*
X6469Y4072D01*
D02*
G37*
G36*
X12850Y3869D02*
X12773Y3854D01*
X12707Y3810D01*
X12663Y3744D01*
X12648Y3667D01*
X12663Y3589D01*
X12707Y3524D01*
X12773Y3480D01*
X12850Y3464D01*
X12927Y3480D01*
X12993Y3524D01*
X13037Y3589D01*
X13052Y3667D01*
X13037Y3744D01*
X12993Y3810D01*
X12927Y3854D01*
X12850Y3869D01*
D02*
G37*
%LPD*%
G36*
X4512Y8239D02*
X4511Y8240D01*
X4509Y8241D01*
X4506Y8242D01*
X4501Y8243D01*
X4488Y8244D01*
X4446Y8244D01*
Y8363D01*
X4459Y8363D01*
X4509Y8366D01*
X4511Y8367D01*
X4512Y8368D01*
Y8239D01*
D02*
G37*
G36*
X5690Y8094D02*
X5693Y8093D01*
X5698Y8091D01*
X5704Y8090D01*
X5712Y8089D01*
X5748Y8087D01*
X5780Y8087D01*
Y7969D01*
X5763Y7969D01*
X5698Y7965D01*
X5693Y7963D01*
X5690Y7962D01*
X5689Y7960D01*
Y8096D01*
X5690Y8094D01*
D02*
G37*
G36*
X4511Y7960D02*
X4509Y7962D01*
X4506Y7963D01*
X4500Y7965D01*
X4492Y7966D01*
X4468Y7968D01*
X4393Y7969D01*
Y8087D01*
X4415Y8087D01*
X4506Y8093D01*
X4509Y8094D01*
X4511Y8096D01*
Y7960D01*
D02*
G37*
G36*
X4103Y8110D02*
X4108Y8105D01*
X4114Y8101D01*
X4121Y8097D01*
X4129Y8094D01*
X4138Y8092D01*
X4148Y8090D01*
X4159Y8088D01*
X4170Y8087D01*
X4183Y8087D01*
X4157Y7969D01*
X4144Y7969D01*
X4111Y7966D01*
X4101Y7965D01*
X4085Y7961D01*
X4078Y7959D01*
X4072Y7956D01*
X4067Y7953D01*
X4098Y8115D01*
X4103Y8110D01*
D02*
G37*
G36*
X3509Y7685D02*
X3511Y7663D01*
X3513Y7652D01*
X3515Y7643D01*
X3518Y7635D01*
X3521Y7627D01*
X3524Y7620D01*
X3528Y7614D01*
X3533Y7609D01*
X3367D01*
X3372Y7614D01*
X3376Y7620D01*
X3379Y7627D01*
X3382Y7635D01*
X3385Y7643D01*
X3387Y7652D01*
X3389Y7663D01*
X3390Y7674D01*
X3391Y7698D01*
X3509D01*
X3509Y7685D01*
D02*
G37*
G36*
X9553Y7244D02*
X9535Y7181D01*
X9533Y7171D01*
X9530Y7152D01*
X9530Y7144D01*
X9470Y7113D01*
X9469Y7124D01*
X9468Y7134D01*
X9465Y7143D01*
X9461Y7152D01*
X9455Y7159D01*
X9449Y7167D01*
X9441Y7173D01*
X9432Y7179D01*
X9422Y7184D01*
X9411Y7188D01*
X9558Y7259D01*
X9553Y7244D01*
D02*
G37*
G36*
X9531Y6675D02*
X9532Y6665D01*
X9535Y6655D01*
X9538Y6645D01*
X9543Y6635D01*
X9549Y6625D01*
X9556Y6615D01*
X9564Y6605D01*
X9573Y6595D01*
X9583Y6584D01*
X9417D01*
X9427Y6595D01*
X9436Y6605D01*
X9444Y6615D01*
X9451Y6625D01*
X9457Y6635D01*
X9462Y6645D01*
X9465Y6655D01*
X9468Y6665D01*
X9469Y6675D01*
X9470Y6685D01*
X9530D01*
X9531Y6675D01*
D02*
G37*
G36*
X4511Y7133D02*
X4510Y7139D01*
X4507Y7143D01*
X4503Y7148D01*
X4498Y7151D01*
X4491Y7154D01*
X4482Y7157D01*
X4471Y7159D01*
X4459Y7160D01*
X4446Y7161D01*
X4431Y7161D01*
Y7241D01*
X4446Y7241D01*
X4471Y7244D01*
X4482Y7246D01*
X4491Y7248D01*
X4498Y7251D01*
X4503Y7255D01*
X4507Y7259D01*
X4510Y7264D01*
X4511Y7269D01*
Y7133D01*
D02*
G37*
G36*
X4192Y7275D02*
X4201Y7268D01*
X4210Y7262D01*
X4220Y7256D01*
X4229Y7252D01*
X4239Y7248D01*
X4249Y7245D01*
X4260Y7243D01*
X4271Y7242D01*
X4282Y7241D01*
X4282Y7161D01*
X4271Y7161D01*
X4261Y7159D01*
X4250Y7157D01*
X4240Y7154D01*
X4230Y7150D01*
X4221Y7146D01*
X4211Y7140D01*
X4202Y7134D01*
X4194Y7126D01*
X4185Y7118D01*
X4184Y7284D01*
X4192Y7275D01*
D02*
G37*
G36*
X4511Y6858D02*
X4510Y6863D01*
X4507Y6868D01*
X4503Y6872D01*
X4498Y6876D01*
X4491Y6879D01*
X4482Y6881D01*
X4471Y6883D01*
X4459Y6884D01*
X4446Y6885D01*
X4431Y6886D01*
Y6966D01*
X4446Y6966D01*
X4471Y6968D01*
X4482Y6970D01*
X4491Y6973D01*
X4498Y6976D01*
X4503Y6979D01*
X4507Y6983D01*
X4510Y6988D01*
X4511Y6993D01*
Y6858D01*
D02*
G37*
G36*
Y6582D02*
X4510Y6588D01*
X4507Y6592D01*
X4503Y6596D01*
X4498Y6600D01*
X4491Y6603D01*
X4482Y6606D01*
X4471Y6608D01*
X4459Y6609D01*
X4446Y6610D01*
X4431Y6610D01*
Y6690D01*
X4446Y6690D01*
X4471Y6692D01*
X4482Y6694D01*
X4491Y6697D01*
X4498Y6700D01*
X4503Y6704D01*
X4507Y6708D01*
X4510Y6712D01*
X4511Y6718D01*
Y6582D01*
D02*
G37*
G36*
Y6307D02*
X4510Y6312D01*
X4507Y6317D01*
X4503Y6321D01*
X4498Y6324D01*
X4491Y6327D01*
X4482Y6330D01*
X4471Y6332D01*
X4459Y6333D01*
X4446Y6334D01*
X4431Y6334D01*
Y6414D01*
X4446Y6415D01*
X4471Y6417D01*
X4482Y6419D01*
X4491Y6421D01*
X4498Y6424D01*
X4503Y6428D01*
X4507Y6432D01*
X4510Y6437D01*
X4511Y6442D01*
Y6307D01*
D02*
G37*
G36*
X3960Y6203D02*
X3952Y6195D01*
X3946Y6186D01*
X3940Y6178D01*
X3935Y6168D01*
X3931Y6159D01*
X3928Y6149D01*
X3926Y6138D01*
X3925Y6127D01*
X3925Y6116D01*
X3926Y6105D01*
X3798Y6210D01*
X3810Y6212D01*
X3822Y6214D01*
X3833Y6217D01*
X3843Y6220D01*
X3853Y6224D01*
X3863Y6229D01*
X3872Y6234D01*
X3881Y6240D01*
X3890Y6247D01*
X3898Y6254D01*
X3960Y6203D01*
D02*
G37*
G36*
X4511Y6031D02*
X4510Y6036D01*
X4507Y6041D01*
X4503Y6045D01*
X4498Y6049D01*
X4491Y6052D01*
X4482Y6054D01*
X4471Y6056D01*
X4459Y6058D01*
X4446Y6059D01*
X4431Y6059D01*
Y6139D01*
X4446Y6139D01*
X4471Y6141D01*
X4482Y6143D01*
X4491Y6146D01*
X4498Y6149D01*
X4503Y6152D01*
X4507Y6157D01*
X4510Y6161D01*
X4511Y6167D01*
Y6031D01*
D02*
G37*
G36*
X4157Y5900D02*
X4149Y5892D01*
X4143Y5884D01*
X4137Y5875D01*
X4132Y5866D01*
X4128Y5856D01*
X4124Y5846D01*
X4121Y5835D01*
X4119Y5824D01*
X4118Y5813D01*
X4118Y5801D01*
X4001Y5918D01*
X4013Y5918D01*
X4024Y5919D01*
X4035Y5921D01*
X4046Y5924D01*
X4056Y5928D01*
X4066Y5932D01*
X4075Y5937D01*
X4084Y5943D01*
X4092Y5949D01*
X4100Y5957D01*
X4157Y5900D01*
D02*
G37*
G36*
X3040Y5821D02*
X3042Y5810D01*
X3044Y5800D01*
X3047Y5790D01*
X3051Y5780D01*
X3055Y5770D01*
X3061Y5761D01*
X3067Y5752D01*
X3075Y5743D01*
X3083Y5734D01*
X2917D01*
X2925Y5743D01*
X2933Y5752D01*
X2939Y5761D01*
X2945Y5770D01*
X2949Y5780D01*
X2953Y5790D01*
X2956Y5800D01*
X2958Y5810D01*
X2960Y5821D01*
X2960Y5832D01*
X3040D01*
X3040Y5821D01*
D02*
G37*
G36*
X3390Y5471D02*
X3392Y5460D01*
X3394Y5450D01*
X3397Y5440D01*
X3401Y5430D01*
X3405Y5420D01*
X3411Y5411D01*
X3417Y5402D01*
X3425Y5393D01*
X3433Y5384D01*
X3267D01*
X3275Y5393D01*
X3283Y5402D01*
X3289Y5411D01*
X3295Y5420D01*
X3299Y5430D01*
X3303Y5440D01*
X3306Y5450D01*
X3308Y5460D01*
X3310Y5471D01*
X3310Y5482D01*
X3390D01*
X3390Y5471D01*
D02*
G37*
G36*
X4345Y5429D02*
X4335Y5408D01*
X4331Y5397D01*
X4328Y5387D01*
X4325Y5376D01*
X4323Y5366D01*
X4321Y5355D01*
X4320Y5344D01*
X4320Y5334D01*
X4240Y5311D01*
X4239Y5323D01*
X4238Y5334D01*
X4236Y5344D01*
X4232Y5353D01*
X4228Y5362D01*
X4222Y5370D01*
X4216Y5378D01*
X4209Y5385D01*
X4201Y5392D01*
X4191Y5397D01*
X4351Y5439D01*
X4345Y5429D01*
D02*
G37*
G36*
X2768Y5287D02*
X2769Y5276D01*
X2771Y5265D01*
X2774Y5254D01*
X2778Y5244D01*
X2782Y5234D01*
X2787Y5225D01*
X2793Y5216D01*
X2799Y5208D01*
X2807Y5200D01*
X2750Y5143D01*
X2742Y5151D01*
X2734Y5157D01*
X2725Y5163D01*
X2716Y5168D01*
X2706Y5172D01*
X2696Y5176D01*
X2685Y5179D01*
X2674Y5181D01*
X2663Y5182D01*
X2651Y5182D01*
X2768Y5299D01*
X2768Y5287D01*
D02*
G37*
G36*
X2170Y6851D02*
X2166Y6850D01*
X2161Y6847D01*
X2157Y6843D01*
X2152Y6837D01*
X2147Y6829D01*
X2142Y6820D01*
X2137Y6810D01*
X2127Y6784D01*
X2121Y6769D01*
X1958Y6898D01*
X2002Y6977D01*
X2170Y6851D01*
D02*
G37*
G36*
X1050Y4681D02*
X1051Y4664D01*
X1054Y4648D01*
X1057Y4633D01*
X1061Y4619D01*
X1065Y4606D01*
X1071Y4594D01*
X1078Y4582D01*
X1086Y4572D01*
X1094Y4562D01*
X1038Y4506D01*
X1028Y4514D01*
X1018Y4522D01*
X1006Y4529D01*
X994Y4535D01*
X981Y4539D01*
X967Y4543D01*
X952Y4546D01*
X936Y4549D01*
X919Y4550D01*
X901Y4550D01*
X1050Y4699D01*
X1050Y4681D01*
D02*
G37*
G36*
X3221Y3991D02*
X3227Y3978D01*
X3237Y3967D01*
X3251Y3957D01*
X3269Y3949D01*
X3291Y3942D01*
X3317Y3937D01*
X3347Y3933D01*
X3381Y3931D01*
X3419Y3930D01*
Y3730D01*
X3381Y3729D01*
X3317Y3723D01*
X3291Y3718D01*
X3269Y3711D01*
X3251Y3703D01*
X3237Y3693D01*
X3227Y3682D01*
X3221Y3669D01*
X3219Y3655D01*
Y4005D01*
X3221Y3991D01*
D02*
G37*
G36*
X931Y3111D02*
X923Y3102D01*
X909Y3085D01*
X903Y3076D01*
X898Y3067D01*
X894Y3058D01*
X890Y3049D01*
X887Y3040D01*
X886Y3031D01*
X884Y3022D01*
X778Y3149D01*
X788Y3149D01*
X797Y3149D01*
X806Y3151D01*
X815Y3153D01*
X824Y3157D01*
X832Y3161D01*
X841Y3167D01*
X850Y3173D01*
X859Y3180D01*
X868Y3188D01*
X931Y3111D01*
D02*
G37*
G36*
X1417Y3291D02*
X1420Y3282D01*
X1425Y3275D01*
X1432Y3268D01*
X1442Y3262D01*
X1453Y3258D01*
X1466Y3255D01*
X1481Y3252D01*
X1498Y3250D01*
X1517Y3250D01*
Y3150D01*
X1498Y3149D01*
X1481Y3148D01*
X1466Y3146D01*
X1453Y3142D01*
X1442Y3137D01*
X1432Y3132D01*
X1425Y3126D01*
X1420Y3118D01*
X1417Y3110D01*
X1416Y3100D01*
Y3300D01*
X1417Y3291D01*
D02*
G37*
G36*
X2250Y3200D02*
X2050Y2950D01*
X2049Y2988D01*
X2046Y3022D01*
X2041Y3052D01*
X2034Y3078D01*
X2025Y3100D01*
X2014Y3118D01*
X2001Y3132D01*
X1986Y3142D01*
X1971Y3147D01*
X1901Y3150D01*
X1863Y3150D01*
Y3250D01*
X1901Y3250D01*
X1979Y3255D01*
X1986Y3258D01*
X2001Y3268D01*
X2014Y3282D01*
X2025Y3300D01*
X2034Y3322D01*
X2041Y3348D01*
X2046Y3378D01*
X2049Y3412D01*
X2050Y3450D01*
X2250Y3200D01*
D02*
G37*
G36*
X2243Y2425D02*
X2252Y2417D01*
X2261Y2411D01*
X2270Y2405D01*
X2280Y2401D01*
X2283Y2399D01*
X2288Y2398D01*
X2335Y2393D01*
X2363Y2391D01*
X2426Y2390D01*
Y2310D01*
X2393Y2310D01*
X2288Y2302D01*
X2283Y2301D01*
X2280Y2299D01*
X2270Y2295D01*
X2261Y2289D01*
X2252Y2283D01*
X2243Y2275D01*
X2234Y2267D01*
Y2287D01*
X2226Y2283D01*
X2218Y2276D01*
Y2424D01*
X2226Y2417D01*
X2234Y2413D01*
Y2433D01*
X2243Y2425D01*
D02*
G37*
G36*
X2066Y2412D02*
X2072Y2415D01*
X2079Y2421D01*
Y2279D01*
X2072Y2285D01*
X2066Y2288D01*
Y2267D01*
X2057Y2275D01*
X2048Y2283D01*
X2039Y2289D01*
X2030Y2295D01*
X2020Y2299D01*
X2016Y2301D01*
X2009Y2302D01*
X1958Y2307D01*
X1895Y2310D01*
X1858Y2310D01*
Y2390D01*
X1895Y2390D01*
X2009Y2398D01*
X2016Y2399D01*
X2020Y2401D01*
X2030Y2405D01*
X2039Y2411D01*
X2048Y2417D01*
X2057Y2425D01*
X2066Y2433D01*
Y2412D01*
D02*
G37*
G36*
X6094Y2231D02*
X6085Y2239D01*
X6076Y2247D01*
X6067Y2253D01*
X6058Y2259D01*
X6048Y2263D01*
X6038Y2267D01*
X6028Y2270D01*
X6018Y2272D01*
X6007Y2273D01*
X5996Y2274D01*
Y2354D01*
X6007Y2354D01*
X6018Y2356D01*
X6028Y2358D01*
X6038Y2361D01*
X6048Y2365D01*
X6058Y2369D01*
X6067Y2375D01*
X6076Y2381D01*
X6085Y2388D01*
X6094Y2397D01*
Y2231D01*
D02*
G37*
G36*
X1295Y1929D02*
X1278Y1911D01*
X1251Y1880D01*
X1242Y1866D01*
X1235Y1854D01*
X1231Y1844D01*
X1229Y1835D01*
X1230Y1827D01*
X1233Y1821D01*
X1239Y1816D01*
X1096Y1899D01*
X1103Y1896D01*
X1112Y1894D01*
X1121Y1895D01*
X1131Y1898D01*
X1142Y1903D01*
X1154Y1909D01*
X1166Y1918D01*
X1180Y1928D01*
X1194Y1941D01*
X1209Y1955D01*
X1295Y1929D01*
D02*
G37*
G36*
X3149Y1863D02*
X3140Y1863D01*
X3131Y1862D01*
X3122Y1860D01*
X3113Y1858D01*
X3105Y1855D01*
X3097Y1851D01*
X3089Y1847D01*
X3082Y1842D01*
X3075Y1836D01*
X3068Y1830D01*
X3018Y1880D01*
X3025Y1886D01*
X3031Y1894D01*
X3036Y1901D01*
X3040Y1909D01*
X3044Y1917D01*
X3047Y1925D01*
X3049Y1933D01*
X3050Y1942D01*
X3051Y1951D01*
X3052Y1961D01*
X3149Y1863D01*
D02*
G37*
G36*
X2845Y1863D02*
X2847Y1857D01*
X2851Y1852D01*
X2856Y1847D01*
X2863Y1844D01*
X2871Y1840D01*
X2881Y1838D01*
X2893Y1836D01*
X2905Y1835D01*
X2920Y1835D01*
Y1765D01*
X2905Y1765D01*
X2893Y1764D01*
X2881Y1762D01*
X2871Y1760D01*
X2863Y1756D01*
X2856Y1753D01*
X2851Y1748D01*
X2847Y1743D01*
X2845Y1737D01*
X2844Y1731D01*
Y1869D01*
X2845Y1863D01*
D02*
G37*
G36*
X2265Y1715D02*
X2259Y1722D01*
X2253Y1727D01*
X2245Y1733D01*
X2235Y1737D01*
X2224Y1741D01*
X2212Y1744D01*
X2199Y1747D01*
X2184Y1749D01*
X2168Y1750D01*
X2150Y1750D01*
Y1850D01*
X2168Y1850D01*
X2199Y1853D01*
X2212Y1856D01*
X2224Y1859D01*
X2235Y1863D01*
X2245Y1867D01*
X2253Y1873D01*
X2259Y1878D01*
X2265Y1885D01*
Y1715D01*
D02*
G37*
G36*
X1720Y1890D02*
X1723Y1881D01*
X1728Y1874D01*
X1735Y1868D01*
X1744Y1862D01*
X1755Y1858D01*
X1768Y1854D01*
X1783Y1852D01*
X1800Y1850D01*
X1819Y1850D01*
Y1750D01*
X1800Y1750D01*
X1783Y1748D01*
X1768Y1746D01*
X1755Y1742D01*
X1744Y1738D01*
X1735Y1732D01*
X1728Y1726D01*
X1723Y1719D01*
X1720Y1710D01*
X1719Y1701D01*
Y1899D01*
X1720Y1890D01*
D02*
G37*
G36*
X6468Y3732D02*
X6456Y3732D01*
X6445Y3731D01*
X6434Y3729D01*
X6423Y3726D01*
X6413Y3722D01*
X6403Y3718D01*
X6394Y3713D01*
X6385Y3707D01*
X6377Y3701D01*
X6369Y3693D01*
X6312Y3750D01*
X6320Y3758D01*
X6326Y3766D01*
X6332Y3775D01*
X6337Y3784D01*
X6341Y3794D01*
X6345Y3804D01*
X6348Y3815D01*
X6350Y3826D01*
X6351Y3837D01*
X6351Y3849D01*
X6468Y3732D01*
D02*
G37*
G36*
X3218Y3272D02*
X3221Y3266D01*
X3225Y3260D01*
X3230Y3254D01*
X3238Y3250D01*
X3247Y3246D01*
X3257Y3244D01*
X3269Y3242D01*
X3283Y3240D01*
X3299Y3240D01*
Y3160D01*
X3283Y3160D01*
X3269Y3158D01*
X3257Y3156D01*
X3247Y3154D01*
X3238Y3150D01*
X3230Y3146D01*
X3225Y3140D01*
X3221Y3134D01*
X3218Y3128D01*
X3217Y3120D01*
Y3280D01*
X3218Y3272D01*
D02*
G37*
D10*
X9708Y2050D02*
Y2063D01*
X9745Y2100D01*
X9895Y3452D02*
X9900Y3457D01*
Y3550D01*
X9836Y3613D02*
X9900Y3550D01*
X10435Y1235D02*
Y1285D01*
X10550Y1400D01*
X7904Y8346D02*
X8646D01*
X8650Y8343D01*
X7900Y8350D02*
X7904Y8346D01*
X1590Y1800D02*
X2350D01*
X1099Y3200D02*
X2150D01*
X782Y3032D02*
X950Y3200D01*
X767Y3032D02*
X782D01*
X950Y3200D02*
X1099D01*
D13*
X10558Y758D02*
X11008Y1208D01*
X10022Y758D02*
X10558D01*
X9580Y1200D02*
X10022Y758D01*
X11008Y1208D02*
Y2058D01*
X11650Y2700D01*
X10052Y2398D02*
X10250D01*
X9900Y2550D02*
X10052Y2398D01*
X9300Y2550D02*
X9900D01*
X10150Y2650D02*
X10650D01*
X10000Y2800D02*
X10150Y2650D01*
X9300Y2800D02*
X10000D01*
X9100Y1800D02*
Y2350D01*
X9300Y2550D01*
X8850Y1250D02*
Y2350D01*
X9300Y2800D01*
X9189Y1350D02*
X9200Y1361D01*
Y1700D01*
X9100Y1800D02*
X9200Y1700D01*
X10650Y2650D02*
X11150Y3150D01*
X9800Y3000D02*
X10650Y3850D01*
X8758Y3000D02*
X9800D01*
X8558Y2800D02*
X8758Y3000D01*
X8550Y2800D02*
X8558D01*
X11650Y2700D02*
X11929D01*
X8250Y4350D02*
X11450D01*
X7800Y4800D02*
X8250Y4350D01*
X8550Y1176D02*
Y2800D01*
X10045Y1595D02*
Y1649D01*
X10036Y1658D02*
X10045Y1649D01*
X7869Y1176D02*
X7881D01*
X7811Y1234D02*
X7869Y1176D01*
X7811Y1234D02*
Y1350D01*
X7881Y990D02*
Y1176D01*
Y990D02*
X7900Y971D01*
X8100Y1174D02*
Y3635D01*
X8200Y512D02*
Y1074D01*
X8100Y1174D02*
X8200Y1074D01*
X4280Y5150D02*
Y5470D01*
X3930Y4800D02*
X4280Y5150D01*
X4250Y5500D02*
X4280Y5470D01*
X11929Y2700D02*
X12244Y3015D01*
X11150Y3479D02*
X11465Y3794D01*
X11150Y3150D02*
Y3479D01*
X7450Y1000D02*
Y3700D01*
X7648Y564D02*
X7700Y512D01*
X7006Y4144D02*
X7450Y3700D01*
X7648Y564D02*
Y802D01*
X7450Y1000D02*
X7648Y802D01*
X7410Y4325D02*
X8100Y3635D01*
X8300Y1200D02*
X8700Y800D01*
X7350Y4800D02*
X8300Y3850D01*
Y1200D02*
Y3850D01*
X8550Y1176D02*
X8741Y985D01*
X5200Y512D02*
Y950D01*
X4708Y1442D02*
X5200Y950D01*
X3850Y1442D02*
X4708D01*
X2580Y960D02*
X3840D01*
X4200Y512D02*
Y600D01*
X3840Y960D02*
X4200Y600D01*
X1695Y905D02*
X1950Y650D01*
X3016D02*
X3154Y512D01*
X1950Y650D02*
X3016D01*
X3154Y512D02*
X3700D01*
X2340Y1200D02*
X2580Y960D01*
X4200Y512D02*
X4700D01*
X1695Y905D02*
Y1200D01*
X8741Y985D02*
X8985D01*
X8700Y512D02*
Y800D01*
X2576Y2200D02*
X4285D01*
X2426Y2350D02*
X2576Y2200D01*
X4285D02*
X4399Y2314D01*
X6178D01*
X8985Y985D02*
X9189Y1189D01*
Y1350D01*
X2150Y2350D02*
X2426D01*
X4299Y6099D02*
X5100D01*
X4000Y5800D02*
X4299Y6099D01*
X3150Y4800D02*
X3930D01*
X8350Y4700D02*
X12500D01*
X8150Y4900D02*
X8350Y4700D01*
X12500D02*
X12850Y4350D01*
X9580Y1200D02*
X9600D01*
X5819Y3200D02*
X6469Y3850D01*
X2900Y3200D02*
X5819D01*
X900Y4700D02*
Y4700D01*
Y4700D02*
X1400Y4200D01*
X2200D01*
X1660Y2350D02*
X2150D01*
X1110Y1800D02*
X1660Y2350D01*
X4101Y7201D02*
X5100D01*
X4100Y7200D02*
X4101Y7201D01*
X3926Y6926D02*
X5100D01*
X3000Y6000D02*
X3926Y6926D01*
X3808Y6093D02*
Y6108D01*
X4074Y6374D01*
X2650Y5300D02*
X3150Y4800D01*
X3350Y5300D02*
Y6095D01*
X3905Y6650D01*
X5100D01*
X4074Y6374D02*
X5100D01*
X3000Y5650D02*
Y6000D01*
D14*
X9836Y3613D02*
D03*
X12063Y1386D02*
D03*
X11465Y3794D02*
D03*
X11855Y3405D02*
D03*
X12244Y3015D02*
D03*
X10045Y1595D02*
D03*
X9655Y1985D02*
D03*
D15*
X10435Y1205D02*
D03*
D16*
X1600Y1200D02*
D03*
X1120D02*
D03*
X2310D02*
D03*
X2790D02*
D03*
X1590Y1800D02*
D03*
X1110D02*
D03*
D17*
X9189Y1350D02*
D03*
X7811Y1350D02*
D03*
D18*
X2350Y1800D02*
D03*
X2750D02*
D03*
D19*
X1099Y2570D02*
D03*
Y3200D02*
D03*
Y3830D02*
D03*
X2900D02*
D03*
Y3200D02*
D03*
Y2570D02*
D03*
D20*
X5100Y5548D02*
D03*
Y8579D02*
D03*
Y8855D02*
D03*
Y8304D02*
D03*
Y7477D02*
D03*
Y7201D02*
D03*
Y7752D02*
D03*
Y8028D02*
D03*
Y6926D02*
D03*
Y6650D02*
D03*
Y6374D02*
D03*
Y6099D02*
D03*
Y5823D02*
D03*
D33*
X8250Y9446D02*
G03*
X8000Y10050I-854J0D01*
G01*
X4700Y10512D02*
G03*
X4920Y9980I753J0D01*
G01*
X5700Y10114D02*
G03*
X5993Y9407I1000J0D01*
G01*
X6723Y8677D02*
G03*
X7150Y8500I427J427D01*
G01*
X7407Y8257D02*
G03*
X7700Y8964I-707J707D01*
G01*
X6700Y10482D02*
G03*
X6993Y9775I1000J0D01*
G01*
X8700Y10512D02*
G03*
X8650Y10391I121J-121D01*
G01*
X8250Y8950D02*
Y9446D01*
X5110Y8569D02*
X5719D01*
X5850Y8438D01*
X5100Y8579D02*
X5110Y8569D01*
X5780Y8028D02*
X5850Y8097D01*
Y8438D01*
X4022Y8028D02*
X5780D01*
X4700Y10512D02*
X5200D01*
X4920Y9980D02*
X7100Y7800D01*
X5700Y10114D02*
Y10512D01*
X5993Y9407D02*
X6723Y8677D01*
X7700Y8964D02*
Y10512D01*
X6993Y9775D02*
X7400Y9368D01*
X6700Y10482D02*
Y10512D01*
X3450Y7525D02*
Y8150D01*
X3700Y8400D02*
X4350D01*
X3450Y8150D02*
X3700Y8400D01*
X4350D02*
X4446Y8304D01*
X5100D01*
X8650Y9050D02*
Y10391D01*
X7700Y10512D02*
X8200D01*
X7200D02*
X7200Y10421D01*
Y10394D02*
Y10421D01*
X7207Y10413D01*
X5700Y10512D02*
X6200D01*
X7300Y8150D02*
X7407Y8257D01*
X4000Y8050D02*
X4022Y8028D01*
D34*
X2000Y4814D02*
G03*
X2293Y4107I1000J0D01*
G01*
X2150Y7000D02*
G03*
X2000Y6638I362J-362D01*
G01*
X2350Y4050D02*
G03*
X2150Y3567I483J-483D01*
G01*
X2293Y4107D02*
X2350Y4050D01*
X2000Y4814D02*
Y6638D01*
X2350Y4050D02*
X2570Y3830D01*
X2150Y3200D02*
Y3567D01*
X4643Y3830D02*
X5913Y5100D01*
X2900Y3830D02*
X4643D01*
X2150Y2350D02*
Y3200D01*
X2570Y3830D02*
X2900D01*
D35*
X2150Y7000D02*
D03*
D36*
X1050Y9300D02*
X1200Y9450D01*
Y9916D01*
X2838Y10150D02*
X3200Y10512D01*
X1200Y9916D02*
X1434Y10150D01*
X2838D01*
X3700Y10512D02*
X4200D01*
X3200D02*
X3700D01*
D37*
X2988Y1800D02*
X3150Y1962D01*
X2750Y1800D02*
X2988D01*
D38*
X9448Y7300D02*
X9500Y7248D01*
Y6500D02*
Y7248D01*
D39*
X9975Y7275D02*
D03*
D40*
X11479Y1971D02*
D03*
D41*
X10421Y3029D02*
D03*
D42*
X7700Y512D02*
D03*
X8200D02*
D03*
X4700D02*
D03*
X4200D02*
D03*
X3700D02*
D03*
X3200D02*
D03*
X6700D02*
D03*
X6200D02*
D03*
X5700D02*
D03*
X5200D02*
D03*
X8700D02*
D03*
X7200D02*
D03*
X4700Y10512D02*
D03*
X4200D02*
D03*
X3700D02*
D03*
X3200D02*
D03*
X6700D02*
D03*
X6200D02*
D03*
X5700D02*
D03*
X5200D02*
D03*
X8700D02*
D03*
X8200D02*
D03*
X7700D02*
D03*
X7200D02*
D03*
D43*
X10924Y9513D02*
D03*
Y5087D02*
D03*
D44*
X12499D02*
D03*
Y9513D02*
D03*
D45*
X10582Y2381D02*
D03*
X10250Y2398D02*
D03*
X11400Y2800D02*
D03*
X9895Y3452D02*
D03*
X11150Y4100D02*
D03*
X11450Y4350D02*
D03*
X950Y8750D02*
D03*
X4300Y2950D02*
D03*
X5450Y2650D02*
D03*
X3950Y2550D02*
D03*
X4400Y9950D02*
D03*
X5100Y9250D02*
D03*
X4800Y9550D02*
D03*
X4200Y8900D02*
D03*
X1050Y9300D02*
D03*
X8650Y8343D02*
D03*
X802Y10250D02*
D03*
X2800Y9550D02*
D03*
X3285Y1537D02*
D03*
X3850Y1442D02*
D03*
X3150Y1962D02*
D03*
X8500Y7700D02*
D03*
X1400Y6600D02*
D03*
X3900Y8900D02*
D03*
X3550D02*
D03*
X3100Y9100D02*
D03*
X3750Y7250D02*
D03*
X2600Y6150D02*
D03*
X10200Y5000D02*
D03*
X12100Y4050D02*
D03*
X11400Y3150D02*
D03*
X12900Y900D02*
D03*
X13100Y1800D02*
D03*
Y1350D02*
D03*
X9400Y700D02*
D03*
X9150Y400D02*
D03*
X7900Y8350D02*
D03*
X7350Y7250D02*
D03*
X1687Y6974D02*
D03*
X8150Y4900D02*
D03*
X9900Y5750D02*
D03*
X1200Y9450D02*
D03*
X1050Y2150D02*
D03*
X4745Y4355D02*
D03*
X3700Y2950D02*
D03*
Y3500D02*
D03*
X4400Y4350D02*
D03*
X4000D02*
D03*
X3650D02*
D03*
X2600Y5800D02*
D03*
X3900Y7550D02*
D03*
X4350D02*
D03*
X4800Y9250D02*
D03*
X3950Y9950D02*
D03*
X3500D02*
D03*
X400Y10200D02*
D03*
X300Y9850D02*
D03*
X750Y6950D02*
D03*
X250Y7100D02*
D03*
Y7550D02*
D03*
X950Y7650D02*
D03*
X1150Y8050D02*
D03*
X900D02*
D03*
X1200Y8300D02*
D03*
X900D02*
D03*
X1550Y8650D02*
D03*
X10450Y5550D02*
D03*
X9800Y5000D02*
D03*
X8900Y3850D02*
D03*
X9050Y4050D02*
D03*
X9100Y3650D02*
D03*
X8700Y3400D02*
D03*
X9000Y6100D02*
D03*
X10000Y5300D02*
D03*
X13100Y4800D02*
D03*
X11650Y5050D02*
D03*
X12800Y10000D02*
D03*
X12400Y10250D02*
D03*
X11750Y10350D02*
D03*
X12100Y10000D02*
D03*
X11700Y9600D02*
D03*
X11100Y10300D02*
D03*
X11450Y10000D02*
D03*
X9200Y10550D02*
D03*
X10350Y10300D02*
D03*
X10750Y10100D02*
D03*
X10400Y9150D02*
D03*
X10200Y9850D02*
D03*
X9800Y10200D02*
D03*
X6400Y7250D02*
D03*
X6600Y7500D02*
D03*
X6250D02*
D03*
X8050Y6300D02*
D03*
X8300Y7350D02*
D03*
X8850Y7400D02*
D03*
X8150Y6650D02*
D03*
X7950Y6900D02*
D03*
X7700Y6600D02*
D03*
X7600Y6100D02*
D03*
X7900Y5900D02*
D03*
X7750Y5550D02*
D03*
X7700Y5200D02*
D03*
X7300D02*
D03*
Y5500D02*
D03*
Y5850D02*
D03*
Y6250D02*
D03*
X9250Y5150D02*
D03*
X650Y7350D02*
D03*
X2300Y6050D02*
D03*
X12850Y2983D02*
D03*
Y3667D02*
D03*
Y4350D02*
D03*
X7800Y4800D02*
D03*
X700Y1800D02*
D03*
X9950Y6350D02*
D03*
Y8250D02*
D03*
D46*
X9745Y2100D02*
D03*
X10650Y3850D02*
D03*
X10036Y1658D02*
D03*
X10550Y1400D02*
D03*
X8558Y2800D02*
D03*
X8000Y10050D02*
D03*
X4250Y5500D02*
D03*
X6300Y9500D02*
D03*
X6650D02*
D03*
X7400Y9368D02*
D03*
X8650Y9050D02*
D03*
X8250Y8950D02*
D03*
X6178Y2314D02*
D03*
X8850Y1250D02*
D03*
X7300Y8150D02*
D03*
X7100Y7800D02*
D03*
X7150Y8500D02*
D03*
X9600Y1200D02*
D03*
X6469Y3850D02*
D03*
X9500Y6500D02*
D03*
X2150Y2350D02*
D03*
X767Y3032D02*
D03*
X7410Y4325D02*
D03*
X7350Y4800D02*
D03*
X9448Y7300D02*
D03*
X7006Y4144D02*
D03*
X4000Y5800D02*
D03*
X4100Y7200D02*
D03*
X4000Y8050D02*
D03*
X3450Y7525D02*
D03*
X5913Y5100D02*
D03*
X2350Y4050D02*
D03*
X3808Y6093D02*
D03*
X3350Y5300D02*
D03*
X2650D02*
D03*
X3000Y5650D02*
D03*
D47*
X7900Y971D02*
D03*
D48*
X900Y4700D02*
D03*
X2150Y7000D02*
D03*
M02*
