G04*
G04 #@! TF.GenerationSoftware,Altium Limited,Altium Designer,21.2.0 (30)*
G04*
G04 Layer_Physical_Order=2*
G04 Layer_Color=16711680*
%FSLAX24Y24*%
%MOIN*%
G70*
G04*
G04 #@! TF.SameCoordinates,7FD8D1C1-8453-446E-9C5A-4270D5F62F01*
G04*
G04*
G04 #@! TF.FilePolarity,Positive*
G04*
G01*
G75*
%ADD10C,0.0100*%
%ADD13C,0.0080*%
%ADD16R,0.0260X0.0200*%
%ADD33C,0.0118*%
%ADD34C,0.0200*%
%ADD35C,0.0200*%
%ADD36C,0.0400*%
%ADD37C,0.0070*%
%ADD38C,0.0060*%
%ADD40C,0.0394*%
%ADD41C,0.0433*%
%ADD42O,0.0354X0.0591*%
%ADD43O,0.0787X0.0472*%
%ADD44O,0.0945X0.0472*%
%ADD45C,0.0197*%
%ADD46C,0.0236*%
%ADD47C,0.0177*%
%ADD48C,0.0300*%
%ADD49C,0.0118*%
%ADD50R,0.0200X0.0260*%
%ADD51O,0.0157X0.0591*%
%ADD52R,0.0250X0.0200*%
G04:AMPARAMS|DCode=53|XSize=39.4mil|YSize=60mil|CornerRadius=9.8mil|HoleSize=0mil|Usage=FLASHONLY|Rotation=90.000|XOffset=0mil|YOffset=0mil|HoleType=Round|Shape=RoundedRectangle|*
%AMROUNDEDRECTD53*
21,1,0.0394,0.0403,0,0,90.0*
21,1,0.0197,0.0600,0,0,90.0*
1,1,0.0197,0.0202,0.0098*
1,1,0.0197,0.0202,-0.0098*
1,1,0.0197,-0.0202,-0.0098*
1,1,0.0197,-0.0202,0.0098*
%
%ADD53ROUNDEDRECTD53*%
G04:AMPARAMS|DCode=54|XSize=47.2mil|YSize=59.1mil|CornerRadius=11.8mil|HoleSize=0mil|Usage=FLASHONLY|Rotation=0.000|XOffset=0mil|YOffset=0mil|HoleType=Round|Shape=RoundedRectangle|*
%AMROUNDEDRECTD54*
21,1,0.0472,0.0354,0,0,0.0*
21,1,0.0236,0.0591,0,0,0.0*
1,1,0.0236,0.0118,-0.0177*
1,1,0.0236,-0.0118,-0.0177*
1,1,0.0236,-0.0118,0.0177*
1,1,0.0236,0.0118,0.0177*
%
%ADD54ROUNDEDRECTD54*%
%ADD55R,0.0200X0.0250*%
%ADD56R,0.0650X0.0500*%
%ADD57O,0.0820X0.0143*%
%ADD58R,0.0709X0.0157*%
%ADD59R,0.0600X0.0600*%
%ADD60R,0.0374X0.0354*%
%ADD61R,0.0374X0.0354*%
%ADD62R,0.0618X0.0600*%
%ADD63R,0.0217X0.0394*%
%ADD64R,0.0500X0.0118*%
%ADD65R,0.2165X0.2165*%
%ADD66O,0.0110X0.0354*%
%ADD67O,0.0354X0.0110*%
%ADD68R,0.0900X0.0200*%
%ADD69R,0.0950X0.0200*%
G36*
X9279Y10858D02*
X9308Y10820D01*
X9316Y10773D01*
X9319Y10749D01*
X9357Y10658D01*
X9417Y10579D01*
X9496Y10519D01*
X9587Y10481D01*
X9686Y10468D01*
X9699Y10469D01*
X9718Y10466D01*
X12382D01*
X12382Y10466D01*
Y10466D01*
X12430Y10463D01*
X12551Y10451D01*
X12714Y10402D01*
X12864Y10321D01*
X12995Y10214D01*
X13103Y10082D01*
X13183Y9932D01*
X13233Y9769D01*
X13244Y9654D01*
X13241Y9649D01*
X13229Y9591D01*
Y9272D01*
X10950Y9272D01*
X10911Y9264D01*
X10891Y9251D01*
X10841Y9241D01*
X10792Y9208D01*
X10759Y9159D01*
X10747Y9100D01*
Y8452D01*
X10154D01*
Y9450D01*
X10138Y9528D01*
X10094Y9594D01*
X9819Y9869D01*
X9753Y9913D01*
X9675Y9929D01*
X8237D01*
X8208Y9979D01*
X8222Y10050D01*
X8217Y10080D01*
X8246Y10120D01*
X8272Y10124D01*
X8340Y10152D01*
X8398Y10196D01*
X8418Y10223D01*
X8482D01*
X8502Y10196D01*
X8560Y10152D01*
X8628Y10124D01*
X8700Y10114D01*
X8772Y10124D01*
X8840Y10152D01*
X8898Y10196D01*
X8942Y10254D01*
X8970Y10321D01*
X8980Y10394D01*
Y10630D01*
X8970Y10702D01*
X8942Y10770D01*
X8909Y10813D01*
X8929Y10863D01*
X9261D01*
X9265Y10864D01*
X9279Y10858D01*
D02*
G37*
G36*
X4111Y10714D02*
X4200Y10712D01*
Y10312D01*
X4139Y10311D01*
X4111Y10309D01*
Y10240D01*
X4090Y10254D01*
X4065Y10266D01*
X4035Y10277D01*
X4001Y10286D01*
X3962Y10294D01*
X3950Y10296D01*
X3938Y10294D01*
X3899Y10286D01*
X3865Y10277D01*
X3835Y10266D01*
X3810Y10254D01*
X3789Y10240D01*
Y10310D01*
X3700Y10312D01*
X3639Y10311D01*
X3611Y10309D01*
Y10240D01*
X3590Y10254D01*
X3565Y10266D01*
X3535Y10277D01*
X3501Y10286D01*
X3462Y10294D01*
X3450Y10296D01*
X3438Y10294D01*
X3399Y10286D01*
X3365Y10277D01*
X3335Y10266D01*
X3310Y10254D01*
X3289Y10240D01*
Y10310D01*
X3200Y10312D01*
Y10712D01*
X3261Y10713D01*
X3289Y10714D01*
Y10784D01*
X3310Y10770D01*
X3335Y10758D01*
X3365Y10747D01*
X3399Y10738D01*
X3438Y10730D01*
X3450Y10728D01*
X3462Y10730D01*
X3501Y10738D01*
X3535Y10747D01*
X3565Y10758D01*
X3590Y10770D01*
X3611Y10784D01*
Y10714D01*
X3700Y10712D01*
X3761Y10713D01*
X3789Y10714D01*
Y10784D01*
X3810Y10770D01*
X3835Y10758D01*
X3865Y10747D01*
X3899Y10738D01*
X3938Y10730D01*
X3950Y10728D01*
X3962Y10730D01*
X4001Y10738D01*
X4035Y10747D01*
X4065Y10758D01*
X4090Y10770D01*
X4111Y10784D01*
Y10714D01*
D02*
G37*
G36*
X8024Y10394D02*
X8023Y10405D01*
X8019Y10415D01*
X8013Y10424D01*
X8005Y10432D01*
X7994Y10438D01*
X7981Y10443D01*
X7965Y10447D01*
X7950Y10450D01*
X7935Y10447D01*
X7919Y10443D01*
X7906Y10438D01*
X7895Y10431D01*
X7887Y10424D01*
X7881Y10415D01*
X7877Y10405D01*
X7876Y10394D01*
X7876Y10630D01*
X7877Y10619D01*
X7881Y10609D01*
X7887Y10600D01*
X7895Y10592D01*
X7906Y10586D01*
X7919Y10580D01*
X7935Y10576D01*
X7950Y10574D01*
X7965Y10576D01*
X7981Y10580D01*
X7994Y10586D01*
X8005Y10592D01*
X8013Y10600D01*
X8019Y10609D01*
X8023Y10619D01*
X8024Y10630D01*
X8024Y10394D01*
D02*
G37*
G36*
X6024D02*
X6023Y10405D01*
X6019Y10415D01*
X6013Y10424D01*
X6005Y10432D01*
X5994Y10438D01*
X5981Y10443D01*
X5965Y10447D01*
X5950Y10450D01*
X5935Y10447D01*
X5919Y10443D01*
X5906Y10438D01*
X5895Y10431D01*
X5887Y10424D01*
X5881Y10415D01*
X5877Y10405D01*
X5876Y10394D01*
X5876Y10630D01*
X5877Y10619D01*
X5881Y10609D01*
X5887Y10600D01*
X5895Y10592D01*
X5906Y10586D01*
X5919Y10580D01*
X5935Y10576D01*
X5950Y10574D01*
X5965Y10576D01*
X5981Y10580D01*
X5994Y10586D01*
X6005Y10592D01*
X6013Y10600D01*
X6019Y10609D01*
X6023Y10619D01*
X6024Y10630D01*
X6024Y10394D01*
D02*
G37*
G36*
X5024D02*
X5023Y10405D01*
X5019Y10415D01*
X5013Y10424D01*
X5005Y10432D01*
X4994Y10438D01*
X4981Y10443D01*
X4965Y10447D01*
X4950Y10450D01*
X4935Y10447D01*
X4919Y10443D01*
X4906Y10438D01*
X4895Y10431D01*
X4887Y10424D01*
X4881Y10415D01*
X4877Y10405D01*
X4876Y10394D01*
X4876Y10630D01*
X4877Y10619D01*
X4881Y10609D01*
X4887Y10600D01*
X4895Y10592D01*
X4906Y10586D01*
X4919Y10580D01*
X4935Y10576D01*
X4950Y10574D01*
X4965Y10576D01*
X4981Y10580D01*
X4994Y10586D01*
X5005Y10592D01*
X5013Y10600D01*
X5019Y10609D01*
X5023Y10619D01*
X5024Y10630D01*
X5024Y10394D01*
D02*
G37*
G36*
X1292Y10416D02*
X1283Y10412D01*
X1220Y10364D01*
X1220Y10364D01*
X986Y10130D01*
X938Y10067D01*
X908Y9994D01*
X897Y9916D01*
Y9884D01*
X897Y9860D01*
X894Y9811D01*
X889Y9770D01*
X882Y9737D01*
X875Y9713D01*
X869Y9699D01*
X869Y9699D01*
X868Y9699D01*
X856Y9694D01*
X844Y9692D01*
X838Y9688D01*
X831Y9685D01*
X821Y9677D01*
X811Y9670D01*
X807Y9663D01*
X803Y9660D01*
X681D01*
Y9356D01*
X676Y9350D01*
X669Y9345D01*
X663Y9335D01*
X655Y9326D01*
X652Y9318D01*
X648Y9311D01*
X646Y9299D01*
X642Y9288D01*
X643Y9280D01*
X641Y9272D01*
X644Y9260D01*
X645Y9248D01*
X649Y9241D01*
X650Y9233D01*
X656Y9225D01*
X652Y9216D01*
X641Y9195D01*
X623Y9170D01*
X598Y9140D01*
X567Y9106D01*
X532Y9070D01*
X468Y9077D01*
X458Y9092D01*
Y9155D01*
X382D01*
X376Y9158D01*
X298Y9174D01*
X220Y9158D01*
X215Y9155D01*
X153D01*
Y9901D01*
X153Y9917D01*
X154Y9965D01*
X154Y9965D01*
X149Y10015D01*
X164Y10129D01*
X210Y10240D01*
X283Y10335D01*
X379Y10409D01*
X490Y10455D01*
X565Y10464D01*
X565Y10464D01*
Y10464D01*
X566Y10466D01*
X1282D01*
X1292Y10416D01*
D02*
G37*
G36*
X7368Y10376D02*
X7365Y10365D01*
X7364Y10354D01*
X7366Y10341D01*
X7371Y10326D01*
X7380Y10311D01*
X7391Y10294D01*
X7405Y10275D01*
X7422Y10256D01*
X7443Y10235D01*
X7359Y10151D01*
X7338Y10171D01*
X7300Y10203D01*
X7283Y10214D01*
X7267Y10222D01*
X7253Y10228D01*
X7240Y10230D01*
X7228Y10229D01*
X7218Y10225D01*
X7209Y10219D01*
X7375Y10385D01*
X7368Y10376D01*
D02*
G37*
G36*
X6502Y10196D02*
X6560Y10152D01*
X6628Y10124D01*
X6700Y10114D01*
X6772Y10124D01*
X6840Y10152D01*
X6898Y10196D01*
X6918Y10223D01*
X6982D01*
X7002Y10196D01*
X7060Y10152D01*
X7128Y10124D01*
X7200Y10114D01*
X7241Y10120D01*
X7265Y10100D01*
X7385Y9979D01*
X7365Y9929D01*
X7059D01*
X6994Y9994D01*
X6928Y10038D01*
X6850Y10054D01*
X6050D01*
X5972Y10038D01*
X5906Y9994D01*
X5656Y9744D01*
X5612Y9678D01*
X5596Y9600D01*
Y9024D01*
X5553Y8981D01*
X5539Y8978D01*
X5473Y8934D01*
X5343Y8804D01*
X3365D01*
X3287Y8788D01*
X3259Y8770D01*
X3144Y8884D01*
X2720Y9308D01*
X2658Y9356D01*
X2594Y9382D01*
Y9482D01*
X2614Y9512D01*
X2630Y9591D01*
X2614Y9669D01*
X2594Y9699D01*
Y9847D01*
X2644Y9847D01*
X2838D01*
X2917Y9858D01*
X2952Y9872D01*
X2969Y9879D01*
X3006Y9841D01*
X3006Y9802D01*
Y9699D01*
X2986Y9669D01*
X2970Y9591D01*
X2986Y9512D01*
X3006Y9482D01*
Y9334D01*
X3142D01*
X3195Y9281D01*
X3261Y9237D01*
X3340Y9221D01*
X3340Y9221D01*
X3521D01*
X3535Y9220D01*
X3557Y9216D01*
X3572Y9212D01*
X3576Y9210D01*
X3579Y9200D01*
X3582Y9186D01*
X3585Y9181D01*
X3587Y9176D01*
X3596Y9165D01*
X3604Y9153D01*
X3609Y9150D01*
X3612Y9146D01*
X3615Y9144D01*
Y9115D01*
X4385D01*
Y9735D01*
X3615D01*
Y9706D01*
X3612Y9704D01*
X3609Y9700D01*
X3604Y9697D01*
X3596Y9685D01*
X3587Y9674D01*
X3585Y9669D01*
X3582Y9664D01*
X3579Y9650D01*
X3576Y9640D01*
X3572Y9638D01*
X3557Y9634D01*
X3535Y9630D01*
X3521Y9629D01*
X3424D01*
X3342Y9711D01*
Y9847D01*
X3053D01*
X3053Y9847D01*
X3053Y9847D01*
X3017Y9847D01*
X2997Y9894D01*
X3052Y9936D01*
X3235Y10119D01*
X3272Y10124D01*
X3324Y10145D01*
X3328Y10146D01*
X3331Y10148D01*
X3340Y10152D01*
X3343Y10154D01*
X3344Y10155D01*
X3360Y10165D01*
X3375Y10172D01*
X3396Y10179D01*
X3423Y10187D01*
X3450Y10192D01*
X3477Y10187D01*
X3504Y10179D01*
X3525Y10172D01*
X3540Y10165D01*
X3556Y10155D01*
X3557Y10154D01*
X3560Y10152D01*
X3569Y10148D01*
X3572Y10146D01*
X3576Y10145D01*
X3628Y10124D01*
X3700Y10114D01*
X3772Y10124D01*
X3824Y10145D01*
X3828Y10146D01*
X3831Y10148D01*
X3840Y10152D01*
X3843Y10154D01*
X3844Y10155D01*
X3860Y10165D01*
X3875Y10172D01*
X3896Y10179D01*
X3923Y10187D01*
X3950Y10192D01*
X3977Y10187D01*
X4004Y10179D01*
X4025Y10172D01*
X4040Y10165D01*
X4056Y10155D01*
X4057Y10154D01*
X4060Y10152D01*
X4069Y10148D01*
X4072Y10146D01*
X4076Y10145D01*
X4128Y10124D01*
X4200Y10114D01*
X4272Y10124D01*
X4340Y10152D01*
X4398Y10196D01*
X4418Y10223D01*
X4482D01*
X4502Y10196D01*
X4560Y10152D01*
X4628Y10124D01*
X4700Y10114D01*
X4772Y10124D01*
X4840Y10152D01*
X4898Y10196D01*
X4918Y10223D01*
X4982D01*
X5002Y10196D01*
X5060Y10152D01*
X5128Y10124D01*
X5200Y10114D01*
X5272Y10124D01*
X5340Y10152D01*
X5398Y10196D01*
X5418Y10223D01*
X5482D01*
X5502Y10196D01*
X5560Y10152D01*
X5628Y10124D01*
X5700Y10114D01*
X5772Y10124D01*
X5840Y10152D01*
X5898Y10196D01*
X5918Y10223D01*
X5982D01*
X6002Y10196D01*
X6060Y10152D01*
X6128Y10124D01*
X6200Y10114D01*
X6272Y10124D01*
X6340Y10152D01*
X6398Y10196D01*
X6418Y10223D01*
X6482D01*
X6502Y10196D01*
D02*
G37*
G36*
X7916Y9967D02*
X7911Y9972D01*
X7905Y9976D01*
X7898Y9979D01*
X7890Y9982D01*
X7882Y9985D01*
X7873Y9987D01*
X7862Y9989D01*
X7851Y9990D01*
X7827Y9991D01*
Y10109D01*
X7840Y10109D01*
X7862Y10111D01*
X7873Y10113D01*
X7882Y10115D01*
X7890Y10118D01*
X7898Y10121D01*
X7905Y10124D01*
X7911Y10128D01*
X7916Y10133D01*
Y9967D01*
D02*
G37*
G36*
X2319Y9395D02*
X2317Y9411D01*
X2311Y9426D01*
X2301Y9438D01*
X2287Y9449D01*
X2269Y9459D01*
X2247Y9466D01*
X2221Y9472D01*
X2191Y9477D01*
X2157Y9479D01*
X2126Y9480D01*
X2111Y9480D01*
X1999Y9473D01*
X1981Y9470D01*
X1967Y9466D01*
X1957Y9462D01*
X1951Y9457D01*
X1949Y9451D01*
Y9709D01*
X1951Y9703D01*
X1957Y9698D01*
X1967Y9694D01*
X1981Y9690D01*
X1999Y9687D01*
X2021Y9685D01*
X2077Y9681D01*
X2130Y9680D01*
X2157Y9681D01*
X2191Y9684D01*
X2221Y9689D01*
X2248Y9696D01*
X2270Y9705D01*
X2288Y9716D01*
X2302Y9729D01*
X2312Y9744D01*
X2318Y9761D01*
X2320Y9780D01*
X2319Y9395D01*
D02*
G37*
G36*
X1358Y9599D02*
X883Y9598D01*
X905Y9601D01*
X925Y9610D01*
X943Y9626D01*
X958Y9649D01*
X971Y9677D01*
X981Y9712D01*
X989Y9754D01*
X995Y9801D01*
X999Y9855D01*
X1000Y9916D01*
X1400D01*
X1358Y9599D01*
D02*
G37*
G36*
X3292Y9602D02*
X3301Y9596D01*
X3312Y9587D01*
X3344Y9560D01*
X3410Y9496D01*
X3269Y9354D01*
X3262Y9362D01*
X3256Y9369D01*
X3253Y9375D01*
X3251Y9380D01*
X3252Y9385D01*
X3254Y9388D01*
X3258Y9391D01*
X3264Y9393D01*
X3271Y9394D01*
X3281Y9395D01*
X3280Y9600D01*
X3281Y9604D01*
X3285Y9604D01*
X3292Y9602D01*
D02*
G37*
G36*
X8909Y9301D02*
X8905Y9303D01*
X8900Y9304D01*
X8893Y9305D01*
X8871Y9307D01*
X8802Y9309D01*
X8780Y9309D01*
Y9427D01*
X8802Y9427D01*
X8905Y9433D01*
X8909Y9434D01*
Y9301D01*
D02*
G37*
G36*
X7489Y9446D02*
X7495Y9442D01*
X7502Y9438D01*
X7510Y9435D01*
X7518Y9433D01*
X7527Y9431D01*
X7538Y9429D01*
X7549Y9428D01*
X7573Y9427D01*
Y9309D01*
X7560Y9308D01*
X7538Y9307D01*
X7527Y9305D01*
X7518Y9303D01*
X7510Y9300D01*
X7502Y9297D01*
X7495Y9294D01*
X7489Y9290D01*
X7484Y9285D01*
Y9450D01*
X7489Y9446D01*
D02*
G37*
G36*
X6831Y9581D02*
X6897Y9537D01*
X6975Y9521D01*
X7187D01*
X7211Y9477D01*
X7195Y9453D01*
X7178Y9368D01*
X7191Y9303D01*
X7159Y9253D01*
X6997D01*
X6975Y9255D01*
X6967Y9256D01*
X6960Y9258D01*
X6955Y9260D01*
X6951Y9261D01*
X6949Y9262D01*
X6944Y9266D01*
X6937Y9268D01*
X6930Y9272D01*
X6918Y9275D01*
X6906Y9279D01*
X6899Y9279D01*
X6891Y9280D01*
X6879Y9278D01*
X6867Y9277D01*
X6860Y9274D01*
X6852Y9272D01*
X6842Y9265D01*
X6831Y9260D01*
X6826Y9255D01*
X6823Y9253D01*
X6585D01*
X6584Y9253D01*
X6526Y9265D01*
X6467Y9253D01*
X6456Y9246D01*
X6187D01*
X6136Y9236D01*
X6092Y9207D01*
X6063Y9163D01*
X6053Y9112D01*
X6063Y9060D01*
X6092Y9017D01*
X6097Y9014D01*
Y8954D01*
X6092Y8951D01*
X6063Y8907D01*
X6053Y8856D01*
X6063Y8805D01*
X6092Y8761D01*
X6097Y8758D01*
Y8698D01*
X6092Y8695D01*
X6063Y8651D01*
X6053Y8600D01*
X6063Y8549D01*
X6092Y8505D01*
X6097Y8502D01*
Y8442D01*
X6092Y8439D01*
X6063Y8395D01*
X6053Y8344D01*
X6063Y8293D01*
X6092Y8249D01*
X6097Y8246D01*
Y8186D01*
X6092Y8183D01*
X6063Y8140D01*
X6053Y8088D01*
X6063Y8037D01*
X6092Y7993D01*
X6097Y7990D01*
Y7930D01*
X6092Y7927D01*
X6063Y7884D01*
X6053Y7832D01*
X6063Y7781D01*
X6092Y7737D01*
X6136Y7708D01*
X6187Y7698D01*
X6440D01*
X6464Y7682D01*
X6526Y7670D01*
X6856D01*
X6857Y7670D01*
X6874Y7667D01*
X6891Y7664D01*
X6894Y7664D01*
X6896Y7664D01*
X6928Y7665D01*
X6943Y7643D01*
X7015Y7595D01*
X7063Y7585D01*
X7079Y7531D01*
X6832Y7284D01*
X6832Y7284D01*
X6821Y7286D01*
X6815Y7285D01*
X6810Y7285D01*
X6796Y7281D01*
X6782Y7278D01*
X6777Y7275D01*
X6772Y7273D01*
X6761Y7264D01*
X6753Y7259D01*
X6750Y7259D01*
X6683Y7250D01*
X6620Y7224D01*
X6567Y7183D01*
X6565Y7181D01*
X6556Y7179D01*
X6541Y7178D01*
X6536Y7175D01*
X6531Y7174D01*
X6519Y7166D01*
X6506Y7159D01*
X6503Y7155D01*
X6498Y7152D01*
X6492Y7143D01*
X6491Y7143D01*
X5950D01*
X5950Y7143D01*
X5895Y7132D01*
X5849Y7101D01*
X5578Y6830D01*
X5536Y6853D01*
X5534Y6856D01*
X5535Y6868D01*
X5539Y6883D01*
X5538Y6888D01*
X5539Y6894D01*
X5537Y6900D01*
X5646Y7009D01*
X5646Y7009D01*
X5677Y7055D01*
X5688Y7110D01*
X5688Y7110D01*
Y7526D01*
X5759Y7597D01*
X5773Y7610D01*
X5774Y7611D01*
X5775Y7611D01*
X5786Y7612D01*
X5798Y7611D01*
X5806Y7614D01*
X5815Y7615D01*
X5825Y7620D01*
X5835Y7624D01*
X5842Y7630D01*
X5850Y7634D01*
X5857Y7643D01*
X5865Y7650D01*
X5960D01*
Y7907D01*
X5960Y7908D01*
X5970Y7919D01*
X5971Y7924D01*
X5974Y7929D01*
X5977Y7943D01*
X5981Y7957D01*
X5981Y7962D01*
X5982Y7968D01*
X5979Y7982D01*
X5978Y7996D01*
X5975Y8001D01*
X5974Y8007D01*
X5966Y8019D01*
X5959Y8032D01*
X5955Y8035D01*
X5952Y8040D01*
X5943Y8046D01*
Y8254D01*
X5952Y8260D01*
X5955Y8265D01*
X5959Y8268D01*
X5966Y8281D01*
X5974Y8293D01*
X5975Y8299D01*
X5978Y8304D01*
X5979Y8318D01*
X5982Y8332D01*
X5981Y8338D01*
X5981Y8343D01*
X5977Y8357D01*
X5974Y8371D01*
X5971Y8376D01*
X5970Y8381D01*
X5960Y8392D01*
X5960Y8393D01*
Y8650D01*
X5895D01*
X5866Y8700D01*
X5878Y8722D01*
X5921Y8750D01*
X5960D01*
Y8789D01*
X5988Y8832D01*
X6004Y8910D01*
Y9516D01*
X6134Y9646D01*
X6766D01*
X6831Y9581D01*
D02*
G37*
G36*
X3676Y9225D02*
X3674Y9244D01*
X3668Y9261D01*
X3658Y9276D01*
X3644Y9289D01*
X3626Y9300D01*
X3604Y9309D01*
X3578Y9316D01*
X3548Y9321D01*
X3514Y9324D01*
X3476Y9325D01*
Y9525D01*
X3514Y9526D01*
X3548Y9529D01*
X3578Y9534D01*
X3604Y9541D01*
X3626Y9550D01*
X3644Y9561D01*
X3658Y9574D01*
X3668Y9589D01*
X3674Y9606D01*
X3676Y9625D01*
Y9225D01*
D02*
G37*
G36*
X1050Y9100D02*
X1036Y9097D01*
X1018Y9089D01*
X995Y9075D01*
X973Y9059D01*
X1034Y9002D01*
X1018Y9013D01*
X1000Y9018D01*
X978Y9018D01*
X954Y9012D01*
X927Y9001D01*
X897Y8984D01*
X865Y8961D01*
X830Y8933D01*
X758Y8866D01*
X715Y8824D01*
X574Y8965D01*
X613Y9005D01*
X629Y9022D01*
X675Y9074D01*
X704Y9108D01*
X727Y9141D01*
X744Y9170D01*
X755Y9197D01*
X761Y9221D01*
X761Y9242D01*
X755Y9260D01*
X743Y9275D01*
X803Y9219D01*
X825Y9245D01*
X839Y9268D01*
X847Y9286D01*
X850Y9300D01*
X1050Y9100D01*
D02*
G37*
G36*
X8909Y9045D02*
X8907Y9046D01*
X8903Y9046D01*
X8887Y9047D01*
X8826Y9048D01*
X8815Y9047D01*
X8804Y9045D01*
X8795Y9043D01*
X8787Y9041D01*
X8780Y9037D01*
X8774Y9033D01*
X8769Y9029D01*
X8766Y9024D01*
X8764Y9018D01*
X8688Y9162D01*
X8773Y9164D01*
X8772Y9166D01*
X8795Y9166D01*
X8889Y9172D01*
X8897Y9174D01*
X8904Y9176D01*
X8909Y9178D01*
Y9045D01*
D02*
G37*
G36*
X6900Y9173D02*
X6910Y9168D01*
X6921Y9164D01*
X6933Y9160D01*
X6946Y9157D01*
X6959Y9154D01*
X6989Y9151D01*
X7006Y9150D01*
X7023Y9150D01*
X6998Y9050D01*
X6891Y9045D01*
Y9178D01*
X6900Y9173D01*
D02*
G37*
G36*
X9334Y9041D02*
X9393D01*
X9381Y9040D01*
X9371Y9036D01*
X9362Y9030D01*
X9355Y9022D01*
X9348Y9011D01*
X9343Y8998D01*
X9339Y8984D01*
X9343Y8970D01*
X9348Y8956D01*
X9355Y8946D01*
X9362Y8937D01*
X9371Y8931D01*
X9381Y8928D01*
X9393Y8927D01*
X9334D01*
X9333Y8922D01*
X9215D01*
X9215Y8927D01*
X9156D01*
X9168Y8928D01*
X9178Y8931D01*
X9186Y8937D01*
X9194Y8946D01*
X9201Y8956D01*
X9206Y8970D01*
X9210Y8984D01*
X9206Y8998D01*
X9201Y9011D01*
X9194Y9022D01*
X9186Y9030D01*
X9178Y9036D01*
X9168Y9040D01*
X9156Y9041D01*
X9215D01*
X9215Y9046D01*
X9333D01*
X9334Y9041D01*
D02*
G37*
G36*
X1362Y9456D02*
X1374Y9422D01*
X1394Y9392D01*
X1422Y9366D01*
X1458Y9344D01*
X1502Y9326D01*
X1554Y9312D01*
X1614Y9302D01*
X1682Y9296D01*
X1758Y9294D01*
Y8894D01*
X1682Y8895D01*
X1554Y8903D01*
X1502Y8911D01*
X1458Y8921D01*
X1422Y8932D01*
X1394Y8946D01*
X1374Y8962D01*
X1362Y8981D01*
X1358Y9001D01*
Y9494D01*
X1362Y9456D01*
D02*
G37*
G36*
X6897Y8919D02*
X6904Y8916D01*
X6913Y8914D01*
X6923Y8912D01*
X6934Y8910D01*
X6962Y8907D01*
X6996Y8906D01*
X7015Y8906D01*
Y8806D01*
X6996Y8806D01*
X6934Y8802D01*
X6923Y8800D01*
X6913Y8798D01*
X6904Y8795D01*
X6897Y8793D01*
X6891Y8790D01*
Y8922D01*
X6897Y8919D01*
D02*
G37*
G36*
X8369Y8942D02*
X8370Y8935D01*
X8372Y8928D01*
X8375Y8920D01*
X8379Y8912D01*
X8385Y8904D01*
X8391Y8896D01*
X8397Y8887D01*
X8414Y8869D01*
X8331Y8786D01*
X8322Y8795D01*
X8304Y8809D01*
X8296Y8815D01*
X8288Y8821D01*
X8280Y8825D01*
X8272Y8828D01*
X8265Y8830D01*
X8258Y8831D01*
X8251Y8832D01*
X8368Y8949D01*
X8369Y8942D01*
D02*
G37*
G36*
X6895Y8665D02*
X6900Y8664D01*
X6907Y8663D01*
X6929Y8661D01*
X6998Y8659D01*
X7020Y8659D01*
Y8541D01*
X6998Y8541D01*
X6895Y8535D01*
X6891Y8534D01*
Y8666D01*
X6895Y8665D01*
D02*
G37*
G36*
X542Y8650D02*
X502Y8609D01*
X439Y8535D01*
X416Y8502D01*
X399Y8472D01*
X387Y8446D01*
X382Y8422D01*
X382Y8401D01*
X388Y8383D01*
X399Y8368D01*
X203Y8554D01*
X197Y8556D01*
X197Y8562D01*
X201Y8573D01*
X211Y8588D01*
X226Y8607D01*
X270Y8658D01*
X375Y8766D01*
X542Y8650D01*
D02*
G37*
G36*
X7841Y8480D02*
X7856Y8467D01*
X7863Y8462D01*
X7869Y8458D01*
X7876Y8454D01*
X7882Y8452D01*
X7888Y8450D01*
X7894Y8449D01*
X7899Y8448D01*
X7802Y8351D01*
X7801Y8356D01*
X7800Y8362D01*
X7798Y8368D01*
X7796Y8374D01*
X7792Y8381D01*
X7788Y8387D01*
X7783Y8394D01*
X7777Y8401D01*
X7763Y8416D01*
X7834Y8487D01*
X7841Y8480D01*
D02*
G37*
G36*
X3435Y8529D02*
X3406Y8500D01*
X3286Y8365D01*
X3281Y8356D01*
X3280Y8349D01*
X3281Y8605D01*
X3281Y8615D01*
X3283Y8641D01*
X3284Y8648D01*
X3286Y8654D01*
X3287Y8659D01*
X3289Y8664D01*
X3291Y8668D01*
X3294Y8671D01*
X3435Y8529D01*
D02*
G37*
G36*
X10231Y8300D02*
X10237Y8300D01*
Y8200D01*
X10199Y8200D01*
X10049Y8190D01*
X10036Y8187D01*
X10027Y8183D01*
X10021Y8179D01*
X10019Y8175D01*
X10017Y8167D01*
X10015Y8156D01*
X10012Y8121D01*
X10009Y8007D01*
X10009Y7969D01*
X9891D01*
X9891Y8007D01*
X9881Y8175D01*
X9879Y8179D01*
X9881D01*
X9881Y8180D01*
X10019D01*
X10019Y8179D01*
X10021D01*
Y8181D01*
X10020Y8181D01*
Y8319D01*
X10021Y8319D01*
Y8321D01*
X10027Y8317D01*
X10036Y8313D01*
X10049Y8310D01*
X10065Y8307D01*
X10108Y8303D01*
X10161Y8302D01*
X10167Y8302D01*
X10182Y8304D01*
X10195Y8308D01*
X10206Y8313D01*
X10215Y8318D01*
X10222Y8324D01*
X10227Y8332D01*
X10230Y8340D01*
X10231Y8350D01*
Y8300D01*
D02*
G37*
G36*
X8724Y8408D02*
X8729Y8405D01*
X8734Y8402D01*
X8740Y8400D01*
X8747Y8398D01*
X8755Y8396D01*
X8764Y8395D01*
X8783Y8393D01*
X8790Y8393D01*
X8803Y8393D01*
X8865Y8398D01*
X8877Y8399D01*
X8887Y8402D01*
X8896Y8404D01*
X8903Y8407D01*
X8909Y8410D01*
Y8278D01*
X8903Y8281D01*
X8896Y8283D01*
X8888Y8286D01*
X8878Y8288D01*
X8853Y8291D01*
X8822Y8293D01*
X8790Y8293D01*
X8784Y8293D01*
X8765Y8292D01*
X8756Y8290D01*
X8748Y8289D01*
X8741Y8286D01*
X8735Y8284D01*
X8730Y8281D01*
X8725Y8278D01*
X8721Y8274D01*
X8720Y8412D01*
X8724Y8408D01*
D02*
G37*
G36*
X6680Y8273D02*
X6764D01*
X6749Y8273D01*
X6737Y8270D01*
X6729Y8266D01*
X6723Y8260D01*
X6721Y8253D01*
X6723Y8244D01*
X6727Y8233D01*
X6731Y8229D01*
X6741Y8220D01*
X6764Y8203D01*
X6776Y8195D01*
X6779Y8197D01*
X6800Y8201D01*
X6835Y8205D01*
X6943Y8209D01*
X7016Y8209D01*
X7053Y8091D01*
X7033Y8090D01*
X7015Y8089D01*
X6998Y8086D01*
X6982Y8082D01*
X6967Y8078D01*
X6954Y8072D01*
X6942Y8065D01*
X6932Y8057D01*
X6922Y8048D01*
X6915Y8037D01*
X6866Y8156D01*
X6585Y8158D01*
X6585Y8154D01*
X6467D01*
X6466Y8159D01*
X6407D01*
X6419Y8160D01*
X6429Y8164D01*
X6438Y8170D01*
X6445Y8178D01*
X6452Y8189D01*
X6457Y8202D01*
X6461Y8216D01*
X6457Y8231D01*
X6452Y8244D01*
X6445Y8254D01*
X6438Y8263D01*
X6429Y8269D01*
X6419Y8272D01*
X6407Y8273D01*
X6466D01*
X6467Y8278D01*
X6585D01*
X6585Y8273D01*
X6632D01*
X6668Y8285D01*
X6680Y8273D01*
D02*
G37*
G36*
X5872Y8332D02*
X5866Y8329D01*
X5860Y8325D01*
X5854Y8319D01*
X5850Y8312D01*
X5846Y8303D01*
X5844Y8293D01*
X5842Y8280D01*
X5840Y8267D01*
X5840Y8251D01*
X5760D01*
X5760Y8267D01*
X5758Y8280D01*
X5756Y8293D01*
X5754Y8303D01*
X5750Y8312D01*
X5746Y8319D01*
X5740Y8325D01*
X5734Y8329D01*
X5728Y8332D01*
X5720Y8332D01*
X5880D01*
X5872Y8332D01*
D02*
G37*
G36*
X988Y8913D02*
X998Y8907D01*
X1006Y8906D01*
X1013Y8903D01*
X1020Y8903D01*
X1042Y8880D01*
X1105Y8832D01*
X1178Y8801D01*
X1256Y8791D01*
X1256Y8791D01*
X2381D01*
X2460Y8712D01*
X2440Y8666D01*
X2258D01*
Y8518D01*
X2238Y8487D01*
X2222Y8409D01*
Y8241D01*
X2220Y8232D01*
X2217Y8214D01*
X2217Y8212D01*
X2217Y8210D01*
X2221Y8104D01*
X2177Y8054D01*
X2090D01*
X2057Y8056D01*
X2037Y8058D01*
X2029Y8060D01*
X2026Y8063D01*
X2021Y8071D01*
X2012Y8077D01*
X2004Y8084D01*
X1995Y8088D01*
X1988Y8093D01*
X1977Y8095D01*
X1967Y8099D01*
X1958Y8099D01*
X1949Y8101D01*
X1938Y8099D01*
X1927Y8098D01*
X1919Y8095D01*
X1910Y8093D01*
X1901Y8087D01*
X1891Y8083D01*
X1884Y8076D01*
X1877Y8071D01*
X1875Y8069D01*
X1850Y8074D01*
X1780Y8060D01*
X1690D01*
Y7991D01*
X1662Y7948D01*
X1646Y7870D01*
X1662Y7792D01*
X1690Y7749D01*
Y7682D01*
X1652Y7652D01*
X1647Y7655D01*
X1644Y7659D01*
X1631Y7666D01*
X1619Y7674D01*
X1614Y7675D01*
X1609Y7678D01*
X1594Y7679D01*
X1585Y7681D01*
X1583Y7683D01*
X1530Y7724D01*
X1467Y7750D01*
X1400Y7759D01*
X1333Y7750D01*
X1270Y7724D01*
X1217Y7683D01*
X1176Y7630D01*
X1150Y7567D01*
X1141Y7500D01*
X1150Y7433D01*
X1176Y7370D01*
X1217Y7317D01*
X1270Y7276D01*
X1333Y7250D01*
X1400Y7241D01*
X1467Y7250D01*
X1530Y7276D01*
X1583Y7317D01*
X1585Y7319D01*
X1594Y7321D01*
X1609Y7322D01*
X1614Y7325D01*
X1619Y7326D01*
X1631Y7334D01*
X1644Y7341D01*
X1647Y7345D01*
X1652Y7348D01*
X1658Y7357D01*
X1659Y7357D01*
X1841D01*
X1966Y7232D01*
X1970Y7180D01*
X1915Y7098D01*
X1895Y7000D01*
X1915Y6902D01*
X1970Y6820D01*
X2052Y6765D01*
X2150Y6745D01*
X2248Y6765D01*
X2293Y6795D01*
X2316Y6796D01*
X2366Y6794D01*
Y6363D01*
X2481D01*
X2485Y6356D01*
X2492Y6351D01*
X2498Y6344D01*
X2508Y6339D01*
X2517Y6333D01*
X2526Y6331D01*
X2534Y6327D01*
X2545Y6326D01*
X2556Y6323D01*
X2565Y6325D01*
X2574Y6324D01*
X2580Y6326D01*
X2586Y6323D01*
X2602Y6312D01*
X2671Y6254D01*
X2758Y6166D01*
X2825Y6122D01*
X2903Y6106D01*
X3100D01*
X3170Y6120D01*
X3260D01*
Y6189D01*
X3288Y6232D01*
X3304Y6310D01*
X3288Y6388D01*
X3260Y6431D01*
Y6500D01*
X3170D01*
X3100Y6514D01*
X2987D01*
X2963Y6538D01*
X2952Y6550D01*
X2975Y6600D01*
X3260D01*
Y6641D01*
X3266Y6647D01*
X3276Y6655D01*
X3280Y6662D01*
X3285Y6667D01*
X3289Y6679D01*
X3296Y6690D01*
X3297Y6697D01*
X3299Y6704D01*
X3299Y6717D01*
X3300Y6729D01*
X3299Y6736D01*
X3298Y6744D01*
X3297Y6747D01*
X3299Y6751D01*
X3307Y6762D01*
X3331Y6792D01*
X3565Y7025D01*
X3600Y7078D01*
X3612Y7140D01*
Y7373D01*
X3612Y7374D01*
X3613Y7376D01*
X3655Y7440D01*
X3672Y7525D01*
X3658Y7596D01*
X3687Y7646D01*
X3775D01*
X3853Y7662D01*
X3919Y7706D01*
X3978Y7765D01*
X4385D01*
Y7795D01*
X4387Y7796D01*
X4390Y7800D01*
X4395Y7803D01*
X4403Y7815D01*
X4412Y7826D01*
X4414Y7831D01*
X4417Y7836D01*
X4420Y7850D01*
X4423Y7860D01*
X4428Y7862D01*
X4443Y7866D01*
X4464Y7870D01*
X4479Y7871D01*
X4546D01*
X4561Y7870D01*
X4582Y7866D01*
X4597Y7862D01*
X4602Y7860D01*
X4605Y7850D01*
X4608Y7836D01*
X4611Y7831D01*
X4613Y7826D01*
X4622Y7815D01*
X4630Y7803D01*
X4635Y7800D01*
X4638Y7796D01*
X4640Y7795D01*
Y7740D01*
X5000D01*
X5000Y7739D01*
X5005Y7735D01*
X5008Y7731D01*
X5020Y7722D01*
X5031Y7713D01*
X5036Y7711D01*
X5040Y7708D01*
X5055Y7705D01*
X5065Y7702D01*
X5067Y7697D01*
X5071Y7682D01*
X5075Y7661D01*
X5076Y7646D01*
Y7555D01*
X5076Y7550D01*
X5073Y7509D01*
X5071Y7500D01*
X5062Y7486D01*
X5062Y7485D01*
X5061Y7484D01*
X5058Y7466D01*
X5054Y7447D01*
X5054Y7446D01*
X5054Y7445D01*
X5058Y7427D01*
X5062Y7408D01*
X5063Y7407D01*
X5063Y7406D01*
X5074Y7391D01*
X5076Y7387D01*
Y7348D01*
X5092Y7270D01*
X5095Y7265D01*
Y7188D01*
X5159D01*
X5202Y7160D01*
X5265Y7148D01*
X5289Y7110D01*
X5292Y7096D01*
X5289Y7091D01*
X5288Y7090D01*
X5274Y7087D01*
X5270Y7083D01*
X5264Y7081D01*
X5254Y7072D01*
X5245Y7065D01*
X5190Y7058D01*
X5128Y7032D01*
X5074Y6991D01*
X5033Y6937D01*
X5007Y6875D01*
X4998Y6808D01*
X5000Y6793D01*
X4995Y6783D01*
X4986Y6771D01*
X4984Y6766D01*
X4982Y6761D01*
X4980Y6747D01*
X4976Y6733D01*
X4977Y6727D01*
X4976Y6722D01*
X4978Y6715D01*
X4514Y6251D01*
X4483Y6205D01*
X4472Y6150D01*
X4472Y6150D01*
Y5650D01*
X4422Y5635D01*
X4407Y5657D01*
X4335Y5705D01*
X4254Y5722D01*
X4250Y5722D01*
X4216Y5767D01*
X4222Y5800D01*
X4205Y5885D01*
X4157Y5957D01*
X4085Y6005D01*
X4016Y6019D01*
X4031Y6093D01*
X4014Y6178D01*
X3965Y6250D01*
X3893Y6298D01*
X3808Y6315D01*
X3783Y6310D01*
X3758Y6356D01*
X4203Y6801D01*
X4203Y6801D01*
X4234Y6848D01*
X4245Y6902D01*
X4245Y6902D01*
Y7026D01*
X4245Y7027D01*
X4246Y7029D01*
X4247Y7031D01*
X4248Y7034D01*
X4249Y7036D01*
X4251Y7039D01*
X4257Y7043D01*
X4305Y7115D01*
X4322Y7200D01*
X4305Y7285D01*
X4257Y7357D01*
X4185Y7405D01*
X4100Y7422D01*
X4015Y7405D01*
X3943Y7357D01*
X3895Y7285D01*
X3878Y7200D01*
X3895Y7115D01*
X3943Y7043D01*
X3953Y7036D01*
X3955Y7034D01*
X3956Y7031D01*
X3957Y7029D01*
X3958Y7028D01*
X3959Y7026D01*
X3960Y7024D01*
X3960Y7024D01*
Y6961D01*
X3399Y6401D01*
X3368Y6355D01*
X3357Y6300D01*
X3357Y6300D01*
Y5900D01*
Y5600D01*
X3357Y5600D01*
X3363Y5571D01*
X3361Y5562D01*
X3333Y5522D01*
X3327Y5518D01*
X3265Y5505D01*
X3233Y5484D01*
X3175Y5506D01*
X3173Y5516D01*
X3205Y5565D01*
X3222Y5650D01*
X3205Y5735D01*
X3157Y5807D01*
X3085Y5855D01*
X3000Y5872D01*
X2915Y5855D01*
X2843Y5807D01*
X2795Y5735D01*
X2778Y5650D01*
X2795Y5565D01*
X2827Y5516D01*
X2825Y5506D01*
X2767Y5484D01*
X2735Y5505D01*
X2650Y5522D01*
X2640Y5520D01*
X2639Y5521D01*
X2636Y5521D01*
X2634Y5522D01*
X2631Y5523D01*
X2630Y5523D01*
X2628Y5524D01*
X2627Y5525D01*
X2201Y5951D01*
X2155Y5982D01*
X2100Y5993D01*
X2100Y5993D01*
X1934D01*
Y6463D01*
X1583D01*
X1581Y6465D01*
X1577Y6469D01*
X1574Y6474D01*
X1562Y6482D01*
X1551Y6491D01*
X1545Y6493D01*
X1541Y6496D01*
X1527Y6499D01*
X1513Y6503D01*
X1507Y6503D01*
X1502Y6504D01*
X1488Y6501D01*
X1474Y6500D01*
X1468Y6497D01*
X1463Y6496D01*
X1451Y6488D01*
X1438Y6482D01*
X1434Y6477D01*
X1429Y6474D01*
X1422Y6462D01*
X1412Y6451D01*
X1411Y6446D01*
X1407Y6441D01*
X1405Y6427D01*
X1404Y6424D01*
X1399Y6422D01*
X1384Y6418D01*
X1362Y6415D01*
X1348Y6414D01*
X1267D01*
X1230Y6416D01*
X1214Y6418D01*
X1209Y6419D01*
X1206Y6421D01*
X1192Y6431D01*
X1190Y6432D01*
X1188Y6433D01*
X1170Y6436D01*
X1153Y6441D01*
X1151Y6440D01*
X1149Y6441D01*
X1133Y6438D01*
X1129Y6438D01*
X1118Y6440D01*
X1110Y6438D01*
X1101Y6438D01*
X1090Y6433D01*
X1079Y6430D01*
X1072Y6425D01*
X1067Y6423D01*
X1048Y6434D01*
X1022Y6453D01*
X961Y6505D01*
X631Y6834D01*
X565Y6878D01*
X487Y6894D01*
X350D01*
X280Y6880D01*
X190D01*
X153Y6911D01*
Y8245D01*
X218D01*
X224Y8242D01*
X302Y8226D01*
X380Y8242D01*
X385Y8245D01*
X462D01*
Y8287D01*
X466Y8293D01*
X473Y8297D01*
X479Y8307D01*
X487Y8316D01*
X490Y8324D01*
X494Y8331D01*
X496Y8343D01*
X500Y8354D01*
X500Y8362D01*
X501Y8370D01*
X498Y8382D01*
X498Y8392D01*
X505Y8430D01*
Y8452D01*
X520Y8472D01*
X569Y8531D01*
X861Y8822D01*
X897Y8856D01*
X926Y8879D01*
X952Y8897D01*
X973Y8909D01*
X985Y8915D01*
X988Y8913D01*
D02*
G37*
G36*
X3281Y8605D02*
X3067Y8214D01*
X3063Y8225D01*
X3050Y8244D01*
X3029Y8271D01*
X2961Y8347D01*
X2643Y8674D01*
X2995Y8888D01*
X3281Y8605D01*
D02*
G37*
G36*
X7963Y8274D02*
X7958Y8267D01*
X7954Y8261D01*
X7950Y8254D01*
X7947Y8246D01*
X7945Y8238D01*
X7943Y8229D01*
X7941Y8220D01*
X7940Y8211D01*
X7940Y8201D01*
X7860D01*
X7860Y8211D01*
X7859Y8220D01*
X7857Y8229D01*
X7855Y8238D01*
X7853Y8246D01*
X7850Y8254D01*
X7846Y8261D01*
X7842Y8267D01*
X7837Y8274D01*
X7831Y8280D01*
X7969D01*
X7963Y8274D01*
D02*
G37*
G36*
X4702Y7875D02*
X4700Y7894D01*
X4694Y7911D01*
X4684Y7926D01*
X4670Y7939D01*
X4652Y7950D01*
X4630Y7959D01*
X4604Y7966D01*
X4574Y7971D01*
X4539Y7974D01*
X4512Y7975D01*
X4486Y7974D01*
X4451Y7971D01*
X4421Y7966D01*
X4395Y7959D01*
X4373Y7950D01*
X4355Y7939D01*
X4341Y7926D01*
X4331Y7911D01*
X4325Y7894D01*
X4323Y7875D01*
Y8275D01*
X4325Y8256D01*
X4331Y8239D01*
X4341Y8224D01*
X4355Y8211D01*
X4373Y8200D01*
X4395Y8191D01*
X4421Y8184D01*
X4451Y8179D01*
X4486Y8176D01*
X4512Y8175D01*
X4539Y8176D01*
X4574Y8179D01*
X4604Y8184D01*
X4630Y8191D01*
X4652Y8200D01*
X4670Y8211D01*
X4684Y8224D01*
X4694Y8239D01*
X4700Y8256D01*
X4702Y8275D01*
Y7875D01*
D02*
G37*
G36*
X7216Y8067D02*
X7211Y8072D01*
X7205Y8076D01*
X7198Y8079D01*
X7190Y8082D01*
X7182Y8085D01*
X7173Y8087D01*
X7162Y8089D01*
X7151Y8090D01*
X7127Y8091D01*
Y8209D01*
X7140Y8209D01*
X7162Y8211D01*
X7173Y8213D01*
X7182Y8215D01*
X7190Y8218D01*
X7198Y8221D01*
X7205Y8224D01*
X7211Y8228D01*
X7216Y8233D01*
Y8067D01*
D02*
G37*
G36*
X8909Y8022D02*
X8903Y8025D01*
X8896Y8028D01*
X8887Y8030D01*
X8877Y8032D01*
X8866Y8034D01*
X8838Y8037D01*
X8804Y8038D01*
X8785Y8038D01*
Y8138D01*
X8804Y8138D01*
X8866Y8142D01*
X8877Y8144D01*
X8887Y8146D01*
X8896Y8149D01*
X8903Y8151D01*
X8909Y8155D01*
Y8022D01*
D02*
G37*
G36*
X2532Y8212D02*
X2530Y8206D01*
X2529Y8196D01*
X2528Y8164D01*
X2526Y8014D01*
X2326D01*
X2319Y8214D01*
X2533D01*
X2532Y8212D01*
D02*
G37*
G36*
X8486Y8195D02*
X8501Y8183D01*
X8516Y8173D01*
X8532Y8164D01*
X8549Y8156D01*
X8567Y8149D01*
X8585Y8145D01*
X8603Y8141D01*
X8622Y8139D01*
X8642Y8138D01*
X8628Y8038D01*
X8608Y8038D01*
X8590Y8036D01*
X8572Y8033D01*
X8555Y8029D01*
X8539Y8024D01*
X8523Y8018D01*
X8509Y8010D01*
X8496Y8002D01*
X8483Y7992D01*
X8471Y7982D01*
X8401Y8025D01*
X8411Y8036D01*
X8419Y8048D01*
X8424Y8060D01*
X8426Y8072D01*
X8426Y8085D01*
X8423Y8098D01*
X8418Y8111D01*
X8410Y8124D01*
X8400Y8138D01*
X8387Y8152D01*
X8471Y8209D01*
X8486Y8195D01*
D02*
G37*
G36*
X5840Y8033D02*
X5842Y8020D01*
X5844Y8007D01*
X5846Y7997D01*
X5850Y7988D01*
X5854Y7981D01*
X5860Y7975D01*
X5866Y7971D01*
X5872Y7968D01*
X5880Y7968D01*
X5720D01*
X5728Y7968D01*
X5734Y7971D01*
X5740Y7975D01*
X5746Y7981D01*
X5750Y7988D01*
X5754Y7997D01*
X5756Y8007D01*
X5758Y8020D01*
X5760Y8033D01*
X5760Y8049D01*
X5840D01*
X5840Y8033D01*
D02*
G37*
G36*
X7020Y7828D02*
X7018Y7772D01*
X7005Y7771D01*
X6997Y7742D01*
X6993Y7748D01*
X6988Y7753D01*
X6983Y7757D01*
X6976Y7761D01*
X6968Y7764D01*
X6959Y7767D01*
X6951Y7769D01*
X6891Y7766D01*
Y7899D01*
X6895Y7897D01*
X6901Y7895D01*
X6909Y7894D01*
X6931Y7892D01*
X6973Y7890D01*
X7008Y7893D01*
X7016Y7894D01*
X7030Y7897D01*
X7035Y7899D01*
X7040Y7902D01*
X7020Y7828D01*
D02*
G37*
G36*
X9643Y7897D02*
X9649Y7896D01*
X9656Y7895D01*
X9678Y7893D01*
X9747Y7891D01*
X9769Y7891D01*
Y7773D01*
X9747Y7773D01*
X9643Y7767D01*
X9640Y7766D01*
Y7899D01*
X9643Y7897D01*
D02*
G37*
G36*
X3676Y7826D02*
X3674Y7812D01*
X3668Y7799D01*
X3658Y7787D01*
X3644Y7777D01*
X3626Y7769D01*
X3604Y7762D01*
X3578Y7757D01*
X3548Y7753D01*
X3514Y7751D01*
X3476Y7750D01*
Y7950D01*
X3514Y7951D01*
X3548Y7954D01*
X3578Y7959D01*
X3604Y7966D01*
X3626Y7975D01*
X3644Y7986D01*
X3658Y7999D01*
X3668Y8014D01*
X3674Y8031D01*
X3676Y8050D01*
Y7826D01*
D02*
G37*
G36*
X1951Y7990D02*
X1957Y7981D01*
X1967Y7974D01*
X1981Y7968D01*
X1999Y7962D01*
X2021Y7958D01*
X2047Y7954D01*
X2111Y7950D01*
X2149Y7950D01*
Y7750D01*
X1949Y7741D01*
Y7999D01*
X1951Y7990D01*
D02*
G37*
G36*
X5784Y7712D02*
X5780Y7718D01*
X5773Y7721D01*
X5766Y7722D01*
X5757Y7720D01*
X5746Y7716D01*
X5734Y7708D01*
X5720Y7699D01*
X5705Y7687D01*
X5671Y7655D01*
X5645Y7741D01*
X5659Y7756D01*
X5683Y7784D01*
X5691Y7797D01*
X5698Y7808D01*
X5703Y7819D01*
X5706Y7829D01*
X5707Y7839D01*
X5705Y7847D01*
X5702Y7854D01*
X5784Y7712D01*
D02*
G37*
G36*
X3163Y7749D02*
X3158Y7743D01*
X3154Y7733D01*
X3150Y7719D01*
X3147Y7701D01*
X3145Y7679D01*
X3141Y7623D01*
X3141Y7601D01*
X3149Y7458D01*
X3151Y7452D01*
X3154Y7450D01*
X2906D01*
X2913Y7452D01*
X2918Y7458D01*
X2923Y7468D01*
X2928Y7482D01*
X2932Y7500D01*
X2935Y7522D01*
X2939Y7578D01*
X2939Y7600D01*
X2933Y7701D01*
X2930Y7719D01*
X2926Y7733D01*
X2922Y7743D01*
X2917Y7749D01*
X2911Y7751D01*
X3169D01*
X3163Y7749D01*
D02*
G37*
G36*
X2683D02*
X2678Y7743D01*
X2674Y7733D01*
X2670Y7719D01*
X2667Y7701D01*
X2665Y7679D01*
X2661Y7623D01*
X2661Y7605D01*
X2668Y7500D01*
X2672Y7482D01*
X2677Y7468D01*
X2682Y7458D01*
X2687Y7452D01*
X2694Y7450D01*
X2446D01*
X2449Y7452D01*
X2451Y7458D01*
X2453Y7468D01*
X2455Y7482D01*
X2458Y7522D01*
X2459Y7599D01*
X2453Y7701D01*
X2450Y7719D01*
X2446Y7733D01*
X2442Y7743D01*
X2437Y7749D01*
X2431Y7751D01*
X2689D01*
X2683Y7749D01*
D02*
G37*
G36*
X5299Y7801D02*
X5361Y7647D01*
X5380D01*
X5380Y7609D01*
X5389Y7479D01*
X5392Y7465D01*
X5395Y7455D01*
X5399Y7449D01*
X5404Y7447D01*
X5156D01*
X5161Y7449D01*
X5165Y7455D01*
X5168Y7465D01*
X5171Y7479D01*
X5174Y7497D01*
X5178Y7545D01*
X5179Y7622D01*
X5179Y7639D01*
X5176Y7673D01*
X5171Y7704D01*
X5164Y7730D01*
X5155Y7752D01*
X5144Y7770D01*
X5131Y7784D01*
X5116Y7794D01*
X5099Y7800D01*
X5080Y7802D01*
X5299Y7801D01*
D02*
G37*
G36*
X1584Y7572D02*
X1589Y7566D01*
X1596Y7560D01*
X1603Y7554D01*
X1612Y7550D01*
X1622Y7546D01*
X1633Y7544D01*
X1645Y7542D01*
X1658Y7540D01*
X1673Y7540D01*
Y7460D01*
X1658Y7460D01*
X1645Y7458D01*
X1633Y7456D01*
X1622Y7454D01*
X1612Y7450D01*
X1603Y7446D01*
X1596Y7440D01*
X1589Y7434D01*
X1584Y7428D01*
X1580Y7420D01*
Y7580D01*
X1584Y7572D01*
D02*
G37*
G36*
X3528Y7436D02*
X3524Y7430D01*
X3521Y7423D01*
X3518Y7415D01*
X3515Y7407D01*
X3513Y7398D01*
X3511Y7387D01*
X3510Y7376D01*
X3509Y7352D01*
X3391D01*
X3391Y7365D01*
X3389Y7387D01*
X3387Y7398D01*
X3385Y7407D01*
X3382Y7415D01*
X3379Y7423D01*
X3376Y7430D01*
X3372Y7436D01*
X3367Y7441D01*
X3533D01*
X3528Y7436D01*
D02*
G37*
G36*
X6971Y7165D02*
X6961Y7154D01*
X6953Y7144D01*
X6945Y7134D01*
X6940Y7124D01*
X6935Y7115D01*
X6932Y7105D01*
X6931Y7096D01*
X6930Y7087D01*
X6931Y7079D01*
X6934Y7071D01*
X6821Y7184D01*
X6829Y7181D01*
X6837Y7180D01*
X6846Y7181D01*
X6855Y7182D01*
X6865Y7185D01*
X6874Y7190D01*
X6884Y7195D01*
X6894Y7203D01*
X6904Y7211D01*
X6915Y7221D01*
X6971Y7165D01*
D02*
G37*
G36*
X9180Y7197D02*
X9181Y7187D01*
X9183Y7178D01*
X9185Y7170D01*
X9187Y7164D01*
X9191Y7158D01*
X9195Y7154D01*
X9199Y7151D01*
X9204Y7149D01*
X9210Y7149D01*
X9090D01*
X9096Y7149D01*
X9101Y7151D01*
X9105Y7154D01*
X9109Y7158D01*
X9112Y7164D01*
X9115Y7170D01*
X9117Y7178D01*
X9119Y7187D01*
X9120Y7197D01*
X9120Y7209D01*
X9180D01*
X9180Y7197D01*
D02*
G37*
G36*
X3154Y7253D02*
X3146Y7251D01*
X3135Y7246D01*
X3122Y7238D01*
X3106Y7227D01*
X3067Y7194D01*
X2989Y7121D01*
X2958Y7090D01*
X2816Y7231D01*
X2839Y7254D01*
X2899Y7324D01*
X2907Y7337D01*
X2911Y7347D01*
X2913Y7355D01*
X2912Y7360D01*
X2907Y7364D01*
X3154Y7253D01*
D02*
G37*
G36*
X2190Y7229D02*
X2191Y7222D01*
X2193Y7209D01*
X2196Y7196D01*
X2200Y7184D01*
X2206Y7171D01*
X2213Y7158D01*
X2222Y7145D01*
X2232Y7133D01*
X2243Y7120D01*
X2255Y7107D01*
X2205D01*
X2208Y7099D01*
X2213Y7086D01*
X2219Y7074D01*
X2226Y7065D01*
X2074D01*
X2081Y7074D01*
X2087Y7086D01*
X2092Y7099D01*
X2095Y7107D01*
X2045D01*
X2057Y7120D01*
X2068Y7133D01*
X2078Y7145D01*
X2087Y7158D01*
X2094Y7171D01*
X2100Y7184D01*
X2104Y7196D01*
X2107Y7209D01*
X2109Y7222D01*
X2110Y7229D01*
X2110Y7250D01*
X2190D01*
X2190Y7229D01*
D02*
G37*
G36*
X4176Y7109D02*
X4169Y7100D01*
X4163Y7090D01*
X4157Y7081D01*
X4153Y7071D01*
X4149Y7061D01*
X4146Y7051D01*
X4144Y7041D01*
X4143Y7030D01*
X4142Y7019D01*
X4062Y7017D01*
X4062Y7028D01*
X4061Y7039D01*
X4058Y7049D01*
X4055Y7060D01*
X4052Y7069D01*
X4047Y7079D01*
X4041Y7088D01*
X4035Y7097D01*
X4027Y7106D01*
X4019Y7114D01*
X4184Y7117D01*
X4176Y7109D01*
D02*
G37*
G36*
X5472Y6981D02*
X5463Y6971D01*
X5454Y6960D01*
X5447Y6950D01*
X5441Y6941D01*
X5437Y6931D01*
X5434Y6922D01*
X5433Y6913D01*
X5433Y6904D01*
X5434Y6896D01*
X5437Y6888D01*
X5318Y6995D01*
X5327Y6993D01*
X5335Y6992D01*
X5344Y6993D01*
X5354Y6995D01*
X5364Y6999D01*
X5374Y7004D01*
X5384Y7011D01*
X5395Y7019D01*
X5406Y7028D01*
X5417Y7039D01*
X5472Y6981D01*
D02*
G37*
G36*
X9278Y7099D02*
X9280Y7094D01*
X9283Y7090D01*
X9287Y7086D01*
X9293Y7082D01*
X9300Y7080D01*
X9308Y7078D01*
X9317Y7076D01*
X9327Y7075D01*
X9339Y7075D01*
Y7015D01*
X9327Y7015D01*
X9317Y7014D01*
X9308Y7012D01*
X9300Y7010D01*
X9293Y7007D01*
X9287Y7004D01*
X9283Y7000D01*
X9280Y6996D01*
X9278Y6991D01*
X9278Y6985D01*
Y7105D01*
X9278Y7099D01*
D02*
G37*
G36*
X8684Y6952D02*
X8677Y6955D01*
X8669Y6957D01*
X8659Y6956D01*
X8649Y6953D01*
X8638Y6948D01*
X8627Y6941D01*
X8614Y6933D01*
X8601Y6922D01*
X8586Y6909D01*
X8571Y6895D01*
X8485Y6921D01*
X8502Y6939D01*
X8529Y6970D01*
X8538Y6984D01*
X8546Y6996D01*
X8550Y7007D01*
X8552Y7016D01*
X8551Y7023D01*
X8548Y7030D01*
X8542Y7034D01*
X8684Y6952D01*
D02*
G37*
G36*
X6570Y6920D02*
X6566Y6928D01*
X6561Y6934D01*
X6554Y6940D01*
X6547Y6946D01*
X6538Y6950D01*
X6528Y6954D01*
X6517Y6956D01*
X6505Y6958D01*
X6492Y6960D01*
X6477Y6960D01*
Y7040D01*
X6492Y7040D01*
X6505Y7042D01*
X6517Y7044D01*
X6528Y7046D01*
X6538Y7050D01*
X6547Y7054D01*
X6554Y7060D01*
X6561Y7066D01*
X6566Y7072D01*
X6570Y7080D01*
Y6920D01*
D02*
G37*
G36*
X3282Y6889D02*
X3260Y6866D01*
X3225Y6824D01*
X3212Y6806D01*
X3203Y6788D01*
X3196Y6772D01*
X3192Y6757D01*
X3191Y6744D01*
X3193Y6732D01*
X3199Y6722D01*
X3062Y6919D01*
X3070Y6911D01*
X3079Y6906D01*
X3091Y6906D01*
X3105Y6909D01*
X3121Y6915D01*
X3138Y6925D01*
X3158Y6939D01*
X3180Y6956D01*
X3229Y7002D01*
X3282Y6889D01*
D02*
G37*
G36*
X2259Y7104D02*
X2262Y7103D01*
X2268Y7102D01*
X2283Y7101D01*
X2335Y7100D01*
X2352Y7100D01*
Y6900D01*
X2257Y6895D01*
Y7105D01*
X2259Y7104D01*
D02*
G37*
G36*
X8813Y7885D02*
X8812Y7884D01*
X8802Y7832D01*
X8812Y7781D01*
X8841Y7737D01*
X8885Y7708D01*
X8936Y7698D01*
X9189D01*
X9190Y7698D01*
X9200Y7638D01*
X9056Y7494D01*
X9028Y7451D01*
X9017Y7400D01*
Y7220D01*
X9015Y7216D01*
X9011Y7213D01*
X9009Y7210D01*
X8960D01*
Y6890D01*
X9243D01*
X9253Y6888D01*
X9267Y6884D01*
X9272Y6884D01*
X9278Y6883D01*
X9292Y6886D01*
X9306Y6887D01*
X9311Y6890D01*
X9313Y6890D01*
X9340D01*
Y6905D01*
X9342Y6906D01*
X9345Y6910D01*
X9349Y6912D01*
X9600D01*
X9600Y6912D01*
X9600Y6912D01*
X9600Y6912D01*
X9610Y6913D01*
X9661Y6914D01*
X9680Y6868D01*
X9537Y6724D01*
X9535Y6724D01*
X9531Y6723D01*
X9526Y6722D01*
X9519Y6721D01*
X9511Y6720D01*
X9511Y6720D01*
X9500Y6722D01*
X9415Y6705D01*
X9381Y6683D01*
X9340Y6660D01*
X9287D01*
X9278Y6662D01*
X9272Y6661D01*
X9267Y6661D01*
X9262Y6660D01*
X8960D01*
Y6340D01*
X9262D01*
X9267Y6339D01*
X9272Y6339D01*
X9278Y6338D01*
X9287Y6340D01*
X9340D01*
X9381Y6317D01*
X9415Y6295D01*
X9500Y6278D01*
X9585Y6295D01*
X9653Y6340D01*
X9685Y6301D01*
X9391Y6007D01*
X9390Y6007D01*
X9379Y6011D01*
X9370Y6011D01*
X9362Y6012D01*
X9350Y6010D01*
X9339Y6009D01*
X9331Y6005D01*
X9323Y6003D01*
X9318Y6000D01*
X9317Y6000D01*
X9250Y6009D01*
X9183Y6000D01*
X9120Y5974D01*
X9067Y5933D01*
X9026Y5880D01*
X9000Y5817D01*
X8991Y5750D01*
X9000Y5683D01*
X9026Y5620D01*
X9067Y5567D01*
X9120Y5526D01*
X9183Y5500D01*
X9250Y5491D01*
X9317Y5500D01*
X9380Y5526D01*
X9433Y5567D01*
X9474Y5620D01*
X9479Y5633D01*
X9487Y5634D01*
X9495Y5640D01*
X9505Y5644D01*
X9511Y5652D01*
X9519Y5657D01*
X9525Y5666D01*
X9532Y5673D01*
X9535Y5683D01*
X9541Y5691D01*
X9542Y5701D01*
X9546Y5711D01*
X9547Y5716D01*
X9548Y5718D01*
X9549Y5721D01*
X9551Y5726D01*
X9554Y5731D01*
X9558Y5738D01*
X9563Y5745D01*
X9574Y5757D01*
X9964Y6148D01*
X10747D01*
Y5500D01*
X10759Y5441D01*
X10792Y5392D01*
X10841Y5359D01*
X10891Y5349D01*
X10911Y5336D01*
X10950Y5328D01*
X13229Y5328D01*
X13230Y4557D01*
X13180Y4542D01*
X13166Y4563D01*
X13113Y4598D01*
X13052Y4610D01*
X12648D01*
X12587Y4598D01*
X12534Y4563D01*
X12499Y4510D01*
X12487Y4448D01*
Y4302D01*
X12437Y4282D01*
X12268Y4451D01*
X12221Y4482D01*
X12167Y4493D01*
X12167Y4493D01*
X11593D01*
X11593Y4493D01*
X11527Y4537D01*
X11450Y4552D01*
X11373Y4537D01*
X11307Y4493D01*
X11263Y4427D01*
X11248Y4350D01*
X11263Y4273D01*
X11307Y4207D01*
X11373Y4163D01*
X11450Y4148D01*
X11527Y4163D01*
X11593Y4207D01*
X11593Y4207D01*
X12108D01*
X12474Y3841D01*
X12474Y3840D01*
X12475Y3825D01*
X12475Y3810D01*
X12477Y3806D01*
X12477Y3801D01*
X12484Y3787D01*
X12489Y3775D01*
X12487Y3765D01*
Y3568D01*
X12499Y3506D01*
X12534Y3454D01*
X12587Y3419D01*
X12648Y3407D01*
X13052D01*
X13113Y3419D01*
X13166Y3454D01*
X13180Y3476D01*
X13230Y3460D01*
X13231Y2506D01*
X13181Y2491D01*
X13166Y2513D01*
X13113Y2548D01*
X13052Y2560D01*
X12648D01*
X12587Y2548D01*
X12585Y2547D01*
X12581Y2548D01*
X12577Y2548D01*
X12573Y2549D01*
X12557Y2547D01*
X12555Y2547D01*
X11139Y3963D01*
X11093Y3993D01*
X11038Y4004D01*
X11038Y4004D01*
X10819D01*
X10817Y4005D01*
X10814Y4005D01*
X10811Y4007D01*
X10808Y4008D01*
X10804Y4010D01*
X10800Y4012D01*
X10796Y4015D01*
X10789Y4021D01*
X10782Y4024D01*
X10735Y4055D01*
X10650Y4072D01*
X10565Y4055D01*
X10493Y4007D01*
X10483Y3993D01*
X9919D01*
X9814Y4098D01*
X9803Y4110D01*
X9798Y4116D01*
X9800Y4124D01*
X9798Y4132D01*
X9798Y4141D01*
X9794Y4152D01*
X9792Y4163D01*
X9787Y4170D01*
X9784Y4178D01*
X9776Y4187D01*
X9770Y4196D01*
X9763Y4201D01*
X9760Y4204D01*
Y4330D01*
X9440D01*
Y3950D01*
X9506D01*
X9509Y3947D01*
X9514Y3940D01*
X9523Y3934D01*
X9532Y3926D01*
X9540Y3923D01*
X9547Y3918D01*
X9558Y3916D01*
X9561Y3915D01*
X9566Y3905D01*
X9547Y3856D01*
X9541Y3850D01*
X9520D01*
X9506Y3853D01*
X9504Y3853D01*
X9501Y3853D01*
X9484Y3850D01*
X9484Y3850D01*
X9440D01*
Y3831D01*
X9433Y3827D01*
X9431Y3825D01*
X9429Y3824D01*
X9419Y3809D01*
X9409Y3795D01*
X9408Y3793D01*
X9407Y3791D01*
X9404Y3773D01*
X9399Y3757D01*
X9399Y3750D01*
X9399Y3749D01*
X9398Y3747D01*
X9397Y3744D01*
X9396Y3741D01*
X9393Y3736D01*
X9390Y3731D01*
X9385Y3725D01*
X9383Y3722D01*
X8954Y3293D01*
X8315D01*
X8295Y3343D01*
X8771Y3819D01*
X8771Y3819D01*
X8802Y3865D01*
X8813Y3920D01*
X8813Y3920D01*
Y6324D01*
X8822Y6330D01*
X8825Y6335D01*
X8829Y6338D01*
X8830Y6340D01*
X8860D01*
Y6660D01*
X8543D01*
Y6721D01*
X8661Y6839D01*
X8666Y6844D01*
X8675Y6851D01*
X8676Y6852D01*
X8678Y6852D01*
X8685Y6850D01*
X8698Y6853D01*
X8711Y6854D01*
X8717Y6857D01*
X8724Y6858D01*
X8735Y6866D01*
X8746Y6872D01*
X8751Y6877D01*
X8757Y6880D01*
X8763Y6890D01*
X8860D01*
Y7210D01*
X8480D01*
Y7115D01*
X8473Y7107D01*
X8464Y7100D01*
X8460Y7092D01*
X8454Y7085D01*
X8450Y7075D01*
X8445Y7065D01*
X8444Y7056D01*
X8441Y7048D01*
X8442Y7036D01*
X8441Y7025D01*
X8441Y7025D01*
X8430Y7012D01*
X8299Y6881D01*
X8268Y6835D01*
X8257Y6780D01*
X8257Y6780D01*
Y5123D01*
X8207Y5091D01*
X8150Y5102D01*
X8073Y5087D01*
X8007Y5043D01*
X7963Y4977D01*
X7910Y4965D01*
X7877Y4987D01*
X7800Y5002D01*
X7723Y4987D01*
X7657Y4943D01*
X7613Y4877D01*
X7611Y4865D01*
X7560D01*
X7555Y4885D01*
X7507Y4957D01*
X7435Y5005D01*
X7350Y5022D01*
X7265Y5005D01*
X7193Y4957D01*
X7145Y4885D01*
X7140Y4864D01*
X7138Y4861D01*
X7136Y4851D01*
X7134Y4846D01*
X7128Y4832D01*
X7126Y4827D01*
X7123Y4823D01*
X7120Y4818D01*
X7118Y4816D01*
X7099Y4797D01*
X6875D01*
X6820Y4786D01*
X6774Y4755D01*
X6774Y4755D01*
X6703Y4684D01*
X5875D01*
X5820Y4673D01*
X5808Y4665D01*
X5771Y4672D01*
X5750Y4714D01*
X5748Y4721D01*
X5748Y4722D01*
X5750Y4724D01*
X5752Y4741D01*
X5756Y4758D01*
X5756Y4762D01*
X5756Y4763D01*
X5758Y4766D01*
X5760Y4770D01*
X5763Y4775D01*
X5773Y4788D01*
X5870Y4884D01*
X5870Y4884D01*
X5877Y4883D01*
X5884Y4883D01*
X5913Y4878D01*
X5998Y4895D01*
X6070Y4943D01*
X6108Y4944D01*
X6146Y4914D01*
X6147Y4903D01*
X6147Y4892D01*
X6150Y4883D01*
X6151Y4875D01*
X6157Y4865D01*
X6161Y4854D01*
X6167Y4848D01*
X6172Y4841D01*
X6181Y4834D01*
X6185Y4830D01*
Y4738D01*
X6555D01*
Y5058D01*
X6530D01*
X6529Y5060D01*
X6525Y5064D01*
X6522Y5068D01*
X6513Y5074D01*
Y5321D01*
X6522Y5328D01*
X6525Y5332D01*
X6529Y5335D01*
X6531Y5338D01*
X6555D01*
Y5475D01*
X6556Y5477D01*
X6605Y5499D01*
X6613Y5492D01*
X6613Y5492D01*
X6618Y5485D01*
X6621Y5477D01*
X6629Y5468D01*
X6635Y5459D01*
X6642Y5454D01*
X6648Y5448D01*
X6659Y5443D01*
X6668Y5437D01*
X6677Y5435D01*
X6684Y5431D01*
X6696Y5431D01*
X6707Y5429D01*
X6708Y5429D01*
X6729Y5397D01*
X6775Y5367D01*
X6830Y5356D01*
X6885Y5367D01*
X6931Y5397D01*
X6962Y5444D01*
X6973Y5498D01*
Y5520D01*
X6973Y5520D01*
X6963Y5570D01*
X6963Y5571D01*
X6967Y5584D01*
X6967Y5590D01*
X6968Y5596D01*
X6965Y5610D01*
X6964Y5624D01*
X6961Y5629D01*
X6960Y5635D01*
X6952Y5647D01*
X6946Y5659D01*
X6941Y5663D01*
X6938Y5668D01*
X6926Y5676D01*
X6916Y5685D01*
X6910Y5687D01*
X6905Y5690D01*
X6891Y5693D01*
X6878Y5697D01*
X6872Y5697D01*
X6866Y5698D01*
X6859Y5697D01*
X6856Y5699D01*
X6839Y5712D01*
X6701Y5851D01*
X6655Y5882D01*
X6600Y5893D01*
X6555Y5903D01*
Y6208D01*
X6310D01*
X6307Y6210D01*
X6296Y6220D01*
X6291Y6221D01*
X6286Y6224D01*
X6272Y6227D01*
X6258Y6231D01*
X6253Y6231D01*
X6247Y6232D01*
X6233Y6229D01*
X6219Y6228D01*
X6214Y6225D01*
X6208Y6224D01*
X6196Y6216D01*
X6183Y6209D01*
X6180Y6205D01*
X6175Y6202D01*
X6169Y6193D01*
X5986D01*
X5961Y6241D01*
X5974Y6259D01*
X5979Y6264D01*
X5985Y6265D01*
X5990Y6265D01*
X6004Y6269D01*
X6018Y6272D01*
X6023Y6275D01*
X6028Y6277D01*
X6039Y6286D01*
X6047Y6291D01*
X6050Y6291D01*
X6117Y6300D01*
X6180Y6326D01*
X6233Y6367D01*
X6235Y6369D01*
X6244Y6371D01*
X6259Y6372D01*
X6264Y6375D01*
X6269Y6376D01*
X6281Y6384D01*
X6294Y6391D01*
X6297Y6395D01*
X6302Y6398D01*
X6308Y6407D01*
X6309Y6407D01*
X6987D01*
X6987Y6407D01*
X7042Y6418D01*
X7088Y6449D01*
X7689Y7050D01*
X7689Y7050D01*
X7698Y7063D01*
X8551Y7916D01*
X8554Y7918D01*
X8560Y7922D01*
X8566Y7925D01*
X8573Y7928D01*
X8582Y7931D01*
X8591Y7933D01*
X8602Y7935D01*
X8608Y7935D01*
X8787D01*
X8813Y7885D01*
D02*
G37*
G36*
X8312Y8081D02*
X7487Y7256D01*
X7479Y7244D01*
X6928Y6693D01*
X6767D01*
X6764Y6743D01*
X6817Y6750D01*
X6880Y6776D01*
X6933Y6817D01*
X6974Y6870D01*
X7000Y6933D01*
X7009Y7000D01*
X7009Y7003D01*
X7014Y7011D01*
X7023Y7022D01*
X7025Y7027D01*
X7028Y7032D01*
X7031Y7046D01*
X7035Y7060D01*
X7035Y7065D01*
X7036Y7071D01*
X7034Y7082D01*
X7034Y7082D01*
X8001Y8049D01*
X8001Y8049D01*
X8032Y8095D01*
X8043Y8150D01*
X8043Y8150D01*
Y8207D01*
X8043Y8207D01*
X8072Y8250D01*
X8132Y8261D01*
X8312Y8081D01*
D02*
G37*
G36*
X5197Y6620D02*
X5188Y6622D01*
X5180Y6623D01*
X5171Y6622D01*
X5162Y6620D01*
X5152Y6617D01*
X5143Y6612D01*
X5133Y6607D01*
X5123Y6599D01*
X5113Y6591D01*
X5102Y6581D01*
X5043Y6634D01*
X5052Y6645D01*
X5061Y6655D01*
X5068Y6665D01*
X5074Y6675D01*
X5078Y6684D01*
X5081Y6693D01*
X5082Y6702D01*
X5082Y6711D01*
X5081Y6719D01*
X5078Y6727D01*
X5197Y6620D01*
D02*
G37*
G36*
X9416Y6417D02*
X9405Y6427D01*
X9395Y6436D01*
X9385Y6444D01*
X9375Y6451D01*
X9365Y6457D01*
X9355Y6462D01*
X9345Y6465D01*
X9335Y6468D01*
X9325Y6469D01*
X9325Y6469D01*
X9317Y6469D01*
X9308Y6467D01*
X9300Y6465D01*
X9293Y6463D01*
X9287Y6459D01*
X9283Y6455D01*
X9280Y6451D01*
X9278Y6446D01*
X9278Y6440D01*
Y6560D01*
X9278Y6554D01*
X9280Y6549D01*
X9283Y6545D01*
X9287Y6541D01*
X9293Y6538D01*
X9300Y6535D01*
X9308Y6533D01*
X9317Y6531D01*
X9325Y6531D01*
X9325Y6531D01*
X9335Y6532D01*
X9345Y6535D01*
X9355Y6538D01*
X9365Y6543D01*
X9375Y6549D01*
X9385Y6556D01*
X9395Y6564D01*
X9405Y6573D01*
X9416Y6583D01*
Y6417D01*
D02*
G37*
G36*
X9652Y6610D02*
X9646Y6602D01*
X9640Y6594D01*
X9634Y6585D01*
X9630Y6576D01*
X9626Y6565D01*
X9623Y6554D01*
X9621Y6542D01*
X9619Y6529D01*
X9618Y6516D01*
X9618Y6501D01*
X9501Y6618D01*
X9516Y6618D01*
X9529Y6619D01*
X9542Y6621D01*
X9554Y6623D01*
X9565Y6626D01*
X9576Y6630D01*
X9585Y6634D01*
X9594Y6640D01*
X9602Y6646D01*
X9610Y6652D01*
X9652Y6610D01*
D02*
G37*
G36*
X6234Y6622D02*
X6239Y6616D01*
X6246Y6610D01*
X6253Y6604D01*
X6262Y6600D01*
X6272Y6596D01*
X6283Y6594D01*
X6295Y6592D01*
X6308Y6590D01*
X6323Y6590D01*
Y6510D01*
X6308Y6510D01*
X6295Y6508D01*
X6283Y6506D01*
X6272Y6504D01*
X6262Y6500D01*
X6253Y6496D01*
X6246Y6490D01*
X6239Y6484D01*
X6234Y6478D01*
X6230Y6470D01*
Y6630D01*
X6234Y6622D01*
D02*
G37*
G36*
X5979Y6366D02*
X5971Y6369D01*
X5963Y6370D01*
X5954Y6369D01*
X5945Y6368D01*
X5935Y6365D01*
X5926Y6360D01*
X5916Y6355D01*
X5906Y6347D01*
X5896Y6339D01*
X5885Y6329D01*
X5829Y6385D01*
X5839Y6396D01*
X5847Y6406D01*
X5855Y6416D01*
X5860Y6426D01*
X5865Y6435D01*
X5868Y6445D01*
X5869Y6454D01*
X5870Y6463D01*
X5869Y6471D01*
X5866Y6479D01*
X5979Y6366D01*
D02*
G37*
G36*
X8742Y6402D02*
X8736Y6399D01*
X8730Y6395D01*
X8724Y6389D01*
X8720Y6382D01*
X8716Y6373D01*
X8714Y6363D01*
X8712Y6350D01*
X8710Y6337D01*
X8710Y6321D01*
X8630D01*
X8630Y6337D01*
X8628Y6350D01*
X8626Y6363D01*
X8624Y6373D01*
X8620Y6382D01*
X8616Y6389D01*
X8610Y6395D01*
X8604Y6399D01*
X8598Y6402D01*
X8590Y6402D01*
X8750D01*
X8742Y6402D01*
D02*
G37*
G36*
X1502Y6050D02*
X1500Y6061D01*
X1494Y6072D01*
X1484Y6081D01*
X1470Y6088D01*
X1452Y6095D01*
X1430Y6100D01*
X1404Y6105D01*
X1374Y6108D01*
X1311Y6110D01*
X1199Y6103D01*
X1181Y6100D01*
X1167Y6096D01*
X1157Y6092D01*
X1151Y6087D01*
X1149Y6081D01*
Y6339D01*
X1151Y6333D01*
X1157Y6328D01*
X1167Y6324D01*
X1181Y6320D01*
X1199Y6317D01*
X1221Y6315D01*
X1277Y6311D01*
X1320Y6310D01*
X1340Y6311D01*
X1374Y6314D01*
X1404Y6318D01*
X1430Y6325D01*
X1452Y6333D01*
X1470Y6343D01*
X1484Y6355D01*
X1494Y6369D01*
X1500Y6384D01*
X1502Y6402D01*
Y6050D01*
D02*
G37*
G36*
X2791Y6633D02*
X2789Y6620D01*
X2791Y6605D01*
X2799Y6586D01*
X2811Y6565D01*
X2827Y6541D01*
X2848Y6513D01*
X2905Y6450D01*
X2940Y6414D01*
X2789Y6283D01*
X2753Y6317D01*
X2664Y6394D01*
X2640Y6410D01*
X2618Y6422D01*
X2600Y6430D01*
X2584Y6433D01*
X2571Y6431D01*
X2560Y6425D01*
X2797Y6642D01*
X2791Y6633D01*
D02*
G37*
G36*
X9949Y6252D02*
X9944Y6251D01*
X9938Y6250D01*
X9932Y6248D01*
X9926Y6246D01*
X9919Y6242D01*
X9913Y6238D01*
X9906Y6233D01*
X9899Y6227D01*
X9884Y6213D01*
X9813Y6284D01*
X9820Y6291D01*
X9833Y6306D01*
X9838Y6313D01*
X9842Y6319D01*
X9846Y6326D01*
X9848Y6332D01*
X9850Y6338D01*
X9851Y6344D01*
X9852Y6349D01*
X9949Y6252D01*
D02*
G37*
G36*
X882Y6438D02*
X959Y6372D01*
X993Y6348D01*
X1023Y6331D01*
X1049Y6320D01*
X1072Y6315D01*
X1092Y6316D01*
X1108Y6324D01*
X1121Y6338D01*
X951Y6081D01*
X949Y6084D01*
X943Y6091D01*
X739Y6297D01*
X838Y6480D01*
X882Y6438D01*
D02*
G37*
G36*
X446Y6217D02*
X444Y6208D01*
X445Y6199D01*
X448Y6189D01*
X453Y6178D01*
X459Y6166D01*
X468Y6154D01*
X478Y6140D01*
X491Y6126D01*
X505Y6111D01*
X479Y6025D01*
X461Y6042D01*
X430Y6069D01*
X416Y6078D01*
X404Y6085D01*
X394Y6089D01*
X385Y6091D01*
X377Y6090D01*
X371Y6087D01*
X366Y6081D01*
X449Y6224D01*
X446Y6217D01*
D02*
G37*
G36*
X6247Y5970D02*
X6247Y5978D01*
X6244Y5984D01*
X6240Y5990D01*
X6234Y5996D01*
X6227Y6000D01*
X6218Y6004D01*
X6208Y6006D01*
X6195Y6008D01*
X6182Y6010D01*
X6166Y6010D01*
Y6090D01*
X6182Y6090D01*
X6195Y6092D01*
X6208Y6094D01*
X6218Y6096D01*
X6227Y6100D01*
X6234Y6104D01*
X6240Y6110D01*
X6244Y6116D01*
X6247Y6122D01*
X6247Y6130D01*
Y5970D01*
D02*
G37*
G36*
X9516Y5845D02*
X9504Y5833D01*
X9483Y5808D01*
X9474Y5796D01*
X9466Y5784D01*
X9460Y5772D01*
X9454Y5761D01*
X9450Y5749D01*
X9447Y5738D01*
X9446Y5727D01*
X9364Y5910D01*
X9373Y5905D01*
X9383Y5902D01*
X9393Y5900D01*
X9403Y5901D01*
X9414Y5903D01*
X9425Y5908D01*
X9436Y5914D01*
X9448Y5922D01*
X9461Y5932D01*
X9474Y5944D01*
X9516Y5845D01*
D02*
G37*
G36*
X4077Y5710D02*
X4068Y5702D01*
X4061Y5694D01*
X4054Y5686D01*
X4048Y5677D01*
X4043Y5667D01*
X4039Y5658D01*
X4036Y5648D01*
X4034Y5637D01*
X4032Y5627D01*
X4032Y5615D01*
X3952Y5621D01*
X3951Y5632D01*
X3950Y5643D01*
X3948Y5653D01*
X3945Y5664D01*
X3942Y5674D01*
X3937Y5684D01*
X3932Y5694D01*
X3926Y5703D01*
X3919Y5712D01*
X3912Y5722D01*
X4077Y5710D01*
D02*
G37*
G36*
X6767Y5640D02*
X6794Y5618D01*
X6806Y5609D01*
X6818Y5602D01*
X6829Y5598D01*
X6839Y5594D01*
X6849Y5593D01*
X6858Y5594D01*
X6866Y5596D01*
X6707Y5531D01*
X6714Y5535D01*
X6718Y5540D01*
X6719Y5548D01*
X6717Y5557D01*
X6713Y5567D01*
X6705Y5579D01*
X6696Y5593D01*
X6683Y5608D01*
X6650Y5644D01*
X6753Y5654D01*
X6767Y5640D01*
D02*
G37*
G36*
X3075Y5557D02*
X3067Y5548D01*
X3061Y5539D01*
X3055Y5530D01*
X3051Y5520D01*
X3047Y5510D01*
X3044Y5500D01*
X3042Y5490D01*
X3040Y5479D01*
X3040Y5468D01*
X2960D01*
X2960Y5479D01*
X2958Y5490D01*
X2956Y5500D01*
X2953Y5510D01*
X2949Y5520D01*
X2945Y5530D01*
X2939Y5539D01*
X2933Y5548D01*
X2925Y5557D01*
X2917Y5566D01*
X3083D01*
X3075Y5557D01*
D02*
G37*
G36*
X738Y5432D02*
X728Y5421D01*
X720Y5411D01*
X712Y5401D01*
X706Y5391D01*
X701Y5382D01*
X697Y5372D01*
X694Y5363D01*
X693Y5354D01*
X692Y5345D01*
X693Y5336D01*
X602Y5468D01*
X610Y5464D01*
X618Y5462D01*
X626Y5461D01*
X634Y5462D01*
X643Y5465D01*
X652Y5468D01*
X662Y5474D01*
X672Y5481D01*
X682Y5489D01*
X692Y5499D01*
X738Y5432D01*
D02*
G37*
G36*
X4368Y5487D02*
X4369Y5476D01*
X4371Y5465D01*
X4374Y5454D01*
X4378Y5444D01*
X4382Y5434D01*
X4387Y5425D01*
X4393Y5416D01*
X4399Y5408D01*
X4407Y5400D01*
X4350Y5343D01*
X4342Y5351D01*
X4334Y5357D01*
X4325Y5363D01*
X4316Y5368D01*
X4306Y5372D01*
X4296Y5376D01*
X4285Y5379D01*
X4274Y5381D01*
X4263Y5382D01*
X4251Y5382D01*
X4368Y5499D01*
X4368Y5487D01*
D02*
G37*
G36*
X6442Y5399D02*
X6436Y5396D01*
X6430Y5392D01*
X6424Y5387D01*
X6420Y5380D01*
X6416Y5371D01*
X6414Y5360D01*
X6412Y5348D01*
X6410Y5335D01*
X6410Y5320D01*
X6330D01*
X6330Y5335D01*
X6328Y5348D01*
X6326Y5360D01*
X6324Y5371D01*
X6320Y5380D01*
X6316Y5387D01*
X6310Y5392D01*
X6304Y5396D01*
X6298Y5399D01*
X6290Y5400D01*
X6450D01*
X6442Y5399D01*
D02*
G37*
G36*
X2558Y5449D02*
X2566Y5443D01*
X2575Y5437D01*
X2584Y5432D01*
X2594Y5428D01*
X2604Y5424D01*
X2615Y5421D01*
X2626Y5419D01*
X2637Y5418D01*
X2649Y5418D01*
X2532Y5301D01*
X2532Y5313D01*
X2531Y5324D01*
X2529Y5335D01*
X2526Y5346D01*
X2522Y5356D01*
X2518Y5366D01*
X2513Y5375D01*
X2507Y5384D01*
X2501Y5392D01*
X2493Y5400D01*
X2550Y5457D01*
X2558Y5449D01*
D02*
G37*
G36*
X3425Y5207D02*
X3417Y5198D01*
X3411Y5189D01*
X3405Y5180D01*
X3401Y5170D01*
X3397Y5160D01*
X3394Y5150D01*
X3392Y5140D01*
X3390Y5129D01*
X3390Y5118D01*
X3310D01*
X3310Y5129D01*
X3308Y5140D01*
X3306Y5150D01*
X3303Y5160D01*
X3299Y5170D01*
X3295Y5180D01*
X3289Y5189D01*
X3283Y5198D01*
X3275Y5207D01*
X3267Y5216D01*
X3433D01*
X3425Y5207D01*
D02*
G37*
G36*
X464Y5107D02*
X455Y5108D01*
X446Y5107D01*
X437Y5106D01*
X428Y5103D01*
X418Y5099D01*
X409Y5094D01*
X399Y5088D01*
X389Y5080D01*
X379Y5072D01*
X368Y5062D01*
X301Y5108D01*
X311Y5118D01*
X319Y5128D01*
X326Y5138D01*
X332Y5148D01*
X335Y5157D01*
X338Y5166D01*
X339Y5174D01*
X338Y5182D01*
X336Y5190D01*
X332Y5198D01*
X464Y5107D01*
D02*
G37*
G36*
X6006Y5175D02*
X6015Y5167D01*
X6024Y5161D01*
X6033Y5155D01*
X6043Y5151D01*
X6053Y5147D01*
X6063Y5144D01*
X6073Y5142D01*
X6084Y5140D01*
X6095Y5140D01*
Y5060D01*
X6084Y5060D01*
X6073Y5058D01*
X6063Y5056D01*
X6053Y5053D01*
X6043Y5049D01*
X6033Y5045D01*
X6024Y5039D01*
X6015Y5033D01*
X6006Y5025D01*
X5997Y5017D01*
Y5183D01*
X6006Y5175D01*
D02*
G37*
G36*
X6410Y5062D02*
X6412Y5048D01*
X6414Y5036D01*
X6416Y5025D01*
X6420Y5016D01*
X6424Y5009D01*
X6430Y5003D01*
X6436Y4999D01*
X6442Y4997D01*
X6450Y4996D01*
X6384D01*
X6247Y4909D01*
X6253Y4914D01*
X6256Y4920D01*
X6256Y4928D01*
X6254Y4938D01*
X6250Y4948D01*
X6243Y4960D01*
X6233Y4974D01*
X6221Y4988D01*
X6190Y5022D01*
X6271Y5054D01*
X6287Y5039D01*
X6315Y5015D01*
X6318Y5013D01*
X6320Y5016D01*
X6324Y5025D01*
X6326Y5036D01*
X6328Y5048D01*
X6330Y5062D01*
X6330Y5077D01*
X6410D01*
X6410Y5062D01*
D02*
G37*
G36*
X5891Y4984D02*
X5880Y4985D01*
X5869Y4986D01*
X5859Y4986D01*
X5849Y4984D01*
X5839Y4982D01*
X5829Y4978D01*
X5820Y4974D01*
X5811Y4968D01*
X5803Y4961D01*
X5794Y4954D01*
X5748Y5021D01*
X5756Y5029D01*
X5763Y5037D01*
X5769Y5046D01*
X5774Y5055D01*
X5779Y5065D01*
X5784Y5075D01*
X5788Y5085D01*
X5791Y5096D01*
X5794Y5107D01*
X5796Y5119D01*
X5891Y4984D01*
D02*
G37*
G36*
X5712Y4871D02*
X5700Y4859D01*
X5681Y4835D01*
X5673Y4824D01*
X5667Y4812D01*
X5662Y4801D01*
X5658Y4790D01*
X5655Y4779D01*
X5654Y4768D01*
X5654Y4758D01*
X5641Y4971D01*
X5643Y4961D01*
X5645Y4954D01*
X5649Y4950D01*
X5654Y4947D01*
X5661Y4947D01*
X5668Y4950D01*
X5677Y4955D01*
X5687Y4962D01*
X5699Y4972D01*
X5712Y4984D01*
Y4871D01*
D02*
G37*
G36*
X3380Y4813D02*
X3322Y4871D01*
X3378Y4928D01*
X3379Y4928D01*
X3379Y4928D01*
X3379Y4928D01*
X3380Y4927D01*
X3380Y4927D01*
X3380Y4928D01*
X3380Y4928D01*
X3380Y4928D01*
X3380Y4929D01*
X3380Y4929D01*
Y4813D01*
D02*
G37*
G36*
X1862Y4903D02*
X1856Y4901D01*
X1850Y4897D01*
X1844Y4891D01*
X1840Y4884D01*
X1836Y4875D01*
X1834Y4864D01*
X1832Y4852D01*
X1830Y4838D01*
X1830Y4823D01*
X1750D01*
X1750Y4838D01*
X1748Y4852D01*
X1746Y4864D01*
X1744Y4875D01*
X1740Y4884D01*
X1736Y4891D01*
X1730Y4897D01*
X1724Y4901D01*
X1718Y4903D01*
X1710Y4904D01*
X1870D01*
X1862Y4903D01*
D02*
G37*
G36*
X8213Y4824D02*
X8208Y4818D01*
X8204Y4811D01*
X8200Y4804D01*
X8197Y4796D01*
X8195Y4788D01*
X8193Y4779D01*
X8191Y4770D01*
X8190Y4761D01*
X8190Y4751D01*
X8110D01*
X8110Y4761D01*
X8109Y4770D01*
X8107Y4779D01*
X8105Y4788D01*
X8103Y4796D01*
X8100Y4804D01*
X8096Y4811D01*
X8092Y4818D01*
X8087Y4824D01*
X8081Y4830D01*
X8219D01*
X8213Y4824D01*
D02*
G37*
G36*
X7316Y4687D02*
X7306Y4689D01*
X7296Y4691D01*
X7286Y4691D01*
X7276Y4690D01*
X7266Y4688D01*
X7257Y4685D01*
X7248Y4681D01*
X7239Y4676D01*
X7230Y4669D01*
X7222Y4661D01*
X7183Y4735D01*
X7190Y4743D01*
X7197Y4751D01*
X7203Y4760D01*
X7209Y4769D01*
X7215Y4778D01*
X7220Y4788D01*
X7229Y4809D01*
X7233Y4820D01*
X7236Y4831D01*
X7316Y4687D01*
D02*
G37*
G36*
X7863Y4724D02*
X7858Y4717D01*
X7854Y4711D01*
X7850Y4704D01*
X7847Y4696D01*
X7845Y4688D01*
X7843Y4679D01*
X7841Y4670D01*
X7840Y4661D01*
X7840Y4651D01*
X7760D01*
X7760Y4661D01*
X7759Y4670D01*
X7757Y4679D01*
X7755Y4688D01*
X7753Y4696D01*
X7750Y4704D01*
X7746Y4711D01*
X7742Y4717D01*
X7737Y4724D01*
X7731Y4730D01*
X7869D01*
X7863Y4724D01*
D02*
G37*
G36*
X3199Y4661D02*
X3201Y4647D01*
X3203Y4635D01*
X3205Y4624D01*
X3209Y4615D01*
X3213Y4608D01*
X3219Y4602D01*
X3225Y4598D01*
X3231Y4596D01*
X3239Y4595D01*
X3079D01*
X3087Y4596D01*
X3093Y4598D01*
X3099Y4602D01*
X3105Y4608D01*
X3109Y4615D01*
X3113Y4624D01*
X3115Y4635D01*
X3117Y4647D01*
X3119Y4661D01*
X3119Y4676D01*
X3199D01*
X3199Y4661D01*
D02*
G37*
G36*
X5161Y4586D02*
X5180Y4582D01*
X5207Y4573D01*
X5217Y4548D01*
X5222Y4529D01*
X5222Y4527D01*
X5226Y4514D01*
X5229Y4499D01*
X5232Y4495D01*
X5233Y4489D01*
X5243Y4478D01*
X5251Y4466D01*
X5255Y4463D01*
X5259Y4459D01*
X5260Y4458D01*
Y4403D01*
X4517Y3660D01*
X4323Y3854D01*
X4277Y3885D01*
X4222Y3896D01*
X4222Y3896D01*
X3517D01*
X3516Y3897D01*
X3512Y3901D01*
X3509Y3905D01*
X3497Y3913D01*
X3486Y3923D01*
X3480Y3924D01*
X3476Y3927D01*
X3461Y3930D01*
X3448Y3934D01*
X3446Y3934D01*
X3429Y3939D01*
X3402Y3949D01*
X3393Y3976D01*
X3389Y3995D01*
X3364Y4033D01*
Y4064D01*
X3389Y4102D01*
X3398Y4147D01*
X3389Y4192D01*
X3364Y4230D01*
Y4261D01*
X3389Y4299D01*
X3398Y4344D01*
X3389Y4389D01*
X3364Y4427D01*
Y4458D01*
X3389Y4496D01*
X3398Y4541D01*
X3398Y4541D01*
X3434Y4577D01*
X3434Y4577D01*
X3479Y4586D01*
X3517Y4611D01*
X3548D01*
X3586Y4586D01*
X3631Y4577D01*
X3676Y4586D01*
X3714Y4611D01*
X3745D01*
X3783Y4586D01*
X3828Y4577D01*
X3873Y4586D01*
X3911Y4611D01*
X3942D01*
X3980Y4586D01*
X4025Y4577D01*
X4070Y4586D01*
X4108Y4611D01*
X4139D01*
X4177Y4586D01*
X4222Y4577D01*
X4267Y4586D01*
X4305Y4611D01*
X4336D01*
X4374Y4586D01*
X4419Y4577D01*
X4464Y4586D01*
X4502Y4611D01*
X4532D01*
X4570Y4586D01*
X4615Y4577D01*
X4660Y4586D01*
X4698Y4611D01*
X4729D01*
X4767Y4586D01*
X4812Y4577D01*
X4857Y4586D01*
X4895Y4611D01*
X4926D01*
X4964Y4586D01*
X5009Y4577D01*
X5054Y4586D01*
X5092Y4611D01*
X5123D01*
X5161Y4586D01*
D02*
G37*
G36*
X778Y4634D02*
X782Y4639D01*
X867Y4610D01*
X863Y4606D01*
X860Y4602D01*
X857Y4597D01*
X854Y4592D01*
X852Y4586D01*
X850Y4581D01*
X849Y4574D01*
X848Y4568D01*
X848Y4564D01*
X855Y4557D01*
X849Y4558D01*
X847Y4558D01*
X847Y4554D01*
X821D01*
X821Y4553D01*
X813Y4550D01*
X805Y4545D01*
X797Y4539D01*
X789Y4532D01*
X780Y4523D01*
X750Y4554D01*
X650D01*
X660Y4555D01*
X670Y4557D01*
X682Y4561D01*
X694Y4567D01*
X707Y4575D01*
X720Y4584D01*
X735Y4595D01*
X743Y4603D01*
X745Y4605D01*
X750Y4613D01*
X753Y4620D01*
X756Y4628D01*
X758Y4635D01*
X759Y4642D01*
X758Y4649D01*
X757Y4655D01*
X778Y4634D01*
D02*
G37*
G36*
X1830Y4614D02*
X1832Y4600D01*
X1834Y4588D01*
X1836Y4578D01*
X1840Y4569D01*
X1844Y4562D01*
X1850Y4556D01*
X1856Y4552D01*
X1862Y4550D01*
X1870Y4549D01*
X1710D01*
X1718Y4550D01*
X1724Y4552D01*
X1730Y4556D01*
X1736Y4562D01*
X1740Y4569D01*
X1744Y4578D01*
X1746Y4588D01*
X1748Y4600D01*
X1750Y4614D01*
X1750Y4629D01*
X1830D01*
X1830Y4614D01*
D02*
G37*
G36*
X5452Y4669D02*
X5450Y4664D01*
X5448Y4657D01*
X5447Y4650D01*
X5445Y4631D01*
X5443Y4606D01*
X5443Y4604D01*
X5445Y4590D01*
X5447Y4578D01*
X5449Y4568D01*
X5453Y4559D01*
X5457Y4551D01*
X5463Y4546D01*
X5469Y4542D01*
X5475Y4539D01*
X5483Y4538D01*
X5323D01*
X5331Y4539D01*
X5337Y4542D01*
X5343Y4546D01*
X5349Y4551D01*
X5353Y4559D01*
X5357Y4568D01*
X5359Y4578D01*
X5361Y4590D01*
X5362Y4601D01*
X5359Y4650D01*
X5358Y4657D01*
X5356Y4664D01*
X5354Y4669D01*
X5352Y4673D01*
X5454D01*
X5452Y4669D01*
D02*
G37*
G36*
X1181Y4351D02*
X1180Y4359D01*
X1178Y4365D01*
X1174Y4371D01*
X1168Y4376D01*
X1161Y4380D01*
X1152Y4384D01*
X1142Y4387D01*
X1130Y4388D01*
X1116Y4390D01*
X1101Y4390D01*
Y4470D01*
X1117Y4470D01*
X1130Y4472D01*
X1142Y4474D01*
X1153Y4476D01*
X1162Y4480D01*
X1169Y4484D01*
X1175Y4490D01*
X1179Y4496D01*
X1182Y4502D01*
X1182Y4510D01*
X1181Y4351D01*
D02*
G37*
G36*
X847Y4502D02*
X849Y4496D01*
X853Y4490D01*
X859Y4484D01*
X866Y4480D01*
X875Y4476D01*
X886Y4474D01*
X898Y4472D01*
X912Y4470D01*
X927Y4470D01*
Y4390D01*
X912Y4390D01*
X898Y4388D01*
X886Y4386D01*
X875Y4384D01*
X866Y4380D01*
X859Y4376D01*
X853Y4370D01*
X849Y4364D01*
X847Y4358D01*
X846Y4350D01*
Y4510D01*
X847Y4502D01*
D02*
G37*
G36*
X7314Y4473D02*
X7322Y4466D01*
X7331Y4460D01*
X7340Y4455D01*
X7350Y4451D01*
X7360Y4448D01*
X7371Y4445D01*
X7382Y4444D01*
X7393Y4443D01*
X7405Y4443D01*
X7292Y4322D01*
X7291Y4334D01*
X7290Y4345D01*
X7287Y4356D01*
X7284Y4367D01*
X7281Y4377D01*
X7276Y4387D01*
X7271Y4396D01*
X7265Y4405D01*
X7258Y4413D01*
X7251Y4421D01*
X7305Y4480D01*
X7314Y4473D01*
D02*
G37*
G36*
X1912Y4430D02*
X1909Y4423D01*
X1908Y4416D01*
X1910Y4407D01*
X1914Y4396D01*
X1922Y4384D01*
X1931Y4370D01*
X1943Y4355D01*
X1975Y4321D01*
X1889Y4295D01*
X1874Y4309D01*
X1846Y4333D01*
X1833Y4341D01*
X1822Y4348D01*
X1811Y4353D01*
X1801Y4356D01*
X1791Y4357D01*
X1783Y4355D01*
X1776Y4352D01*
X1918Y4434D01*
X1912Y4430D01*
D02*
G37*
G36*
X1595Y5162D02*
X1595D01*
Y4842D01*
X1630D01*
X1631Y4840D01*
X1635Y4836D01*
X1638Y4832D01*
X1647Y4826D01*
Y4627D01*
X1638Y4621D01*
X1635Y4616D01*
X1631Y4613D01*
X1629Y4610D01*
X1600D01*
Y4290D01*
X1697D01*
X1703Y4280D01*
X1709Y4277D01*
X1714Y4272D01*
X1725Y4266D01*
X1736Y4258D01*
X1743Y4257D01*
X1749Y4254D01*
X1762Y4253D01*
X1775Y4250D01*
X1782Y4252D01*
X1784Y4252D01*
X1784Y4251D01*
X1801Y4237D01*
X1927Y4111D01*
Y4058D01*
X1595D01*
Y3738D01*
X1619D01*
X1621Y3735D01*
X1625Y3732D01*
X1628Y3728D01*
X1637Y3721D01*
Y3669D01*
X1543Y3575D01*
X1541Y3573D01*
X1535Y3569D01*
X1530Y3565D01*
X1525Y3563D01*
X1522Y3561D01*
X1519Y3560D01*
X1517Y3560D01*
X1516Y3560D01*
X1509Y3559D01*
X1492Y3555D01*
X1475Y3552D01*
X1473Y3550D01*
X1471Y3550D01*
X1457Y3539D01*
X1442Y3530D01*
X1441Y3527D01*
X1439Y3526D01*
X1434Y3519D01*
X1136D01*
Y3519D01*
X1099Y3503D01*
X897Y3705D01*
X904Y3756D01*
X905Y3756D01*
X1119D01*
X1125Y3746D01*
X1130Y3743D01*
X1133Y3739D01*
X1146Y3732D01*
X1158Y3724D01*
X1164Y3723D01*
X1169Y3721D01*
X1183Y3719D01*
X1197Y3716D01*
X1203Y3718D01*
X1208Y3717D01*
X1222Y3721D01*
X1236Y3724D01*
X1241Y3727D01*
X1246Y3729D01*
X1257Y3738D01*
X1269Y3746D01*
X1273Y3751D01*
X1277Y3754D01*
X1277Y3756D01*
X1320D01*
X1375Y3767D01*
X1421Y3798D01*
X1452Y3844D01*
X1463Y3898D01*
X1452Y3953D01*
X1421Y3999D01*
X1375Y4030D01*
X1320Y4041D01*
X1277D01*
X1277Y4042D01*
X1273Y4046D01*
X1269Y4051D01*
X1257Y4059D01*
X1246Y4068D01*
X1241Y4070D01*
X1236Y4073D01*
X1222Y4075D01*
X1208Y4080D01*
X1203Y4079D01*
X1197Y4080D01*
X1183Y4078D01*
X1169Y4076D01*
X1164Y4074D01*
X1158Y4073D01*
X1146Y4065D01*
X1133Y4058D01*
X1130Y4054D01*
X1125Y4051D01*
X1119Y4041D01*
X924D01*
X917Y4051D01*
X913Y4054D01*
X909Y4058D01*
X896Y4065D01*
X884Y4073D01*
X879Y4074D01*
X874Y4076D01*
X859Y4078D01*
X845Y4080D01*
X840Y4079D01*
X836Y4080D01*
X803Y4102D01*
X748Y4113D01*
X694Y4102D01*
X648Y4071D01*
X643Y4064D01*
X593Y4079D01*
Y4245D01*
X908D01*
Y4270D01*
X910Y4271D01*
X914Y4275D01*
X918Y4278D01*
X924Y4287D01*
X1104D01*
X1109Y4280D01*
X1113Y4276D01*
X1117Y4272D01*
X1130Y4265D01*
X1141Y4257D01*
X1147Y4256D01*
X1153Y4253D01*
X1167Y4252D01*
X1180Y4249D01*
X1186Y4250D01*
X1192Y4250D01*
X1206Y4254D01*
X1220Y4257D01*
X1224Y4260D01*
X1230Y4262D01*
X1241Y4271D01*
X1253Y4279D01*
X1256Y4283D01*
X1261Y4287D01*
X1290D01*
X1290Y4287D01*
X1304Y4290D01*
X1500D01*
Y4610D01*
X1198D01*
X1194Y4611D01*
X1189Y4611D01*
X1183Y4612D01*
X1144Y4646D01*
X1155Y4700D01*
X1135Y4798D01*
X1080Y4880D01*
X998Y4936D01*
X923Y4950D01*
X905Y5003D01*
X1109Y5207D01*
X1585D01*
X1595Y5162D01*
D02*
G37*
G36*
X11526Y4413D02*
X11532Y4408D01*
X11539Y4404D01*
X11546Y4400D01*
X11554Y4397D01*
X11562Y4395D01*
X11571Y4393D01*
X11580Y4391D01*
X11589Y4390D01*
X11599Y4390D01*
Y4310D01*
X11589Y4310D01*
X11580Y4309D01*
X11571Y4307D01*
X11562Y4305D01*
X11554Y4303D01*
X11546Y4300D01*
X11539Y4296D01*
X11532Y4292D01*
X11526Y4287D01*
X11520Y4281D01*
Y4419D01*
X11526Y4413D01*
D02*
G37*
G36*
X6918Y4066D02*
X6910Y4074D01*
X6901Y4082D01*
X6893Y4088D01*
X6884Y4094D01*
X6874Y4099D01*
X6865Y4103D01*
X6854Y4106D01*
X6844Y4108D01*
X6833Y4110D01*
X6822Y4110D01*
X6827Y4190D01*
X6838Y4190D01*
X6848Y4192D01*
X6859Y4194D01*
X6869Y4197D01*
X6879Y4200D01*
X6889Y4205D01*
X6899Y4210D01*
X6908Y4216D01*
X6917Y4223D01*
X6926Y4231D01*
X6918Y4066D01*
D02*
G37*
G36*
X9693Y4118D02*
X9691Y4111D01*
X9691Y4103D01*
X9694Y4093D01*
X9698Y4082D01*
X9705Y4070D01*
X9714Y4057D01*
X9726Y4043D01*
X9755Y4011D01*
X9699Y3955D01*
X9682Y3971D01*
X9653Y3996D01*
X9640Y4005D01*
X9628Y4012D01*
X9617Y4016D01*
X9607Y4019D01*
X9599Y4019D01*
X9592Y4017D01*
X9586Y4012D01*
X9698Y4124D01*
X9693Y4118D01*
D02*
G37*
G36*
X847Y3971D02*
X849Y3964D01*
X853Y3958D01*
X859Y3953D01*
X867Y3948D01*
X875Y3945D01*
X886Y3942D01*
X898Y3940D01*
X912Y3939D01*
X927Y3938D01*
Y3858D01*
X912Y3858D01*
X867Y3855D01*
X860Y3854D01*
X854Y3852D01*
X850Y3851D01*
X848Y3849D01*
X847Y3846D01*
X846Y3978D01*
X847Y3971D01*
D02*
G37*
G36*
X12665Y3908D02*
X12690Y3888D01*
X12702Y3880D01*
X12714Y3873D01*
X12725Y3868D01*
X12736Y3865D01*
X12746Y3863D01*
X12756Y3862D01*
X12766Y3863D01*
X12575Y3829D01*
X12584Y3831D01*
X12590Y3835D01*
X12593Y3840D01*
X12594Y3846D01*
X12593Y3853D01*
X12589Y3862D01*
X12583Y3872D01*
X12574Y3884D01*
X12563Y3896D01*
X12550Y3910D01*
X12652Y3921D01*
X12665Y3908D01*
D02*
G37*
G36*
X1197Y3818D02*
X1197Y3826D01*
X1194Y3833D01*
X1190Y3839D01*
X1184Y3844D01*
X1177Y3848D01*
X1168Y3852D01*
X1158Y3855D01*
X1145Y3857D01*
X1132Y3858D01*
X1116Y3858D01*
Y3938D01*
X1132Y3939D01*
X1145Y3940D01*
X1158Y3942D01*
X1168Y3945D01*
X1177Y3948D01*
X1184Y3953D01*
X1190Y3958D01*
X1194Y3964D01*
X1197Y3971D01*
X1197Y3978D01*
Y3818D01*
D02*
G37*
G36*
X3437Y3673D02*
X3436Y3681D01*
X3433Y3687D01*
X3429Y3693D01*
X3424Y3699D01*
X3416Y3703D01*
X3407Y3707D01*
X3397Y3709D01*
X3385Y3711D01*
X3374Y3712D01*
X3325Y3709D01*
X3317Y3708D01*
X3311Y3706D01*
X3306Y3704D01*
X3302Y3702D01*
Y3804D01*
X3306Y3802D01*
X3311Y3800D01*
X3317Y3798D01*
X3325Y3797D01*
X3344Y3795D01*
X3369Y3793D01*
X3371Y3793D01*
X3371D01*
X3385Y3795D01*
X3397Y3797D01*
X3407Y3799D01*
X3416Y3803D01*
X3424Y3807D01*
X3429Y3813D01*
X3433Y3819D01*
X3436Y3825D01*
X3437Y3833D01*
Y3673D01*
D02*
G37*
G36*
X10735Y3933D02*
X10745Y3927D01*
X10754Y3921D01*
X10764Y3916D01*
X10774Y3911D01*
X10785Y3908D01*
X10795Y3905D01*
X10806Y3903D01*
X10816Y3902D01*
X10827Y3902D01*
X10836Y3822D01*
X10824Y3821D01*
X10814Y3820D01*
X10803Y3817D01*
X10793Y3814D01*
X10784Y3810D01*
X10775Y3805D01*
X10766Y3799D01*
X10758Y3792D01*
X10750Y3785D01*
X10742Y3776D01*
X10726Y3941D01*
X10735Y3933D01*
D02*
G37*
G36*
X821Y3847D02*
X814Y3844D01*
X808Y3840D01*
X803Y3834D01*
X798Y3827D01*
X795Y3818D01*
X792Y3808D01*
X790Y3795D01*
X789Y3782D01*
X788Y3766D01*
X708D01*
X708Y3782D01*
X707Y3795D01*
X705Y3808D01*
X702Y3818D01*
X698Y3827D01*
X694Y3834D01*
X689Y3840D01*
X683Y3844D01*
X676Y3847D01*
X668Y3847D01*
X828D01*
X821Y3847D01*
D02*
G37*
G36*
X1852Y3799D02*
X1846Y3796D01*
X1840Y3792D01*
X1834Y3787D01*
X1830Y3780D01*
X1826Y3771D01*
X1824Y3760D01*
X1822Y3748D01*
X1820Y3735D01*
X1820Y3720D01*
X1740D01*
X1740Y3735D01*
X1738Y3748D01*
X1736Y3760D01*
X1734Y3771D01*
X1730Y3780D01*
X1726Y3787D01*
X1720Y3792D01*
X1714Y3796D01*
X1708Y3799D01*
X1700Y3800D01*
X1860D01*
X1852Y3799D01*
D02*
G37*
G36*
X12780Y3794D02*
X12787Y3787D01*
X12795Y3782D01*
X12802Y3778D01*
X12810Y3774D01*
X12817Y3771D01*
X12825Y3768D01*
X12833Y3766D01*
X12841Y3765D01*
X12849Y3765D01*
X12752Y3668D01*
X12751Y3676D01*
X12750Y3684D01*
X12749Y3691D01*
X12746Y3699D01*
X12743Y3707D01*
X12739Y3714D01*
X12735Y3722D01*
X12729Y3729D01*
X12723Y3737D01*
X12716Y3744D01*
X12773Y3800D01*
X12780Y3794D01*
D02*
G37*
G36*
X9698Y3762D02*
X9701Y3756D01*
X9705Y3750D01*
X9711Y3744D01*
X9718Y3740D01*
X9727Y3736D01*
X9737Y3734D01*
X9750Y3732D01*
X9763Y3730D01*
X9779Y3730D01*
Y3650D01*
X9763Y3650D01*
X9750Y3648D01*
X9737Y3646D01*
X9727Y3644D01*
X9718Y3640D01*
X9711Y3636D01*
X9705Y3630D01*
X9701Y3624D01*
X9698Y3618D01*
X9698Y3610D01*
Y3770D01*
X9698Y3762D01*
D02*
G37*
G36*
X4315Y3458D02*
X3530Y2673D01*
X3499Y2627D01*
X3488Y2572D01*
X3488Y2572D01*
Y2458D01*
X3487Y2457D01*
X3483Y2453D01*
X3479Y2450D01*
X3471Y2438D01*
X3461Y2427D01*
X3434Y2412D01*
X3409Y2406D01*
X3404Y2406D01*
X3391Y2412D01*
X3389Y2420D01*
X3364Y2458D01*
Y2489D01*
X3389Y2527D01*
X3398Y2572D01*
X3389Y2617D01*
X3364Y2655D01*
Y2686D01*
X3389Y2724D01*
X3398Y2769D01*
X3389Y2814D01*
X3364Y2852D01*
Y2883D01*
X3389Y2921D01*
X3398Y2966D01*
X3389Y3011D01*
X3364Y3049D01*
Y3080D01*
X3389Y3118D01*
X3398Y3163D01*
X3389Y3208D01*
X3364Y3246D01*
Y3277D01*
X3389Y3315D01*
X3398Y3360D01*
X3389Y3405D01*
X3378Y3422D01*
X3368Y3458D01*
X3378Y3494D01*
X3389Y3511D01*
X3393Y3530D01*
X3402Y3557D01*
X3429Y3567D01*
X3446Y3572D01*
X3448Y3572D01*
X3461Y3576D01*
X3476Y3579D01*
X3480Y3582D01*
X3486Y3583D01*
X3497Y3593D01*
X3509Y3601D01*
X3512Y3605D01*
X3516Y3609D01*
X3517Y3610D01*
X4163D01*
X4315Y3458D01*
D02*
G37*
G36*
X9501Y3531D02*
X9501Y3540D01*
X9499Y3547D01*
X9496Y3552D01*
X9492Y3555D01*
X9487Y3555D01*
X9481Y3553D01*
X9473Y3550D01*
X9465Y3544D01*
X9455Y3535D01*
X9445Y3525D01*
Y3638D01*
X9455Y3650D01*
X9465Y3661D01*
X9473Y3672D01*
X9481Y3684D01*
X9487Y3695D01*
X9492Y3706D01*
X9496Y3718D01*
X9499Y3729D01*
X9501Y3740D01*
X9501Y3752D01*
Y3531D01*
D02*
G37*
G36*
X1730Y3503D02*
X1723Y3494D01*
X1717Y3485D01*
X1714Y3478D01*
X1712Y3472D01*
X1714Y3467D01*
X1717Y3463D01*
X1723Y3460D01*
X1730Y3458D01*
X1741Y3458D01*
X1514D01*
X1526Y3458D01*
X1537Y3460D01*
X1548Y3463D01*
X1560Y3467D01*
X1571Y3472D01*
X1582Y3478D01*
X1594Y3485D01*
X1605Y3494D01*
X1616Y3503D01*
X1628Y3514D01*
X1741D01*
X1730Y3503D01*
D02*
G37*
G36*
X10513Y3385D02*
X10488Y3339D01*
X10421Y3348D01*
X10338Y3337D01*
X10261Y3305D01*
X10195Y3255D01*
X10145Y3189D01*
X10113Y3112D01*
X10102Y3029D01*
X10113Y2946D01*
X10145Y2869D01*
X10165Y2843D01*
X10140Y2793D01*
X9776D01*
X9770Y2802D01*
X9765Y2805D01*
X9762Y2809D01*
X9749Y2816D01*
X9737Y2824D01*
X9731Y2825D01*
X9726Y2828D01*
X9712Y2829D01*
X9698Y2832D01*
X9692Y2831D01*
X9687Y2831D01*
X9673Y2827D01*
X9659Y2824D01*
X9654Y2821D01*
X9649Y2820D01*
X9638Y2810D01*
X9625Y2802D01*
X9624Y2800D01*
X9621D01*
X9617Y2802D01*
X9591Y2850D01*
X9594Y2854D01*
X9601Y2861D01*
X9606Y2863D01*
X9614Y2864D01*
X9625Y2869D01*
X9636Y2873D01*
X9642Y2879D01*
X9649Y2883D01*
X9657Y2892D01*
X9665Y2899D01*
X9666Y2900D01*
X9760D01*
Y3280D01*
X9440D01*
Y3184D01*
X9432Y3179D01*
X9427Y3172D01*
X9420Y3166D01*
X9415Y3156D01*
X9409Y3147D01*
X9407Y3138D01*
X9403Y3130D01*
X9402Y3119D01*
X9399Y3108D01*
X9401Y3100D01*
X9399Y3097D01*
X9364Y3056D01*
X9251Y2943D01*
X8763D01*
X8751Y2957D01*
X8775Y3007D01*
X9013D01*
X9013Y3007D01*
X9067Y3018D01*
X9114Y3049D01*
X9495Y3430D01*
X9501Y3429D01*
X9504Y3430D01*
X9508Y3429D01*
X9524Y3434D01*
X9540Y3437D01*
X9543Y3439D01*
X9546Y3440D01*
X9559Y3450D01*
X9573Y3459D01*
X9575Y3462D01*
X9578Y3464D01*
X9581Y3470D01*
X9760D01*
Y3530D01*
X9762Y3531D01*
X9765Y3535D01*
X9770Y3538D01*
X9776Y3547D01*
X10351D01*
X10513Y3385D01*
D02*
G37*
G36*
X1903Y3432D02*
X1905Y3426D01*
X1909Y3420D01*
X1915Y3414D01*
X1922Y3410D01*
X1931Y3406D01*
X1942Y3404D01*
X1954Y3402D01*
X1968Y3400D01*
X1983Y3400D01*
Y3320D01*
X1968Y3320D01*
X1932Y3317D01*
X1923Y3316D01*
X1916Y3314D01*
X1910Y3311D01*
X1906Y3309D01*
X1904Y3306D01*
X1903Y3302D01*
X1902Y3440D01*
X1903Y3432D01*
D02*
G37*
G36*
X9584Y2961D02*
X9579Y2967D01*
X9573Y2970D01*
X9565Y2971D01*
X9556Y2969D01*
X9546Y2965D01*
X9534Y2958D01*
X9520Y2949D01*
X9505Y2936D01*
X9471Y2905D01*
X9416Y2963D01*
X9436Y2983D01*
X9481Y3036D01*
X9490Y3051D01*
X9498Y3065D01*
X9502Y3077D01*
X9504Y3087D01*
X9504Y3096D01*
X9501Y3104D01*
X9584Y2961D01*
D02*
G37*
G36*
X841Y2939D02*
X834Y2930D01*
X828Y2921D01*
X822Y2912D01*
X817Y2902D01*
X814Y2892D01*
X811Y2882D01*
X808Y2871D01*
X807Y2861D01*
X807Y2850D01*
X727D01*
X726Y2861D01*
X725Y2871D01*
X723Y2882D01*
X720Y2892D01*
X716Y2902D01*
X711Y2912D01*
X706Y2921D01*
X699Y2930D01*
X692Y2939D01*
X684Y2947D01*
X849D01*
X841Y2939D01*
D02*
G37*
G36*
X807Y2818D02*
X808Y2805D01*
X810Y2792D01*
X813Y2782D01*
X817Y2773D01*
X821Y2766D01*
X826Y2760D01*
X832Y2756D01*
X839Y2753D01*
X847Y2753D01*
X687D01*
X694Y2753D01*
X701Y2756D01*
X707Y2760D01*
X712Y2766D01*
X717Y2773D01*
X720Y2782D01*
X723Y2792D01*
X725Y2805D01*
X726Y2818D01*
X727Y2834D01*
X807D01*
X807Y2818D01*
D02*
G37*
G36*
X5621Y4516D02*
X5644Y4497D01*
X5644Y4496D01*
X5670Y4458D01*
Y4427D01*
X5644Y4389D01*
X5636Y4344D01*
X5644Y4299D01*
X5670Y4261D01*
Y4230D01*
X5644Y4192D01*
X5636Y4147D01*
X5644Y4102D01*
X5670Y4064D01*
Y4033D01*
X5644Y3995D01*
X5636Y3950D01*
X5644Y3905D01*
X5670Y3867D01*
Y3836D01*
X5644Y3798D01*
X5636Y3753D01*
X5644Y3708D01*
X5670Y3670D01*
Y3639D01*
X5644Y3601D01*
X5636Y3556D01*
X5644Y3511D01*
X5656Y3494D01*
X5666Y3458D01*
X5656Y3422D01*
X5644Y3405D01*
X5636Y3360D01*
X5644Y3315D01*
X5670Y3277D01*
Y3246D01*
X5644Y3208D01*
X5636Y3163D01*
X5644Y3118D01*
X5670Y3080D01*
Y3049D01*
X5644Y3011D01*
X5636Y2966D01*
X5644Y2921D01*
X5670Y2883D01*
Y2852D01*
X5644Y2814D01*
X5641Y2795D01*
X5633Y2768D01*
X5588Y2753D01*
X5574Y2749D01*
X5559Y2746D01*
X5555Y2743D01*
X5550Y2742D01*
X5545Y2737D01*
X5531Y2735D01*
X5512Y2732D01*
X5511Y2731D01*
X5510Y2731D01*
X5507Y2729D01*
X5501Y2728D01*
X5471Y2732D01*
X5448Y2744D01*
X5446Y2749D01*
X5442Y2753D01*
X5440Y2757D01*
X5429Y2767D01*
X5418Y2777D01*
X5413Y2779D01*
X5410Y2782D01*
X5377Y2800D01*
X4719Y3458D01*
X5504Y4243D01*
X5504Y4243D01*
X5535Y4289D01*
X5546Y4344D01*
Y4458D01*
X5547Y4459D01*
X5551Y4463D01*
X5555Y4466D01*
X5563Y4478D01*
X5573Y4489D01*
X5574Y4495D01*
X5577Y4499D01*
X5580Y4514D01*
X5580Y4514D01*
X5599Y4523D01*
X5621Y4516D01*
D02*
G37*
G36*
X8651Y2875D02*
X8660Y2867D01*
X8669Y2861D01*
X8678Y2855D01*
X8688Y2851D01*
X8698Y2847D01*
X8708Y2844D01*
X8718Y2842D01*
X8729Y2840D01*
X8740Y2840D01*
Y2760D01*
X8729Y2760D01*
X8718Y2758D01*
X8708Y2756D01*
X8698Y2753D01*
X8688Y2749D01*
X8678Y2745D01*
X8669Y2739D01*
X8660Y2733D01*
X8651Y2725D01*
X8642Y2717D01*
Y2883D01*
X8651Y2875D01*
D02*
G37*
G36*
X8474Y2717D02*
X8465Y2725D01*
X8456Y2733D01*
X8447Y2739D01*
X8438Y2745D01*
X8428Y2749D01*
X8419Y2753D01*
X8408Y2756D01*
X8398Y2758D01*
X8387Y2760D01*
X8376Y2760D01*
Y2840D01*
X8387Y2840D01*
X8398Y2842D01*
X8408Y2844D01*
X8419Y2847D01*
X8428Y2851D01*
X8438Y2855D01*
X8447Y2861D01*
X8456Y2867D01*
X8465Y2875D01*
X8474Y2883D01*
Y2717D01*
D02*
G37*
G36*
X5599Y2644D02*
X5602Y2638D01*
X5606Y2632D01*
X5611Y2626D01*
X5618Y2622D01*
X5627Y2618D01*
X5638Y2616D01*
X5650Y2614D01*
X5660Y2613D01*
X5709Y2616D01*
X5716Y2617D01*
X5723Y2619D01*
X5728Y2621D01*
X5732Y2623D01*
Y2521D01*
X5728Y2523D01*
X5723Y2525D01*
X5716Y2527D01*
X5709Y2528D01*
X5689Y2530D01*
X5665Y2532D01*
X5663Y2532D01*
X5650Y2530D01*
X5638Y2528D01*
X5627Y2526D01*
X5618Y2522D01*
X5611Y2518D01*
X5606Y2512D01*
X5602Y2506D01*
X5599Y2500D01*
X5598Y2492D01*
Y2608D01*
X5569Y2532D01*
X5457Y2552D01*
X5547Y2636D01*
X5547Y2632D01*
X5548Y2628D01*
X5551Y2624D01*
X5554Y2621D01*
X5559Y2618D01*
X5565Y2616D01*
X5572Y2614D01*
X5580Y2613D01*
X5589Y2612D01*
X5598Y2612D01*
Y2652D01*
X5599Y2644D01*
D02*
G37*
G36*
X5361Y2692D02*
X5384Y2577D01*
X5287Y2632D01*
X5313Y2718D01*
X5361Y2692D01*
D02*
G37*
G36*
X9698Y2722D02*
X9701Y2716D01*
X9705Y2710D01*
X9711Y2704D01*
X9718Y2700D01*
X9727Y2696D01*
X9737Y2694D01*
X9750Y2692D01*
X9763Y2690D01*
X9779Y2690D01*
Y2610D01*
X9763Y2610D01*
X9750Y2608D01*
X9737Y2606D01*
X9727Y2604D01*
X9718Y2600D01*
X9711Y2596D01*
X9705Y2590D01*
X9701Y2584D01*
X9698Y2578D01*
X9698Y2570D01*
Y2730D01*
X9698Y2722D01*
D02*
G37*
G36*
X6496Y2600D02*
X6497Y2492D01*
X6497Y2500D01*
X6494Y2506D01*
X6490Y2512D01*
X6484Y2518D01*
X6477Y2522D01*
X6468Y2526D01*
X6457Y2528D01*
X6445Y2530D01*
X6432Y2532D01*
X6416Y2532D01*
Y2612D01*
X6496Y2600D01*
D02*
G37*
G36*
X1960Y2498D02*
X1944Y2481D01*
X1919Y2452D01*
X1910Y2439D01*
X1903Y2427D01*
X1899Y2416D01*
X1896Y2406D01*
Y2398D01*
X1899Y2391D01*
X1903Y2384D01*
X1790Y2498D01*
X1796Y2493D01*
X1804Y2491D01*
X1812D01*
X1822Y2493D01*
X1832Y2498D01*
X1844Y2504D01*
X1857Y2513D01*
X1871Y2525D01*
X1903Y2554D01*
X1960Y2498D01*
D02*
G37*
G36*
X7203Y2574D02*
X7206Y2567D01*
X7210Y2561D01*
X7216Y2556D01*
X7223Y2552D01*
X7232Y2548D01*
X7242Y2545D01*
X7255Y2543D01*
X7268Y2542D01*
X7284Y2542D01*
Y2462D01*
X7268Y2461D01*
X7255Y2460D01*
X7242Y2458D01*
X7232Y2455D01*
X7223Y2452D01*
X7216Y2447D01*
X7210Y2442D01*
X7206Y2436D01*
X7203Y2429D01*
X7203Y2422D01*
Y2582D01*
X7203Y2574D01*
D02*
G37*
G36*
X7069Y2404D02*
X7063Y2408D01*
X7056Y2411D01*
X7048Y2410D01*
X7038Y2408D01*
X7027Y2403D01*
X7015Y2396D01*
X7002Y2387D01*
X6988Y2376D01*
X6956Y2346D01*
X6900Y2403D01*
X6916Y2419D01*
X6941Y2449D01*
X6950Y2462D01*
X6957Y2474D01*
X6961Y2485D01*
X6964Y2494D01*
X6964Y2503D01*
X6962Y2510D01*
X6957Y2516D01*
X7069Y2404D01*
D02*
G37*
G36*
X3016Y2324D02*
X3012Y2326D01*
X3007Y2328D01*
X3000Y2330D01*
X2993Y2331D01*
X2973Y2333D01*
X2949Y2335D01*
X2920Y2335D01*
Y2415D01*
X2935Y2415D01*
X2993Y2419D01*
X3000Y2420D01*
X3007Y2422D01*
X3012Y2424D01*
X3016Y2426D01*
Y2324D01*
D02*
G37*
G36*
X5302Y2471D02*
X5302Y2471D01*
X5348Y2440D01*
X5403Y2429D01*
X5518D01*
X5519Y2428D01*
X5523Y2424D01*
X5526Y2420D01*
X5539Y2412D01*
X5550Y2402D01*
X5555Y2401D01*
X5559Y2398D01*
X5564Y2397D01*
X5581Y2370D01*
X5576Y2353D01*
X5559Y2331D01*
X5555Y2330D01*
X5517Y2305D01*
X5486D01*
X5448Y2330D01*
X5403Y2339D01*
X5358Y2330D01*
X5320Y2305D01*
X5289D01*
X5251Y2330D01*
X5206Y2339D01*
X5161Y2330D01*
X5123Y2305D01*
X5092D01*
X5054Y2330D01*
X5009Y2339D01*
X4964Y2330D01*
X4926Y2305D01*
X4895D01*
X4857Y2330D01*
X4812Y2339D01*
X4767Y2330D01*
X4729Y2305D01*
X4698D01*
X4660Y2330D01*
X4615Y2339D01*
X4570Y2330D01*
X4532Y2305D01*
X4502D01*
X4464Y2330D01*
X4419Y2339D01*
X4374Y2330D01*
X4336Y2305D01*
X4305D01*
X4267Y2330D01*
X4222Y2339D01*
X4177Y2330D01*
X4139Y2305D01*
X4108D01*
X4070Y2330D01*
X4025Y2339D01*
X3980Y2330D01*
X3942Y2305D01*
X3911D01*
X3873Y2330D01*
X3854Y2334D01*
X3827Y2343D01*
X3817Y2368D01*
X3812Y2387D01*
X3812Y2389D01*
X3808Y2402D01*
X3805Y2417D01*
X3802Y2421D01*
X3801Y2427D01*
X3791Y2438D01*
X3783Y2450D01*
X3779Y2453D01*
X3775Y2457D01*
X3774Y2458D01*
Y2513D01*
X4517Y3256D01*
X5302Y2471D01*
D02*
G37*
G36*
X1723Y2343D02*
X1716Y2343D01*
X1709Y2341D01*
X1705Y2340D01*
X1702Y2337D01*
X1700Y2335D01*
X1700Y2331D01*
X1701Y2327D01*
X1704Y2323D01*
X1708Y2318D01*
X1628Y2286D01*
X1616Y2297D01*
X1594Y2315D01*
X1583Y2323D01*
X1572Y2329D01*
X1562Y2334D01*
X1552Y2338D01*
X1542Y2341D01*
X1532Y2343D01*
X1523Y2344D01*
X1732D01*
X1723Y2343D01*
D02*
G37*
G36*
X6065Y2280D02*
X6061Y2290D01*
X6057Y2298D01*
X6052Y2305D01*
X6046Y2312D01*
X6039Y2317D01*
X6031Y2321D01*
X6022Y2325D01*
X6012Y2327D01*
X6001Y2329D01*
X5990Y2329D01*
X6003Y2409D01*
X6020Y2409D01*
X6082Y2413D01*
X6095Y2415D01*
X6119Y2419D01*
X6129Y2422D01*
X6139Y2425D01*
X6065Y2280D01*
D02*
G37*
G36*
X3703Y2377D02*
X3697Y2374D01*
X3691Y2370D01*
X3685Y2365D01*
X3681Y2357D01*
X3677Y2348D01*
X3675Y2338D01*
X3673Y2326D01*
X3672Y2315D01*
X3675Y2266D01*
X3676Y2259D01*
X3678Y2252D01*
X3680Y2247D01*
X3682Y2243D01*
X3580D01*
X3582Y2247D01*
X3584Y2252D01*
X3586Y2259D01*
X3587Y2266D01*
X3589Y2285D01*
X3591Y2310D01*
X3591Y2312D01*
X3589Y2326D01*
X3587Y2338D01*
X3585Y2348D01*
X3581Y2357D01*
X3577Y2365D01*
X3571Y2370D01*
X3565Y2374D01*
X3559Y2377D01*
X3551Y2378D01*
X3711D01*
X3703Y2377D01*
D02*
G37*
G36*
X12507Y2450D02*
X12519Y2440D01*
X12529Y2433D01*
X12538Y2427D01*
X12546Y2425D01*
X12553Y2425D01*
X12558Y2427D01*
X12562Y2431D01*
X12564Y2438D01*
X12566Y2448D01*
X12550Y2238D01*
X12551Y2248D01*
X12549Y2259D01*
X12547Y2269D01*
X12543Y2280D01*
X12538Y2292D01*
X12532Y2303D01*
X12524Y2315D01*
X12515Y2326D01*
X12504Y2339D01*
X12493Y2351D01*
X12494Y2462D01*
X12507Y2450D01*
D02*
G37*
G36*
X1090Y2289D02*
X1091Y2280D01*
X1093Y2271D01*
X1095Y2262D01*
X1097Y2254D01*
X1100Y2246D01*
X1104Y2239D01*
X1108Y2233D01*
X1113Y2226D01*
X1119Y2220D01*
X981D01*
X987Y2226D01*
X992Y2233D01*
X996Y2239D01*
X1000Y2246D01*
X1003Y2254D01*
X1005Y2262D01*
X1007Y2271D01*
X1009Y2280D01*
X1010Y2289D01*
X1010Y2299D01*
X1090D01*
X1090Y2289D01*
D02*
G37*
G36*
X2225Y2442D02*
X2246Y2431D01*
X2256Y2427D01*
X2267Y2423D01*
X2277Y2420D01*
X2288Y2418D01*
X2298Y2416D01*
X2309Y2415D01*
X2319Y2415D01*
X2338Y2335D01*
X2327Y2335D01*
X2316Y2333D01*
X2306Y2331D01*
X2296Y2327D01*
X2287Y2323D01*
X2279Y2318D01*
X2272Y2313D01*
X2274Y2304D01*
X2278Y2294D01*
X2282Y2284D01*
X2287Y2275D01*
X2293Y2266D01*
X2299Y2258D01*
X2307Y2250D01*
X2250Y2193D01*
X2242Y2201D01*
X2234Y2207D01*
X2225Y2213D01*
X2216Y2218D01*
X2206Y2222D01*
X2196Y2226D01*
X2185Y2229D01*
X2174Y2231D01*
X2163Y2232D01*
X2151Y2232D01*
X2242Y2323D01*
X2215Y2449D01*
X2225Y2442D01*
D02*
G37*
G36*
X6296Y2331D02*
X6303Y2309D01*
X6308Y2299D01*
X6313Y2289D01*
X6318Y2279D01*
X6324Y2270D01*
X6331Y2262D01*
X6337Y2254D01*
X6345Y2246D01*
X6304Y2173D01*
X6296Y2181D01*
X6287Y2188D01*
X6278Y2193D01*
X6269Y2197D01*
X6260Y2201D01*
X6250Y2203D01*
X6240Y2204D01*
X6230Y2204D01*
X6220Y2202D01*
X6209Y2200D01*
X6292Y2343D01*
X6296Y2331D01*
D02*
G37*
G36*
X11137Y2275D02*
X11140Y2250D01*
X11142Y2237D01*
X11145Y2226D01*
X11149Y2214D01*
X11153Y2203D01*
X11158Y2192D01*
X11164Y2182D01*
X11170Y2172D01*
X11024D01*
X11030Y2182D01*
X11036Y2192D01*
X11041Y2203D01*
X11045Y2214D01*
X11049Y2226D01*
X11052Y2237D01*
X11054Y2250D01*
X11056Y2262D01*
X11057Y2275D01*
X11057Y2288D01*
X11137D01*
X11137Y2275D01*
D02*
G37*
G36*
X10881D02*
X10884Y2250D01*
X10886Y2237D01*
X10889Y2226D01*
X10893Y2214D01*
X10897Y2203D01*
X10902Y2192D01*
X10908Y2182D01*
X10914Y2172D01*
X10768D01*
X10774Y2182D01*
X10780Y2192D01*
X10785Y2203D01*
X10789Y2214D01*
X10793Y2226D01*
X10796Y2237D01*
X10798Y2250D01*
X10800Y2262D01*
X10801Y2275D01*
X10801Y2288D01*
X10881D01*
X10881Y2275D01*
D02*
G37*
G36*
X10647Y2305D02*
X10642Y2299D01*
X10638Y2292D01*
X10634Y2285D01*
X10631Y2277D01*
X10628Y2269D01*
X10626Y2260D01*
X10626Y2258D01*
X10627Y2251D01*
X10629Y2239D01*
X10632Y2227D01*
X10636Y2215D01*
X10641Y2204D01*
X10646Y2193D01*
X10652Y2182D01*
X10658Y2172D01*
X10512D01*
X10518Y2182D01*
X10523Y2192D01*
X10528Y2202D01*
X10532Y2213D01*
X10536Y2224D01*
X10539Y2236D01*
X10541Y2248D01*
X10542Y2255D01*
X10541Y2259D01*
X10539Y2268D01*
X10536Y2276D01*
X10533Y2283D01*
X10529Y2291D01*
X10525Y2297D01*
X10520Y2303D01*
X10514Y2309D01*
X10652Y2311D01*
X10647Y2305D01*
D02*
G37*
G36*
X10369Y2275D02*
X10372Y2250D01*
X10374Y2237D01*
X10377Y2226D01*
X10381Y2214D01*
X10385Y2203D01*
X10390Y2192D01*
X10396Y2182D01*
X10402Y2172D01*
X10256D01*
X10262Y2182D01*
X10268Y2192D01*
X10273Y2203D01*
X10277Y2214D01*
X10281Y2226D01*
X10284Y2237D01*
X10286Y2250D01*
X10288Y2262D01*
X10289Y2275D01*
X10289Y2288D01*
X10369D01*
X10369Y2275D01*
D02*
G37*
G36*
X9630Y2235D02*
X9639Y2229D01*
X9648Y2223D01*
X9657Y2219D01*
X9666Y2215D01*
X9676Y2213D01*
X9686Y2212D01*
X9696Y2212D01*
X9707Y2213D01*
X9718Y2215D01*
X9629Y2075D01*
X9627Y2087D01*
X9619Y2109D01*
X9615Y2120D01*
X9610Y2129D01*
X9605Y2139D01*
X9599Y2148D01*
X9593Y2157D01*
X9586Y2165D01*
X9579Y2173D01*
X9622Y2243D01*
X9630Y2235D01*
D02*
G37*
G36*
X3304Y2332D02*
X3297Y2330D01*
X3292Y2326D01*
X3290Y2321D01*
X3290Y2314D01*
X3293Y2307D01*
X3298Y2298D01*
X3305Y2288D01*
X3315Y2276D01*
X3325Y2266D01*
X3335Y2256D01*
X3347Y2246D01*
X3357Y2239D01*
X3366Y2234D01*
X3373Y2231D01*
X3380Y2231D01*
X3385Y2234D01*
X3389Y2238D01*
X3391Y2245D01*
X3393Y2255D01*
X3380Y2042D01*
X3380Y2052D01*
X3379Y2063D01*
X3376Y2074D01*
X3372Y2085D01*
X3367Y2096D01*
X3361Y2108D01*
X3353Y2119D01*
X3344Y2131D01*
X3334Y2143D01*
X3322Y2155D01*
Y2263D01*
X3214D01*
X3202Y2275D01*
X3178Y2294D01*
X3167Y2302D01*
X3155Y2308D01*
X3144Y2313D01*
X3133Y2317D01*
X3122Y2320D01*
X3111Y2321D01*
X3101Y2321D01*
X3314Y2334D01*
X3304Y2332D01*
D02*
G37*
G36*
X12922Y2103D02*
X12916Y2100D01*
X12910Y2096D01*
X12904Y2091D01*
X12900Y2083D01*
X12896Y2074D01*
X12894Y2064D01*
X12892Y2052D01*
X12890Y2038D01*
X12890Y2022D01*
X12810D01*
X12810Y2038D01*
X12808Y2052D01*
X12806Y2064D01*
X12804Y2074D01*
X12800Y2083D01*
X12796Y2091D01*
X12790Y2096D01*
X12784Y2100D01*
X12778Y2103D01*
X12770Y2104D01*
X12930D01*
X12922Y2103D01*
D02*
G37*
G36*
X5655Y2172D02*
X5657Y2166D01*
X5661Y2160D01*
X5667Y2154D01*
X5674Y2150D01*
X5683Y2146D01*
X5694Y2144D01*
X5706Y2142D01*
X5720Y2140D01*
X5735Y2140D01*
Y2060D01*
X5720Y2060D01*
X5706Y2058D01*
X5694Y2056D01*
X5683Y2054D01*
X5674Y2050D01*
X5667Y2046D01*
X5661Y2040D01*
X5657Y2034D01*
X5655Y2028D01*
X5654Y2020D01*
Y2180D01*
X5655Y2172D01*
D02*
G37*
G36*
X2360Y1962D02*
X2362Y1948D01*
X2364Y1936D01*
X2366Y1925D01*
X2370Y1916D01*
X2374Y1909D01*
X2380Y1903D01*
X2386Y1899D01*
X2392Y1897D01*
X2400Y1896D01*
X2240D01*
X2248Y1897D01*
X2254Y1899D01*
X2260Y1903D01*
X2266Y1909D01*
X2270Y1916D01*
X2274Y1925D01*
X2276Y1936D01*
X2278Y1948D01*
X2280Y1962D01*
X2280Y1977D01*
X2360D01*
X2360Y1962D01*
D02*
G37*
G36*
X1720D02*
X1722Y1948D01*
X1724Y1936D01*
X1726Y1925D01*
X1730Y1916D01*
X1734Y1909D01*
X1740Y1903D01*
X1746Y1899D01*
X1752Y1897D01*
X1760Y1896D01*
X1600D01*
X1608Y1897D01*
X1614Y1899D01*
X1620Y1903D01*
X1626Y1909D01*
X1630Y1916D01*
X1634Y1925D01*
X1636Y1936D01*
X1638Y1948D01*
X1640Y1962D01*
X1640Y1977D01*
X1720D01*
X1720Y1962D01*
D02*
G37*
G36*
X3248Y1943D02*
X3248Y1934D01*
X3249Y1926D01*
X3251Y1917D01*
X3253Y1909D01*
X3257Y1901D01*
X3261Y1893D01*
X3266Y1886D01*
X3271Y1879D01*
X3278Y1872D01*
X3224Y1827D01*
X3217Y1833D01*
X3210Y1839D01*
X3203Y1844D01*
X3195Y1849D01*
X3187Y1852D01*
X3179Y1856D01*
X3170Y1859D01*
X3161Y1861D01*
X3152Y1862D01*
X3143Y1863D01*
X3248Y1952D01*
X3248Y1943D01*
D02*
G37*
G36*
X2334Y1700D02*
X2327Y1703D01*
X2319Y1704D01*
X2310Y1704D01*
X2300Y1701D01*
X2289Y1697D01*
X2277Y1690D01*
X2264Y1681D01*
X2251Y1670D01*
X2236Y1658D01*
X2221Y1643D01*
X2140Y1675D01*
X2157Y1692D01*
X2183Y1723D01*
X2192Y1736D01*
X2199Y1748D01*
X2204Y1759D01*
X2206Y1768D01*
X2205Y1776D01*
X2202Y1783D01*
X2196Y1788D01*
X2334Y1700D01*
D02*
G37*
G36*
X12433Y2265D02*
X12436Y2262D01*
X12441Y2255D01*
X12445Y2250D01*
X12447Y2245D01*
X12448Y2242D01*
X12449Y2242D01*
X12449Y2239D01*
X12452Y2222D01*
X12454Y2206D01*
X12455Y2203D01*
X12456Y2199D01*
X12465Y2185D01*
X12473Y2171D01*
X12476Y2169D01*
X12478Y2166D01*
X12492Y2157D01*
X12497Y2153D01*
X12499Y2140D01*
X12534Y2087D01*
X12587Y2052D01*
X12648Y2040D01*
X12690D01*
X12691Y2040D01*
X12695Y2036D01*
X12698Y2032D01*
X12707Y2025D01*
Y1409D01*
X12562Y1264D01*
X12560Y1265D01*
X12545Y1263D01*
X12530Y1263D01*
X12526Y1261D01*
X12521Y1261D01*
X12507Y1254D01*
X12503Y1252D01*
X12468Y1259D01*
X12232D01*
X12162Y1245D01*
X12103Y1206D01*
X12064Y1147D01*
X12050Y1077D01*
Y723D01*
X12064Y653D01*
X12095Y607D01*
X12076Y557D01*
X11874D01*
X11855Y607D01*
X11886Y653D01*
X11900Y723D01*
Y1077D01*
X11886Y1147D01*
X11847Y1206D01*
X11788Y1245D01*
X11718Y1259D01*
X11555D01*
X11554Y1259D01*
X11550Y1265D01*
X11539Y1273D01*
X11530Y1281D01*
X11523Y1284D01*
X11517Y1288D01*
X11504Y1290D01*
X11492Y1294D01*
X11485Y1294D01*
X11478Y1295D01*
X11469Y1293D01*
X11462Y1299D01*
X11240Y1521D01*
Y1577D01*
X11240Y1577D01*
X11241Y1584D01*
X11242Y1591D01*
X11243Y1597D01*
X11245Y1602D01*
X11247Y1607D01*
X11249Y1612D01*
X11252Y1617D01*
X11257Y1624D01*
X11260Y1632D01*
X11264Y1639D01*
X11267Y1651D01*
X11271Y1662D01*
X11270Y1670D01*
X11272Y1678D01*
X11270Y1690D01*
X11270Y1694D01*
X11288Y1710D01*
X11314Y1723D01*
X11329Y1712D01*
X11401Y1682D01*
X11479Y1672D01*
X11556Y1682D01*
X11629Y1712D01*
X11691Y1759D01*
X11738Y1821D01*
X11768Y1894D01*
X11778Y1971D01*
X11768Y2049D01*
X11738Y2121D01*
X11691Y2183D01*
X11629Y2230D01*
X11556Y2260D01*
X11479Y2270D01*
X11401Y2260D01*
X11329Y2230D01*
X11314Y2218D01*
X11300Y2216D01*
X11289Y2217D01*
X11280Y2219D01*
X11252Y2233D01*
X11252Y2234D01*
X11249Y2238D01*
X11247Y2243D01*
X11245Y2248D01*
X11243Y2254D01*
X11242Y2260D01*
X11241Y2264D01*
X11240Y2276D01*
Y3003D01*
X11240Y3003D01*
X11229Y3058D01*
X11198Y3104D01*
X11198Y3104D01*
X10708Y3594D01*
X10722Y3642D01*
X10735Y3645D01*
X10807Y3693D01*
X10817Y3708D01*
X10819Y3709D01*
X10824Y3715D01*
X10826Y3716D01*
X10827Y3717D01*
X10828Y3718D01*
X10828Y3718D01*
X10829Y3719D01*
X10830Y3719D01*
X10979D01*
X12433Y2265D01*
D02*
G37*
G36*
X2965Y2232D02*
X2976Y2230D01*
X2977Y2230D01*
X2992Y2227D01*
X3006Y2223D01*
X3011Y2223D01*
X3016Y2222D01*
X3031Y2225D01*
X3046Y2227D01*
X3049Y2229D01*
X3078Y2221D01*
X3099Y2212D01*
X3104Y2203D01*
X3082Y2150D01*
X3073Y2148D01*
X3007Y2105D01*
X2963Y2039D01*
X2948Y1962D01*
X2963Y1884D01*
X3007Y1819D01*
X3073Y1775D01*
X3125Y1764D01*
X3132Y1762D01*
X3138Y1761D01*
X3140Y1761D01*
X3142Y1761D01*
X3144Y1760D01*
X3145Y1760D01*
X3146Y1759D01*
X3147Y1758D01*
X3238Y1668D01*
X3282Y1638D01*
X3335Y1627D01*
X3606D01*
X3628Y1583D01*
X3626Y1580D01*
X3600Y1517D01*
X3591Y1450D01*
X3600Y1383D01*
X3626Y1320D01*
X3642Y1300D01*
X3617Y1250D01*
X3437D01*
X3336Y1351D01*
X3289Y1382D01*
X3235Y1393D01*
X3235Y1393D01*
X2996D01*
X2990Y1402D01*
X2985Y1405D01*
X2982Y1409D01*
X2969Y1416D01*
X2957Y1424D01*
X2951Y1425D01*
X2946Y1428D01*
X2932Y1429D01*
X2918Y1432D01*
X2912Y1431D01*
X2907Y1431D01*
X2893Y1427D01*
X2879Y1424D01*
X2874Y1421D01*
X2869Y1420D01*
X2858Y1410D01*
X2857Y1410D01*
X2600D01*
Y1090D01*
X2550Y1090D01*
X1964D01*
X1921Y1091D01*
X1916Y1140D01*
X1921Y1146D01*
X1931Y1154D01*
X1934Y1160D01*
X1939Y1166D01*
X1944Y1177D01*
X1950Y1188D01*
X1951Y1196D01*
X1953Y1203D01*
X1953Y1215D01*
X1954Y1228D01*
X1954Y1228D01*
X1967Y1244D01*
X2311Y1587D01*
X2316Y1592D01*
X2325Y1599D01*
X2330Y1598D01*
X2343Y1600D01*
X2356Y1600D01*
X2363Y1603D01*
X2369Y1604D01*
X2381Y1611D01*
X2393Y1616D01*
X2398Y1621D01*
X2403Y1625D01*
X2411Y1635D01*
X2414Y1638D01*
X2505D01*
Y1958D01*
X2480D01*
X2479Y1960D01*
X2475Y1964D01*
X2472Y1968D01*
X2463Y1974D01*
Y2180D01*
X2460Y2194D01*
X2492Y2232D01*
X2953D01*
X2965Y2232D01*
D02*
G37*
G36*
X9937Y1594D02*
X9931Y1603D01*
X9924Y1611D01*
X9916Y1618D01*
X9908Y1624D01*
X9900Y1630D01*
X9891Y1634D01*
X9881Y1637D01*
X9871Y1640D01*
X9860Y1641D01*
X9849Y1641D01*
X9866Y1721D01*
X9877Y1722D01*
X9887Y1723D01*
X9898Y1725D01*
X9908Y1727D01*
X9919Y1730D01*
X9929Y1734D01*
X9939Y1738D01*
X9950Y1743D01*
X9960Y1749D01*
X9970Y1756D01*
X9937Y1594D01*
D02*
G37*
G36*
X4031Y1659D02*
X4021Y1649D01*
X4013Y1639D01*
X4006Y1629D01*
X4001Y1620D01*
X3997Y1611D01*
X3995Y1603D01*
X3995Y1595D01*
X3996Y1587D01*
X3999Y1580D01*
X4003Y1573D01*
X3861Y1647D01*
X3870Y1647D01*
X3878Y1648D01*
X3887Y1650D01*
X3896Y1654D01*
X3906Y1658D01*
X3915Y1664D01*
X3925Y1670D01*
X3935Y1678D01*
X3945Y1687D01*
X3956Y1697D01*
X4031Y1659D01*
D02*
G37*
G36*
X11164Y1668D02*
X11158Y1658D01*
X11153Y1647D01*
X11149Y1636D01*
X11145Y1625D01*
X11142Y1613D01*
X11140Y1601D01*
X11138Y1588D01*
X11137Y1575D01*
X11137Y1562D01*
X11057D01*
X11057Y1575D01*
X11054Y1601D01*
X11052Y1613D01*
X11049Y1625D01*
X11045Y1636D01*
X11041Y1647D01*
X11036Y1658D01*
X11030Y1668D01*
X11024Y1678D01*
X11170D01*
X11164Y1668D01*
D02*
G37*
G36*
X10909Y1670D02*
X10904Y1660D01*
X10899Y1650D01*
X10896Y1640D01*
X10893Y1629D01*
X10890Y1617D01*
X10888Y1605D01*
X10886Y1579D01*
X10886Y1565D01*
X10806Y1559D01*
X10805Y1572D01*
X10804Y1584D01*
X10802Y1596D01*
X10800Y1608D01*
X10796Y1620D01*
X10792Y1632D01*
X10787Y1644D01*
X10781Y1656D01*
X10775Y1667D01*
X10768Y1678D01*
X10914D01*
X10909Y1670D01*
D02*
G37*
G36*
X3941Y1569D02*
X3934Y1562D01*
X3928Y1555D01*
X3923Y1548D01*
X3920Y1541D01*
X3917Y1535D01*
X3916Y1529D01*
X3916Y1523D01*
X3917Y1518D01*
X3919Y1513D01*
X3923Y1509D01*
X3795Y1524D01*
X3869Y1611D01*
X3941Y1569D01*
D02*
G37*
G36*
X907Y2291D02*
X907Y2290D01*
X897Y2274D01*
X887Y2259D01*
X887Y2258D01*
X886Y2256D01*
X883Y2238D01*
X879Y2220D01*
X879Y2219D01*
X879Y2217D01*
X883Y2199D01*
X887Y2181D01*
X888Y2180D01*
X888Y2178D01*
X899Y2163D01*
X907Y2151D01*
Y2150D01*
X918Y2095D01*
X949Y2049D01*
X995Y2018D01*
X1050Y2007D01*
X1105Y2018D01*
X1151Y2049D01*
X1182Y2095D01*
X1193Y2150D01*
Y2151D01*
X1201Y2163D01*
X1212Y2178D01*
X1212Y2180D01*
X1213Y2181D01*
X1217Y2199D01*
X1221Y2217D01*
X1221Y2219D01*
X1221Y2220D01*
X1219Y2231D01*
X1224Y2247D01*
X1249Y2277D01*
X1257Y2281D01*
X1443D01*
X1446Y2276D01*
X1449Y2274D01*
X1451Y2272D01*
X1465Y2262D01*
X1478Y2252D01*
X1481Y2251D01*
X1484Y2249D01*
X1500Y2246D01*
X1516Y2242D01*
X1519Y2242D01*
X1520Y2241D01*
X1523Y2240D01*
X1528Y2237D01*
X1532Y2234D01*
X1537Y2230D01*
Y1974D01*
X1528Y1968D01*
X1525Y1964D01*
X1521Y1960D01*
X1520Y1958D01*
X1495D01*
Y1638D01*
X1865D01*
Y1958D01*
X1840D01*
X1839Y1960D01*
X1835Y1964D01*
X1832Y1968D01*
X1823Y1974D01*
Y2230D01*
X1826Y2277D01*
X1846Y2281D01*
X1941D01*
X1945Y2265D01*
X1993Y2193D01*
X2065Y2145D01*
X2150Y2128D01*
X2177Y2086D01*
Y1974D01*
X2168Y1968D01*
X2165Y1964D01*
X2161Y1960D01*
X2160Y1958D01*
X2135D01*
Y1868D01*
X2130Y1863D01*
X2120Y1856D01*
X2116Y1849D01*
X2110Y1843D01*
X2106Y1832D01*
X2100Y1822D01*
X2099Y1813D01*
X2096Y1806D01*
X2096Y1794D01*
X2094Y1783D01*
X2096Y1778D01*
X2085Y1765D01*
X1784Y1465D01*
X1772Y1453D01*
X1768Y1450D01*
X1766Y1450D01*
X1758Y1451D01*
X1747Y1449D01*
X1735Y1448D01*
X1727Y1445D01*
X1719Y1443D01*
X1710Y1437D01*
X1699Y1432D01*
X1693Y1426D01*
X1686Y1421D01*
X1680Y1412D01*
X1545D01*
Y1092D01*
X1496Y1090D01*
X1012D01*
X976Y1125D01*
X1000Y1183D01*
X1009Y1250D01*
X1000Y1317D01*
X974Y1380D01*
X933Y1433D01*
X880Y1474D01*
X817Y1500D01*
X750Y1509D01*
X683Y1500D01*
X658Y1490D01*
X646Y1492D01*
X633Y1497D01*
X607Y1520D01*
X593Y1541D01*
Y2445D01*
X907D01*
Y2291D01*
D02*
G37*
G36*
X1910Y1332D02*
X1895Y1317D01*
X1871Y1288D01*
X1862Y1275D01*
X1855Y1263D01*
X1851Y1253D01*
X1848Y1243D01*
X1847Y1234D01*
X1849Y1226D01*
X1853Y1219D01*
X1759Y1349D01*
X1764Y1344D01*
X1771Y1341D01*
X1779Y1341D01*
X1788Y1343D01*
X1799Y1348D01*
X1811Y1355D01*
X1824Y1364D01*
X1839Y1376D01*
X1872Y1407D01*
X1910Y1332D01*
D02*
G37*
G36*
X10466Y1317D02*
X10457Y1325D01*
X10448Y1333D01*
X10439Y1339D01*
X10430Y1345D01*
X10420Y1349D01*
X10410Y1353D01*
X10400Y1356D01*
X10390Y1358D01*
X10379Y1360D01*
X10368Y1360D01*
Y1440D01*
X10379Y1440D01*
X10390Y1442D01*
X10400Y1444D01*
X10410Y1447D01*
X10420Y1451D01*
X10430Y1455D01*
X10439Y1461D01*
X10448Y1467D01*
X10457Y1475D01*
X10466Y1483D01*
Y1317D01*
D02*
G37*
G36*
X545Y1412D02*
X555Y1404D01*
X564Y1397D01*
X573Y1392D01*
X582Y1389D01*
X590Y1387D01*
X598Y1387D01*
X605Y1388D01*
X612Y1391D01*
X618Y1396D01*
X553Y1250D01*
X553Y1258D01*
X551Y1267D01*
X548Y1275D01*
X545Y1284D01*
X540Y1293D01*
X534Y1303D01*
X527Y1313D01*
X519Y1323D01*
X500Y1343D01*
X534Y1422D01*
X545Y1412D01*
D02*
G37*
G36*
X10886Y1260D02*
X10887Y1246D01*
X10889Y1234D01*
X10892Y1223D01*
X10896Y1214D01*
X10900Y1207D01*
X10905Y1201D01*
X10911Y1197D01*
X10918Y1195D01*
X10926Y1194D01*
X10766D01*
X10773Y1195D01*
X10780Y1197D01*
X10786Y1201D01*
X10791Y1207D01*
X10796Y1214D01*
X10799Y1223D01*
X10802Y1234D01*
X10804Y1246D01*
X10805Y1260D01*
X10806Y1275D01*
X10886D01*
X10886Y1260D01*
D02*
G37*
G36*
X9495Y1342D02*
X9504Y1336D01*
X9512Y1330D01*
X9522Y1325D01*
X9531Y1322D01*
X9541Y1319D01*
X9552Y1317D01*
X9562Y1316D01*
X9573Y1316D01*
X9585Y1317D01*
X9483Y1187D01*
X9481Y1199D01*
X9479Y1210D01*
X9476Y1221D01*
X9472Y1232D01*
X9468Y1242D01*
X9463Y1252D01*
X9458Y1261D01*
X9452Y1270D01*
X9445Y1278D01*
X9437Y1286D01*
X9487Y1350D01*
X9495Y1342D01*
D02*
G37*
G36*
X2918Y1322D02*
X2921Y1316D01*
X2925Y1310D01*
X2931Y1304D01*
X2938Y1300D01*
X2947Y1296D01*
X2957Y1294D01*
X2970Y1292D01*
X2983Y1290D01*
X2999Y1290D01*
Y1210D01*
X2983Y1210D01*
X2970Y1208D01*
X2957Y1206D01*
X2947Y1204D01*
X2938Y1200D01*
X2931Y1196D01*
X2925Y1190D01*
X2921Y1184D01*
X2918Y1178D01*
X2918Y1170D01*
Y1330D01*
X2918Y1322D01*
D02*
G37*
G36*
X12643Y1086D02*
X12630Y1073D01*
X12610Y1049D01*
X12603Y1037D01*
X12596Y1025D01*
X12592Y1014D01*
X12588Y1003D01*
X12586Y993D01*
X12586Y983D01*
X12587Y973D01*
X12550Y1163D01*
X12552Y1155D01*
X12556Y1149D01*
X12561Y1145D01*
X12567Y1144D01*
X12574Y1145D01*
X12583Y1149D01*
X12593Y1155D01*
X12604Y1163D01*
X12616Y1173D01*
X12630Y1186D01*
X12643Y1086D01*
D02*
G37*
G36*
X11390Y1226D02*
X11416Y1204D01*
X11428Y1197D01*
X11438Y1191D01*
X11448Y1187D01*
X11457Y1186D01*
X11465Y1186D01*
X11472Y1189D01*
X11478Y1193D01*
X11366Y1081D01*
X11370Y1087D01*
X11373Y1094D01*
X11373Y1102D01*
X11372Y1111D01*
X11368Y1121D01*
X11362Y1131D01*
X11355Y1143D01*
X11345Y1155D01*
X11333Y1169D01*
X11319Y1183D01*
X11376Y1240D01*
X11390Y1226D01*
D02*
G37*
G36*
X9371Y1208D02*
X9372Y1206D01*
X9374Y1203D01*
X9375Y1200D01*
X9377Y1196D01*
X9378Y1192D01*
X9379Y1187D01*
X9380Y1182D01*
X9382Y1173D01*
X9385Y1164D01*
X9395Y1115D01*
X9443Y1043D01*
X9515Y995D01*
X9600Y978D01*
X9685Y995D01*
X9757Y1043D01*
X9805Y1115D01*
X9822Y1200D01*
X9819Y1219D01*
X9850Y1257D01*
X10375D01*
X10376Y1257D01*
X10378Y1257D01*
X10379Y1256D01*
X10381Y1255D01*
X10384Y1253D01*
X10386Y1252D01*
X10387Y1251D01*
X10393Y1243D01*
X10465Y1195D01*
X10528Y1182D01*
X10555Y1156D01*
X10561Y1129D01*
X10550Y1077D01*
Y723D01*
X10564Y653D01*
X10595Y607D01*
X10576Y557D01*
X9702D01*
X9683Y553D01*
X9670Y555D01*
X9572Y542D01*
X9480Y504D01*
X9401Y444D01*
X9341Y365D01*
X9303Y274D01*
X9300Y250D01*
X9292Y203D01*
X9292Y203D01*
X9264Y165D01*
X9249Y159D01*
X9245Y160D01*
X8927D01*
X8908Y210D01*
X8942Y254D01*
X8970Y321D01*
X8980Y394D01*
Y630D01*
X8970Y702D01*
X8942Y770D01*
X8898Y828D01*
X8840Y872D01*
X8772Y900D01*
X8700Y909D01*
X8628Y900D01*
X8560Y872D01*
X8502Y828D01*
X8482Y800D01*
X8418D01*
X8398Y828D01*
X8340Y872D01*
X8272Y900D01*
X8200Y909D01*
X8128Y900D01*
X8085Y937D01*
X8092Y971D01*
X8085Y1007D01*
X8125Y1057D01*
X8725D01*
X8725Y1057D01*
X8741Y1060D01*
X8765Y1045D01*
X8850Y1028D01*
X8935Y1045D01*
X9007Y1093D01*
X9055Y1165D01*
X9072Y1250D01*
X9055Y1335D01*
X9041Y1357D01*
X9067Y1407D01*
X9171D01*
X9371Y1208D01*
D02*
G37*
G36*
X4694Y1050D02*
X4732Y955D01*
X4721Y965D01*
X4709Y975D01*
X4697Y983D01*
X4684Y990D01*
X4671Y996D01*
X4657Y1001D01*
X4643Y1005D01*
X4628Y1008D01*
X4613Y1009D01*
X4597Y1010D01*
X4517Y1090D01*
X4532Y1091D01*
X4544Y1092D01*
X4553Y1095D01*
X4560Y1099D01*
X4563Y1104D01*
X4564Y1110D01*
X4563Y1118D01*
X4558Y1126D01*
X4551Y1136D01*
X4541Y1147D01*
X4694Y1050D01*
D02*
G37*
G36*
X7829Y918D02*
X7825Y923D01*
X7820Y927D01*
X7815Y931D01*
X7810Y934D01*
X7803Y937D01*
X7796Y939D01*
X7789Y941D01*
X7781Y942D01*
X7772Y943D01*
X7763Y943D01*
X7775Y1023D01*
X7784Y1023D01*
X7801Y1025D01*
X7809Y1026D01*
X7816Y1028D01*
X7823Y1030D01*
X7829Y1032D01*
X7835Y1035D01*
X7841Y1038D01*
X7846Y1041D01*
X7829Y918D01*
D02*
G37*
G36*
X4034Y802D02*
X4046Y791D01*
X4057Y783D01*
X4068Y776D01*
X4077Y772D01*
X4086Y770D01*
X4093Y769D01*
X4100Y771D01*
X4105Y775D01*
X4110Y781D01*
X4025Y641D01*
X4029Y648D01*
X4030Y656D01*
X4030Y665D01*
X4028Y674D01*
X4024Y684D01*
X4018Y695D01*
X4010Y706D01*
X4001Y719D01*
X3990Y731D01*
X3977Y745D01*
X4021Y814D01*
X4034Y802D01*
D02*
G37*
G36*
X13231Y2095D02*
X13231Y1389D01*
X13232Y1382D01*
X13217Y1226D01*
X13169Y1070D01*
X13092Y926D01*
X12989Y799D01*
X12862Y696D01*
X12718Y619D01*
X12661Y602D01*
X12630Y644D01*
X12636Y653D01*
X12650Y723D01*
Y894D01*
X12655Y899D01*
X12667Y910D01*
X12669Y913D01*
X12672Y916D01*
X12678Y931D01*
X12685Y945D01*
X12686Y949D01*
X12687Y953D01*
X12687Y969D01*
X12688Y981D01*
X12690Y984D01*
X12693Y988D01*
X12704Y1002D01*
X12951Y1249D01*
X12951Y1249D01*
X12982Y1295D01*
X12993Y1350D01*
X12993Y1350D01*
Y2025D01*
X13002Y2032D01*
X13005Y2036D01*
X13009Y2040D01*
X13010Y2040D01*
X13052D01*
X13113Y2052D01*
X13166Y2087D01*
X13181Y2110D01*
X13231Y2095D01*
D02*
G37*
G36*
X4524Y432D02*
X4523Y439D01*
X4520Y446D01*
X4516Y452D01*
X4511Y457D01*
X4503Y462D01*
X4494Y465D01*
X4484Y468D01*
X4472Y470D01*
X4458Y471D01*
X4450Y472D01*
X4442Y471D01*
X4428Y470D01*
X4416Y468D01*
X4406Y465D01*
X4397Y462D01*
X4389Y457D01*
X4384Y452D01*
X4380Y446D01*
X4377Y439D01*
X4376Y432D01*
Y592D01*
X4377Y584D01*
X4380Y577D01*
X4384Y571D01*
X4389Y566D01*
X4397Y562D01*
X4406Y558D01*
X4416Y555D01*
X4428Y553D01*
X4442Y552D01*
X4450Y552D01*
X4458Y552D01*
X4472Y553D01*
X4484Y555D01*
X4494Y558D01*
X4503Y562D01*
X4511Y566D01*
X4516Y571D01*
X4520Y577D01*
X4523Y584D01*
X4524Y592D01*
Y432D01*
D02*
G37*
G36*
X3524D02*
X3523Y439D01*
X3520Y446D01*
X3516Y452D01*
X3511Y457D01*
X3503Y462D01*
X3494Y465D01*
X3484Y468D01*
X3472Y470D01*
X3458Y471D01*
X3450Y472D01*
X3442Y471D01*
X3428Y470D01*
X3416Y468D01*
X3406Y465D01*
X3397Y462D01*
X3389Y457D01*
X3384Y452D01*
X3380Y446D01*
X3377Y439D01*
X3376Y432D01*
Y592D01*
X3377Y584D01*
X3380Y577D01*
X3384Y571D01*
X3389Y566D01*
X3397Y562D01*
X3406Y558D01*
X3416Y555D01*
X3428Y553D01*
X3442Y552D01*
X3450Y552D01*
X3458Y552D01*
X3472Y553D01*
X3484Y555D01*
X3494Y558D01*
X3503Y562D01*
X3511Y566D01*
X3516Y571D01*
X3520Y577D01*
X3523Y584D01*
X3524Y592D01*
Y432D01*
D02*
G37*
G36*
X3019Y676D02*
X3021Y674D01*
X3023Y672D01*
X3025Y671D01*
X3027Y671D01*
X3028Y671D01*
X3029Y672D01*
X3030Y673D01*
X3030Y675D01*
X3031Y678D01*
X3024Y545D01*
X3023Y548D01*
X3022Y552D01*
X3019Y556D01*
X3015Y562D01*
X3003Y576D01*
X2977Y604D01*
X2966Y615D01*
X3016Y678D01*
X3019Y676D01*
D02*
G37*
G36*
X7474Y790D02*
X7458Y770D01*
X7430Y702D01*
X7420Y630D01*
Y394D01*
X7430Y321D01*
X7458Y254D01*
X7492Y210D01*
X7473Y160D01*
X5427Y160D01*
X5408Y210D01*
X5442Y254D01*
X5470Y321D01*
X5480Y394D01*
Y630D01*
X5470Y702D01*
X5442Y770D01*
X5426Y790D01*
X5451Y840D01*
X7449D01*
X7474Y790D01*
D02*
G37*
%LPC*%
G36*
X6823Y8169D02*
X6826Y8168D01*
X6845Y8161D01*
X6863Y8157D01*
X6865Y8157D01*
X6864Y8160D01*
X6823Y8169D01*
D02*
G37*
G36*
X6384Y4996D02*
X6348D01*
X6350Y4995D01*
X6360Y4992D01*
X6369Y4991D01*
X6377Y4993D01*
X6384Y4996D01*
D02*
G37*
%LPD*%
D10*
X6526Y9100D02*
X7510D01*
X6526D02*
Y9112D01*
X7510Y9100D02*
X8521Y8088D01*
X6526Y8856D02*
X7394D01*
X7900Y8350D01*
X8650Y8343D02*
X8651Y8343D01*
X9274D01*
X9274Y8344D01*
X8521Y8088D02*
X9274D01*
X9250Y5750D02*
X9350D01*
X9950Y6350D01*
Y8250D02*
X10300D01*
D13*
X10841Y1925D02*
Y2459D01*
X10584Y1926D02*
Y2379D01*
X10650Y2650D02*
X10841Y2459D01*
X9640Y2650D02*
X10650D01*
X10584Y1926D02*
X10585Y1925D01*
X10582Y2381D02*
X10584Y2379D01*
X10329Y1925D02*
Y2297D01*
X10250Y2376D02*
Y2398D01*
Y2376D02*
X10329Y2297D01*
X9558Y2250D02*
X9708Y2100D01*
X9480Y2000D02*
X9798Y1681D01*
X9708Y2100D02*
X9745D01*
X8500Y2250D02*
X9558D01*
X10013Y1681D02*
X10036Y1658D01*
X9798Y1681D02*
X10013D01*
X8600Y2000D02*
X9480D01*
X8120Y1870D02*
X8500Y2250D01*
X11097Y1925D02*
Y3003D01*
X10410Y3690D02*
X11097Y3003D01*
X8400Y2500D02*
X9490D01*
X9510Y2520D01*
X9600Y2580D02*
Y2610D01*
X9540Y2520D02*
X9600Y2580D01*
X9510Y2520D02*
X9540D01*
X9600Y2610D02*
X9640Y2650D01*
X9600Y4110D02*
X9860Y3850D01*
X10650D01*
X10662Y3862D01*
X11038D01*
X9600Y3690D02*
X10410D01*
X9576Y3714D02*
X9600Y3690D01*
X9013Y3150D02*
X9576Y3714D01*
X11038Y3862D02*
X12600Y2300D01*
X8558Y2800D02*
X9310D01*
X9600Y3060D02*
Y3090D01*
X9540Y3000D02*
X9600Y3060D01*
X9510Y3000D02*
X9540D01*
X9310Y2800D02*
X9510Y3000D01*
X8285Y3150D02*
X9013D01*
X11097Y1462D02*
Y1925D01*
X11600Y900D02*
Y959D01*
X11097Y1462D02*
X11600Y959D01*
X10846Y904D02*
Y1921D01*
X10841Y1925D02*
X10846Y1921D01*
Y904D02*
X10850Y900D01*
X9430Y1735D02*
X9765Y1400D01*
X10550D01*
X8625Y1735D02*
X9430D01*
X7930Y2030D02*
X8400Y2500D01*
X8300Y2800D02*
X8558D01*
X8002Y2502D02*
X8300Y2800D01*
X11450Y4350D02*
X12167D01*
X4944Y1143D02*
X6043D01*
X6100Y1200D02*
X8725D01*
X6043Y1143D02*
X6100Y1200D01*
X7888Y983D02*
X7900Y971D01*
X4761Y983D02*
X7888D01*
X5011Y1840D02*
X5228Y1623D01*
X5038Y1303D02*
X5880D01*
X4812Y1784D02*
X5133Y1463D01*
X5228Y1623D02*
X5747D01*
X5133Y1463D02*
X5813D01*
X4419Y1668D02*
X4944Y1143D01*
X4615Y1726D02*
X5038Y1303D01*
X5208Y1897D02*
X5322Y1783D01*
X5813Y1463D02*
X5900Y1550D01*
X5322Y1783D02*
X5681D01*
X5747Y1623D02*
X5834Y1710D01*
X5880Y1303D02*
X5936Y1360D01*
X5681Y1783D02*
X5738Y1840D01*
X5768Y1870D01*
X5936Y1360D02*
X8535D01*
X8725Y1550D01*
X4694Y1050D02*
X4761Y983D01*
X8745Y1220D02*
X8820D01*
X8725Y1200D02*
X8745Y1220D01*
X8820D02*
X8850Y1250D01*
X5900Y1550D02*
X8440D01*
X5800Y2100D02*
X5870Y2030D01*
X7930D01*
X8440Y1550D02*
X8625Y1735D01*
X8310Y1710D02*
X8600Y2000D01*
X5768Y1870D02*
X8120D01*
X5834Y1710D02*
X8310D01*
X3992Y5323D02*
X4222Y5092D01*
X3992Y5323D02*
Y5792D01*
X4000Y5800D01*
X4419Y4816D02*
Y5331D01*
X4250Y5500D02*
X4419Y5331D01*
X2790Y1250D02*
X3235D01*
X3378Y1107D01*
X4007D01*
X844Y1056D02*
X953Y947D01*
X844Y1056D02*
Y1071D01*
X715Y1200D02*
X844Y1071D01*
X4007Y1107D02*
X4064Y1050D01*
X700Y1200D02*
X715D01*
X450Y1450D02*
X700Y1200D01*
X3831Y947D02*
X4200Y578D01*
X953Y947D02*
X3831D01*
X4064Y1050D02*
X4694D01*
X4200Y512D02*
Y578D01*
X3126Y512D02*
X3700D01*
X800Y650D02*
X2988D01*
X250Y1200D02*
X800Y650D01*
X2988D02*
X3126Y512D01*
X250Y1200D02*
Y5000D01*
X4222Y1522D02*
X4694Y1050D01*
X4200Y512D02*
X4700D01*
X3850Y1535D02*
X4025Y1710D01*
Y2100D01*
X3850Y1442D02*
Y1535D01*
X4222Y1522D02*
Y2100D01*
X4419Y1668D02*
Y2100D01*
X1773Y1252D02*
X2320Y1798D01*
X1730Y1252D02*
X1773D01*
X4812Y1784D02*
Y2100D01*
X4615Y1726D02*
Y2100D01*
X6753Y2200D02*
X7055Y2502D01*
X6334Y2200D02*
X6753D01*
X7055Y2502D02*
X7080D01*
X6220Y2314D02*
X6334Y2200D01*
X6178Y2314D02*
X6220D01*
X5600Y2100D02*
X5800D01*
X7080Y2502D02*
X8002D01*
X6595D02*
X6620D01*
X6525Y2572D02*
X6595Y2502D01*
X5875Y2572D02*
X6525D01*
X6136Y2314D02*
X6178D01*
X5881Y2369D02*
X6080D01*
X5875Y2375D02*
X5881Y2369D01*
X6080D02*
X6136Y2314D01*
X5876Y2768D02*
X7904D01*
X8285Y3150D01*
X5875Y2966D02*
X7716D01*
X8670Y3920D01*
X5257Y6823D02*
X5386Y6952D01*
X5386D01*
X5545Y7110D02*
Y7585D01*
X5386Y6952D02*
X5545Y7110D01*
Y7585D02*
X5800Y7840D01*
X4615Y6150D02*
X5257Y6793D01*
Y6823D01*
X9230Y1550D02*
X9580Y1200D01*
X8725Y1550D02*
X9230D01*
X5206Y2100D02*
X5208Y2098D01*
Y1897D02*
Y2098D01*
X5403Y2572D02*
X5875D01*
Y2769D02*
X5876Y2768D01*
X3629Y2098D02*
X3631Y2100D01*
X7588Y7155D02*
X8521Y8088D01*
X7588Y7151D02*
Y7155D01*
X6987Y6550D02*
X7588Y7151D01*
X6050Y6550D02*
X6987D01*
X7900Y8150D02*
Y8350D01*
X6750Y7000D02*
X7900Y8150D01*
X5950Y7000D02*
X6750D01*
X1550Y2420D02*
X1680Y2290D01*
Y1798D02*
Y2290D01*
X2320Y1798D02*
Y2180D01*
X450Y1450D02*
Y4750D01*
X2100Y5850D02*
X2650Y5300D01*
X710Y5850D02*
X2100D01*
X9580Y1200D02*
X9600D01*
X12850Y1350D02*
Y2300D01*
X12350Y850D02*
X12850Y1350D01*
X6372Y3753D02*
X6469Y3850D01*
X5875Y3556D02*
X7156D01*
X5875Y3360D02*
X7410D01*
X5875Y3163D02*
X7563D01*
X7156Y3556D02*
X7800Y4200D01*
X7410Y3360D02*
X8150Y4100D01*
X7563Y3163D02*
X8400Y4000D01*
X500Y5300D02*
X550D01*
X800Y5550D02*
X2000D01*
X550Y5300D02*
X800Y5550D01*
X500Y5250D02*
Y5300D01*
X250Y5000D02*
X500Y5250D01*
X1050Y5350D02*
X1945D01*
X450Y4750D02*
X1050Y5350D01*
X752Y4433D02*
Y4552D01*
X900Y4700D01*
X748Y4430D02*
X752Y4433D01*
X8150Y4100D02*
Y4900D01*
X8400Y4000D02*
Y6780D01*
X8670Y7050D01*
X1050Y2150D02*
Y3350D01*
X2150Y2350D02*
X2175Y2375D01*
X3159D01*
X2150Y2350D02*
X2320Y2180D01*
X2150Y7000D02*
Y7250D01*
X1900Y7500D02*
X2150Y7250D01*
X1400Y7500D02*
X1900D01*
X748Y2630D02*
X767Y2648D01*
Y3032D01*
X748Y3652D02*
X1050Y3350D01*
X748Y3652D02*
Y3970D01*
X820Y3898D01*
X1320D01*
X1826Y2420D02*
X2569Y3163D01*
X1550Y2420D02*
X1826D01*
X2569Y3163D02*
X3159D01*
X5011Y1840D02*
Y2098D01*
X5009Y2100D02*
X5011Y2098D01*
X12600Y2300D02*
X12850D01*
X12167Y4350D02*
X12850Y3667D01*
X8670Y3920D02*
Y6500D01*
X5009Y5509D02*
X6050Y6550D01*
X5009Y4816D02*
Y5509D01*
X2400Y4800D02*
Y5150D01*
Y4800D02*
X2856Y4344D01*
X2150Y4795D02*
Y5145D01*
X2856Y4344D02*
X3159D01*
X2798Y4147D02*
X3159D01*
X2150Y4795D02*
X2798Y4147D01*
X2000Y5550D02*
X2400Y5150D01*
X1945Y5350D02*
X2150Y5145D01*
X350Y6210D02*
X710Y5850D01*
X7800Y4200D02*
Y4800D01*
X7404Y4325D02*
X7410D01*
X7264Y4465D02*
X7404Y4325D01*
X3631Y2572D02*
X4517Y3458D01*
X3631Y2100D02*
Y2572D01*
X4517Y3458D02*
X5403Y2572D01*
X4517Y3458D02*
X5403Y4344D01*
Y4816D01*
X4222Y3753D02*
X4517Y3458D01*
X3159Y3753D02*
X4222D01*
X4812Y5862D02*
X5950Y7000D01*
X7304Y4800D02*
X7350D01*
X7158Y4654D02*
X7304Y4800D01*
X7000Y4150D02*
X7006Y4144D01*
X6350Y4150D02*
X7000D01*
X6875Y4654D02*
X7158D01*
X6762Y4541D02*
X6875Y4654D01*
X6940Y4465D02*
X7264D01*
X6819Y4344D02*
X6940Y4465D01*
X5875Y4541D02*
X6762D01*
X5875Y4344D02*
X6819D01*
X5875Y3753D02*
X6372D01*
X6150Y3950D02*
X6350Y4150D01*
X3500Y5600D02*
X3631Y5469D01*
X3500Y5600D02*
Y5900D01*
X3631Y4816D02*
Y5469D01*
X3735Y5620D02*
Y5974D01*
X3828Y4816D02*
Y5527D01*
X3735Y5620D02*
X3828Y5527D01*
X3808Y6047D02*
Y6093D01*
X3735Y5974D02*
X3808Y6047D01*
X5875Y3950D02*
X6150D01*
X9150Y7050D02*
X9155Y7045D01*
X5403Y5153D02*
X6000Y5750D01*
X5206Y5306D02*
X5950Y6050D01*
X6000Y5750D02*
X6600D01*
X5950Y6050D02*
X6368D01*
X6600Y5750D02*
X6830Y5520D01*
X6368Y6050D02*
X6370Y6048D01*
X5206Y4816D02*
Y5306D01*
X4812Y4816D02*
Y5862D01*
X3500Y6300D02*
X4102Y6902D01*
Y7198D01*
X4100Y7200D02*
X4102Y7198D01*
X3500Y5900D02*
Y6300D01*
X4615Y4816D02*
Y6150D01*
X5403Y4816D02*
Y5153D01*
X6830Y5498D02*
Y5520D01*
X5800Y7840D02*
Y8460D01*
X748Y4430D02*
X1290D01*
X1310Y4450D01*
X1790D02*
X2070Y4170D01*
X1790Y4450D02*
X1790D01*
X2070Y3880D02*
Y4170D01*
Y3880D02*
X2394Y3556D01*
X6370Y4898D02*
Y5498D01*
X6168Y5100D02*
X6370Y4898D01*
X5913Y5100D02*
X6168D01*
X5884D02*
X5913D01*
X5600Y4816D02*
X5884Y5100D01*
X3159Y2375D02*
X3434Y2100D01*
X1570Y3360D02*
X3159D01*
X1550Y3380D02*
X1570Y3360D01*
X2394Y3556D02*
X3159D01*
X2450Y3950D02*
X3159D01*
X2350Y4050D02*
X2450Y3950D01*
X4222Y4816D02*
Y5092D01*
X3350Y4900D02*
Y5300D01*
X3000Y5175D02*
Y5650D01*
X3159Y4541D02*
Y5016D01*
X3000Y5175D02*
X3159Y5016D01*
X3350Y4900D02*
X3434Y4816D01*
X1550Y3380D02*
X1780Y3610D01*
Y3898D01*
Y5002D02*
X1790Y4992D01*
Y4450D02*
Y4992D01*
D16*
X2790Y1250D02*
D03*
X2310D02*
D03*
X1790Y4450D02*
D03*
X1310D02*
D03*
X9150Y7050D02*
D03*
X8670D02*
D03*
X9150Y6500D02*
D03*
X8670D02*
D03*
X3040Y7850D02*
D03*
X2560D02*
D03*
D33*
X8425Y8775D02*
G03*
X8847Y8600I422J423D01*
G01*
X7400Y9368D02*
X9274D01*
X8682Y9050D02*
X8739Y9107D01*
X8650Y9050D02*
X8682D01*
X8739Y9107D02*
X9270D01*
X8250Y8950D02*
X8425Y8775D01*
X9270Y9107D02*
X9274Y9112D01*
X7700Y10512D02*
X8200D01*
X5700D02*
X6200D01*
X4700D02*
X5200D01*
X8847Y8600D02*
X9274D01*
X7200Y10394D02*
Y10512D01*
X7544Y10050D02*
X8000D01*
X7200Y10394D02*
X7544Y10050D01*
X7050Y8600D02*
X7150Y8500D01*
X6526Y8600D02*
X7050D01*
X6526Y8344D02*
X6720Y8150D01*
X6526Y8088D02*
Y8344D01*
X6720Y8150D02*
X7300D01*
X7069Y7831D02*
X7100Y7800D01*
X6869Y7831D02*
X7069D01*
X6868Y7832D02*
X6869Y7831D01*
X6526Y7832D02*
X6868D01*
X3450Y7140D02*
Y7525D01*
X3100Y6790D02*
X3450Y7140D01*
X9950Y7950D02*
Y8250D01*
X9832Y7832D02*
X9950Y7950D01*
X9274Y7832D02*
X9832D01*
X9274Y8856D02*
Y9112D01*
D34*
X2996Y7270D02*
G03*
X3030Y7352I-82J82D01*
G01*
X2854Y7130D02*
G03*
X2887Y7161I-355J418D01*
G01*
X2571Y7000D02*
G03*
X2836Y7110I0J375D01*
G01*
X5770Y8910D02*
X5800D01*
X3365Y8600D02*
X5427D01*
X3174Y8426D02*
Y8498D01*
Y8409D02*
Y8426D01*
Y8498D02*
X3182Y8506D01*
X3271D01*
X3365Y8600D01*
X5800Y9600D02*
X6050Y9850D01*
X9675Y9725D02*
X9950Y9450D01*
X6975Y9725D02*
X9675D01*
X6850Y9850D02*
X6975Y9725D01*
X5800Y8940D02*
Y9600D01*
X6050Y9850D02*
X6850D01*
X1850Y9580D02*
X2415D01*
X2426Y9591D01*
X5800Y8910D02*
Y8940D01*
X5650Y8790D02*
X5770Y8910D01*
X5427Y8600D02*
X5617Y8790D01*
X5650D01*
X4000Y8075D02*
X4975D01*
X3775Y7850D02*
X4000Y8075D01*
X2996Y7270D02*
X2996Y7270D01*
X2887Y7161D02*
X2996Y7270D01*
X2150Y7000D02*
X2571D01*
X9950Y8250D02*
Y9450D01*
X5280Y7348D02*
Y7820D01*
X5000Y8100D02*
X5280Y7820D01*
X3030Y7352D02*
X3040Y7362D01*
X2560D02*
X2570Y7352D01*
X3040Y7362D02*
Y7850D01*
X2560Y7362D02*
Y7850D01*
X3040D02*
X3775D01*
X2903Y6310D02*
X3100D01*
X2613Y6600D02*
X2903Y6310D01*
X967Y6210D02*
X1050D01*
X487Y6690D02*
X967Y6210D01*
X350Y6690D02*
X487D01*
X1050Y6210D02*
X1671D01*
X1687Y6226D01*
X2426Y7984D02*
X2560Y7850D01*
X2426Y7984D02*
Y8409D01*
X1850Y7870D02*
X1870Y7850D01*
X2560D01*
X2613Y6600D02*
X2660D01*
X4975Y8075D02*
X5000Y8100D01*
X3340Y9425D02*
X4000D01*
X3174Y9591D02*
X3340Y9425D01*
X302Y8552D02*
X1050Y9300D01*
X302Y8552D02*
Y8967D01*
Y8430D02*
Y8552D01*
X298Y8970D02*
X302Y8967D01*
D35*
X2996Y7270D02*
D03*
D36*
X1256Y9094D02*
X2506D01*
X1050Y9300D02*
X1256Y9094D01*
X2506D02*
X3174Y8426D01*
X1434Y10150D02*
X2838D01*
X3105Y10417D01*
X3200Y10439D02*
Y10512D01*
X3105Y10417D02*
X3177D01*
X3200Y10439D01*
X3700Y10512D02*
X4200D01*
X3200D02*
X3700D01*
X1200Y9916D02*
X1434Y10150D01*
X1200Y9450D02*
Y9916D01*
D37*
X3150Y1950D02*
Y1962D01*
Y1950D02*
X3335Y1765D01*
X3689D02*
X3820Y1897D01*
X3335Y1765D02*
X3689D01*
X3820Y1959D02*
X3828Y1967D01*
Y2100D01*
X3820Y1897D02*
Y1959D01*
D38*
X9600Y7045D02*
G03*
X9607Y7045I0J255D01*
G01*
X9150Y6500D02*
X9500D01*
X10005Y7005D01*
X9607Y7045D02*
X9800Y7050D01*
X9952Y7202D02*
X10480D01*
X10005Y7005D02*
X10480D01*
X9800Y7050D02*
X9952Y7202D01*
X9155Y7045D02*
X9600D01*
X9546Y7398D02*
X10480D01*
X9448Y7300D02*
X9546Y7398D01*
X9150Y7400D02*
X9345Y7595D01*
X9150Y7050D02*
Y7400D01*
X9345Y7595D02*
X10480D01*
D40*
X3850Y1450D02*
D03*
X5257Y6808D02*
D03*
X9250Y5150D02*
D03*
X650Y7350D02*
D03*
X1400Y7500D02*
D03*
X6050Y6550D02*
D03*
X6750Y7000D02*
D03*
X500Y5300D02*
D03*
X750Y1250D02*
D03*
X9250Y5750D02*
D03*
X11479Y1971D02*
D03*
D41*
X10421Y3029D02*
D03*
D42*
X7700Y512D02*
D03*
X8200D02*
D03*
X4700D02*
D03*
X4200D02*
D03*
X3700D02*
D03*
X3200D02*
D03*
X6700D02*
D03*
X6200D02*
D03*
X5700D02*
D03*
X5200D02*
D03*
X8700D02*
D03*
X7200D02*
D03*
X4700Y10512D02*
D03*
X4200D02*
D03*
X3700D02*
D03*
X3200D02*
D03*
X6700D02*
D03*
X6200D02*
D03*
X5700D02*
D03*
X5200D02*
D03*
X8700D02*
D03*
X8200D02*
D03*
X7700D02*
D03*
X7200D02*
D03*
D43*
X10924Y9513D02*
D03*
Y5087D02*
D03*
D44*
X12499D02*
D03*
Y9513D02*
D03*
D45*
X10582Y2381D02*
D03*
X10250Y2398D02*
D03*
X11400Y2800D02*
D03*
X9895Y3452D02*
D03*
X11150Y4100D02*
D03*
X11450Y4350D02*
D03*
X950Y8750D02*
D03*
X4300Y2950D02*
D03*
X5450Y2650D02*
D03*
X3950Y2550D02*
D03*
X4400Y9950D02*
D03*
X5100Y9250D02*
D03*
X4800Y9550D02*
D03*
X4200Y8900D02*
D03*
X1050Y9300D02*
D03*
X8650Y8343D02*
D03*
X802Y10250D02*
D03*
X2800Y9550D02*
D03*
X3285Y1537D02*
D03*
X3850Y1442D02*
D03*
X3150Y1962D02*
D03*
X8500Y7700D02*
D03*
X1400Y6600D02*
D03*
X3900Y8900D02*
D03*
X3550D02*
D03*
X3100Y9100D02*
D03*
X3750Y7250D02*
D03*
X2600Y6150D02*
D03*
X10200Y5000D02*
D03*
X12100Y4050D02*
D03*
X11400Y3150D02*
D03*
X12900Y900D02*
D03*
X13100Y1800D02*
D03*
Y1350D02*
D03*
X9400Y700D02*
D03*
X9150Y400D02*
D03*
X7900Y8350D02*
D03*
X7350Y7250D02*
D03*
X1687Y6974D02*
D03*
X8150Y4900D02*
D03*
X9900Y5750D02*
D03*
X1200Y9450D02*
D03*
X1050Y2150D02*
D03*
X4745Y4355D02*
D03*
X3700Y2950D02*
D03*
Y3500D02*
D03*
X4400Y4350D02*
D03*
X4000D02*
D03*
X3650D02*
D03*
X2600Y5800D02*
D03*
X3900Y7550D02*
D03*
X4350D02*
D03*
X4800Y9250D02*
D03*
X3950Y9950D02*
D03*
X3500D02*
D03*
X400Y10200D02*
D03*
X300Y9850D02*
D03*
X750Y6950D02*
D03*
X250Y7100D02*
D03*
Y7550D02*
D03*
X950Y7650D02*
D03*
X1150Y8050D02*
D03*
X900D02*
D03*
X1200Y8300D02*
D03*
X900D02*
D03*
X1550Y8650D02*
D03*
X10450Y5550D02*
D03*
X9800Y5000D02*
D03*
X8900Y3850D02*
D03*
X9050Y4050D02*
D03*
X9100Y3650D02*
D03*
X8700Y3400D02*
D03*
X9000Y6100D02*
D03*
X10000Y5300D02*
D03*
X13100Y4800D02*
D03*
X11650Y5050D02*
D03*
X12800Y10000D02*
D03*
X12400Y10250D02*
D03*
X11750Y10350D02*
D03*
X12100Y10000D02*
D03*
X11700Y9600D02*
D03*
X11100Y10300D02*
D03*
X11450Y10000D02*
D03*
X9200Y10550D02*
D03*
X10350Y10300D02*
D03*
X10750Y10100D02*
D03*
X10400Y9150D02*
D03*
X10200Y9850D02*
D03*
X9800Y10200D02*
D03*
X6400Y7250D02*
D03*
X6600Y7500D02*
D03*
X6250D02*
D03*
X8050Y6300D02*
D03*
X8300Y7350D02*
D03*
X8850Y7400D02*
D03*
X8150Y6650D02*
D03*
X7950Y6900D02*
D03*
X7700Y6600D02*
D03*
X7600Y6100D02*
D03*
X7900Y5900D02*
D03*
X7750Y5550D02*
D03*
X7700Y5200D02*
D03*
X7300D02*
D03*
Y5500D02*
D03*
Y5850D02*
D03*
Y6250D02*
D03*
X9250Y5150D02*
D03*
X650Y7350D02*
D03*
X2300Y6050D02*
D03*
X12850Y2983D02*
D03*
Y3667D02*
D03*
Y4350D02*
D03*
X7800Y4800D02*
D03*
X700Y1800D02*
D03*
X9950Y6350D02*
D03*
Y8250D02*
D03*
D46*
X9745Y2100D02*
D03*
X10650Y3850D02*
D03*
X10036Y1658D02*
D03*
X10550Y1400D02*
D03*
X8558Y2800D02*
D03*
X8000Y10050D02*
D03*
X4250Y5500D02*
D03*
X6300Y9500D02*
D03*
X6650D02*
D03*
X7400Y9368D02*
D03*
X8650Y9050D02*
D03*
X8250Y8950D02*
D03*
X6178Y2314D02*
D03*
X8850Y1250D02*
D03*
X7300Y8150D02*
D03*
X7100Y7800D02*
D03*
X7150Y8500D02*
D03*
X9600Y1200D02*
D03*
X6469Y3850D02*
D03*
X9500Y6500D02*
D03*
X2150Y2350D02*
D03*
X767Y3032D02*
D03*
X7410Y4325D02*
D03*
X7350Y4800D02*
D03*
X9448Y7300D02*
D03*
X7006Y4144D02*
D03*
X4000Y5800D02*
D03*
X4100Y7200D02*
D03*
X4000Y8050D02*
D03*
X3450Y7525D02*
D03*
X5913Y5100D02*
D03*
X2350Y4050D02*
D03*
X3808Y6093D02*
D03*
X3350Y5300D02*
D03*
X2650D02*
D03*
X3000Y5650D02*
D03*
D47*
X7900Y971D02*
D03*
D48*
X900Y4700D02*
D03*
X2150Y7000D02*
D03*
D49*
X8425Y8775D02*
D03*
D50*
X9600Y3090D02*
D03*
Y2610D02*
D03*
Y4140D02*
D03*
Y3660D02*
D03*
X5800Y7360D02*
D03*
Y7840D02*
D03*
X3100Y6310D02*
D03*
Y6790D02*
D03*
X5800Y8460D02*
D03*
Y8940D02*
D03*
X1050Y6210D02*
D03*
Y6690D02*
D03*
X350Y6210D02*
D03*
Y6690D02*
D03*
X1850Y9580D02*
D03*
Y9100D02*
D03*
Y7870D02*
D03*
Y8350D02*
D03*
D51*
X11097Y1925D02*
D03*
X10841D02*
D03*
X10585D02*
D03*
X10329D02*
D03*
X11097Y4445D02*
D03*
X10841D02*
D03*
X10585D02*
D03*
X10329D02*
D03*
D52*
X7080Y2502D02*
D03*
X6620D02*
D03*
X2320Y1798D02*
D03*
X2780D02*
D03*
X6370Y4898D02*
D03*
X6830D02*
D03*
X1730Y1252D02*
D03*
X1270D02*
D03*
X6370Y5498D02*
D03*
X6830D02*
D03*
X4820Y7348D02*
D03*
X5280D02*
D03*
X1220Y1798D02*
D03*
X1680D02*
D03*
X1780Y5002D02*
D03*
X1320D02*
D03*
Y3898D02*
D03*
X1780D02*
D03*
X6370Y6048D02*
D03*
X6830D02*
D03*
X2570Y7352D02*
D03*
X3030D02*
D03*
D53*
X12850Y2300D02*
D03*
Y2983D02*
D03*
Y3667D02*
D03*
Y4350D02*
D03*
D54*
X12350Y900D02*
D03*
X10100D02*
D03*
X10850D02*
D03*
X11600D02*
D03*
D55*
X748Y2630D02*
D03*
Y2170D02*
D03*
Y4430D02*
D03*
Y3970D02*
D03*
X298Y8970D02*
D03*
Y9430D02*
D03*
X302Y8430D02*
D03*
Y7970D02*
D03*
D56*
X4000Y8075D02*
D03*
Y9425D02*
D03*
D57*
X6526Y7832D02*
D03*
Y8088D02*
D03*
Y8344D02*
D03*
Y8600D02*
D03*
Y8856D02*
D03*
Y9112D02*
D03*
Y9368D02*
D03*
X9274Y7832D02*
D03*
Y8088D02*
D03*
Y8344D02*
D03*
Y8600D02*
D03*
Y8856D02*
D03*
Y9112D02*
D03*
Y9368D02*
D03*
D58*
X1550Y2420D02*
D03*
Y2900D02*
D03*
Y3380D02*
D03*
D59*
X5000Y8100D02*
D03*
Y9400D02*
D03*
D60*
X1687Y6226D02*
D03*
X2613Y6600D02*
D03*
D61*
X1687Y6974D02*
D03*
D62*
X1050Y8200D02*
D03*
Y9300D02*
D03*
D63*
X2426Y8409D02*
D03*
X3174D02*
D03*
Y9591D02*
D03*
X2800D02*
D03*
X2426D02*
D03*
D64*
X10480Y5981D02*
D03*
Y6099D02*
D03*
Y6296D02*
D03*
Y6414D02*
D03*
Y6611D02*
D03*
Y6808D02*
D03*
Y7005D02*
D03*
X10480Y7202D02*
D03*
X10480Y7398D02*
D03*
X10480Y7595D02*
D03*
X10480Y7792D02*
D03*
Y7989D02*
D03*
X10480Y8186D02*
D03*
Y8304D02*
D03*
X10480Y8501D02*
D03*
Y8619D02*
D03*
D65*
X4517Y3458D02*
D03*
D66*
X3434Y2100D02*
D03*
X3631D02*
D03*
X3828D02*
D03*
X4025D02*
D03*
X4222D02*
D03*
X4419D02*
D03*
X4615D02*
D03*
X4812D02*
D03*
X5009D02*
D03*
X5206D02*
D03*
X5403D02*
D03*
X5600D02*
D03*
Y4816D02*
D03*
X5403D02*
D03*
X5206D02*
D03*
X5009D02*
D03*
X4812D02*
D03*
X4615D02*
D03*
X4419D02*
D03*
X4222D02*
D03*
X4025D02*
D03*
X3828D02*
D03*
X3631D02*
D03*
X3434D02*
D03*
D67*
X5875Y2375D02*
D03*
Y2572D02*
D03*
Y2769D02*
D03*
Y2966D02*
D03*
Y3163D02*
D03*
Y3360D02*
D03*
Y3556D02*
D03*
Y3753D02*
D03*
Y3950D02*
D03*
Y4147D02*
D03*
Y4344D02*
D03*
Y4541D02*
D03*
X3159D02*
D03*
Y4344D02*
D03*
Y4147D02*
D03*
Y3950D02*
D03*
Y3753D02*
D03*
Y3556D02*
D03*
Y3360D02*
D03*
Y3163D02*
D03*
Y2966D02*
D03*
Y2769D02*
D03*
Y2572D02*
D03*
Y2375D02*
D03*
D68*
X10300Y6350D02*
D03*
D69*
X10275Y8250D02*
D03*
M02*
