G04*
G04 #@! TF.GenerationSoftware,Altium Limited,Altium Designer,21.2.0 (30)*
G04*
G04 Layer_Color=32768*
%FSLAX24Y24*%
%MOIN*%
G70*
G04*
G04 #@! TF.SameCoordinates,7FD8D1C1-8453-446E-9C5A-4270D5F62F01*
G04*
G04*
G04 #@! TF.FilePolarity,Positive*
G04*
G01*
G75*
%ADD33C,0.0118*%
%ADD94C,0.0177*%
%ADD95C,0.0020*%
%ADD96C,0.0030*%
G36*
X2826Y2546D02*
X2842D01*
Y2562D01*
X2889D01*
Y2531D01*
X2858D01*
Y2515D01*
X2842D01*
Y2499D01*
X2810D01*
Y2483D01*
X2763D01*
Y2735D01*
X2826D01*
Y2546D01*
D02*
G37*
G36*
X2999Y2100D02*
X2699D01*
X2999Y2400D01*
Y2100D01*
D02*
G37*
D33*
X10334Y4385D02*
G03*
X10334Y4385I-59J0D01*
G01*
X11538Y1971D02*
G03*
X11538Y1971I-59J0D01*
G01*
X6266Y7832D02*
G03*
X6266Y7832I-59J0D01*
G01*
X3001Y2277D02*
G03*
X3001Y2277I-59J0D01*
G01*
D94*
X10510Y3029D02*
G03*
X10510Y3029I-89J0D01*
G01*
D95*
X5138Y8750D02*
G03*
X5138Y8750I-138J0D01*
G01*
X4803D02*
X5197D01*
X5000Y8553D02*
Y8947D01*
D96*
X6850Y2450D02*
Y2550D01*
X6800Y2500D02*
X6900D01*
X2550Y1750D02*
Y1850D01*
X2500Y1800D02*
X2600D01*
X700Y2400D02*
X800D01*
X750Y2350D02*
Y2450D01*
X4000Y8650D02*
Y8850D01*
X3900Y8750D02*
X4100D01*
X6600Y4850D02*
Y4950D01*
X6550Y4900D02*
X6650D01*
X1500Y1200D02*
Y1300D01*
X1450Y1250D02*
X1550D01*
X700Y4200D02*
X800D01*
X750Y4150D02*
Y4250D01*
X6600Y5450D02*
Y5550D01*
X6550Y5500D02*
X6650D01*
X5050Y7300D02*
Y7400D01*
X5000Y7350D02*
X5100D01*
X1450Y1750D02*
Y1850D01*
X1400Y1800D02*
X1500D01*
X1550Y4950D02*
Y5050D01*
X1500Y5000D02*
X1600D01*
X1550Y3850D02*
Y3950D01*
X1500Y3900D02*
X1600D01*
X6600Y6000D02*
Y6100D01*
X6550Y6050D02*
X6650D01*
X2750Y7350D02*
X2850D01*
X2800Y7300D02*
Y7400D01*
X300Y9150D02*
Y9250D01*
X250Y9200D02*
X350D01*
X300Y8150D02*
Y8250D01*
X250Y8200D02*
X350D01*
M02*
