G04*
G04 #@! TF.GenerationSoftware,Altium Limited,Altium Designer,21.2.0 (30)*
G04*
G04 Layer_Color=128*
%FSLAX24Y24*%
%MOIN*%
G70*
G04*
G04 #@! TF.SameCoordinates,7FD8D1C1-8453-446E-9C5A-4270D5F62F01*
G04*
G04*
G04 #@! TF.FilePolarity,Positive*
G04*
G01*
G75*
%ADD16R,0.0260X0.0200*%
%ADD40C,0.0394*%
%ADD50R,0.0200X0.0260*%
%ADD51O,0.0157X0.0591*%
%ADD52R,0.0250X0.0200*%
G04:AMPARAMS|DCode=53|XSize=39.4mil|YSize=60mil|CornerRadius=9.8mil|HoleSize=0mil|Usage=FLASHONLY|Rotation=90.000|XOffset=0mil|YOffset=0mil|HoleType=Round|Shape=RoundedRectangle|*
%AMROUNDEDRECTD53*
21,1,0.0394,0.0403,0,0,90.0*
21,1,0.0197,0.0600,0,0,90.0*
1,1,0.0197,0.0202,0.0098*
1,1,0.0197,0.0202,-0.0098*
1,1,0.0197,-0.0202,-0.0098*
1,1,0.0197,-0.0202,0.0098*
%
%ADD53ROUNDEDRECTD53*%
G04:AMPARAMS|DCode=54|XSize=47.2mil|YSize=59.1mil|CornerRadius=11.8mil|HoleSize=0mil|Usage=FLASHONLY|Rotation=0.000|XOffset=0mil|YOffset=0mil|HoleType=Round|Shape=RoundedRectangle|*
%AMROUNDEDRECTD54*
21,1,0.0472,0.0354,0,0,0.0*
21,1,0.0236,0.0591,0,0,0.0*
1,1,0.0236,0.0118,-0.0177*
1,1,0.0236,-0.0118,-0.0177*
1,1,0.0236,-0.0118,0.0177*
1,1,0.0236,0.0118,0.0177*
%
%ADD54ROUNDEDRECTD54*%
%ADD55R,0.0200X0.0250*%
%ADD56R,0.0650X0.0500*%
%ADD57O,0.0820X0.0143*%
%ADD58R,0.0709X0.0157*%
%ADD59R,0.0600X0.0600*%
%ADD60R,0.0374X0.0354*%
%ADD61R,0.0374X0.0354*%
%ADD62R,0.0618X0.0600*%
%ADD63R,0.0217X0.0394*%
%ADD64R,0.0500X0.0118*%
%ADD65R,0.2165X0.2165*%
%ADD66O,0.0110X0.0354*%
%ADD67O,0.0354X0.0110*%
D16*
X2790Y1250D02*
D03*
X2310D02*
D03*
X1790Y4450D02*
D03*
X1310D02*
D03*
X9150Y7050D02*
D03*
X8670D02*
D03*
X9150Y6500D02*
D03*
X8670D02*
D03*
X3040Y7850D02*
D03*
X2560D02*
D03*
D40*
X3850Y1450D02*
D03*
X5257Y6808D02*
D03*
X9250Y5150D02*
D03*
X650Y7350D02*
D03*
X1400Y7500D02*
D03*
X6050Y6550D02*
D03*
X6750Y7000D02*
D03*
X500Y5300D02*
D03*
X750Y1250D02*
D03*
X9250Y5750D02*
D03*
D50*
X9600Y3090D02*
D03*
Y2610D02*
D03*
Y4140D02*
D03*
Y3660D02*
D03*
X5800Y7360D02*
D03*
Y7840D02*
D03*
X3100Y6310D02*
D03*
Y6790D02*
D03*
X5800Y8460D02*
D03*
Y8940D02*
D03*
X1050Y6210D02*
D03*
Y6690D02*
D03*
X350Y6210D02*
D03*
Y6690D02*
D03*
X1850Y9580D02*
D03*
Y9100D02*
D03*
Y7870D02*
D03*
Y8350D02*
D03*
D51*
X11097Y1925D02*
D03*
X10841D02*
D03*
X10585D02*
D03*
X10329D02*
D03*
X11097Y4445D02*
D03*
X10841D02*
D03*
X10585D02*
D03*
X10329D02*
D03*
D52*
X7080Y2502D02*
D03*
X6620D02*
D03*
X2320Y1798D02*
D03*
X2780D02*
D03*
X6370Y4898D02*
D03*
X6830D02*
D03*
X1730Y1252D02*
D03*
X1270D02*
D03*
X6370Y5498D02*
D03*
X6830D02*
D03*
X4820Y7348D02*
D03*
X5280D02*
D03*
X1220Y1798D02*
D03*
X1680D02*
D03*
X1780Y5002D02*
D03*
X1320D02*
D03*
Y3898D02*
D03*
X1780D02*
D03*
X6370Y6048D02*
D03*
X6830D02*
D03*
X2570Y7352D02*
D03*
X3030D02*
D03*
D53*
X12850Y2300D02*
D03*
Y2983D02*
D03*
Y3667D02*
D03*
Y4350D02*
D03*
D54*
X12350Y900D02*
D03*
X10100D02*
D03*
X10850D02*
D03*
X11600D02*
D03*
D55*
X748Y2630D02*
D03*
Y2170D02*
D03*
Y4430D02*
D03*
Y3970D02*
D03*
X298Y8970D02*
D03*
Y9430D02*
D03*
X302Y8430D02*
D03*
Y7970D02*
D03*
D56*
X4000Y8075D02*
D03*
Y9425D02*
D03*
D57*
X6526Y7832D02*
D03*
Y8088D02*
D03*
Y8344D02*
D03*
Y8600D02*
D03*
Y8856D02*
D03*
Y9112D02*
D03*
Y9368D02*
D03*
X9274Y7832D02*
D03*
Y8088D02*
D03*
Y8344D02*
D03*
Y8600D02*
D03*
Y8856D02*
D03*
Y9112D02*
D03*
Y9368D02*
D03*
D58*
X1550Y2420D02*
D03*
Y2900D02*
D03*
Y3380D02*
D03*
D59*
X5000Y8100D02*
D03*
Y9400D02*
D03*
D60*
X1687Y6226D02*
D03*
X2613Y6600D02*
D03*
D61*
X1687Y6974D02*
D03*
D62*
X1050Y8200D02*
D03*
Y9300D02*
D03*
D63*
X2426Y8409D02*
D03*
X3174D02*
D03*
Y9591D02*
D03*
X2800D02*
D03*
X2426D02*
D03*
D64*
X10480Y5981D02*
D03*
Y6099D02*
D03*
Y6296D02*
D03*
Y6414D02*
D03*
Y6611D02*
D03*
Y6808D02*
D03*
Y7005D02*
D03*
X10480Y7202D02*
D03*
X10480Y7398D02*
D03*
X10480Y7595D02*
D03*
X10480Y7792D02*
D03*
Y7989D02*
D03*
X10480Y8186D02*
D03*
Y8304D02*
D03*
X10480Y8501D02*
D03*
Y8619D02*
D03*
D65*
X4517Y3458D02*
D03*
D66*
X3434Y2100D02*
D03*
X3631D02*
D03*
X3828D02*
D03*
X4025D02*
D03*
X4222D02*
D03*
X4419D02*
D03*
X4615D02*
D03*
X4812D02*
D03*
X5009D02*
D03*
X5206D02*
D03*
X5403D02*
D03*
X5600D02*
D03*
Y4816D02*
D03*
X5403D02*
D03*
X5206D02*
D03*
X5009D02*
D03*
X4812D02*
D03*
X4615D02*
D03*
X4419D02*
D03*
X4222D02*
D03*
X4025D02*
D03*
X3828D02*
D03*
X3631D02*
D03*
X3434D02*
D03*
D67*
X5875Y2375D02*
D03*
Y2572D02*
D03*
Y2769D02*
D03*
Y2966D02*
D03*
Y3163D02*
D03*
Y3360D02*
D03*
Y3556D02*
D03*
Y3753D02*
D03*
Y3950D02*
D03*
Y4147D02*
D03*
Y4344D02*
D03*
Y4541D02*
D03*
X3159D02*
D03*
Y4344D02*
D03*
Y4147D02*
D03*
Y3950D02*
D03*
Y3753D02*
D03*
Y3556D02*
D03*
Y3360D02*
D03*
Y3163D02*
D03*
Y2966D02*
D03*
Y2769D02*
D03*
Y2572D02*
D03*
Y2375D02*
D03*
M02*
