M48
;Layer_Color=9474304
;FILE_FORMAT=2:4
INCH,LZ
;TYPE=PLATED
T1F00S00C0.0200
T2F00S00C0.0236
T3F00S00C0.0280
T4F00S00C0.0354
T5F00S00C0.0394
T6F00S00C0.0591
%
T01
X01045Y-00385
X01005Y-0034
X0102Y-003
X01005Y-00185
X010802Y-0007
X01125Y-001
X0142
X016452Y-0016
Y-0025
Y-00355
X01285Y-00485
X01255Y-0052
X009852Y-00385
X009Y-0044
X009052Y-00295
Y-00185
X00905Y-00045
X00825Y-0005
X00795Y-0009
X0077Y-0014
X0065Y-0013
X0066Y-0006
X006002Y-00065
X004402Y-00105
X00395Y-0013
X0032Y-0016
X00245Y-0015
X0019Y-0017
X0017Y-00225
X0009Y-0015
X00115Y-00115
X00075Y-001
X0011Y-00065
X00035Y-0013
X00045Y-0032
X0018Y-00425
X00175Y-0047
X00345Y-00475
X0041
X0046Y-0048
X005746Y-004701
X0057Y-00405
X0056Y-00345
X00615Y-0035
X0062Y-003
X0055Y-0026
X00495
X005102Y-00325
X00505Y-0039
X006452Y-00405
X00755Y-00425
X005152Y-00195
X00265Y-0005
Y0012
X003502Y0013
X004852Y00105
X00495Y0019
X00565
X0057Y0012
X00555Y0006
X00635
X00645Y00125
X00625Y0021
X0062Y0028
X006Y00345
X00595Y0041
X00645Y00395
X00545Y00365
X005002Y0039
Y00275
X0055Y003
X00785Y00325
X008152Y0038
X0078Y00415
X0076Y00235
X00805Y0019
X00795Y0014
X0078Y0005
X009
X00905Y001
X00925Y0015
X0095Y00205
X009402Y0027
X0037Y00465
X00165Y00475
X001665Y004212
X00055Y00335
X000552Y00285
X0005Y0015
X00115
X001602Y0019
X0105Y0016
X010552Y0009
X01065Y0005
X01075Y00215
X011502Y00195
X011602Y0016
X011952Y0017
X012252Y00265
X0125Y00385
X01305Y0038
X0129Y0042
X012902Y0047
X013502
X013402Y00415
X0139Y00425
X014202Y0047
X015052
X015802
X016452Y00345
Y00245
Y00145
Y00045
X0142Y0026
T02
X010102Y-005
X010602
X011102
X011602
X012102
X009602
X009102
X008602
X008102
X007602
X007102
X006602
Y005
X007102
X007602
X008102
X008602
X009102
X009602
X010102
X010602
X011102
X011602
X012102
T03
X0111Y-00375
X01195Y-00325
X013852
Y-00395
X011002Y-002
X0118Y-0008
X00863Y-002228
X008Y-00375
X008608Y002694
X0029Y00055
X010102
X01115Y00065
X012327Y00075
X013052Y0007
X013789Y000562
X011702Y00245
X011701Y003899
X010702Y003948
Y00295
T04
X016052Y-00405
Y-00305
Y-00205
Y-00105
Y-00005
X00185Y-000984
Y000984
X016052Y00095
Y00195
Y00295
Y00395
T05
X014964Y0
X0071Y-00005
X008502Y-0032
T06
X000718Y-004232
Y-002264
X002686
Y-004232
X001702Y-003248
Y003248
X000718Y002264
X002686
Y004232
X000718
M30
