G04*
G04 #@! TF.GenerationSoftware,Altium Limited,Altium Designer,21.2.0 (30)*
G04*
G04 Layer_Color=65535*
%FSLAX24Y24*%
%MOIN*%
G70*
G04*
G04 #@! TF.SameCoordinates,6A3BDC20-E317-4547-97BB-DAA7722936CF*
G04*
G04*
G04 #@! TF.FilePolarity,Positive*
G04*
G01*
G75*
%ADD10C,0.0079*%
%ADD11C,0.0010*%
%ADD12C,0.0100*%
G36*
X4605Y4695D02*
X4565D01*
Y4775D01*
X4495D01*
Y4825D01*
X4565D01*
Y4905D01*
X4605D01*
Y4695D01*
D02*
G37*
D10*
X2411Y-3248D02*
G03*
X2411Y-3248I-709J0D01*
G01*
Y3248D02*
G03*
X2411Y3248I-709J0D01*
G01*
X1308Y-2008D02*
X2096D01*
X2942Y-3642D02*
Y-2854D01*
X1308Y-4488D02*
X2096D01*
X462Y-3642D02*
Y-2854D01*
Y2854D02*
Y3642D01*
X1308Y2008D02*
X2096D01*
X2942Y2854D02*
Y3642D01*
X1308Y4488D02*
X2096D01*
D11*
X4605Y4695D02*
Y4905D01*
X4565Y4695D02*
Y4775D01*
X4495D02*
Y4825D01*
X4565D02*
Y4905D01*
X4605D01*
X4495Y4775D02*
X4565D01*
X4495Y4825D02*
X4565D01*
Y4695D02*
X4605D01*
D12*
X1850Y-550D02*
Y320D01*
Y-550D02*
Y-279D01*
Y320D02*
Y550D01*
X2350Y100D02*
X2350Y-100D01*
X1350Y-279D02*
X2350D01*
X1350Y-100D02*
X1350Y100D01*
Y270D02*
X2350Y270D01*
X1350Y-100D02*
X2350D01*
X1350Y100D02*
X2350D01*
X4014Y-4500D02*
X14914D01*
X14952Y4500D02*
X14952Y4400D01*
X3802Y4500D02*
X14952D01*
X3802Y3950D02*
Y4500D01*
X3802Y-1400D02*
Y2000D01*
M02*
