G04*
G04 #@! TF.GenerationSoftware,Altium Limited,Altium Designer,21.2.0 (30)*
G04*
G04 Layer_Color=8388736*
%FSLAX24Y24*%
%MOIN*%
G70*
G04*
G04 #@! TF.SameCoordinates,6A3BDC20-E317-4547-97BB-DAA7722936CF*
G04*
G04*
G04 #@! TF.FilePolarity,Negative*
G04*
G01*
G75*
%ADD16R,0.0340X0.0280*%
G04:AMPARAMS|DCode=17|XSize=28mil|YSize=28mil|CornerRadius=9mil|HoleSize=0mil|Usage=FLASHONLY|Rotation=270.000|XOffset=0mil|YOffset=0mil|HoleType=Round|Shape=RoundedRectangle|*
%AMROUNDEDRECTD17*
21,1,0.0280,0.0100,0,0,270.0*
21,1,0.0100,0.0280,0,0,270.0*
1,1,0.0180,-0.0050,-0.0050*
1,1,0.0180,-0.0050,0.0050*
1,1,0.0180,0.0050,0.0050*
1,1,0.0180,0.0050,-0.0050*
%
%ADD17ROUNDEDRECTD17*%
G04:AMPARAMS|DCode=18|XSize=106.4mil|YSize=67.1mil|CornerRadius=18.8mil|HoleSize=0mil|Usage=FLASHONLY|Rotation=0.000|XOffset=0mil|YOffset=0mil|HoleType=Round|Shape=RoundedRectangle|*
%AMROUNDEDRECTD18*
21,1,0.1064,0.0295,0,0,0.0*
21,1,0.0689,0.0671,0,0,0.0*
1,1,0.0375,0.0344,-0.0148*
1,1,0.0375,-0.0344,-0.0148*
1,1,0.0375,-0.0344,0.0148*
1,1,0.0375,0.0344,0.0148*
%
%ADD18ROUNDEDRECTD18*%
%ADD19O,0.0434X0.0671*%
%ADD20C,0.1064*%
%ADD21R,0.0789X0.0789*%
%ADD22C,0.0789*%
%ADD23C,0.0749*%
D16*
X5840Y4800D02*
D03*
X5360D02*
D03*
D17*
X4350D02*
D03*
X4750D02*
D03*
D18*
X3940Y-1996D02*
D03*
Y-2996D02*
D03*
Y-4000D02*
D03*
X14964D02*
D03*
Y-3000D02*
D03*
Y-2000D02*
D03*
Y-1000D02*
D03*
Y0D02*
D03*
Y1000D02*
D03*
Y2000D02*
D03*
Y3000D02*
D03*
Y4000D02*
D03*
X3940Y3500D02*
D03*
Y2500D02*
D03*
D19*
X12102Y5000D02*
D03*
X11602D02*
D03*
X11102D02*
D03*
X10602D02*
D03*
X10102D02*
D03*
X9602D02*
D03*
X9102D02*
D03*
X8602D02*
D03*
X8102D02*
D03*
X7602D02*
D03*
X7102D02*
D03*
X6602D02*
D03*
X12102Y-5000D02*
D03*
X11602D02*
D03*
X11102D02*
D03*
X10602D02*
D03*
X10102D02*
D03*
X9602D02*
D03*
X9102D02*
D03*
X8602D02*
D03*
X8102D02*
D03*
X7602D02*
D03*
X7102D02*
D03*
X6602D02*
D03*
D20*
X718Y-2264D02*
D03*
X2686D02*
D03*
Y-4232D02*
D03*
X718D02*
D03*
X1702Y-3248D02*
D03*
Y3248D02*
D03*
X718Y2264D02*
D03*
X2686D02*
D03*
Y4232D02*
D03*
X718D02*
D03*
D21*
X1850Y-984D02*
D03*
D22*
Y984D02*
D03*
D23*
X16052Y3950D02*
D03*
Y2950D02*
D03*
Y1950D02*
D03*
Y-4050D02*
D03*
Y-3050D02*
D03*
Y-2050D02*
D03*
Y-1050D02*
D03*
Y-50D02*
D03*
Y950D02*
D03*
M02*
