G04*
G04 #@! TF.GenerationSoftware,Altium Limited,Altium Designer,21.2.0 (30)*
G04*
G04 Layer_Physical_Order=2*
G04 Layer_Color=16711680*
%FSLAX24Y24*%
%MOIN*%
G70*
G04*
G04 #@! TF.SameCoordinates,6A3BDC20-E317-4547-97BB-DAA7722936CF*
G04*
G04*
G04 #@! TF.FilePolarity,Positive*
G04*
G01*
G75*
%ADD13R,0.0260X0.0200*%
G04:AMPARAMS|DCode=15|XSize=98.4mil|YSize=59.1mil|CornerRadius=14.8mil|HoleSize=0mil|Usage=FLASHONLY|Rotation=0.000|XOffset=0mil|YOffset=0mil|HoleType=Round|Shape=RoundedRectangle|*
%AMROUNDEDRECTD15*
21,1,0.0984,0.0295,0,0,0.0*
21,1,0.0689,0.0591,0,0,0.0*
1,1,0.0295,0.0344,-0.0148*
1,1,0.0295,-0.0344,-0.0148*
1,1,0.0295,-0.0344,0.0148*
1,1,0.0295,0.0344,0.0148*
%
%ADD15ROUNDEDRECTD15*%
%ADD24C,0.0200*%
%ADD25C,0.0394*%
%ADD26O,0.0354X0.0591*%
%ADD27C,0.0984*%
%ADD28R,0.0709X0.0709*%
%ADD29C,0.0709*%
%ADD30C,0.0669*%
%ADD31C,0.0300*%
%ADD32C,0.0500*%
%ADD33C,0.0200*%
%ADD34R,0.0354X0.0374*%
%ADD35R,0.0354X0.0374*%
G36*
X12671Y5336D02*
X12700Y5298D01*
X12707Y5251D01*
X12710Y5227D01*
X12748Y5135D01*
X12809Y5057D01*
X12887Y4996D01*
X12979Y4958D01*
X13077Y4945D01*
X13097Y4948D01*
X13102Y4947D01*
X15752D01*
X15759Y4949D01*
X15924Y4932D01*
X16089Y4882D01*
X16242Y4801D01*
X16375Y4691D01*
X16485Y4557D01*
X16566Y4405D01*
X16617Y4240D01*
X16633Y4075D01*
X16631Y4068D01*
Y-4118D01*
X16633Y-4125D01*
X16617Y-4287D01*
X16567Y-4450D01*
X16487Y-4600D01*
X16379Y-4731D01*
X16248Y-4839D01*
X16098Y-4919D01*
X15935Y-4969D01*
X15773Y-4985D01*
X15766Y-4983D01*
X15477D01*
X15468Y-4934D01*
X15528Y-4909D01*
X15702Y-4802D01*
X15858Y-4670D01*
X15857Y-4669D01*
X15950Y-4575D01*
X15978Y-4548D01*
X16019Y-4513D01*
X16034Y-4502D01*
X16047Y-4493D01*
X16056Y-4488D01*
X16165Y-4473D01*
X16271Y-4430D01*
X16362Y-4360D01*
X16432Y-4269D01*
X16475Y-4163D01*
X16490Y-4050D01*
X16475Y-3937D01*
X16432Y-3831D01*
X16362Y-3740D01*
X16271Y-3670D01*
X16165Y-3627D01*
X16052Y-3612D01*
X15939Y-3627D01*
X15833Y-3670D01*
X15742Y-3740D01*
X15672Y-3831D01*
X15629Y-3937D01*
X15614Y-4046D01*
X15609Y-4055D01*
X15602Y-4065D01*
X15533Y-4146D01*
X15433Y-4245D01*
X15431Y-4249D01*
X15328Y-4333D01*
X15206Y-4398D01*
X15075Y-4438D01*
X14942Y-4451D01*
X14938Y-4451D01*
X14135D01*
X14132Y-4451D01*
X14035Y-4438D01*
X13943Y-4400D01*
X13902Y-4369D01*
X13878Y-4349D01*
X13884Y-4312D01*
X13895Y-4297D01*
X13943Y-4291D01*
X14028Y-4256D01*
X14102Y-4200D01*
X14158Y-4127D01*
X14193Y-4041D01*
X14205Y-3950D01*
X14193Y-3859D01*
X14158Y-3773D01*
X14102Y-3700D01*
X14028Y-3644D01*
X13987Y-3627D01*
Y-3573D01*
X14028Y-3556D01*
X14102Y-3500D01*
X14158Y-3427D01*
X14193Y-3341D01*
X14205Y-3250D01*
X14193Y-3159D01*
X14158Y-3073D01*
X14102Y-3000D01*
X14028Y-2944D01*
X13943Y-2909D01*
X13852Y-2897D01*
X13761Y-2909D01*
X13675Y-2944D01*
X13602Y-3000D01*
X13598Y-3006D01*
X13592Y-3012D01*
X13583Y-3019D01*
X13573Y-3025D01*
X13562Y-3031D01*
X13551Y-3036D01*
X13538Y-3040D01*
X13524Y-3043D01*
X13508Y-3046D01*
X13506Y-3046D01*
X12296D01*
X12294Y-3046D01*
X12278Y-3043D01*
X12264Y-3040D01*
X12251Y-3036D01*
X12240Y-3031D01*
X12229Y-3025D01*
X12219Y-3019D01*
X12210Y-3012D01*
X12204Y-3006D01*
X12200Y-3000D01*
X12127Y-2944D01*
X12041Y-2909D01*
X11950Y-2897D01*
X11859Y-2909D01*
X11773Y-2944D01*
X11700Y-3000D01*
X11644Y-3073D01*
X11609Y-3159D01*
X11597Y-3250D01*
X11609Y-3341D01*
X11644Y-3427D01*
X11700Y-3500D01*
X11773Y-3556D01*
X11859Y-3591D01*
X11950Y-3603D01*
X12041Y-3591D01*
X12127Y-3556D01*
X12200Y-3500D01*
X12204Y-3494D01*
X12210Y-3488D01*
X12219Y-3481D01*
X12229Y-3475D01*
X12240Y-3469D01*
X12251Y-3464D01*
X12264Y-3460D01*
X12278Y-3457D01*
X12294Y-3454D01*
X12296Y-3454D01*
X13506D01*
X13508Y-3454D01*
X13524Y-3457D01*
X13538Y-3460D01*
X13551Y-3464D01*
X13562Y-3469D01*
X13573Y-3475D01*
X13583Y-3481D01*
X13592Y-3488D01*
X13598Y-3494D01*
X13602Y-3500D01*
X13675Y-3556D01*
X13717Y-3573D01*
Y-3627D01*
X13675Y-3644D01*
X13602Y-3700D01*
X13598Y-3706D01*
X13592Y-3712D01*
X13583Y-3719D01*
X13573Y-3725D01*
X13562Y-3731D01*
X13551Y-3736D01*
X13538Y-3740D01*
X13524Y-3743D01*
X13508Y-3746D01*
X13506Y-3746D01*
X11583D01*
X11574Y-3748D01*
X11483Y-3736D01*
X11481Y-3735D01*
X11473Y-3732D01*
X11467Y-3728D01*
X11463Y-3724D01*
X11459Y-3721D01*
X11456Y-3716D01*
X11452Y-3709D01*
X11449Y-3700D01*
X11446Y-3684D01*
X11444Y-3680D01*
X11441Y-3659D01*
X11406Y-3573D01*
X11350Y-3500D01*
X11277Y-3444D01*
X11191Y-3409D01*
X11100Y-3397D01*
X11009Y-3409D01*
X10923Y-3444D01*
X10850Y-3500D01*
X10794Y-3573D01*
X10759Y-3659D01*
X10747Y-3750D01*
X10759Y-3841D01*
X10794Y-3927D01*
X10850Y-4000D01*
X10917Y-4051D01*
X10915Y-4075D01*
X10903Y-4101D01*
X9975D01*
X9972Y-4101D01*
X9882Y-4089D01*
X9795Y-4053D01*
X9722Y-3997D01*
X9721Y-3995D01*
X8844Y-3119D01*
X8843Y-3109D01*
X8808Y-3023D01*
X8752Y-2950D01*
X8678Y-2894D01*
X8593Y-2859D01*
X8502Y-2847D01*
X8411Y-2859D01*
X8325Y-2894D01*
X8252Y-2950D01*
X8196Y-3023D01*
X8161Y-3109D01*
X8149Y-3200D01*
X8161Y-3291D01*
X8196Y-3377D01*
X8233Y-3425D01*
X8198Y-3461D01*
X8177Y-3444D01*
X8091Y-3409D01*
X8000Y-3397D01*
X7909Y-3409D01*
X7823Y-3444D01*
X7750Y-3500D01*
X7694Y-3573D01*
X7659Y-3659D01*
X7647Y-3750D01*
X7659Y-3841D01*
X7694Y-3927D01*
X7750Y-4000D01*
X7823Y-4056D01*
X7909Y-4091D01*
X8000Y-4103D01*
X8007Y-4102D01*
X8015Y-4102D01*
X8027Y-4104D01*
X8038Y-4106D01*
X8050Y-4110D01*
X8061Y-4115D01*
X8073Y-4121D01*
X8086Y-4128D01*
X8099Y-4137D01*
X8101Y-4139D01*
X8165Y-4203D01*
X8165Y-4203D01*
X8198Y-4239D01*
X8266Y-4322D01*
X8340Y-4460D01*
X8385Y-4610D01*
X8391Y-4664D01*
X8364Y-4695D01*
X8306Y-4693D01*
X8300Y-4684D01*
X8242Y-4640D01*
X8174Y-4612D01*
X8102Y-4602D01*
X8030Y-4612D01*
X7962Y-4640D01*
X7904Y-4684D01*
X7883Y-4711D01*
X7820D01*
X7800Y-4684D01*
X7742Y-4640D01*
X7674Y-4612D01*
X7602Y-4602D01*
X7530Y-4612D01*
X7462Y-4640D01*
X7404Y-4684D01*
X7383Y-4711D01*
X7381Y-4713D01*
X7364Y-4717D01*
X7360Y-4717D01*
X7324Y-4706D01*
X7324Y-4706D01*
X7320Y-4691D01*
X7315Y-4673D01*
X7312Y-4654D01*
X7306Y-4585D01*
Y-3014D01*
X7304Y-3005D01*
X7318Y-2858D01*
X7364Y-2709D01*
X7438Y-2570D01*
X7531Y-2457D01*
X7539Y-2451D01*
X8153Y-1837D01*
X8159Y-1829D01*
X8272Y-1736D01*
X8410Y-1662D01*
X8560Y-1617D01*
X8707Y-1602D01*
X8716Y-1604D01*
X10946D01*
X10949Y-1654D01*
X10911Y-1659D01*
X10825Y-1694D01*
X10752Y-1750D01*
X10696Y-1823D01*
X10661Y-1909D01*
X10649Y-2000D01*
X10661Y-2091D01*
X10696Y-2177D01*
X10752Y-2250D01*
X10825Y-2306D01*
X10911Y-2341D01*
X10949Y-2346D01*
X10946Y-2396D01*
X9416D01*
X9407Y-2398D01*
X9260Y-2384D01*
X9110Y-2338D01*
X9014Y-2286D01*
X9007Y-2281D01*
X9001Y-2273D01*
X8995Y-2266D01*
X8991Y-2258D01*
X8988Y-2250D01*
X8985Y-2241D01*
X8983Y-2230D01*
X8983Y-2230D01*
X8983Y-2228D01*
X8982Y-2222D01*
X8982Y-2213D01*
X8981Y-2210D01*
X8971Y-2137D01*
X8936Y-2052D01*
X8880Y-1979D01*
X8807Y-1922D01*
X8721Y-1887D01*
X8630Y-1875D01*
X8539Y-1887D01*
X8454Y-1922D01*
X8380Y-1979D01*
X8324Y-2052D01*
X8289Y-2137D01*
X8277Y-2228D01*
X8289Y-2319D01*
X8324Y-2405D01*
X8380Y-2478D01*
X8454Y-2534D01*
X8539Y-2569D01*
X8630Y-2581D01*
X8642Y-2580D01*
X8643Y-2580D01*
X8657Y-2580D01*
X8669Y-2580D01*
X8681Y-2582D01*
X8695Y-2585D01*
X8709Y-2589D01*
X8725Y-2595D01*
X8741Y-2601D01*
X8780Y-2620D01*
X8800Y-2632D01*
X8808Y-2635D01*
X8809Y-2635D01*
X8815Y-2639D01*
X8815Y-2639D01*
X8870Y-2673D01*
X9044Y-2745D01*
X9228Y-2789D01*
X9414Y-2804D01*
X9416Y-2804D01*
X14150D01*
X14159Y-2802D01*
X14282Y-2814D01*
X14367Y-2850D01*
X14367Y-2852D01*
Y-3148D01*
X14386Y-3244D01*
X14441Y-3326D01*
X14523Y-3381D01*
X14619Y-3400D01*
X15308D01*
X15405Y-3381D01*
X15487Y-3326D01*
X15542Y-3244D01*
X15561Y-3148D01*
Y-2852D01*
X15542Y-2756D01*
X15487Y-2674D01*
X15405Y-2619D01*
X15308Y-2600D01*
X14952D01*
X14905Y-2590D01*
X14721Y-2534D01*
X14652Y-2508D01*
X14648Y-2508D01*
X14522Y-2455D01*
X14338Y-2411D01*
X14151Y-2396D01*
X14150Y-2396D01*
X11058D01*
X11055Y-2346D01*
X11093Y-2341D01*
X11178Y-2306D01*
X11252Y-2250D01*
X11256Y-2244D01*
X11262Y-2238D01*
X11271Y-2231D01*
X11281Y-2225D01*
X11292Y-2219D01*
X11303Y-2214D01*
X11316Y-2210D01*
X11330Y-2207D01*
X11346Y-2204D01*
X11348Y-2204D01*
X14319D01*
X14336Y-2205D01*
X14359Y-2209D01*
X14376Y-2213D01*
X14380Y-2215D01*
X14386Y-2244D01*
X14441Y-2326D01*
X14523Y-2381D01*
X14619Y-2400D01*
X15308D01*
X15405Y-2381D01*
X15487Y-2326D01*
X15542Y-2244D01*
X15561Y-2148D01*
Y-1852D01*
X15542Y-1756D01*
X15487Y-1674D01*
X15405Y-1619D01*
X15308Y-1600D01*
X14619D01*
X14523Y-1619D01*
X14441Y-1674D01*
X14386Y-1756D01*
X14380Y-1785D01*
X14376Y-1787D01*
X14359Y-1791D01*
X14336Y-1795D01*
X14319Y-1796D01*
X11348D01*
X11346Y-1796D01*
X11330Y-1793D01*
X11316Y-1790D01*
X11303Y-1786D01*
X11292Y-1781D01*
X11281Y-1775D01*
X11271Y-1769D01*
X11262Y-1762D01*
X11256Y-1756D01*
X11252Y-1750D01*
X11178Y-1694D01*
X11093Y-1659D01*
X11055Y-1654D01*
X11058Y-1604D01*
X14150D01*
X14151Y-1604D01*
X14338Y-1589D01*
X14522Y-1545D01*
X14648Y-1493D01*
X14650Y-1492D01*
X14788Y-1443D01*
X14846Y-1426D01*
X14952Y-1400D01*
X15308D01*
X15405Y-1381D01*
X15487Y-1326D01*
X15542Y-1244D01*
X15561Y-1148D01*
Y-852D01*
X15545Y-775D01*
X15584Y-738D01*
X15585Y-737D01*
X15630Y-756D01*
X15693Y-804D01*
X15672Y-831D01*
X15629Y-937D01*
X15614Y-1050D01*
X15629Y-1163D01*
X15672Y-1269D01*
X15742Y-1360D01*
X15833Y-1430D01*
X15939Y-1473D01*
X16052Y-1488D01*
X16165Y-1473D01*
X16271Y-1430D01*
X16362Y-1360D01*
X16432Y-1269D01*
X16475Y-1163D01*
X16490Y-1050D01*
X16475Y-937D01*
X16432Y-831D01*
X16362Y-740D01*
X16352Y-732D01*
X16336Y-716D01*
X16318Y-694D01*
X16302Y-673D01*
X16289Y-652D01*
X16278Y-631D01*
X16269Y-611D01*
X16262Y-591D01*
X16258Y-571D01*
X16256Y-557D01*
Y-543D01*
X16258Y-529D01*
X16262Y-509D01*
X16269Y-489D01*
X16278Y-469D01*
X16289Y-448D01*
X16302Y-427D01*
X16318Y-406D01*
X16336Y-384D01*
X16352Y-368D01*
X16362Y-360D01*
X16432Y-269D01*
X16475Y-163D01*
X16490Y-50D01*
X16475Y63D01*
X16432Y169D01*
X16362Y260D01*
X16271Y330D01*
X16165Y373D01*
X16052Y388D01*
X15939Y373D01*
X15833Y330D01*
X15742Y260D01*
X15672Y169D01*
X15629Y63D01*
X15614Y-50D01*
X15629Y-163D01*
X15672Y-269D01*
X15692Y-295D01*
X15664Y-336D01*
X15597Y-316D01*
X15548Y-311D01*
X15527Y-266D01*
X15542Y-244D01*
X15561Y-148D01*
Y148D01*
X15542Y244D01*
X15487Y326D01*
X15405Y381D01*
X15308Y400D01*
X14619D01*
X14523Y381D01*
X14498Y364D01*
X14490Y361D01*
X14473Y350D01*
X14455Y342D01*
X14432Y333D01*
X14361Y317D01*
X14321Y311D01*
X14152Y300D01*
X14139Y299D01*
X14092D01*
X14067Y349D01*
X14095Y386D01*
X14130Y471D01*
X14142Y562D01*
X14130Y654D01*
X14095Y739D01*
X14039Y812D01*
X14034Y816D01*
X14028Y823D01*
X14021Y832D01*
X14014Y842D01*
X14009Y852D01*
X14004Y864D01*
X14000Y876D01*
X13996Y891D01*
X13994Y906D01*
X13993Y909D01*
Y1636D01*
X13992Y1642D01*
X14004Y1699D01*
X14012Y1712D01*
X14041Y1750D01*
X14079Y1778D01*
X14091Y1786D01*
X14147Y1797D01*
X14152Y1796D01*
X14319D01*
X14336Y1795D01*
X14359Y1791D01*
X14376Y1787D01*
X14380Y1785D01*
X14386Y1756D01*
X14441Y1674D01*
X14523Y1619D01*
X14619Y1600D01*
X15308D01*
X15405Y1619D01*
X15487Y1674D01*
X15542Y1756D01*
X15561Y1852D01*
Y2148D01*
X15542Y2244D01*
X15487Y2326D01*
X15405Y2381D01*
X15308Y2400D01*
X14619D01*
X14523Y2381D01*
X14441Y2326D01*
X14386Y2244D01*
X14380Y2215D01*
X14376Y2213D01*
X14359Y2209D01*
X14336Y2205D01*
X14319Y2204D01*
X14152D01*
Y2205D01*
X14005Y2186D01*
X13868Y2129D01*
X13752Y2039D01*
X13751Y2039D01*
X13751Y2039D01*
X13722Y2001D01*
X13661Y1921D01*
X13604Y1784D01*
X13585Y1636D01*
X13586D01*
Y909D01*
X13585Y906D01*
X13583Y891D01*
X13579Y876D01*
X13575Y864D01*
X13570Y852D01*
X13565Y842D01*
X13558Y832D01*
X13551Y823D01*
X13545Y816D01*
X13540Y812D01*
X13484Y739D01*
X13448Y654D01*
X13400Y662D01*
X13405Y700D01*
X13393Y791D01*
X13358Y877D01*
X13302Y950D01*
X13296Y954D01*
X13290Y960D01*
X13283Y969D01*
X13277Y979D01*
X13271Y990D01*
X13266Y1001D01*
X13262Y1014D01*
X13259Y1028D01*
X13256Y1044D01*
X13256Y1046D01*
Y1886D01*
X13254Y1895D01*
X13268Y2042D01*
X13314Y2191D01*
X13388Y2330D01*
X13440Y2394D01*
X13440Y2394D01*
X13440Y2394D01*
X13440Y2394D01*
X13609Y2563D01*
X13615Y2571D01*
X13728Y2664D01*
X13867Y2738D01*
X14016Y2783D01*
X14163Y2798D01*
X14172Y2796D01*
X14319D01*
X14336Y2795D01*
X14359Y2791D01*
X14376Y2787D01*
X14380Y2785D01*
X14386Y2756D01*
X14441Y2674D01*
X14523Y2619D01*
X14619Y2600D01*
X15308D01*
X15405Y2619D01*
X15487Y2674D01*
X15542Y2756D01*
X15561Y2852D01*
Y3148D01*
X15542Y3244D01*
X15487Y3326D01*
X15405Y3381D01*
X15308Y3400D01*
X14619D01*
X14523Y3381D01*
X14441Y3326D01*
X14386Y3244D01*
X14380Y3215D01*
X14376Y3213D01*
X14359Y3209D01*
X14336Y3205D01*
X14319Y3204D01*
X14172D01*
X14171Y3204D01*
X13984Y3189D01*
X13800Y3145D01*
X13626Y3073D01*
X13465Y2974D01*
X13322Y2852D01*
X13321Y2851D01*
X13160Y2690D01*
X13138Y2669D01*
X13128Y2653D01*
X13097Y2616D01*
X13078Y2593D01*
X12979Y2432D01*
X12907Y2258D01*
X12863Y2074D01*
X12848Y1888D01*
X12848Y1886D01*
Y1046D01*
X12848Y1044D01*
X12845Y1028D01*
X12842Y1014D01*
X12838Y1001D01*
X12833Y990D01*
X12827Y979D01*
X12821Y969D01*
X12814Y960D01*
X12808Y954D01*
X12802Y950D01*
X12746Y877D01*
X12722Y817D01*
X12670Y824D01*
X12668Y841D01*
X12633Y927D01*
X12577Y1000D01*
X12571Y1004D01*
X12565Y1010D01*
X12558Y1019D01*
X12552Y1029D01*
X12546Y1040D01*
X12541Y1051D01*
X12537Y1064D01*
X12534Y1078D01*
X12531Y1094D01*
X12531Y1096D01*
Y1811D01*
X12529Y1820D01*
X12543Y1967D01*
X12589Y2116D01*
X12663Y2255D01*
X12756Y2368D01*
X12764Y2374D01*
X13953Y3563D01*
X13953Y3563D01*
X13989Y3596D01*
X14072Y3664D01*
X14210Y3738D01*
X14312Y3769D01*
X14324Y3770D01*
X14353Y3772D01*
X14376Y3772D01*
X14383Y3771D01*
X14386Y3756D01*
X14441Y3674D01*
X14523Y3619D01*
X14619Y3600D01*
X15308D01*
X15405Y3619D01*
X15487Y3674D01*
X15542Y3756D01*
X15561Y3852D01*
Y4148D01*
X15542Y4244D01*
X15487Y4326D01*
X15405Y4381D01*
X15308Y4400D01*
X14619D01*
X14523Y4381D01*
X14441Y4326D01*
X14386Y4244D01*
X14379Y4208D01*
X14378Y4208D01*
X14366Y4201D01*
X14348Y4194D01*
X14332Y4189D01*
X14328Y4189D01*
X14281Y4178D01*
X14257Y4173D01*
X14246Y4169D01*
X14234Y4167D01*
X14233Y4166D01*
X14144Y4145D01*
X13970Y4073D01*
X13809Y3974D01*
X13666Y3852D01*
X13665Y3851D01*
X13665Y3851D01*
X13665Y3851D01*
X12476Y2662D01*
X12475Y2661D01*
X12353Y2518D01*
X12254Y2357D01*
X12182Y2183D01*
X12138Y1999D01*
X12123Y1813D01*
X12123Y1811D01*
Y1096D01*
X12123Y1094D01*
X12120Y1078D01*
X12117Y1064D01*
X12113Y1051D01*
X12108Y1040D01*
X12102Y1029D01*
X12096Y1019D01*
X12089Y1010D01*
X12083Y1004D01*
X12077Y1000D01*
X12021Y927D01*
X11986Y841D01*
X11974Y750D01*
X11986Y659D01*
X12021Y573D01*
X12077Y500D01*
X12150Y444D01*
X12236Y409D01*
X12327Y397D01*
X12418Y409D01*
X12503Y444D01*
X12577Y500D01*
X12633Y573D01*
X12657Y633D01*
X12709Y626D01*
X12711Y609D01*
X12746Y523D01*
X12802Y450D01*
X12875Y394D01*
X12961Y359D01*
X13033Y349D01*
X13030Y299D01*
X11347D01*
X11335Y325D01*
X11333Y349D01*
X11400Y400D01*
X11456Y473D01*
X11491Y559D01*
X11503Y650D01*
X11491Y741D01*
X11456Y827D01*
X11400Y900D01*
X11395Y903D01*
X11390Y908D01*
X11383Y918D01*
X11377Y928D01*
X11371Y938D01*
X11366Y950D01*
X11362Y963D01*
X11359Y977D01*
X11356Y993D01*
X11356Y995D01*
Y2246D01*
X11406Y2261D01*
X11452Y2200D01*
X11525Y2144D01*
X11611Y2109D01*
X11702Y2097D01*
X11793Y2109D01*
X11878Y2144D01*
X11952Y2200D01*
X12008Y2273D01*
X12043Y2359D01*
X12055Y2450D01*
X12043Y2541D01*
X12008Y2627D01*
X11952Y2700D01*
X11946Y2704D01*
X11940Y2710D01*
X11933Y2719D01*
X11927Y2729D01*
X11921Y2740D01*
X11916Y2751D01*
X11912Y2764D01*
X11909Y2778D01*
X11906Y2794D01*
X11906Y2796D01*
Y3553D01*
X11906Y3556D01*
X11909Y3572D01*
X11912Y3586D01*
X11916Y3598D01*
X11921Y3610D01*
X11927Y3621D01*
X11933Y3631D01*
X11940Y3640D01*
X11946Y3646D01*
X11951Y3649D01*
X12007Y3722D01*
X12042Y3808D01*
X12054Y3899D01*
X12042Y3990D01*
X12007Y4076D01*
X11951Y4149D01*
X11909Y4181D01*
X11919Y4236D01*
X11967Y4251D01*
X12090Y4316D01*
X12194Y4401D01*
X12198Y4404D01*
X12204Y4414D01*
X12256Y4481D01*
X12293Y4570D01*
X12304Y4653D01*
X12306Y4665D01*
Y4692D01*
X12344Y4742D01*
X12372Y4810D01*
X12382Y4882D01*
Y5118D01*
X12372Y5190D01*
X12344Y5258D01*
X12319Y5291D01*
X12344Y5341D01*
X12652D01*
X12656Y5342D01*
X12671Y5336D01*
D02*
G37*
G36*
X7513Y5199D02*
X7602Y5197D01*
Y4803D01*
X7541Y4802D01*
X7513Y4800D01*
Y4728D01*
X7492Y4742D01*
X7466Y4755D01*
X7435Y4766D01*
X7401Y4776D01*
X7362Y4784D01*
X7352Y4786D01*
X7342Y4784D01*
X7303Y4776D01*
X7269Y4766D01*
X7238Y4755D01*
X7212Y4742D01*
X7191Y4728D01*
Y4801D01*
X7102Y4803D01*
X7041Y4802D01*
X7013Y4800D01*
Y4728D01*
X6992Y4742D01*
X6966Y4755D01*
X6935Y4766D01*
X6901Y4776D01*
X6862Y4784D01*
X6852Y4786D01*
X6842Y4784D01*
X6803Y4776D01*
X6769Y4766D01*
X6738Y4755D01*
X6712Y4742D01*
X6691Y4728D01*
Y4801D01*
X6602Y4803D01*
Y5197D01*
X6663Y5198D01*
X6691Y5200D01*
Y5272D01*
X6712Y5258D01*
X6738Y5245D01*
X6769Y5234D01*
X6803Y5224D01*
X6842Y5216D01*
X6852Y5214D01*
X6862Y5216D01*
X6901Y5224D01*
X6935Y5234D01*
X6966Y5245D01*
X6992Y5258D01*
X7013Y5272D01*
Y5199D01*
X7102Y5197D01*
X7163Y5198D01*
X7191Y5200D01*
Y5272D01*
X7212Y5258D01*
X7238Y5245D01*
X7269Y5234D01*
X7303Y5224D01*
X7342Y5216D01*
X7352Y5214D01*
X7362Y5216D01*
X7401Y5224D01*
X7435Y5234D01*
X7466Y5245D01*
X7492Y5258D01*
X7513Y5272D01*
Y5199D01*
D02*
G37*
G36*
X11447Y5101D02*
X11479Y5100D01*
Y4900D01*
X11447Y4899D01*
Y4800D01*
X11444Y4819D01*
X11438Y4836D01*
X11427Y4851D01*
X11411Y4864D01*
X11391Y4875D01*
X11367Y4884D01*
X11352Y4888D01*
X11337Y4884D01*
X11313Y4875D01*
X11293Y4864D01*
X11277Y4851D01*
X11266Y4836D01*
X11260Y4819D01*
X11257Y4800D01*
Y4899D01*
X11224Y4900D01*
Y5100D01*
X11257Y5101D01*
Y5200D01*
X11260Y5181D01*
X11266Y5164D01*
X11277Y5149D01*
X11293Y5136D01*
X11313Y5125D01*
X11337Y5116D01*
X11352Y5112D01*
X11367Y5116D01*
X11391Y5125D01*
X11411Y5136D01*
X11427Y5149D01*
X11438Y5164D01*
X11444Y5181D01*
X11447Y5200D01*
Y5101D01*
D02*
G37*
G36*
X9447D02*
X9479Y5100D01*
Y4900D01*
X9447Y4899D01*
Y4832D01*
X9727Y4756D01*
X9721Y4750D01*
X9714Y4740D01*
X9706Y4727D01*
X9698Y4710D01*
X9679Y4665D01*
X9646Y4571D01*
X9633Y4533D01*
X9428Y4558D01*
X9437Y4590D01*
X9444Y4621D01*
X9450Y4651D01*
X9453Y4680D01*
X9454Y4708D01*
X9453Y4735D01*
X9451Y4762D01*
X9446Y4787D01*
X9439Y4812D01*
X9431Y4836D01*
X9439Y4834D01*
X9438Y4836D01*
X9427Y4851D01*
X9411Y4864D01*
X9391Y4875D01*
X9367Y4884D01*
X9352Y4888D01*
X9337Y4884D01*
X9313Y4875D01*
X9293Y4864D01*
X9277Y4851D01*
X9266Y4836D01*
X9260Y4819D01*
X9257Y4800D01*
Y4899D01*
X9224Y4900D01*
Y5100D01*
X9257Y5101D01*
Y5200D01*
X9260Y5181D01*
X9266Y5164D01*
X9277Y5149D01*
X9293Y5136D01*
X9313Y5125D01*
X9337Y5116D01*
X9352Y5112D01*
X9367Y5116D01*
X9391Y5125D01*
X9411Y5136D01*
X9427Y5149D01*
X9438Y5164D01*
X9444Y5181D01*
X9447Y5200D01*
Y5101D01*
D02*
G37*
G36*
X8447D02*
X8479Y5100D01*
Y4900D01*
X8447Y4899D01*
Y4800D01*
X8444Y4819D01*
X8438Y4836D01*
X8427Y4851D01*
X8411Y4864D01*
X8391Y4875D01*
X8367Y4884D01*
X8352Y4888D01*
X8337Y4884D01*
X8313Y4875D01*
X8293Y4864D01*
X8277Y4851D01*
X8266Y4836D01*
X8260Y4819D01*
X8257Y4800D01*
Y4899D01*
X8224Y4900D01*
Y5100D01*
X8257Y5101D01*
Y5200D01*
X8260Y5181D01*
X8266Y5164D01*
X8277Y5149D01*
X8293Y5136D01*
X8313Y5125D01*
X8337Y5116D01*
X8352Y5112D01*
X8367Y5116D01*
X8391Y5125D01*
X8411Y5136D01*
X8427Y5149D01*
X8438Y5164D01*
X8444Y5181D01*
X8447Y5200D01*
Y5101D01*
D02*
G37*
G36*
X6303Y4963D02*
X6308Y4956D01*
X6313Y4923D01*
X6322Y4899D01*
Y4882D01*
X6332Y4810D01*
X6360Y4742D01*
X6404Y4684D01*
X6462Y4640D01*
X6530Y4612D01*
X6602Y4602D01*
X6674Y4612D01*
X6726Y4633D01*
X6730Y4634D01*
X6733Y4636D01*
X6742Y4640D01*
X6745Y4642D01*
X6747Y4643D01*
X6763Y4654D01*
X6779Y4661D01*
X6800Y4669D01*
X6828Y4677D01*
X6852Y4682D01*
X6876Y4677D01*
X6904Y4669D01*
X6925Y4661D01*
X6941Y4654D01*
X6957Y4643D01*
X6959Y4642D01*
X6962Y4640D01*
X6971Y4636D01*
X6974Y4634D01*
X6978Y4633D01*
X7030Y4612D01*
X7102Y4602D01*
X7174Y4612D01*
X7226Y4633D01*
X7230Y4634D01*
X7233Y4636D01*
X7242Y4640D01*
X7245Y4642D01*
X7247Y4643D01*
X7263Y4654D01*
X7279Y4661D01*
X7300Y4669D01*
X7328Y4677D01*
X7352Y4682D01*
X7376Y4677D01*
X7404Y4669D01*
X7425Y4661D01*
X7441Y4654D01*
X7457Y4643D01*
X7459Y4642D01*
X7462Y4640D01*
X7471Y4636D01*
X7474Y4634D01*
X7478Y4633D01*
X7530Y4612D01*
X7602Y4602D01*
X7674Y4612D01*
X7742Y4640D01*
X7800Y4684D01*
X7820Y4711D01*
X7883D01*
X7904Y4684D01*
X7962Y4640D01*
X8030Y4612D01*
X8102Y4602D01*
X8174Y4612D01*
X8242Y4640D01*
X8300Y4684D01*
X8320Y4711D01*
X8383D01*
X8404Y4684D01*
X8462Y4640D01*
X8530Y4612D01*
X8602Y4602D01*
X8674Y4612D01*
X8742Y4640D01*
X8800Y4684D01*
X8820Y4711D01*
X8883D01*
X8904Y4684D01*
X8962Y4640D01*
X9030Y4612D01*
X9102Y4602D01*
X9174Y4612D01*
X9242Y4640D01*
X9300Y4684D01*
X9301Y4685D01*
X9349Y4666D01*
X9349Y4665D01*
X9344Y4641D01*
X9338Y4616D01*
X9333Y4597D01*
X9266Y4472D01*
X9173Y4359D01*
X9165Y4353D01*
X8757Y3945D01*
X8756Y3944D01*
X8634Y3802D01*
X8536Y3640D01*
X8463Y3466D01*
X8419Y3282D01*
X8405Y3096D01*
X8404Y3094D01*
Y3040D01*
X8404Y3037D01*
X8401Y3022D01*
X8398Y3008D01*
X8394Y2995D01*
X8389Y2983D01*
X8383Y2973D01*
X8377Y2963D01*
X8370Y2954D01*
X8364Y2947D01*
X8359Y2943D01*
X8303Y2870D01*
X8267Y2785D01*
X8255Y2694D01*
X8267Y2602D01*
X8303Y2517D01*
X8359Y2444D01*
X8432Y2388D01*
X8517Y2353D01*
X8608Y2341D01*
X8700Y2353D01*
X8785Y2388D01*
X8858Y2444D01*
X8914Y2517D01*
X8949Y2602D01*
X8961Y2694D01*
X8949Y2785D01*
X8914Y2870D01*
X8858Y2943D01*
X8853Y2947D01*
X8847Y2954D01*
X8839Y2963D01*
X8833Y2973D01*
X8827Y2983D01*
X8823Y2995D01*
X8818Y3008D01*
X8815Y3022D01*
X8812Y3037D01*
X8812Y3040D01*
Y3094D01*
X8810Y3103D01*
X8825Y3250D01*
X8870Y3400D01*
X8944Y3538D01*
X9037Y3652D01*
X9045Y3657D01*
X9453Y4065D01*
X9454Y4066D01*
X9576Y4209D01*
X9674Y4370D01*
X9721Y4482D01*
X9722Y4483D01*
X9724Y4489D01*
X9726Y4495D01*
X9730Y4502D01*
X9734Y4513D01*
X9747Y4544D01*
X9752Y4566D01*
X9774Y4628D01*
X9791Y4667D01*
X9796Y4679D01*
X9799Y4684D01*
X9800Y4684D01*
X9805Y4692D01*
X9808Y4694D01*
X9810Y4698D01*
X9820Y4711D01*
X9883D01*
X9904Y4684D01*
X9962Y4640D01*
X10030Y4612D01*
X10102Y4602D01*
X10160Y4610D01*
X10186Y4573D01*
X10188Y4566D01*
X10128Y4495D01*
X10029Y4334D01*
X9957Y4160D01*
X9913Y3976D01*
X9898Y3789D01*
X9898Y3788D01*
Y896D01*
X9898Y894D01*
X9895Y878D01*
X9892Y864D01*
X9888Y851D01*
X9883Y840D01*
X9877Y829D01*
X9871Y819D01*
X9864Y810D01*
X9858Y804D01*
X9852Y800D01*
X9796Y727D01*
X9761Y641D01*
X9749Y550D01*
X9761Y459D01*
X9796Y373D01*
X9815Y349D01*
X9790Y299D01*
X7150D01*
X7139Y298D01*
X7100Y303D01*
X7061Y298D01*
X7050Y299D01*
X4764D01*
Y301D01*
X4561Y285D01*
X4362Y237D01*
X4174Y159D01*
X4000Y52D01*
X3844Y-80D01*
X3845Y-81D01*
X3447Y-480D01*
X3444Y-483D01*
X3341Y-568D01*
X3220Y-632D01*
X3088Y-672D01*
X2956Y-685D01*
X2952Y-685D01*
X2569D01*
X2527Y-684D01*
X2465Y-680D01*
X2413Y-673D01*
X2371Y-664D01*
X2340Y-654D01*
X2319Y-644D01*
X2309Y-636D01*
X2306Y-633D01*
X2304Y-619D01*
Y-530D01*
X2207D01*
X2203Y-529D01*
X2199Y-530D01*
X1396D01*
Y-1439D01*
X2199D01*
X2203Y-1439D01*
X2207Y-1439D01*
X2304D01*
Y-1350D01*
X2306Y-1336D01*
X2309Y-1333D01*
X2319Y-1325D01*
X2340Y-1315D01*
X2371Y-1305D01*
X2412Y-1296D01*
X2528Y-1285D01*
X2569Y-1284D01*
X2952D01*
Y-1285D01*
X3155Y-1269D01*
X3354Y-1221D01*
X3542Y-1143D01*
X3716Y-1037D01*
X3871Y-904D01*
X3870Y-903D01*
X4269Y-505D01*
X4271Y-501D01*
X4374Y-417D01*
X4496Y-352D01*
X4627Y-312D01*
X4760Y-299D01*
X4764Y-299D01*
X6850D01*
X6850Y-300D01*
X6923Y-356D01*
X7009Y-391D01*
X7100Y-403D01*
X7191Y-391D01*
X7277Y-356D01*
X7350Y-300D01*
X7350Y-299D01*
X13240D01*
X13248Y-349D01*
X13190Y-367D01*
X13061Y-436D01*
X13040Y-447D01*
X13030Y-455D01*
X12992Y-484D01*
X12992Y-484D01*
X12955Y-516D01*
X12940Y-527D01*
X12914Y-547D01*
X12822Y-585D01*
X12729Y-597D01*
X12722Y-596D01*
X12146D01*
X12144Y-596D01*
X12128Y-593D01*
X12114Y-590D01*
X12101Y-586D01*
X12090Y-581D01*
X12079Y-575D01*
X12069Y-569D01*
X12060Y-562D01*
X12054Y-556D01*
X12050Y-550D01*
X11977Y-494D01*
X11891Y-459D01*
X11800Y-447D01*
X11709Y-459D01*
X11623Y-494D01*
X11550Y-550D01*
X11494Y-623D01*
X11459Y-709D01*
X11447Y-800D01*
X11459Y-891D01*
X11494Y-977D01*
X11550Y-1050D01*
X11623Y-1106D01*
X11709Y-1141D01*
X11747Y-1146D01*
X11744Y-1196D01*
X8716D01*
X8714Y-1196D01*
X8528Y-1211D01*
X8344Y-1255D01*
X8170Y-1327D01*
X8009Y-1426D01*
X7866Y-1548D01*
X7865Y-1549D01*
X7251Y-2163D01*
X7250Y-2164D01*
X7128Y-2307D01*
X7029Y-2468D01*
X6957Y-2642D01*
X6913Y-2826D01*
X6898Y-3012D01*
X6898Y-3014D01*
Y-4600D01*
X6892Y-4653D01*
X6889Y-4673D01*
X6884Y-4691D01*
X6880Y-4706D01*
X6880Y-4706D01*
X6844Y-4717D01*
X6840Y-4717D01*
X6823Y-4713D01*
X6820Y-4711D01*
X6800Y-4684D01*
X6742Y-4640D01*
X6674Y-4612D01*
X6602Y-4602D01*
X6530Y-4612D01*
X6462Y-4640D01*
X6404Y-4684D01*
X6360Y-4742D01*
X6332Y-4810D01*
X6322Y-4882D01*
Y-5018D01*
X6278Y-5041D01*
X6269Y-5034D01*
X6184Y-4999D01*
X6160Y-4996D01*
X6159Y-4995D01*
X6100Y-4983D01*
X847D01*
X800Y-4983D01*
X799Y-4983D01*
X799Y-4984D01*
D01*
X749Y-4980D01*
X678Y-4973D01*
X567Y-4939D01*
X465Y-4884D01*
X375Y-4811D01*
X302Y-4721D01*
X247Y-4619D01*
X213Y-4508D01*
X203Y-4400D01*
X203Y-4400D01*
Y0D01*
Y4400D01*
X219Y4524D01*
X277Y4663D01*
X368Y4782D01*
X487Y4873D01*
X626Y4931D01*
X746Y4947D01*
X795Y4948D01*
X800Y4947D01*
X844Y4947D01*
X6100D01*
X6100Y4947D01*
Y4947D01*
X6191Y4959D01*
X6254Y4985D01*
X6303Y4963D01*
D02*
G37*
G36*
X10691Y4728D02*
X10686Y4725D01*
X10680Y4718D01*
X10672Y4708D01*
X10650Y4677D01*
X10560Y4536D01*
X10360Y4604D01*
X10376Y4631D01*
X10389Y4658D01*
X10401Y4686D01*
X10410Y4713D01*
X10418Y4741D01*
X10423Y4769D01*
X10427Y4797D01*
X10428Y4825D01*
X10427Y4853D01*
X10424Y4882D01*
X10691Y4728D01*
D02*
G37*
G36*
X14484Y3799D02*
X14482Y3818D01*
X14476Y3833D01*
X14465Y3847D01*
X14451Y3857D01*
X14432Y3865D01*
X14409Y3871D01*
X14381Y3874D01*
X14350Y3874D01*
X14314Y3872D01*
X14275Y3867D01*
X14274Y4073D01*
X14314Y4080D01*
X14350Y4088D01*
X14381Y4097D01*
X14409Y4108D01*
X14432Y4121D01*
X14451Y4134D01*
X14466Y4149D01*
X14476Y4165D01*
X14483Y4183D01*
X14485Y4202D01*
X14484Y3799D01*
D02*
G37*
G36*
X10863Y3754D02*
X10850Y3738D01*
X10839Y3721D01*
X10829Y3702D01*
X10821Y3683D01*
X10814Y3662D01*
X10809Y3640D01*
X10805Y3618D01*
X10803Y3594D01*
X10802Y3569D01*
X10602D01*
X10601Y3594D01*
X10599Y3618D01*
X10595Y3640D01*
X10590Y3662D01*
X10583Y3683D01*
X10575Y3702D01*
X10565Y3721D01*
X10554Y3738D01*
X10541Y3754D01*
X10527Y3769D01*
X10877D01*
X10863Y3754D01*
D02*
G37*
G36*
X11862Y3706D02*
X11850Y3690D01*
X11839Y3672D01*
X11829Y3654D01*
X11821Y3634D01*
X11814Y3613D01*
X11809Y3592D01*
X11805Y3569D01*
X11803Y3545D01*
X11802Y3520D01*
X11602Y3519D01*
X11601Y3544D01*
X11599Y3568D01*
X11595Y3591D01*
X11590Y3613D01*
X11583Y3633D01*
X11575Y3653D01*
X11565Y3671D01*
X11554Y3688D01*
X11541Y3705D01*
X11527Y3720D01*
X11877Y3721D01*
X11862Y3706D01*
D02*
G37*
G36*
X10803Y3304D02*
X10805Y3280D01*
X10809Y3258D01*
X10814Y3236D01*
X10821Y3215D01*
X10829Y3196D01*
X10839Y3177D01*
X10850Y3160D01*
X10863Y3144D01*
X10877Y3129D01*
X10527D01*
X10541Y3144D01*
X10554Y3160D01*
X10565Y3177D01*
X10575Y3196D01*
X10583Y3215D01*
X10590Y3236D01*
X10595Y3258D01*
X10599Y3280D01*
X10601Y3304D01*
X10602Y3329D01*
X10802D01*
X10803Y3304D01*
D02*
G37*
G36*
X8709Y3048D02*
X8711Y3024D01*
X8715Y3001D01*
X8720Y2980D01*
X8727Y2959D01*
X8735Y2940D01*
X8745Y2921D01*
X8756Y2904D01*
X8769Y2888D01*
X8783Y2872D01*
X8433D01*
X8447Y2888D01*
X8460Y2904D01*
X8471Y2921D01*
X8481Y2940D01*
X8489Y2959D01*
X8496Y2980D01*
X8501Y3001D01*
X8505Y3024D01*
X8507Y3048D01*
X8508Y3073D01*
X8708D01*
X8709Y3048D01*
D02*
G37*
G36*
X14484Y2800D02*
X14481Y2819D01*
X14475Y2836D01*
X14465Y2851D01*
X14450Y2864D01*
X14431Y2875D01*
X14407Y2884D01*
X14380Y2891D01*
X14348Y2896D01*
X14312Y2899D01*
X14272Y2900D01*
Y3100D01*
X14312Y3101D01*
X14348Y3104D01*
X14380Y3109D01*
X14407Y3116D01*
X14431Y3125D01*
X14450Y3136D01*
X14465Y3149D01*
X14475Y3164D01*
X14481Y3181D01*
X14484Y3200D01*
Y2800D01*
D02*
G37*
G36*
X11803Y2804D02*
X11805Y2780D01*
X11809Y2758D01*
X11814Y2736D01*
X11821Y2715D01*
X11829Y2696D01*
X11839Y2677D01*
X11850Y2660D01*
X11863Y2644D01*
X11877Y2629D01*
X11527D01*
X11541Y2644D01*
X11554Y2660D01*
X11565Y2677D01*
X11575Y2696D01*
X11583Y2715D01*
X11590Y2736D01*
X11595Y2758D01*
X11599Y2780D01*
X11601Y2804D01*
X11602Y2829D01*
X11802D01*
X11803Y2804D01*
D02*
G37*
G36*
X14484Y1800D02*
X14481Y1819D01*
X14475Y1836D01*
X14465Y1851D01*
X14450Y1864D01*
X14431Y1875D01*
X14407Y1884D01*
X14380Y1891D01*
X14348Y1896D01*
X14312Y1899D01*
X14272Y1900D01*
Y2100D01*
X14312Y2101D01*
X14348Y2104D01*
X14380Y2109D01*
X14407Y2116D01*
X14431Y2125D01*
X14450Y2136D01*
X14465Y2149D01*
X14475Y2164D01*
X14481Y2181D01*
X14484Y2200D01*
Y1800D01*
D02*
G37*
G36*
X12428Y1104D02*
X12430Y1080D01*
X12434Y1058D01*
X12439Y1036D01*
X12446Y1015D01*
X12454Y996D01*
X12464Y977D01*
X12475Y960D01*
X12488Y944D01*
X12502Y929D01*
X12152D01*
X12166Y944D01*
X12179Y960D01*
X12190Y977D01*
X12200Y996D01*
X12208Y1015D01*
X12215Y1036D01*
X12220Y1058D01*
X12224Y1080D01*
X12226Y1104D01*
X12227Y1129D01*
X12427D01*
X12428Y1104D01*
D02*
G37*
G36*
X13153Y1054D02*
X13155Y1030D01*
X13159Y1008D01*
X13164Y986D01*
X13171Y965D01*
X13179Y946D01*
X13189Y927D01*
X13200Y910D01*
X13213Y894D01*
X13227Y879D01*
X12877D01*
X12891Y894D01*
X12904Y910D01*
X12915Y927D01*
X12925Y946D01*
X12933Y965D01*
X12940Y986D01*
X12945Y1008D01*
X12949Y1030D01*
X12951Y1054D01*
X12952Y1079D01*
X13152D01*
X13153Y1054D01*
D02*
G37*
G36*
X11252Y1028D02*
X11253Y1003D01*
X11255Y980D01*
X11259Y957D01*
X11264Y935D01*
X11271Y914D01*
X11279Y895D01*
X11288Y876D01*
X11300Y859D01*
X11312Y843D01*
X11326Y827D01*
X10976Y830D01*
X10991Y845D01*
X11004Y861D01*
X11015Y879D01*
X11025Y897D01*
X11033Y916D01*
X11040Y937D01*
X11045Y959D01*
X11049Y981D01*
X11051Y1005D01*
X11052Y1030D01*
X11252Y1028D01*
D02*
G37*
G36*
X13890Y917D02*
X13892Y893D01*
X13896Y870D01*
X13901Y849D01*
X13908Y828D01*
X13916Y808D01*
X13926Y790D01*
X13937Y773D01*
X13950Y756D01*
X13964Y741D01*
X13614D01*
X13629Y756D01*
X13641Y773D01*
X13653Y790D01*
X13662Y808D01*
X13671Y828D01*
X13677Y849D01*
X13683Y870D01*
X13686Y893D01*
X13689Y917D01*
X13689Y942D01*
X13889D01*
X13890Y917D01*
D02*
G37*
G36*
X10203Y904D02*
X10205Y880D01*
X10209Y858D01*
X10214Y836D01*
X10221Y815D01*
X10229Y796D01*
X10239Y777D01*
X10250Y760D01*
X10263Y744D01*
X10277Y729D01*
X9927D01*
X9941Y744D01*
X9954Y760D01*
X9965Y777D01*
X9975Y796D01*
X9983Y815D01*
X9990Y836D01*
X9995Y858D01*
X9999Y880D01*
X10001Y904D01*
X10002Y929D01*
X10202D01*
X10203Y904D01*
D02*
G37*
G36*
X10361Y2859D02*
X10396Y2773D01*
X10452Y2700D01*
X10525Y2644D01*
X10611Y2609D01*
X10702Y2597D01*
X10793Y2609D01*
X10878Y2644D01*
X10903Y2663D01*
X10948Y2641D01*
Y997D01*
X10948Y994D01*
X10945Y979D01*
X10942Y965D01*
X10938Y952D01*
X10933Y941D01*
X10927Y931D01*
X10921Y921D01*
X10914Y912D01*
X10906Y904D01*
X10900Y900D01*
X10844Y827D01*
X10809Y741D01*
X10797Y650D01*
X10809Y559D01*
X10844Y473D01*
X10900Y400D01*
X10967Y349D01*
X10965Y325D01*
X10953Y299D01*
X10414D01*
X10389Y349D01*
X10408Y373D01*
X10443Y459D01*
X10455Y550D01*
X10443Y641D01*
X10408Y727D01*
X10352Y800D01*
X10346Y804D01*
X10340Y810D01*
X10333Y819D01*
X10327Y829D01*
X10321Y840D01*
X10316Y851D01*
X10312Y864D01*
X10309Y878D01*
X10306Y894D01*
X10306Y896D01*
Y2894D01*
X10356Y2897D01*
X10361Y2859D01*
D02*
G37*
G36*
X14545Y-276D02*
X14522Y-261D01*
X14494Y-247D01*
X14461Y-235D01*
X14423Y-225D01*
X14380Y-217D01*
X14278Y-204D01*
X14220Y-200D01*
X14087Y-197D01*
Y197D01*
X14156Y198D01*
X14331Y209D01*
X14380Y217D01*
X14461Y235D01*
X14494Y247D01*
X14522Y261D01*
X14545Y276D01*
Y-276D01*
D02*
G37*
G36*
X16261Y-315D02*
X16238Y-342D01*
X16218Y-370D01*
X16200Y-397D01*
X16186Y-425D01*
X16173Y-453D01*
X16164Y-482D01*
X16157Y-511D01*
X16153Y-540D01*
X16153Y-550D01*
X16153Y-560D01*
X16157Y-589D01*
X16164Y-618D01*
X16173Y-647D01*
X16186Y-675D01*
X16200Y-703D01*
X16218Y-730D01*
X16238Y-758D01*
X16261Y-785D01*
X16286Y-811D01*
X15818D01*
X15820Y-808D01*
X15822Y-806D01*
X15822Y-802D01*
X15821Y-798D01*
X15819Y-792D01*
X15816Y-786D01*
X15811Y-779D01*
X15804Y-771D01*
X15788Y-752D01*
X15778Y-742D01*
X15919Y-600D01*
X15939Y-620D01*
X15940Y-618D01*
X15947Y-589D01*
X15951Y-560D01*
X15951Y-550D01*
X15951Y-540D01*
X15947Y-511D01*
X15940Y-482D01*
X15930Y-453D01*
X15918Y-425D01*
X15904Y-397D01*
X15886Y-370D01*
X15866Y-342D01*
X15843Y-315D01*
X15818Y-289D01*
X16286D01*
X16261Y-315D01*
D02*
G37*
G36*
X11994Y-639D02*
X12010Y-652D01*
X12027Y-663D01*
X12046Y-673D01*
X12065Y-681D01*
X12086Y-688D01*
X12108Y-693D01*
X12130Y-697D01*
X12154Y-699D01*
X12179Y-700D01*
Y-900D01*
X12154Y-901D01*
X12130Y-903D01*
X12108Y-907D01*
X12086Y-912D01*
X12065Y-919D01*
X12046Y-927D01*
X12027Y-937D01*
X12010Y-948D01*
X11994Y-961D01*
X11979Y-975D01*
Y-625D01*
X11994Y-639D01*
D02*
G37*
G36*
X13523Y-709D02*
X14360D01*
X14386Y-750D01*
X14385Y-759D01*
X14367Y-852D01*
Y-1148D01*
X14367Y-1149D01*
X14324Y-1169D01*
X14283Y-1186D01*
X14159Y-1198D01*
X14150Y-1196D01*
X11856D01*
X11853Y-1146D01*
X11891Y-1141D01*
X11977Y-1106D01*
X12050Y-1050D01*
X12054Y-1044D01*
X12060Y-1038D01*
X12069Y-1031D01*
X12079Y-1025D01*
X12090Y-1019D01*
X12101Y-1014D01*
X12114Y-1010D01*
X12128Y-1007D01*
X12144Y-1004D01*
X12146Y-1004D01*
X12722D01*
X12724Y-1004D01*
X12876Y-989D01*
X13024Y-944D01*
X13127Y-889D01*
X13130Y-888D01*
X13138Y-883D01*
X13157Y-873D01*
X13161Y-871D01*
X13196Y-844D01*
X13232Y-814D01*
X13255Y-795D01*
X13296Y-766D01*
X13403Y-722D01*
X13515Y-707D01*
X13523Y-709D01*
D02*
G37*
G36*
X15150Y-1294D02*
X15115Y-1288D01*
X15076Y-1285D01*
X15033Y-1286D01*
X14986Y-1291D01*
X14934Y-1300D01*
X14819Y-1327D01*
X14756Y-1347D01*
X14616Y-1396D01*
X14306Y-1286D01*
X14365Y-1263D01*
X14454Y-1221D01*
X14484Y-1203D01*
X14506Y-1186D01*
X14518Y-1171D01*
X14520Y-1158D01*
X14514Y-1146D01*
X14498Y-1136D01*
X14473Y-1128D01*
X15150Y-1294D01*
D02*
G37*
G36*
X2207Y-661D02*
X2219Y-687D01*
X2239Y-711D01*
X2266Y-731D01*
X2302Y-748D01*
X2345Y-762D01*
X2396Y-773D01*
X2455Y-781D01*
X2522Y-786D01*
X2597Y-787D01*
Y-1181D01*
X2522Y-1183D01*
X2396Y-1195D01*
X2345Y-1206D01*
X2302Y-1220D01*
X2266Y-1237D01*
X2239Y-1258D01*
X2219Y-1281D01*
X2207Y-1308D01*
X2203Y-1337D01*
Y-631D01*
X2207Y-661D01*
D02*
G37*
G36*
X11196Y-1839D02*
X11212Y-1852D01*
X11229Y-1863D01*
X11248Y-1873D01*
X11267Y-1881D01*
X11288Y-1888D01*
X11310Y-1893D01*
X11332Y-1897D01*
X11356Y-1899D01*
X11381Y-1900D01*
Y-2100D01*
X11356Y-2101D01*
X11332Y-2103D01*
X11310Y-2107D01*
X11288Y-2112D01*
X11267Y-2119D01*
X11248Y-2127D01*
X11229Y-2137D01*
X11212Y-2148D01*
X11196Y-2161D01*
X11181Y-2175D01*
Y-1825D01*
X11196Y-1839D01*
D02*
G37*
G36*
X14484Y-2200D02*
X14481Y-2181D01*
X14475Y-2164D01*
X14465Y-2149D01*
X14450Y-2136D01*
X14431Y-2125D01*
X14407Y-2116D01*
X14380Y-2109D01*
X14348Y-2104D01*
X14312Y-2101D01*
X14272Y-2100D01*
Y-1900D01*
X14312Y-1899D01*
X14348Y-1896D01*
X14380Y-1891D01*
X14407Y-1884D01*
X14431Y-1875D01*
X14450Y-1864D01*
X14465Y-1851D01*
X14475Y-1836D01*
X14481Y-1819D01*
X14484Y-1800D01*
Y-2200D01*
D02*
G37*
G36*
X8882Y-2243D02*
X8885Y-2265D01*
X8891Y-2285D01*
X8899Y-2304D01*
X8909Y-2321D01*
X8922Y-2338D01*
X8936Y-2354D01*
X8952Y-2368D01*
X8971Y-2381D01*
X8991Y-2393D01*
X8851Y-2544D01*
X8828Y-2530D01*
X8783Y-2508D01*
X8761Y-2499D01*
X8740Y-2492D01*
X8719Y-2486D01*
X8699Y-2482D01*
X8680Y-2479D01*
X8661Y-2478D01*
X8642Y-2478D01*
X8880Y-2221D01*
X8882Y-2243D01*
D02*
G37*
G36*
X14688Y-2630D02*
X14879Y-2688D01*
X14934Y-2700D01*
X15033Y-2714D01*
X15076Y-2715D01*
X15115Y-2712D01*
X15150Y-2706D01*
X14473Y-2872D01*
X14498Y-2864D01*
X14514Y-2854D01*
X14520Y-2842D01*
X14518Y-2829D01*
X14506Y-2814D01*
X14484Y-2797D01*
X14454Y-2779D01*
X14414Y-2759D01*
X14306Y-2714D01*
X14616Y-2604D01*
X14688Y-2630D01*
D02*
G37*
G36*
X13673Y-3425D02*
X13658Y-3411D01*
X13642Y-3398D01*
X13625Y-3387D01*
X13606Y-3377D01*
X13587Y-3369D01*
X13566Y-3362D01*
X13544Y-3357D01*
X13522Y-3353D01*
X13498Y-3351D01*
X13473Y-3350D01*
Y-3150D01*
X13498Y-3149D01*
X13522Y-3147D01*
X13544Y-3143D01*
X13566Y-3138D01*
X13587Y-3131D01*
X13606Y-3123D01*
X13625Y-3113D01*
X13642Y-3102D01*
X13658Y-3089D01*
X13673Y-3075D01*
Y-3425D01*
D02*
G37*
G36*
X12144Y-3089D02*
X12160Y-3102D01*
X12177Y-3113D01*
X12196Y-3123D01*
X12215Y-3131D01*
X12236Y-3138D01*
X12258Y-3143D01*
X12280Y-3147D01*
X12304Y-3149D01*
X12329Y-3150D01*
Y-3350D01*
X12304Y-3351D01*
X12280Y-3353D01*
X12258Y-3357D01*
X12236Y-3362D01*
X12215Y-3369D01*
X12196Y-3377D01*
X12177Y-3387D01*
X12160Y-3398D01*
X12144Y-3411D01*
X12129Y-3425D01*
Y-3075D01*
X12144Y-3089D01*
D02*
G37*
G36*
X11351Y-3729D02*
X11358Y-3749D01*
X11368Y-3767D01*
X11379Y-3784D01*
X11392Y-3798D01*
X11407Y-3811D01*
X11424Y-3822D01*
X11444Y-3830D01*
X11465Y-3837D01*
X11488Y-3842D01*
X11367Y-4020D01*
X11340Y-4012D01*
X11265Y-3997D01*
X11243Y-3994D01*
X11201Y-3991D01*
X11182Y-3991D01*
X11165Y-3993D01*
X11148Y-3995D01*
X11346Y-3707D01*
X11351Y-3729D01*
D02*
G37*
G36*
X8251Y-3773D02*
X8253Y-3794D01*
X8258Y-3814D01*
X8264Y-3834D01*
X8272Y-3854D01*
X8281Y-3873D01*
X8293Y-3892D01*
X8306Y-3911D01*
X8322Y-3929D01*
X8339Y-3947D01*
X8197Y-4089D01*
X8179Y-4072D01*
X8161Y-4056D01*
X8142Y-4043D01*
X8123Y-4031D01*
X8104Y-4022D01*
X8084Y-4014D01*
X8064Y-4008D01*
X8044Y-4003D01*
X8023Y-4001D01*
X8002Y-4000D01*
X8250Y-3753D01*
X8251Y-3773D01*
D02*
G37*
G36*
X13673Y-4125D02*
X13658Y-4111D01*
X13642Y-4098D01*
X13625Y-4087D01*
X13606Y-4077D01*
X13587Y-4069D01*
X13566Y-4062D01*
X13544Y-4057D01*
X13522Y-4053D01*
X13498Y-4051D01*
X13473Y-4050D01*
Y-3850D01*
X13498Y-3849D01*
X13522Y-3847D01*
X13544Y-3843D01*
X13566Y-3838D01*
X13587Y-3831D01*
X13606Y-3823D01*
X13625Y-3813D01*
X13642Y-3802D01*
X13658Y-3789D01*
X13673Y-3775D01*
Y-4125D01*
D02*
G37*
G36*
X16049Y-4385D02*
X16037Y-4386D01*
X16024Y-4390D01*
X16009Y-4397D01*
X15993Y-4406D01*
X15975Y-4419D01*
X15955Y-4434D01*
X15910Y-4473D01*
X15858Y-4523D01*
X15579Y-4244D01*
X15606Y-4217D01*
X15683Y-4127D01*
X15696Y-4109D01*
X15705Y-4093D01*
X15712Y-4078D01*
X15716Y-4065D01*
X15717Y-4053D01*
X16049Y-4385D01*
D02*
G37*
G36*
X7203Y-4573D02*
X7211Y-4667D01*
X7215Y-4694D01*
X7221Y-4719D01*
X7228Y-4741D01*
X7236Y-4760D01*
X7245Y-4778D01*
X7256Y-4793D01*
X6948D01*
X6958Y-4778D01*
X6968Y-4760D01*
X6976Y-4741D01*
X6983Y-4719D01*
X6989Y-4694D01*
X6993Y-4667D01*
X7000Y-4607D01*
X7001Y-4573D01*
X7002Y-4537D01*
X7202D01*
X7203Y-4573D01*
D02*
G37*
G36*
X6947Y-4899D02*
X6979Y-4900D01*
Y-5100D01*
X6947Y-5101D01*
Y-5200D01*
X6944Y-5181D01*
X6938Y-5164D01*
X6927Y-5149D01*
X6911Y-5136D01*
X6891Y-5125D01*
X6867Y-5116D01*
X6852Y-5112D01*
X6837Y-5116D01*
X6813Y-5125D01*
X6793Y-5136D01*
X6777Y-5149D01*
X6766Y-5164D01*
X6760Y-5181D01*
X6757Y-5200D01*
Y-5101D01*
X6724Y-5100D01*
Y-4900D01*
X6757Y-4899D01*
Y-4800D01*
X6760Y-4819D01*
X6766Y-4836D01*
X6777Y-4851D01*
X6793Y-4864D01*
X6813Y-4875D01*
X6837Y-4884D01*
X6852Y-4888D01*
X6867Y-4884D01*
X6891Y-4875D01*
X6911Y-4864D01*
X6927Y-4851D01*
X6938Y-4836D01*
X6944Y-4819D01*
X6947Y-4800D01*
Y-4899D01*
D02*
G37*
G36*
X13372Y-4714D02*
X13401Y-4734D01*
X13439Y-4763D01*
X13477Y-4794D01*
X13588Y-4886D01*
X13677Y-4933D01*
X13664Y-4983D01*
X13102D01*
X13083Y-4987D01*
X13070Y-4985D01*
X12972Y-4998D01*
X12880Y-5036D01*
X12801Y-5097D01*
X12741Y-5175D01*
X12703Y-5267D01*
X12700Y-5291D01*
X12692Y-5338D01*
X12692Y-5338D01*
X12664Y-5376D01*
X12649Y-5382D01*
X12645Y-5381D01*
X12297D01*
X12280Y-5331D01*
X12300Y-5316D01*
X12344Y-5258D01*
X12372Y-5190D01*
X12382Y-5118D01*
Y-4882D01*
X12372Y-4810D01*
X12347Y-4749D01*
X12367Y-4699D01*
X13290D01*
X13295Y-4699D01*
X13372Y-4714D01*
D02*
G37*
G36*
X8325Y-3506D02*
X8411Y-3541D01*
X8421Y-3542D01*
X9297Y-4419D01*
X9297Y-4419D01*
X9296Y-4420D01*
X9441Y-4540D01*
X9607Y-4628D01*
X9787Y-4683D01*
X9975Y-4701D01*
Y-4699D01*
X10837D01*
X10857Y-4749D01*
X10832Y-4810D01*
X10822Y-4882D01*
Y-5118D01*
X10832Y-5190D01*
X10860Y-5258D01*
X10904Y-5316D01*
X10924Y-5331D01*
X10907Y-5381D01*
X8797Y-5381D01*
X8780Y-5331D01*
X8800Y-5316D01*
X8844Y-5258D01*
X8872Y-5190D01*
X8882Y-5118D01*
Y-4882D01*
X8872Y-4810D01*
X8844Y-4742D01*
X8800Y-4684D01*
X8799Y-4684D01*
X8797Y-4653D01*
X8798Y-4645D01*
X8795Y-4625D01*
X8791Y-4578D01*
X8747Y-4394D01*
X8674Y-4220D01*
X8576Y-4059D01*
X8454Y-3916D01*
X8453Y-3915D01*
X8453Y-3915D01*
X8453Y-3915D01*
X8389Y-3851D01*
X8387Y-3849D01*
X8378Y-3836D01*
X8371Y-3823D01*
X8365Y-3811D01*
X8360Y-3800D01*
X8356Y-3788D01*
X8354Y-3777D01*
X8352Y-3765D01*
X8352Y-3757D01*
X8353Y-3750D01*
X8341Y-3659D01*
X8306Y-3573D01*
X8269Y-3525D01*
X8304Y-3489D01*
X8325Y-3506D01*
D02*
G37*
%LPC*%
G36*
X16052Y4388D02*
X15939Y4373D01*
X15833Y4330D01*
X15742Y4260D01*
X15672Y4169D01*
X15629Y4063D01*
X15614Y3950D01*
X15629Y3837D01*
X15672Y3731D01*
X15742Y3640D01*
X15833Y3570D01*
X15939Y3527D01*
X16052Y3512D01*
X16165Y3527D01*
X16271Y3570D01*
X16362Y3640D01*
X16432Y3731D01*
X16475Y3837D01*
X16490Y3950D01*
X16475Y4063D01*
X16432Y4169D01*
X16362Y4260D01*
X16271Y4330D01*
X16165Y4373D01*
X16052Y4388D01*
D02*
G37*
G36*
Y3388D02*
X15939Y3373D01*
X15833Y3330D01*
X15742Y3260D01*
X15672Y3169D01*
X15629Y3063D01*
X15614Y2950D01*
X15629Y2837D01*
X15672Y2731D01*
X15742Y2640D01*
X15833Y2570D01*
X15939Y2527D01*
X16052Y2512D01*
X16165Y2527D01*
X16271Y2570D01*
X16362Y2640D01*
X16432Y2731D01*
X16475Y2837D01*
X16490Y2950D01*
X16475Y3063D01*
X16432Y3169D01*
X16362Y3260D01*
X16271Y3330D01*
X16165Y3373D01*
X16052Y3388D01*
D02*
G37*
G36*
Y2388D02*
X15939Y2373D01*
X15833Y2330D01*
X15742Y2260D01*
X15672Y2169D01*
X15629Y2063D01*
X15614Y1950D01*
X15629Y1837D01*
X15672Y1731D01*
X15742Y1640D01*
X15833Y1570D01*
X15939Y1527D01*
X16052Y1512D01*
X16165Y1527D01*
X16271Y1570D01*
X16362Y1640D01*
X16432Y1731D01*
X16475Y1837D01*
X16490Y1950D01*
X16475Y2063D01*
X16432Y2169D01*
X16362Y2260D01*
X16271Y2330D01*
X16165Y2373D01*
X16052Y2388D01*
D02*
G37*
G36*
Y1388D02*
X15939Y1373D01*
X15833Y1330D01*
X15742Y1260D01*
X15672Y1169D01*
X15629Y1063D01*
X15614Y950D01*
X15629Y837D01*
X15672Y731D01*
X15742Y640D01*
X15833Y570D01*
X15939Y527D01*
X16052Y512D01*
X16165Y527D01*
X16271Y570D01*
X16362Y640D01*
X16432Y731D01*
X16475Y837D01*
X16490Y950D01*
X16475Y1063D01*
X16432Y1169D01*
X16362Y1260D01*
X16271Y1330D01*
X16165Y1373D01*
X16052Y1388D01*
D02*
G37*
G36*
Y-2612D02*
X15939Y-2627D01*
X15833Y-2670D01*
X15742Y-2740D01*
X15672Y-2831D01*
X15629Y-2937D01*
X15614Y-3050D01*
X15629Y-3163D01*
X15672Y-3269D01*
X15742Y-3360D01*
X15833Y-3430D01*
X15939Y-3473D01*
X16052Y-3488D01*
X16165Y-3473D01*
X16271Y-3430D01*
X16362Y-3360D01*
X16432Y-3269D01*
X16475Y-3163D01*
X16490Y-3050D01*
X16475Y-2937D01*
X16432Y-2831D01*
X16362Y-2740D01*
X16271Y-2670D01*
X16165Y-2627D01*
X16052Y-2612D01*
D02*
G37*
G36*
X1702Y3843D02*
X1586Y3832D01*
X1474Y3798D01*
X1371Y3743D01*
X1281Y3669D01*
X1207Y3579D01*
X1152Y3476D01*
X1118Y3364D01*
X1107Y3248D01*
X1118Y3132D01*
X1152Y3020D01*
X1207Y2917D01*
X1281Y2827D01*
X1371Y2753D01*
X1474Y2698D01*
X1586Y2664D01*
X1702Y2653D01*
X1818Y2664D01*
X1930Y2698D01*
X2033Y2753D01*
X2102Y2810D01*
X2106Y2813D01*
X2134Y2837D01*
X2160Y2856D01*
X2188Y2873D01*
X2217Y2887D01*
X2249Y2900D01*
X2282Y2910D01*
X2318Y2919D01*
X2356Y2925D01*
X2396Y2928D01*
X2420Y2929D01*
X3343D01*
Y2848D01*
X3362Y2752D01*
X3417Y2670D01*
X3499Y2615D01*
X3596Y2596D01*
X4285D01*
X4381Y2615D01*
X4463Y2670D01*
X4518Y2752D01*
X4537Y2848D01*
Y3144D01*
X4518Y3240D01*
X4463Y3322D01*
X4381Y3377D01*
X4285Y3396D01*
X3897D01*
X3876Y3409D01*
X3717Y3475D01*
X3550Y3515D01*
X3379Y3529D01*
Y3528D01*
X2439D01*
X2414Y3529D01*
X2374Y3532D01*
X2337Y3539D01*
X2303Y3547D01*
X2271Y3558D01*
X2241Y3572D01*
X2214Y3587D01*
X2189Y3604D01*
X2165Y3624D01*
X2139Y3650D01*
X2137Y3652D01*
X2123Y3669D01*
X2033Y3743D01*
X1930Y3798D01*
X1818Y3832D01*
X1702Y3843D01*
D02*
G37*
G36*
X1850Y1443D02*
X1731Y1427D01*
X1621Y1381D01*
X1526Y1308D01*
X1510Y1287D01*
X1507Y1285D01*
X1483Y1259D01*
X1460Y1237D01*
X1438Y1219D01*
X1417Y1204D01*
X1395Y1191D01*
X1375Y1181D01*
X1354Y1174D01*
X1334Y1169D01*
X1318Y1167D01*
X1127D01*
X1115Y1167D01*
X1093Y1171D01*
X1077Y1174D01*
Y1250D01*
X980D01*
X976Y1250D01*
X972Y1250D01*
X523D01*
Y676D01*
X972D01*
X976Y675D01*
X980Y676D01*
X1077D01*
Y751D01*
X1093Y755D01*
X1115Y758D01*
X1127Y759D01*
X1332D01*
X1347Y757D01*
X1369Y752D01*
X1391Y744D01*
X1415Y734D01*
X1439Y722D01*
X1464Y707D01*
X1490Y690D01*
X1517Y669D01*
X1524Y663D01*
X1526Y660D01*
X1537Y652D01*
X1546Y644D01*
X1550Y642D01*
X1621Y587D01*
X1731Y542D01*
X1850Y526D01*
X1969Y542D01*
X2079Y587D01*
X2174Y660D01*
X2247Y755D01*
X2293Y866D01*
X2308Y984D01*
X2293Y1103D01*
X2247Y1213D01*
X2174Y1308D01*
X2079Y1381D01*
X1969Y1427D01*
X1850Y1443D01*
D02*
G37*
G36*
X2900Y903D02*
X2809Y891D01*
X2723Y856D01*
X2650Y800D01*
X2594Y727D01*
X2559Y641D01*
X2547Y550D01*
X2559Y459D01*
X2594Y373D01*
X2605Y359D01*
X2606Y356D01*
X2615Y342D01*
X2622Y329D01*
X2628Y317D01*
X2633Y303D01*
X2637Y288D01*
X2641Y273D01*
X2644Y258D01*
X2644Y254D01*
X2610Y204D01*
X2240D01*
X2220Y200D01*
X2040D01*
X2010Y200D01*
X1960Y200D01*
X1780D01*
X1760Y204D01*
X1505D01*
X1490Y205D01*
X1469Y209D01*
X1454Y213D01*
X1451Y214D01*
Y324D01*
X897D01*
Y-250D01*
X1346D01*
X1350Y-250D01*
X1354Y-250D01*
X1451D01*
Y-208D01*
X1498Y-204D01*
X1760D01*
X1780Y-200D01*
X1960D01*
X1990Y-200D01*
X2040Y-200D01*
X2220D01*
X2240Y-204D01*
X2850D01*
X2870Y-200D01*
X3080D01*
Y95D01*
X3081Y99D01*
X3080Y101D01*
X3081Y103D01*
X3080Y106D01*
Y200D01*
X3080D01*
X3083Y249D01*
X3084Y249D01*
X3096Y258D01*
X3100Y262D01*
X3150Y300D01*
X3206Y373D01*
X3241Y459D01*
X3253Y550D01*
X3241Y641D01*
X3206Y727D01*
X3150Y800D01*
X3077Y856D01*
X2991Y891D01*
X2900Y903D01*
D02*
G37*
G36*
X1702Y-2653D02*
X1586Y-2664D01*
X1474Y-2698D01*
X1371Y-2753D01*
X1281Y-2827D01*
X1207Y-2917D01*
X1152Y-3020D01*
X1118Y-3132D01*
X1107Y-3248D01*
X1118Y-3364D01*
X1152Y-3476D01*
X1207Y-3579D01*
X1281Y-3669D01*
X1371Y-3743D01*
X1474Y-3798D01*
X1586Y-3832D01*
X1702Y-3843D01*
X1818Y-3832D01*
X1930Y-3798D01*
X2033Y-3743D01*
X2123Y-3669D01*
X2197Y-3579D01*
X2252Y-3476D01*
X2286Y-3364D01*
X2297Y-3248D01*
X2286Y-3132D01*
X2252Y-3020D01*
X2197Y-2917D01*
X2123Y-2827D01*
X2033Y-2753D01*
X1930Y-2698D01*
X1818Y-2664D01*
X1702Y-2653D01*
D02*
G37*
%LPD*%
G36*
X2096Y3549D02*
X2127Y3523D01*
X2160Y3500D01*
X2196Y3480D01*
X2233Y3463D01*
X2274Y3450D01*
X2316Y3439D01*
X2360Y3431D01*
X2407Y3427D01*
X2456Y3425D01*
X2439Y3031D01*
X2390Y3030D01*
X2343Y3026D01*
X2298Y3019D01*
X2256Y3009D01*
X2215Y2996D01*
X2176Y2980D01*
X2139Y2962D01*
X2104Y2941D01*
X2070Y2917D01*
X2039Y2890D01*
X2067Y3578D01*
X2096Y3549D01*
D02*
G37*
G36*
X978Y1132D02*
X984Y1118D01*
X994Y1105D01*
X1008Y1093D01*
X1026Y1084D01*
X1048Y1076D01*
X1074Y1070D01*
X1104Y1066D01*
X1138Y1063D01*
X1176Y1063D01*
Y863D01*
X1138Y862D01*
X1104Y859D01*
X1074Y855D01*
X1048Y849D01*
X1026Y841D01*
X1008Y832D01*
X994Y821D01*
X984Y808D01*
X978Y793D01*
X976Y777D01*
Y1148D01*
X978Y1132D01*
D02*
G37*
G36*
X1613Y721D02*
X1581Y748D01*
X1550Y772D01*
X1519Y793D01*
X1488Y812D01*
X1457Y827D01*
X1427Y840D01*
X1396Y850D01*
X1365Y857D01*
X1335Y861D01*
X1305Y863D01*
X1292Y1063D01*
X1323Y1064D01*
X1354Y1069D01*
X1384Y1076D01*
X1414Y1087D01*
X1443Y1101D01*
X1472Y1118D01*
X1500Y1138D01*
X1528Y1161D01*
X1555Y1187D01*
X1582Y1216D01*
X1613Y721D01*
D02*
G37*
G36*
X3036Y340D02*
X3019Y328D01*
X3005Y315D01*
X2992Y300D01*
X2981Y284D01*
X2971Y266D01*
X2964Y247D01*
X2958Y226D01*
X2954Y205D01*
X2957Y149D01*
X2960Y131D01*
X2964Y117D01*
X2968Y107D01*
X2973Y101D01*
X2979Y99D01*
X2721D01*
X2727Y101D01*
X2732Y107D01*
X2736Y117D01*
X2740Y131D01*
X2743Y149D01*
X2745Y171D01*
X2749Y227D01*
X2749Y230D01*
X2745Y272D01*
X2741Y294D01*
X2736Y315D01*
X2729Y336D01*
X2722Y356D01*
X2713Y375D01*
X2704Y393D01*
X2693Y410D01*
X3036Y340D01*
D02*
G37*
G36*
X1351Y181D02*
X1357Y164D01*
X1367Y149D01*
X1381Y136D01*
X1399Y125D01*
X1421Y116D01*
X1448Y109D01*
X1478Y104D01*
X1512Y101D01*
X1550Y100D01*
Y-100D01*
X1512Y-100D01*
X1422Y-108D01*
X1400Y-112D01*
X1382Y-117D01*
X1368Y-124D01*
X1358Y-131D01*
X1352Y-139D01*
X1350Y-148D01*
X1349Y200D01*
X1351Y181D01*
D02*
G37*
D13*
X3330Y0D02*
D03*
X2850D02*
D03*
X2240D02*
D03*
X1760D02*
D03*
D15*
X3940Y-2500D02*
D03*
Y-3500D02*
D03*
X14964Y-4000D02*
D03*
Y-3000D02*
D03*
Y-2000D02*
D03*
Y-1000D02*
D03*
Y0D02*
D03*
Y1000D02*
D03*
Y2000D02*
D03*
Y3000D02*
D03*
Y4000D02*
D03*
X3940D02*
D03*
Y2996D02*
D03*
Y1996D02*
D03*
D24*
X13523Y-505D02*
G03*
X13136Y-629I0J-667D01*
G01*
X15848Y-671D02*
G03*
X15446Y-505I-402J-402D01*
G01*
X12054Y4548D02*
G03*
X12102Y4665I-117J117D01*
G01*
X13136Y-629D02*
G03*
X13057Y-695I387J-543D01*
G01*
X13057Y-695D02*
G03*
X13136Y-629I-335J480D01*
G01*
X16052Y-1050D02*
G03*
X15928Y-751I-423J0D01*
G01*
X12722Y-800D02*
G03*
X13057Y-695I0J585D01*
G01*
X13057Y-695D02*
G03*
X13052Y-700I466J-476D01*
G01*
X11696Y4400D02*
G03*
X12054Y4548I0J506D01*
G01*
X11696Y4400D02*
G03*
X11323Y4246I0J-527D01*
G01*
X11277Y4199D02*
G03*
X11152Y3898I301J-301D01*
G01*
X11156Y-3800D02*
G03*
X11583Y-3950I427J533D01*
G01*
X11100Y-3750D02*
G03*
X11156Y-3800I483J483D01*
G01*
X8716Y-1400D02*
G03*
X8009Y-1693I0J-1000D01*
G01*
X7395Y-2307D02*
G03*
X7102Y-3014I707J-707D01*
G01*
X8595Y-4645D02*
G03*
X8309Y-4059I-993J-122D01*
G01*
X8602Y-4766D02*
G03*
X8595Y-4645I-1000J0D01*
G01*
X9309Y4209D02*
G03*
X9602Y4916I-707J707D01*
G01*
X8901Y3801D02*
G03*
X8608Y3094I707J-707D01*
G01*
X10395Y4495D02*
G03*
X10102Y3788I707J-707D01*
G01*
X10400Y4500D02*
G03*
X10602Y4988I-488J488D01*
G01*
X8709Y-2307D02*
G03*
X9416Y-2600I707J707D01*
G01*
X14857Y-2893D02*
G03*
X14150Y-2600I-707J-707D01*
G01*
X1798Y963D02*
G03*
X1850Y984I0J74D01*
G01*
X2900Y550D02*
G03*
X2850Y429I121J-121D01*
G01*
X1174Y37D02*
G03*
X1264Y0I90J90D01*
G01*
X14152Y2000D02*
G03*
X13896Y1894I0J-362D01*
G01*
X13896Y1894D02*
G03*
X13789Y1636I258J-258D01*
G01*
X14172Y3000D02*
G03*
X13465Y2707I0J-1000D01*
G01*
X13283Y2525D02*
G03*
X13052Y1886I769J-639D01*
G01*
X14516Y4000D02*
G03*
X13809Y3707I0J-1000D01*
G01*
X12620Y2518D02*
G03*
X12327Y1811I707J-707D01*
G01*
X14150Y-1400D02*
G03*
X14857Y-1107I0J1000D01*
G01*
X13523Y-505D02*
X15446D01*
X16052Y-1050D02*
Y-50D01*
X11277Y4199D02*
X11277Y4199D01*
X11152Y652D02*
Y3898D01*
X11800Y-800D02*
X12722D01*
X14150Y-1400D02*
X14150D01*
X8716D02*
X14150D01*
X11150Y650D02*
X11152Y652D01*
X11583Y-3950D02*
X13852D01*
X11277Y4199D02*
X11323Y4246D01*
X10702Y2950D02*
Y3948D01*
X12102Y4665D02*
Y5000D01*
X11950Y-3250D02*
X13852D01*
X7395Y-2307D02*
X8009Y-1693D01*
X7102Y-5000D02*
Y-3014D01*
X6602Y-5000D02*
X7102D01*
X8602D02*
Y-4766D01*
X8000Y-3750D02*
X8309Y-4059D01*
X8102Y5000D02*
X8602D01*
X8901Y3801D02*
X9309Y4209D01*
X8608Y2694D02*
Y3094D01*
X9602Y4916D02*
Y5000D01*
X9102D02*
X9602D01*
X10102Y550D02*
Y3788D01*
X10395Y4495D02*
X10400Y4500D01*
X8602Y2700D02*
X8608Y2694D01*
X10602Y4988D02*
Y5000D01*
X11102D02*
X11602D01*
X11702Y2450D02*
Y3898D01*
X11701Y3899D02*
X11702Y3898D01*
X14857Y-2893D02*
X14964Y-3000D01*
X9416Y-2600D02*
X14150D01*
X8630Y-2228D02*
X8709Y-2307D01*
X14864Y-2000D02*
X14914Y-2050D01*
X15848Y-671D02*
X15928Y-751D01*
X800Y963D02*
X1798D01*
X2850Y0D02*
Y429D01*
X1264Y0D02*
X1760D01*
X2240D02*
X2850D01*
X13789Y562D02*
Y1636D01*
X14152Y2000D02*
X14964D01*
X14172Y3000D02*
X14964D01*
X13283Y2525D02*
X13465Y2707D01*
X12620Y2518D02*
X13809Y3707D01*
X13052Y1886D02*
Y1886D01*
Y700D02*
Y1886D01*
X12327Y750D02*
Y1811D01*
X14516Y4000D02*
X14964D01*
X14857Y-1107D02*
X14964Y-1000D01*
X11002Y-2000D02*
X14864D01*
X14914Y-2050D02*
X14964Y-2000D01*
D25*
X13652Y-4550D02*
G03*
X13290Y-4400I-362J-362D01*
G01*
X9509Y-4207D02*
G03*
X9975Y-4400I466J466D01*
G01*
X13652Y-4550D02*
G03*
X14135Y-4750I483J483D01*
G01*
X14938D02*
G03*
X15645Y-4457I0J1000D01*
G01*
X4764Y0D02*
G03*
X4057Y-293I0J-1000D01*
G01*
X2952Y-984D02*
G03*
X3659Y-691I0J1000D01*
G01*
X3940Y2996D02*
G03*
X3379Y3228I-561J-561D01*
G01*
X7150Y0D02*
X14964D01*
X7100Y-50D02*
X7150Y0D01*
X9975Y-4400D02*
X13290D01*
X8502Y-3200D02*
X9509Y-4207D01*
X7050Y0D02*
X7100Y-50D01*
X4764Y0D02*
X7050D01*
X15645Y-4457D02*
X16052Y-4050D01*
X14135Y-4750D02*
X14938D01*
X7102Y5000D02*
X7602D01*
X6602D02*
X7102D01*
X3659Y-691D02*
X4057Y-293D01*
X1850Y-984D02*
X2952D01*
X1702Y3228D02*
X3379D01*
D26*
X12102Y5000D02*
D03*
X11602D02*
D03*
X11102D02*
D03*
X10602D02*
D03*
X10102D02*
D03*
X9602D02*
D03*
X9102D02*
D03*
X8602D02*
D03*
X8102D02*
D03*
X7602D02*
D03*
X7102D02*
D03*
X6602D02*
D03*
X12102Y-5000D02*
D03*
X11602D02*
D03*
X11102D02*
D03*
X10602D02*
D03*
X10102D02*
D03*
X9602D02*
D03*
X9102D02*
D03*
X8602D02*
D03*
X8102D02*
D03*
X7602D02*
D03*
X7102D02*
D03*
X6602D02*
D03*
D27*
X718Y-2264D02*
D03*
X2686D02*
D03*
Y-4232D02*
D03*
X718D02*
D03*
X1702Y-3248D02*
D03*
Y3248D02*
D03*
X718Y2264D02*
D03*
X2686D02*
D03*
Y4232D02*
D03*
X718D02*
D03*
D28*
X1850Y-984D02*
D03*
D29*
Y984D02*
D03*
D30*
X16052Y3950D02*
D03*
Y2950D02*
D03*
Y1950D02*
D03*
Y-4050D02*
D03*
Y-3050D02*
D03*
Y-2050D02*
D03*
Y-1050D02*
D03*
Y-50D02*
D03*
Y950D02*
D03*
D31*
X5102Y-3250D02*
D03*
X5600Y-3450D02*
D03*
X6452Y-4050D02*
D03*
X6002Y-650D02*
D03*
X12252Y2650D02*
D03*
X11602Y1600D02*
D03*
X11952Y1700D02*
D03*
X10650Y500D02*
D03*
X9050Y-450D02*
D03*
X9000Y500D02*
D03*
X5950Y4100D02*
D03*
X9852Y-3850D02*
D03*
X9052Y-2950D02*
D03*
Y-1850D02*
D03*
X7800Y500D02*
D03*
X10500Y1600D02*
D03*
X10552Y900D02*
D03*
X16452Y-3550D02*
D03*
Y-2500D02*
D03*
Y-1600D02*
D03*
Y450D02*
D03*
Y1450D02*
D03*
Y2450D02*
D03*
Y3450D02*
D03*
X450Y-3200D02*
D03*
X1750Y-4700D02*
D03*
X3450Y-4750D02*
D03*
X5050Y-3900D02*
D03*
X900Y-1500D02*
D03*
X2650Y-500D02*
D03*
Y1200D02*
D03*
X500Y1500D02*
D03*
X7600Y2350D02*
D03*
X9000Y-4400D02*
D03*
X5152Y-1950D02*
D03*
X10200Y-3000D02*
D03*
X10802Y-700D02*
D03*
X5746Y-4701D02*
D03*
X4600Y-4800D02*
D03*
X5700Y-4050D02*
D03*
X6200Y-3000D02*
D03*
X5500Y-2600D02*
D03*
X6600Y-600D02*
D03*
X5550Y600D02*
D03*
X6450Y1250D02*
D03*
X6250Y2100D02*
D03*
X4950Y1900D02*
D03*
X5500Y3000D02*
D03*
X7850Y3250D02*
D03*
X3700Y4650D02*
D03*
X1650Y4750D02*
D03*
X1665Y4212D02*
D03*
X550Y3350D02*
D03*
X12902Y4700D02*
D03*
X13502D02*
D03*
X14202D02*
D03*
X15052D02*
D03*
X15802D02*
D03*
X13402Y4150D02*
D03*
X12500Y3850D02*
D03*
X12900Y4200D02*
D03*
X11502Y1950D02*
D03*
X10750Y2150D02*
D03*
X9402Y2700D02*
D03*
X9250Y1500D02*
D03*
X10050Y-1850D02*
D03*
Y-3400D02*
D03*
X12550Y-5200D02*
D03*
X5650Y1900D02*
D03*
X6500Y-1300D02*
D03*
X7950Y-900D02*
D03*
X8050Y1900D02*
D03*
X6200Y2800D02*
D03*
X7950Y1400D02*
D03*
X6000Y3450D02*
D03*
X8152Y3800D02*
D03*
X4852Y1050D02*
D03*
X5002Y2750D02*
D03*
Y3900D02*
D03*
X552Y2850D02*
D03*
X1602Y1900D02*
D03*
X3502Y1300D02*
D03*
X750Y-1000D02*
D03*
X1700Y-2250D02*
D03*
X1900Y-1700D02*
D03*
X1800Y-4250D02*
D03*
X4100Y-4750D02*
D03*
X3950Y-1300D02*
D03*
X4402Y-1050D02*
D03*
X1150Y1500D02*
D03*
X1100Y-650D02*
D03*
X3200Y-1600D02*
D03*
X2450Y-1500D02*
D03*
X350Y-1300D02*
D03*
X1150Y-1150D02*
D03*
X4950Y-2600D02*
D03*
X6150Y-3500D02*
D03*
X7550Y-4250D02*
D03*
X10450Y-3850D02*
D03*
X11250Y-1000D02*
D03*
X9500Y2050D02*
D03*
X13050Y3800D02*
D03*
X13900Y4250D02*
D03*
X14200Y2600D02*
D03*
Y-1000D02*
D03*
X9050Y1000D02*
D03*
X6350Y600D02*
D03*
X5700Y1200D02*
D03*
X7800Y4150D02*
D03*
X6450Y3950D02*
D03*
X5450Y3650D02*
D03*
X7700Y-1400D02*
D03*
X8250Y-500D02*
D03*
X12850Y-4850D02*
D03*
D32*
X11800Y-800D02*
D03*
X11150Y650D02*
D03*
X11100Y-3750D02*
D03*
X10702Y3948D02*
D03*
X7100Y-50D02*
D03*
X11950Y-3250D02*
D03*
X8000Y-3750D02*
D03*
X8608Y2694D02*
D03*
X11701Y3899D02*
D03*
X10702Y2950D02*
D03*
X2900Y550D02*
D03*
X14964Y0D02*
D03*
X11702Y2450D02*
D03*
X8502Y-3200D02*
D03*
X10102Y550D02*
D03*
X13052Y700D02*
D03*
X12327Y750D02*
D03*
X13789Y562D02*
D03*
X8630Y-2228D02*
D03*
X13852Y-3250D02*
D03*
Y-3950D02*
D03*
X11002Y-2000D02*
D03*
D33*
X13896Y1894D02*
D03*
D34*
X1174Y37D02*
D03*
X800Y963D02*
D03*
D35*
X426Y37D02*
D03*
M02*
